<svg width="134" height="23" viewBox="0 0 134 23" fill="none" xmlns="http://www.w3.org/2000/svg">
<path d="M5.88333 22.4445C5.05 22.4445 4.2 22.2556 3.40555 21.8611C0.66111 20.4889 -0.450001 17.15 0.922221 14.4056C1.21111 13.8222 8.24444 0.222229 28.1111 0.222229C47.9833 0.222229 55.0111 13.8278 55.3 14.4056C56.6722 17.15 55.5556 20.4889 52.8167 21.8611C50.0889 23.2333 46.7889 22.1333 45.3944 19.4389C45.15 18.9889 40.7778 11.3333 28.1111 11.3333C15.2389 11.3333 10.8944 19.2945 10.8556 19.3722C9.88333 21.3222 7.92222 22.4445 5.88333 22.4445ZM128.111 22.4445C128.944 22.4445 129.794 22.2556 130.589 21.8611C133.333 20.4889 134.444 17.15 133.072 14.4056C132.783 13.8222 125.75 0.222229 105.883 0.222229C86.0111 0.222229 78.9833 13.8278 78.6944 14.4056C77.3222 17.15 78.4389 20.4889 81.1778 21.8611C83.9056 23.2333 87.2056 22.1333 88.6 19.4389C88.8444 18.9889 93.2167 11.3333 105.883 11.3333C118.756 11.3333 123.1 19.2945 123.139 19.3722C124.111 21.3222 126.072 22.4445 128.111 22.4445Z" fill="#664500"/>
<path d="M5.88333 22.4445C5.05 22.4445 4.2 22.2556 3.40555 21.8611C0.66111 20.4889 -0.450001 17.15 0.922221 14.4056C1.21111 13.8222 8.24444 0.222229 28.1111 0.222229C47.9833 0.222229 55.0111 13.8278 55.3 14.4056C56.6722 17.15 55.5556 20.4889 52.8167 21.8611C50.0889 23.2333 46.7889 22.1333 45.3944 19.4389C45.15 18.9889 40.7778 11.3333 28.1111 11.3333C15.2389 11.3333 10.8944 19.2945 10.8556 19.3722C9.88333 21.3222 7.92222 22.4445 5.88333 22.4445ZM128.111 22.4445C128.944 22.4445 129.794 22.2556 130.589 21.8611C133.333 20.4889 134.444 17.15 133.072 14.4056C132.783 13.8222 125.75 0.222229 105.883 0.222229C86.0111 0.222229 78.9833 13.8278 78.6944 14.4056C77.3222 17.15 78.4389 20.4889 81.1778 21.8611C83.9056 23.2333 87.2056 22.1333 88.6 19.4389C88.8444 18.9889 93.2167 11.3333 105.883 11.3333C118.756 11.3333 123.1 19.2945 123.139 19.3722C124.111 21.3222 126.072 22.4445 128.111 22.4445Z" fill="#664500"/>
<path d="M5.88333 22.4445C5.05 22.4445 4.2 22.2556 3.40555 21.8611C0.66111 20.4889 -0.450001 17.15 0.922221 14.4056C1.21111 13.8222 8.24444 0.222229 28.1111 0.222229C47.9833 0.222229 55.0111 13.8278 55.3 14.4056C56.6722 17.15 55.5556 20.4889 52.8167 21.8611C50.0889 23.2333 46.7889 22.1333 45.3944 19.4389C45.15 18.9889 40.7778 11.3333 28.1111 11.3333C15.2389 11.3333 10.8944 19.2945 10.8556 19.3722C9.88333 21.3222 7.92222 22.4445 5.88333 22.4445ZM128.111 22.4445C128.944 22.4445 129.794 22.2556 130.589 21.8611C133.333 20.4889 134.444 17.15 133.072 14.4056C132.783 13.8222 125.75 0.222229 105.883 0.222229C86.0111 0.222229 78.9833 13.8278 78.6944 14.4056C77.3222 17.15 78.4389 20.4889 81.1778 21.8611C83.9056 23.2333 87.2056 22.1333 88.6 19.4389C88.8444 18.9889 93.2167 11.3333 105.883 11.3333C118.756 11.3333 123.1 19.2945 123.139 19.3722C124.111 21.3222 126.072 22.4445 128.111 22.4445Z" fill="#664500"/>
<path d="M5.88333 22.4445C5.05 22.4445 4.2 22.2556 3.40555 21.8611C0.66111 20.4889 -0.450001 17.15 0.922221 14.4056C1.21111 13.8222 8.24444 0.222229 28.1111 0.222229C47.9833 0.222229 55.0111 13.8278 55.3 14.4056C56.6722 17.15 55.5556 20.4889 52.8167 21.8611C50.0889 23.2333 46.7889 22.1333 45.3944 19.4389C45.15 18.9889 40.7778 11.3333 28.1111 11.3333C15.2389 11.3333 10.8944 19.2945 10.8556 19.3722C9.88333 21.3222 7.92222 22.4445 5.88333 22.4445ZM128.111 22.4445C128.944 22.4445 129.794 22.2556 130.589 21.8611C133.333 20.4889 134.444 17.15 133.072 14.4056C132.783 13.8222 125.75 0.222229 105.883 0.222229C86.0111 0.222229 78.9833 13.8278 78.6944 14.4056C77.3222 17.15 78.4389 20.4889 81.1778 21.8611C83.9056 23.2333 87.2056 22.1333 88.6 19.4389C88.8444 18.9889 93.2167 11.3333 105.883 11.3333C118.756 11.3333 123.1 19.2945 123.139 19.3722C124.111 21.3222 126.072 22.4445 128.111 22.4445Z" fill="#664500"/>
</svg>
