<svg width="101" height="31" viewBox="0 0 101 31" fill="none" xmlns="http://www.w3.org/2000/svg">
<path d="M39.5056 29.51C37.1784 29.5632 34.979 28.1409 34.1488 25.8315C32.946 22.5303 28.2035 13.0974 22.4661 13.2285C16.5676 13.3633 12.2096 23.6155 11.3658 26.3522C10.4595 29.2792 7.3684 30.9336 4.41925 30.0229C1.48702 29.123 -0.156079 26.0098 0.750015 23.0772C1.39688 20.9674 7.52944 2.45031 22.2201 2.11457C36.9107 1.77882 43.8692 19.9968 44.6165 22.0747C45.6543 24.9628 44.1538 28.1479 41.2653 29.1809C40.6811 29.3943 40.0888 29.4967 39.5056 29.51ZM39.5056 29.51C37.1784 29.5632 34.979 28.1409 34.1488 25.8315C32.946 22.5303 28.2035 13.0974 22.4661 13.2285C16.5676 13.3633 12.2096 23.6155 11.3658 26.3522C10.4595 29.2792 7.3684 30.9336 4.41925 30.0229C1.48702 29.123 -0.156079 26.0098 0.750015 23.0772C1.39688 20.9674 7.52944 2.45031 22.2201 2.11457C36.9107 1.77882 43.8692 19.9968 44.6165 22.0747C45.6543 24.9628 44.1538 28.1479 41.2653 29.1809C40.6811 29.3943 40.0888 29.4967 39.5056 29.51ZM39.5056 29.51C37.1784 29.5632 34.979 28.1409 34.1488 25.8315C32.946 22.5303 28.2035 13.0974 22.4661 13.2285C16.5676 13.3633 12.2096 23.6155 11.3658 26.3522C10.4595 29.2792 7.3684 30.9336 4.41925 30.0229C1.48702 29.123 -0.156079 26.0098 0.750015 23.0772C1.39688 20.9674 7.52944 2.45031 22.2201 2.11457C36.9107 1.77882 43.8692 19.9968 44.6165 22.0747C45.6543 24.9628 44.1538 28.1479 41.2653 29.1809" fill="#664500"/>
<path d="M89.6955 24.562C90.5202 26.8715 92.7196 28.2939 95.0468 28.2407C95.63 28.2273 96.2167 28.125 96.7898 27.9119C99.6783 26.8789 101.179 23.6938 100.141 20.8057C99.3993 18.7276 92.4353 0.50983 77.7502 0.845448C63.0651 1.18107 56.9325 19.6982 56.2857 21.808C55.3796 24.7405 57.0282 27.8537 59.9549 28.7537C62.9152 29.6641 65.9952 28.0099 66.9014 25.0829C67.7453 22.3463 72.1088 12.0939 78.0073 11.9591C83.7447 11.828 88.4927 21.2608 89.6955 24.562Z" fill="#664500"/>
</svg>
