<svg width="156" height="74" viewBox="0 0 156 74" fill="none" xmlns="http://www.w3.org/2000/svg">
<path d="M146.528 26.0444C141.511 41.2944 127.167 52.2389 110.45 52.2389C109.65 52.2389 108.844 52.2111 108.033 52.1611C99.8278 51.6444 92.2444 48.5222 86.0889 43.3611C86.2889 46.1111 86.5111 48.9 86.8444 51.9167C87.6889 59.6278 91.7555 65.7056 98.6 69.4889C103.156 72.0111 108.6 73.3111 114.228 73.6667C123.861 74.2722 134.061 72.1111 141.3 68.6167C148.95 64.9222 153.922 58.2722 154.944 50.3667C155.961 42.5055 152.978 34.1222 146.528 26.0444Z" fill="white"/>
<path d="M96.6166 1.12778C89.4111 4.18334 85.8 13.9111 85.6333 30.5111L85.85 30.8889C90.8333 38.2167 99.0333 43.2444 108.561 43.8444C109.194 43.8833 109.828 43.9056 110.456 43.9056C125.089 43.9056 137.394 33.1444 139.639 18.7722C139 18.1889 138.411 17.5944 137.733 17.0167C117.094 -0.594442 101.806 -1.07777 96.6166 1.12778Z" fill="#65471B"/>
<path d="M110.45 52.2389C127.167 52.2389 141.511 41.2944 146.528 26.0444C144.561 23.5833 142.244 21.1555 139.633 18.7722C137.389 33.1444 125.083 43.9056 110.45 43.9056C109.822 43.9056 109.189 43.8833 108.556 43.8444C99.0278 43.2444 90.8278 38.2167 85.8445 30.8889L85.6278 30.5111C85.5889 34.4055 85.7445 38.6944 86.0889 43.3611C92.2445 48.5222 99.8278 51.6444 108.033 52.1611C108.844 52.2167 109.65 52.2389 110.45 52.2389Z" fill="#F4900C"/>
<path d="M96.9612 24.6222C100.358 24.6222 103.111 21.8688 103.111 18.4722C103.111 15.0757 100.358 12.3222 96.9612 12.3222C93.5646 12.3222 90.8112 15.0757 90.8112 18.4722C90.8112 21.8688 93.5646 24.6222 96.9612 24.6222Z" fill="white"/>
<path d="M45.55 52.2389C28.8334 52.2389 14.4889 41.2944 9.47226 26.0444C3.02226 34.1222 0.0444824 42.5056 1.05559 50.3611C2.08337 58.2667 7.05004 64.9222 14.7 68.6111C21.9389 72.1055 32.1334 74.2667 41.7723 73.6611C47.4 73.3056 52.8445 72.0111 57.4 69.4833C64.2389 65.7 68.3056 59.6222 69.1556 51.9111C69.4889 48.9 69.7112 46.1222 69.9112 43.3778C63.7834 48.5056 56.1889 51.6389 47.9667 52.1556C47.1556 52.2167 46.35 52.2389 45.55 52.2389Z" fill="white"/>
<path d="M45.55 43.9056C46.1778 43.9056 46.8111 43.8833 47.4445 43.8444C56.9723 43.2444 65.1722 38.2167 70.1556 30.8889L70.3723 30.5111C70.2 13.9111 66.5945 4.18333 59.3889 1.12777C54.2 -1.07778 38.9056 -0.594446 18.2723 17.0111C17.5945 17.5889 17.0111 18.1833 16.3667 18.7667C18.6111 33.1444 30.9167 43.9056 45.55 43.9056Z" fill="#65471B"/>
<path d="M70.3667 30.5111L70.15 30.8889C65.1667 38.2167 56.9667 43.2444 47.4389 43.8444C46.8056 43.8833 46.1722 43.9056 45.5445 43.9056C30.9111 43.9056 18.6056 33.1444 16.3611 18.7722C13.75 21.1555 11.4333 23.5833 9.46667 26.0444C14.4833 41.2944 28.8278 52.2389 45.5445 52.2389C46.3445 52.2389 47.15 52.2111 47.9611 52.1611C56.1833 51.6444 63.7778 48.5111 69.9056 43.3833C70.25 38.7111 70.4111 34.4167 70.3667 30.5111Z" fill="#F4900C"/>
<path d="M32.3389 24.6111C35.7278 24.4 38.3056 21.4778 38.0889 18.0889C37.8778 14.7 34.9556 12.1222 31.5667 12.3333C28.1778 12.5444 25.6001 15.4667 25.8112 18.8556C26.0278 22.2444 28.9501 24.8222 32.3389 24.6111Z" fill="white"/>
</svg>
