<svg width="200" height="97" viewBox="0 0 200 97" fill="none" xmlns="http://www.w3.org/2000/svg">
<path d="M87.1223 23.5167L61.8889 27.9667L48.8889 4.33889C47.4556 1.73333 44.5111 0.338888 41.6 0.849999C38.6722 1.36667 36.3945 3.68889 35.9389 6.62222L31.8 33.2722L6.56669 37.7222C3.59447 38.2444 1.30003 40.6389 0.894471 43.6333C0.488915 46.6278 2.06669 49.5389 4.80003 50.8389L27.4111 61.5722L23.2556 88.3056C22.7945 91.2833 24.3056 94.2167 26.9945 95.5778C27.9889 96.0778 29.0556 96.3167 30.1167 96.3167C31.9334 96.3167 33.7278 95.6055 35.0667 94.25L54.5778 74.4667L79.6778 86.3833C82.4 87.6722 85.6445 87.0667 87.7111 84.8722C89.7778 82.6778 90.1889 79.4056 88.7389 76.7667L75.6945 53.0556L93.2778 35.2333C95.4 33.0833 95.8834 29.8056 94.4834 27.1278C93.0723 24.45 90.0778 23 87.1223 23.5167ZM112.878 23.5167L138.111 27.9667L151.111 4.33889C152.544 1.73333 155.489 0.338888 158.4 0.849999C161.322 1.36667 163.6 3.68889 164.056 6.62222L168.194 33.2722L193.428 37.7222C196.406 38.2444 198.7 40.6333 199.1 43.6278C199.5 46.6222 197.928 49.5333 195.194 50.8333L172.583 61.5667L176.739 88.3C177.2 91.2778 175.689 94.2111 173 95.5722C172.006 96.0722 170.939 96.3111 169.878 96.3111C168.061 96.3111 166.267 95.6 164.928 94.2444L145.417 74.4611L120.317 86.3778C117.594 87.6667 114.35 87.0611 112.283 84.8667C110.217 82.6722 109.806 79.4 111.256 76.7611L124.3 53.0556L106.717 35.2333C104.594 33.0833 104.111 29.8056 105.511 27.1278C106.928 24.45 109.922 23 112.878 23.5167Z" fill="#E95F28"/>
</svg>
