<svg width="134" height="62" viewBox="0 0 134 62" fill="none" xmlns="http://www.w3.org/2000/svg">
<path d="M103.111 61.5556C119.986 61.5556 133.667 47.8754 133.667 31C133.667 14.1246 119.986 0.444458 103.111 0.444458C86.2357 0.444458 72.5555 14.1246 72.5555 31C72.5555 47.8754 86.2357 61.5556 103.111 61.5556Z" fill="#F4F7F9"/>
<path d="M30.8889 61.5556C47.7642 61.5556 61.4444 47.8754 61.4444 31C61.4444 14.1246 47.7642 0.444458 30.8889 0.444458C14.0135 0.444458 0.333313 14.1246 0.333313 31C0.333313 47.8754 14.0135 61.5556 30.8889 61.5556Z" fill="#F4F7F9"/>
<path d="M25.3333 28.2222C33.0056 28.2222 39.2222 22.0055 39.2222 14.3333C39.2222 7.37777 34.0945 1.66666 27.4222 0.655548C23.0333 1.14999 18.9445 2.58888 15.3222 4.74444C12.9333 7.23888 11.4445 10.6055 11.4445 14.3333C11.4445 22.0055 17.6611 28.2222 25.3333 28.2222ZM97.5556 28.2222C105.228 28.2222 111.444 22.0055 111.444 14.3333C111.444 7.37777 106.317 1.66666 99.6445 0.655548C95.2611 1.14999 91.1667 2.58888 87.55 4.74444C85.1556 7.23888 83.6667 10.6055 83.6667 14.3333C83.6667 22.0055 89.8833 28.2222 97.5556 28.2222Z" fill="#65471B"/>
</svg>
