<svg width="101" height="61" viewBox="0 0 101 61" fill="none" xmlns="http://www.w3.org/2000/svg">
<path d="M20.2444 25.5C16.0444 23.8778 12.0722 22.3445 12.0722 20.1222C12.0722 16.4611 16.9833 16.2722 17.9667 16.2722C21.4389 16.2722 23.1667 17.5722 24.6889 18.7222C25.8555 19.6056 27.0667 20.5167 28.75 20.5167C31.8833 20.5167 33.3111 18.3111 33.3111 16.2611C33.3111 12.1722 28.3 9.28335 22.9889 8.07224V5.88891C22.9889 3.01113 20.65 0.672241 17.7722 0.672241C14.8944 0.672241 12.5556 3.01113 12.5556 5.88891V8.25557C6.19999 10.1056 2.30555 14.7778 2.30555 20.6722C2.30555 27.9556 9.48889 30.9445 15.8278 33.5778C20.3667 35.4667 24.6556 37.25 24.6556 40.0334C24.6556 42.0667 22.1 44.2667 17.9722 44.2667C13.8056 44.2667 11.4167 42.6 9.30555 41.1334C7.84999 40.1167 6.47222 39.1556 4.82777 39.1556C2.43889 39.1556 0.57222 41.1667 0.57222 43.7334C0.57222 47.5056 5.74444 51.2667 12.5556 52.5889V55.2C12.5556 58.0778 14.8944 60.4111 17.7722 60.4111C20.65 60.4111 22.9889 58.0722 22.9889 55.2L22.9611 52.4334C30.1611 50.6834 34.4167 45.6445 34.4167 38.7722C34.4222 30.9722 26.5611 27.9389 20.2444 25.5ZM100.3 38.8667C100.3 31.0667 92.4389 28.0334 86.1222 25.5945C81.9222 23.9722 77.9556 22.4389 77.9556 20.2167C77.9556 16.5556 82.8667 16.3667 83.85 16.3667C87.3222 16.3667 89.0444 17.6667 90.5722 18.8167C91.7444 19.7 92.95 20.6111 94.6278 20.6111C97.7667 20.6111 99.1944 18.4056 99.1944 16.3556C99.1944 12.2611 94.1833 9.3778 88.8722 8.16669V5.98891C88.8722 3.11113 86.5278 0.772242 83.6555 0.772242C80.7778 0.772242 78.4333 3.11113 78.4333 5.98891V8.35558C72.0833 10.2056 68.1833 14.8778 68.1833 20.7722C68.1833 28.0556 75.3667 31.0445 81.7056 33.6778C86.2444 35.5667 90.5333 37.35 90.5333 40.1334C90.5333 42.1667 87.9833 44.3667 83.8555 44.3667C79.6889 44.3667 77.3 42.7 75.1944 41.2334C73.7333 40.2167 72.3555 39.2556 70.7167 39.2556C68.3222 39.2556 66.4555 41.2667 66.4555 43.8334C66.4555 47.6056 71.6278 51.3667 78.4333 52.6889V55.3C78.4333 58.1722 80.7833 60.5111 83.6611 60.5111C86.5389 60.5111 88.8722 58.1722 88.8722 55.3L88.8556 52.5333C96.05 50.7722 100.3 45.7389 100.3 38.8667Z" fill="#664500"/>
</svg>
