<svg width="148" height="58" viewBox="0 0 148 58" fill="none" xmlns="http://www.w3.org/2000/svg">
<path d="M37.3056 57.8611C25.7778 57.8611 16.4056 48.4833 16.4056 36.9611C16.4056 25.4333 25.7834 16.0556 37.3056 16.0556C44.4111 16.0556 50.1889 21.8333 50.1889 28.9389C50.1889 36.0444 44.4111 41.8222 37.3056 41.8222C34.6223 41.8222 32.4445 39.6444 32.4445 36.9611C32.4445 34.2778 34.6223 32.1 37.3056 32.1C39.0445 32.1 40.4667 30.6833 40.4667 28.9389C40.4667 27.1944 39.05 25.7778 37.3056 25.7778C31.1445 25.7778 26.1278 30.7944 26.1278 36.9611C26.1278 43.1222 31.1445 48.1389 37.3056 48.1389C47.8945 48.1389 56.5056 39.5278 56.5056 28.9389C56.5056 18.35 47.8945 9.73889 37.3056 9.73889C22.2945 9.73889 10.0889 21.95 10.0889 36.9611C10.0889 39.6444 7.91114 41.8222 5.22781 41.8222C2.54448 41.8222 0.366699 39.6444 0.366699 36.9611C0.366699 16.5889 16.9389 0.0166702 37.3056 0.0166702C53.2556 0.0166702 66.2278 12.9889 66.2278 28.9389C66.2278 44.8889 53.2611 57.8611 37.3056 57.8611ZM110.689 57.8611C94.7389 57.8611 81.7667 44.8889 81.7667 28.9389C81.7667 12.9889 94.7389 0.0166702 110.689 0.0166702C122.217 0.0166702 131.594 9.39445 131.594 20.9167C131.594 32.4389 122.217 41.8222 110.689 41.8222C103.589 41.8222 97.8111 36.0444 97.8111 28.9389C97.8111 21.8333 103.589 16.0556 110.689 16.0556C113.372 16.0556 115.55 18.2333 115.55 20.9167C115.55 23.6 113.378 25.7778 110.689 25.7778C108.95 25.7778 107.533 27.1944 107.533 28.9389C107.533 30.6833 108.95 32.1 110.689 32.1C116.85 32.1 121.872 27.0833 121.872 20.9167C121.872 14.7556 116.856 9.73889 110.689 9.73889C100.106 9.73889 91.4889 18.35 91.4889 28.9389C91.4889 39.5222 100.106 48.1389 110.689 48.1389C125.694 48.1389 137.906 35.9278 137.906 20.9222C137.906 18.2389 140.083 16.0611 142.767 16.0611C145.45 16.0611 147.628 18.2389 147.628 20.9222C147.633 41.2889 131.056 57.8611 110.689 57.8611Z" fill="#664500"/>
</svg>
