<svg width="109" height="40" viewBox="0 0 109 40" fill="none" xmlns="http://www.w3.org/2000/svg">
<path d="M13.8889 39.1111C21.5595 39.1111 27.7778 30.4055 27.7778 19.6667C27.7778 8.9278 21.5595 0.222229 13.8889 0.222229C6.21827 0.222229 0 8.9278 0 19.6667C0 30.4055 6.21827 39.1111 13.8889 39.1111Z" fill="#664500"/>
<path d="M108.094 26.8722C107.761 26.1222 99.7666 8.55556 83.3333 8.55556C66.9055 8.55556 58.9055 26.1222 58.5722 26.8722C58.0611 28.0222 58.3944 29.3667 59.3777 30.1556C60.35 30.9444 61.7444 30.9722 62.7666 30.2333C62.8333 30.1833 69.7777 25.2222 83.3333 25.2222C96.8111 25.2222 103.744 30.1167 103.9 30.2278C104.389 30.5944 104.978 30.7778 105.556 30.7778C106.167 30.7778 106.783 30.5722 107.289 30.1722C108.272 29.3833 108.611 28.0278 108.094 26.8722Z" fill="#664500"/>
</svg>
