<svg width="124" height="17" viewBox="0 0 124 17" fill="none" xmlns="http://www.w3.org/2000/svg">
<path d="M25.3889 16.4C12.4167 16.4 3.88888 10.8611 3.36665 10.5111C0.816654 8.81111 0.127765 5.3611 1.82777 2.80555C3.52777 0.24999 6.97221 -0.444453 9.53332 1.26666C10.0833 1.62221 23.9889 10.3555 42.8555 0.922214C45.6055 -0.450008 48.9389 0.666659 50.3111 3.40555C51.6833 6.14999 50.5722 9.48888 47.8278 10.8611C39.5222 15.0056 31.8944 16.4 25.3889 16.4ZM98.6167 16.4C92.1055 16.4 84.4778 15.0055 76.1833 10.8555C73.4389 9.48332 72.3278 6.14443 73.7 3.39999C75.0778 0.655545 78.4111 -0.455566 81.1555 0.916656C100.044 10.3611 113.928 1.61666 114.511 1.24443C117.067 -0.411122 120.517 0.29999 122.189 2.84999C123.867 5.39999 123.183 8.81666 120.644 10.5111C120.111 10.8611 111.583 16.4 98.6167 16.4Z" fill="#664500"/>
</svg>
