<svg width="102" height="40" viewBox="0 0 102 40" fill="none" xmlns="http://www.w3.org/2000/svg">
<path d="M28.3 20.1111L38.2612 10.15C40.4334 7.97778 40.4334 4.46667 38.2612 2.29445C36.0889 0.122228 32.5778 0.122228 30.4056 2.29445L20.4445 12.2556L10.4834 2.29445C8.31115 0.122228 4.80005 0.122228 2.62782 2.29445C0.455602 4.46667 0.455602 7.97778 2.62782 10.15L12.5889 20.1111L2.62782 30.0722C0.455602 32.2444 0.455602 35.7556 2.62782 37.9278C3.71116 39.0111 5.13338 39.5556 6.5556 39.5556C7.97782 39.5556 9.40004 39.0111 10.4834 37.9278L20.4445 27.9667L30.4056 37.9278C31.4889 39.0111 32.9112 39.5556 34.3334 39.5556C35.7556 39.5556 37.1778 39.0111 38.2612 37.9278C40.4334 35.7556 40.4334 32.2444 38.2612 30.0722L28.3 20.1111ZM89.4111 20.1111L99.3723 10.15C101.544 7.97778 101.544 4.46667 99.3723 2.29445C97.2 0.122228 93.6889 0.122228 91.5167 2.29445L81.5556 12.2556L71.5945 2.29445C69.4223 0.122228 65.9112 0.122228 63.7389 2.29445C61.5667 4.46667 61.5667 7.97778 63.7389 10.15L73.7 20.1111L63.7389 30.0722C61.5667 32.2444 61.5667 35.7556 63.7389 37.9278C64.8223 39.0111 66.2445 39.5556 67.6667 39.5556C69.0889 39.5556 70.5112 39.0111 71.5945 37.9278L81.5556 27.9667L91.5167 37.9278C92.6 39.0111 94.0223 39.5556 95.4445 39.5556C96.8667 39.5556 98.2889 39.0111 99.3723 37.9278C101.544 35.7556 101.544 32.2444 99.3723 30.0722L89.4111 20.1111Z" fill="#664500"/>
</svg>
