<svg width="169" height="96" viewBox="0 0 169 96" fill="none" xmlns="http://www.w3.org/2000/svg">
<path d="M165.913 16.7292L88.1356 0.0625C87.7578 -0.0208333 87.3578 -0.0208333 86.9745 0.0625L9.19669 16.7292C7.95224 16.9958 7.04669 18.0792 7.00224 19.3514C6.96336 20.6236 7.79113 21.7625 9.01891 22.1181L36.4856 29.9681C35.4189 33.2736 34.78 37.0903 34.78 41.6681C34.78 54.3903 53.03 61.1125 87.5578 61.1125C122.086 61.1125 140.336 54.3903 140.336 41.6681C140.336 37.0903 139.697 33.2736 138.63 29.9681L166.102 22.1181C167.33 21.7681 168.158 20.6236 168.113 19.3514C168.069 18.0792 167.163 16.9958 165.913 16.7292Z" fill="#292F33"/>
<path d="M168.002 18.6847C167.58 17.2125 166.058 16.3681 164.569 16.7736L87.5578 38.7792L10.5411 16.7736C9.08558 16.3681 7.53002 17.2069 7.1078 18.6847C6.68558 20.1569 7.54113 21.6958 9.01891 22.1181L86.7967 44.3403C87.0467 44.4125 87.3023 44.4458 87.5523 44.4458C87.8023 44.4458 88.0634 44.4125 88.3134 44.3403L166.091 22.1181C167.574 21.6958 168.43 20.1569 168.002 18.6847Z" fill="#66757F"/>
<path d="M83.5333 12.9667L6.06666 18.4998C5.92222 18.511 3.52222 18.8165 3.52222 21.2665L3.28889 57.5573C1.62778 58.5906 0.511108 61.6684 0.511108 70.9184C0.511108 84.7239 3 95.9184 6.06666 95.9184C9.13333 95.9184 11.6222 84.7239 11.6222 70.9184C11.6222 61.6684 10.5056 58.5906 8.84444 57.5573L9.07777 23.8221L84 18.5C85.5222 18.3722 86.6611 17.0333 86.5333 15.5C86.4056 13.9722 85.0444 12.8222 83.5333 12.9667Z" fill="#FFCC4D"/>
</svg>
