<svg width="200" height="84" viewBox="0 0 200 84" fill="none" xmlns="http://www.w3.org/2000/svg">
<path d="M177.778 29.0555C171.167 37.0611 160.1 39.8944 149.578 40.8389C147.811 32.2944 140.228 0.555542 125 0.555542C111.65 0.555542 106.839 6.61665 100 6.61665C93.1611 6.61665 88.35 0.555542 75 0.555542C59.7722 0.555542 52.1889 32.2944 50.4222 40.8389C39.9 39.8944 28.8333 37.0555 22.2222 29.0555C10.2611 14.5778 -5.55555 25.2444 2.45556 41.1333C15.1111 66.2278 45.7222 83.8889 100 83.8889C154.272 83.8889 184.883 66.2278 197.544 41.1333C205.556 25.2444 189.739 14.5778 177.778 29.0555Z" fill="#664500"/>
<path d="M119.444 11.6666C109.061 11.6666 105.317 17.0222 100 17.0222C94.6833 17.0222 90.9389 11.6666 80.5556 11.6666C66.8722 11.6666 61.1111 49.1666 61.1111 49.1666C61.1111 49.1666 68.2333 61.6666 100 61.6666C131.772 61.6666 138.889 49.1666 138.889 49.1666C138.889 49.1666 133.128 11.6666 119.444 11.6666Z" fill="#825D0E"/>
<path d="M61.1111 28.3334C61.1111 28.3334 72.6333 39.4445 100 39.4445C127.372 39.4445 138.889 28.3334 138.889 28.3334V39.4445C138.889 39.4445 126.544 50.5556 100 50.5556C73.4556 50.5556 61.1111 39.4445 61.1111 39.4445V28.3334Z" fill="#664500"/>
</svg>
