<svg width="101" height="70" viewBox="0 0 101 70" fill="none" xmlns="http://www.w3.org/2000/svg">
<path d="M100.309 52.7778C100.309 60.1111 0.308594 60.1111 0.308594 52.7778C0.308594 33.0778 5.86415 5.55554 50.3086 5.55554C89.1975 5.55554 100.309 33.0778 100.309 52.7778Z" fill="#3B88C3"/>
<path d="M0.619799 52.7778C0.619799 52.7778 -2.15798 69.4444 8.95313 69.4444C14.5087 69.4444 22.842 58.3333 50.6198 58.3333C78.3976 58.3333 86.7309 69.4444 92.2865 69.4444C103.398 69.4444 100.62 52.7778 100.62 52.7778C100.62 52.7778 92.2865 55.5555 50.6198 55.5555C8.95313 55.5555 0.619799 52.7778 0.619799 52.7778Z" fill="#226699"/>
<path d="M0.308642 50C0.308642 50 -2.46914 66.6667 8.64198 66.6667C14.1975 66.6667 22.5309 55.5556 50.3086 55.5556C78.0864 55.5556 86.4197 66.6667 91.9753 66.6667C103.086 66.6667 100.309 50 100.309 50C100.309 50 91.9753 52.7778 50.3086 52.7778C8.64197 52.7778 0.308642 50 0.308642 50Z" fill="#55ACEE"/>
<path d="M41.9753 8.33333C41.9753 8.33333 41.9753 0 50.3087 0C58.642 0 58.642 8.33333 58.642 8.33333H41.9753Z" fill="#226699"/>
</svg>
