<svg width="200" height="62" viewBox="0 0 200 62" fill="none" xmlns="http://www.w3.org/2000/svg">
<path d="M132.094 1.91667C125.361 1.39445 118.356 1.03334 111.133 0.861119C107.461 0.77223 103.756 0.716675 100 0.716675C96.2667 0.716675 92.5778 0.77223 88.9278 0.855564C81.6945 1.02779 74.6833 1.3889 67.9445 1.91112C29.6667 4.8889 0.938904 13.6167 0.938904 29.3722C0.938904 49.3056 46.85 61.4333 100 61.4333C153.15 61.4333 199.061 49.3056 199.061 29.3722C199.061 13.6222 170.35 4.90001 132.094 1.91667ZM100 41.0167C61.8833 41.0167 28.2778 36.3889 28.2778 25.8167C28.2778 22.8389 31.0222 20.1333 35.7167 17.7667C42.1222 14.5389 52.2611 11.9667 64.5445 10.2722C75.1611 8.81668 87.3111 7.99445 100 7.99445C112.728 7.99445 124.917 8.81668 135.556 10.2889C148.011 12.0111 158.256 14.6389 164.622 17.9389C169.106 20.2611 171.722 22.9056 171.722 25.8167C171.722 36.3889 138.117 41.0167 100 41.0167Z" fill="#5DADEC"/>
</svg>
