<svg width="200" height="200" viewBox="0 0 200 200" fill="none" xmlns="http://www.w3.org/2000/svg">
<path d="M111.111 0C109.728 0 108.456 0.0388889 107.15 0.0666667C106.611 0.0555556 106.094 0 105.556 0C50 0 11.1111 25.4556 11.1111 50C11.1111 74.5444 46.5166 72.2222 83.3333 72.2222C108.011 72.2222 125.822 72.2222 138.7 71.7444L138.889 72.2222L172.222 155.556H183.333C183.333 155.556 185.239 138.583 188.889 116.667C194.444 83.3333 191.85 0 111.111 0Z" fill="#DD2E44"/>
<path d="M177.778 183.333C190.051 183.333 200 173.384 200 161.111C200 148.838 190.051 138.889 177.778 138.889C165.505 138.889 155.556 148.838 155.556 161.111C155.556 173.384 165.505 183.333 177.778 183.333Z" fill="#F1F2F2"/>
<path d="M177.778 66.6667C177.778 72.8 172.8 77.7778 166.667 77.7778H11.1111C4.97778 77.7778 0 72.8 0 66.6667V61.1111C0 54.9778 4.97778 50 11.1111 50H166.667C172.8 50 177.778 54.9778 177.778 61.1111V66.6667Z" fill="#F1F2F2"/>
</svg>
