<svg width="191" height="76" viewBox="0 0 191 76" fill="none" xmlns="http://www.w3.org/2000/svg">
<path d="M187.328 63.0445C186.572 60.8833 185.822 58.7167 184.928 56.6278C182.944 52.0111 180.556 47.6222 177.933 43.3945C176.478 41.05 174.933 38.7833 173.294 36.5722C171.061 33.5611 168.678 30.6833 166.128 27.9445C164.5 26.1945 162.817 24.5111 161.067 22.8834L160.383 22.2611C156.789 18.9722 153.028 15.8667 148.978 13.1222C146.539 11.4722 144.006 9.95557 141.417 8.52224C135.167 5.05557 128.511 2.25557 121.533 0.18335L80.3056 7.68891L55.8056 3.22779C49.8056 5.6389 44.1 8.60557 38.7389 12.0778C36.6667 13.4222 34.6778 14.8611 32.7222 16.35L32.0556 16.8445C28.1111 19.8889 24.3833 23.1889 20.9389 26.7778C19.5667 28.2056 18.2278 29.6667 16.9389 31.1778C16.7222 31.4278 16.4833 31.6556 16.2722 31.9111C14.6 33.9111 13.05 36.0111 11.5389 38.1389C10.5278 39.5556 9.56667 41.0056 8.62778 42.4778C6.76667 45.4056 5.07222 48.4333 3.51667 51.5556C2.45 53.7 1.4 55.8556 0.488892 58.0889L47.4444 49.5445L190.917 75.6556C190.022 71.3278 188.761 67.1445 187.328 63.0445Z" fill="#E6E7E8"/>
<path d="M184.922 56.6222L96.7278 40.5722L129.583 34.5945L146.006 31.6056L166.122 27.9445C164.494 26.1945 162.811 24.5111 161.061 22.8834L129.572 28.6167L113.15 31.6056L80.2944 37.5834L63.8667 40.5722L31.0167 46.55L3.51667 51.5556C2.45 53.7 1.4 55.8556 0.488892 58.0889L47.4444 49.5445L80.3 43.5667L187.328 63.0445C186.572 60.8778 185.822 58.7167 184.922 56.6222Z" fill="#BCBEC0"/>
<path d="M146.006 31.6055L173.294 36.5722C174.933 38.7778 176.478 41.05 177.933 43.3944L129.589 34.5944L146.006 31.6055ZM38.7333 12.0833C36.6667 13.4222 34.6778 14.8611 32.7222 16.35L47.4444 13.6667L38.7333 12.0833ZM141.417 8.52222L113.156 13.6667L80.3 19.6444L63.8778 22.6333L31.0222 28.6167L16.9389 31.1778C16.7222 31.4278 16.4833 31.6555 16.2722 31.9111C14.6 33.9111 13.05 36.0111 11.5389 38.1389L31.0111 34.5944L47.4444 31.6055L80.3 25.6278L96.7222 22.6389L129.578 16.6611L148.978 13.1333C146.533 11.4778 144 9.96111 141.417 8.52222Z" fill="#D1D3D4"/>
</svg>
