<svg width="140" height="73" viewBox="0 0 140 73" fill="none" xmlns="http://www.w3.org/2000/svg">
<path d="M121.211 66.6666C121.211 66.6666 106.644 72.2222 70.2222 72.2222C33.7999 72.2222 19.2333 66.6666 19.2333 66.6666V33.3333H121.206L121.211 66.6666Z" fill="#CCD6DD"/>
<path d="M36.8889 62.5C36.8889 64.0333 35.6445 65.2778 34.1112 65.2778C32.5778 65.2778 31.3334 64.0333 31.3334 62.5V45.8333C31.3334 44.3 32.5778 43.0555 34.1112 43.0555C35.6445 43.0555 36.8889 44.3 36.8889 45.8333V62.5ZM109.111 62.5C109.111 64.0333 107.867 65.2778 106.333 65.2778C104.8 65.2778 103.556 64.0333 103.556 62.5V45.8333C103.556 44.3 104.8 43.0555 106.333 43.0555C107.867 43.0555 109.111 44.3 109.111 45.8333V62.5ZM53.5556 64.7222C53.5556 66.2555 52.3112 67.5 50.7778 67.5C49.2445 67.5 48 66.2555 48 64.7222V48.0555C48 46.5222 49.2445 45.2778 50.7778 45.2778C52.3112 45.2778 53.5556 46.5222 53.5556 48.0555V64.7222ZM73 65.2778C73 66.8111 71.7556 68.0555 70.2223 68.0555C68.6889 68.0555 67.4445 66.8111 67.4445 65.2778V48.6111C67.4445 47.0778 68.6889 45.8333 70.2223 45.8333C71.7556 45.8333 73 47.0778 73 48.6111V65.2778ZM92.4445 64.7222C92.4445 66.2555 91.2 67.5 89.6667 67.5C88.1334 67.5 86.8889 66.2555 86.8889 64.7222V48.0555C86.8889 46.5222 88.1334 45.2778 89.6667 45.2778C91.2 45.2778 92.4445 46.5222 92.4445 48.0555V64.7222Z" fill="#99AAB5"/>
<path d="M104.944 0C98.5167 0 92.5167 1.77778 87.3501 4.82778C82.1834 1.77778 76.1834 0 69.7556 0C63.5223 0 57.6834 1.66667 52.6278 4.54444C47.5723 1.66667 41.7334 0 35.5001 0C16.3223 0 0.777832 15.5444 0.777832 34.7222C0.777832 53.9 63.5223 52.7778 69.7556 52.7778C76.1834 52.7778 139.667 53.9 139.667 34.7222C139.667 15.5444 124.117 0 104.944 0Z" fill="#E1E8ED"/>
<path d="M30.7445 24.9389C30.9445 24.9833 31.1389 25 31.3334 25C32.6167 25 33.7667 24.1111 34.0445 22.8111C34.2167 22.0055 35.9 14.8055 41.3723 10.5222C45.5945 7.21666 51.0889 5.03888 52.5223 4.49999C50.3223 3.24999 47.9445 2.27777 45.4778 1.52777C43.1278 2.69444 40.4 4.22777 37.95 6.14999C31.0834 11.5222 28.9667 19.9944 28.6111 21.6389C28.2945 23.1389 29.25 24.6167 30.7445 24.9389ZM98.2834 10.5722C103.761 14.8611 105.444 22.05 105.611 22.8555C105.894 24.1611 107.044 25.05 108.328 25.05C108.517 25.05 108.711 25.0333 108.911 24.9889C110.411 24.6667 111.361 23.1889 111.044 21.6889C110.689 20.0444 108.583 11.5778 101.706 6.19444C99.3389 4.34444 96.7278 2.84999 94.4334 1.69999C92.0223 2.47222 89.7056 3.4611 87.5611 4.7111C89.4334 5.44444 94.3778 7.5111 98.2834 10.5722Z" fill="#CCD6DD"/>
</svg>
