<svg width="96" height="97" viewBox="0 0 96 97" fill="none" xmlns="http://www.w3.org/2000/svg">
<path d="M95.4389 15.1111C95.2 14.8389 94.8278 14.6889 94.3889 14.6056C94.3889 14.6056 5.92222 -2.18889 2.09444 1.18889C-1.72778 4.57222 4.11111 94.4333 4.11111 94.4333C4.13889 94.8833 4.23889 95.2667 4.48333 95.5389C7.83889 99.3389 30.9167 84.4056 56.0333 62.2C81.1556 39.9889 98.7944 18.9111 95.4389 15.1111Z" fill="#DD2E44"/>
<path d="M1.93889 1.50556C1.85556 1.67222 1.78333 1.9 1.72778 2.18889C2.61111 9.80556 11.1444 72.4778 16.4611 92.0667C24.4389 87.6056 32.5444 81.5444 42.0667 73.9944C33.9778 59.1889 6.43334 0.811112 1.93889 1.50556Z" fill="#EA596E"/>
</svg>
