<svg width="150" height="150" viewBox="0 0 150 150" fill="none" xmlns="http://www.w3.org/2000/svg">
<path d="M25 50.4584C25 29.3959 45.6583 4.16669 75 4.16669C104.337 4.16669 125 29.4 125 50.4625C125 53.4709 104.337 62.5 75 62.5C45.6583 62.5 25 53.4709 25 50.4584Z" fill="#DD2E44"/>
<path d="M75 4.16669C75 4.16669 95.8333 20.8334 100 37.5C104.042 53.6667 100 66.6667 100 66.6667H50C50 66.6667 45.8333 54.1667 50 37.5C54.1667 20.8334 75 4.16669 75 4.16669Z" fill="#77B255"/>
<path d="M25 45.8333C25 45.8333 37.5 58.3333 75 58.3333C112.5 58.3333 125 45.8333 125 45.8333C125 45.8333 129.167 54.1666 125 58.3333C120.833 62.5 108.333 70.8333 75 70.8333C41.6667 70.8333 29.1667 62.5 25 58.3333C20.8333 54.1666 25 45.8333 25 45.8333Z" fill="#414042"/>
<path d="M75 8.33333C79.6024 8.33333 83.3334 6.46785 83.3334 4.16667C83.3334 1.86548 79.6024 0 75 0C70.3976 0 66.6667 1.86548 66.6667 4.16667C66.6667 6.46785 70.3976 8.33333 75 8.33333Z" fill="#414042"/>
<path d="M75 54.1667C81.9036 54.1667 87.5 50.4357 87.5 45.8333C87.5 41.231 81.9036 37.5 75 37.5C68.0964 37.5 62.5 41.231 62.5 45.8333C62.5 50.4357 68.0964 54.1667 75 54.1667Z" fill="#FFD983"/>
</svg>
