<svg width="84" height="84" viewBox="0 0 84 84" fill="none" xmlns="http://www.w3.org/2000/svg">
<g clip-path="url(#clip0_189_184)">
<path d="M53.6633 57.6705C70.3506 43.1943 80.6186 27.7012 76.5974 23.0658C72.5762 18.4305 55.7886 26.4081 39.1013 40.8844C22.4139 55.3606 12.146 70.8537 16.1672 75.489C20.1884 80.1244 36.9759 72.1468 53.6633 57.6705Z" fill="#FFD983"/>
<path d="M56.1098 23.1876C58.3903 25.8163 56.5799 40.4311 46.3823 49.2775C36.1847 58.1239 21.5329 57.7901 19.2525 55.1613C9.05906 43.411 16.3686 28.2444 23.0831 22.4196C29.7975 16.5948 45.9164 11.4373 56.1098 23.1876Z" fill="#FFD983"/>
<path d="M61.9346 29.902C57.9101 42.2189 37.7667 59.6933 25.0051 61.9384C24.2886 61.1125 19.9296 55.9419 19.2524 55.1613C33.6206 51.5226 50.4067 36.9606 56.1098 23.1875C56.7819 23.9725 61.2182 29.0761 61.9346 29.902Z" fill="#E6566B"/>
</g>
<defs>
<clipPath id="clip0_189_184">
<rect width="80" height="80" fill="white" transform="translate(-29 23.4232) rotate(-40.9416)"/>
</clipPath>
</defs>
</svg>
