<svg width="200" height="200" viewBox="0 0 200 200" fill="none" xmlns="http://www.w3.org/2000/svg">
<path d="M165.922 136.806C179.933 132.133 198.611 113.456 198.611 104.117C198.611 94.7778 184.6 99.4445 189.272 85.4389C193.944 71.4334 198.611 57.4222 189.272 48.0834C179.933 38.7445 170.594 48.0834 161.256 38.7445C151.917 29.4056 161.256 20.0667 151.917 10.7278C142.578 1.38892 128.567 6.05558 114.561 10.7278C100.556 15.4 105.217 1.38892 95.8778 1.38892C86.5389 1.38892 67.8611 20.0667 63.1889 34.0778C58.5167 48.0889 49.1834 38.7445 44.5167 52.7556C40.1834 65.7611 45.5 79.55 33.5612 106.911C27.8612 115.917 22.4778 124.567 17.4556 132.15C-4.6444 165.511 2.49449 197.511 2.49449 197.511C2.49449 197.511 34.4945 204.65 67.8556 182.55C75.4389 177.528 84.0889 172.144 93.0945 166.444C120.456 154.5 134.244 159.822 147.25 155.489C161.256 150.817 151.917 141.478 165.922 136.806Z" fill="#5C913B"/>
<path d="M190.294 105.65C189.722 103.917 187.861 102.967 186.128 103.544C168.294 109.4 154.189 107.306 147.233 105.483C162.85 89.5667 176.883 73.0278 187.356 57.7667C188.389 56.2611 188 54.2056 186.5 53.1723C184.994 52.1334 182.939 52.5278 181.911 54.0278C175.9 62.7834 168.561 72.0889 160.367 81.4945C160.822 71.6889 160.006 56.4056 152.994 41.2834C152.222 39.6278 150.261 38.9111 148.611 39.6778C146.956 40.4445 146.233 42.4056 147.006 44.0611C156.333 64.1889 153.639 85.2611 152.906 89.8111C145.3 98.0834 137.144 106.328 128.706 114.267C129.572 103.861 129.172 86.9223 120.044 73.5056C119.028 72 116.978 71.6 115.461 72.6278C113.956 73.6556 113.561 75.7056 114.589 77.2167C125.461 93.2111 122.072 116.122 121.133 121.244C107.578 133.467 93.6167 144.639 80.4111 153.667C88.9389 139.922 97.8889 118.278 91.5223 93.4167C91.0667 91.65 89.2667 90.5778 87.5056 91.0389C85.7389 91.4945 84.6722 93.2889 85.1278 95.0556C94.4556 131.483 66.6278 161.65 64.1389 164.256C34.1 182.9 17.6222 188.522 17.4334 188.583C15.7056 189.161 14.7722 191.022 15.35 192.756C15.8111 194.139 17.0945 195.017 18.4778 195.017C18.8222 195.017 19.1722 194.961 19.5167 194.85C20.4056 194.55 41.7167 187.328 80.9389 161.317C88.5222 156.289 96.3167 150.561 104.139 144.372C108 146.739 116.85 150.711 132.817 150.711C137.283 150.711 142.294 150.394 147.911 149.656C149.717 149.417 150.989 147.756 150.75 145.95C150.517 144.144 148.811 142.867 147.044 143.111C126.467 145.844 114.95 142.356 109.728 139.883C120.694 130.889 131.6 121.017 141.944 110.8C145.372 112.011 152.622 114.056 162.694 114.056C169.911 114.056 178.55 113.006 188.206 109.828C189.922 109.244 190.861 107.378 190.294 105.65Z" fill="#679E44"/>
<path d="M70.85 135.15C73.3833 134.65 76.4556 134.139 79.7944 133.589C100.967 130.072 122.861 126.433 122.861 112.872C122.861 105.978 119.172 101.861 116.744 99.3389C118.133 98.9167 120.022 98.5222 121.328 98.2389C127.272 96.9778 134.672 95.4055 137.9 88.85C139.894 84.8 139.639 79.9167 137.106 74.2111C139.417 72.5055 145.883 70.4444 149.928 69.1611C159.906 65.9833 169.333 62.9778 171.922 55.25C172.828 52.5611 173.161 48.3056 169.65 43.3389C169.606 43.2778 169.539 43.1444 169.494 43.0611C166.744 42.5944 164 41.4833 161.25 38.7389C159.511 37 158.422 35.2611 157.739 33.5222C159.039 37.1055 162.433 45.1556 163.978 47.3333C175.261 63.2889 123.306 61.4111 130.511 76.4833C139.072 94.3833 114.361 88.7389 109.694 95.7444C105.022 102.75 115.922 103.528 115.922 112.867C115.922 122.206 84 125.483 69.5111 128.328C40.2389 134.089 2.48889 197.511 2.48889 197.511C2.48889 197.511 5.31111 198.122 10.0611 198.428C21.4611 179.961 50.3778 139.172 70.85 135.15Z" fill="#3E721D"/>
<path d="M69.5112 128.339C84 125.494 115.922 122.217 115.922 112.878C115.922 103.539 105.028 102.761 109.695 95.7556C114.367 88.75 139.072 94.3945 130.511 76.4945C123.3 61.4222 175.261 63.3 163.978 47.3445C162.189 44.8167 157.9 34.3722 157.283 32.1834C155.267 25.0334 159.067 17.8834 151.911 10.7334C142.572 1.39447 128.561 6.06114 114.556 10.7334C100.55 15.4056 105.217 1.38892 95.8778 1.38892C86.5389 1.38892 67.8612 20.0667 63.1889 34.0778C58.5167 48.0889 49.1834 38.7445 44.5167 52.7556C40.1834 65.7611 45.5 79.55 33.5612 106.911C27.8612 115.917 22.4778 124.567 17.4556 132.15C-4.6444 165.511 2.49449 197.511 2.49449 197.511C2.49449 197.511 40.2389 134.089 69.5112 128.339Z" fill="#77B255"/>
<path d="M157.778 46.0667C142.65 39.0555 127.361 38.2389 117.556 38.7C126.961 30.5 136.261 23.1611 145.022 17.1555C146.528 16.1222 146.911 14.0667 145.878 12.5611C144.844 11.0611 142.789 10.6778 141.289 11.7055C126.028 22.1722 109.489 36.2111 93.5722 51.8278C91.7444 44.8667 89.65 30.7667 95.5111 12.9333C96.0833 11.2 95.1389 9.33333 93.4055 8.76666C91.6833 8.19444 89.8111 9.13888 89.2389 10.8722C81.65 33.9722 86.1833 51.2333 88.2611 57.1389C78.0444 67.4833 68.1722 78.3833 59.1777 89.3555C56.7055 84.1333 53.2277 72.6167 55.9555 52.0278C56.1944 50.2222 54.9222 48.5611 53.1166 48.3222C51.3389 48.0833 49.6555 49.3444 49.4111 51.1555C46.0055 76.8778 51.6722 89.9944 54.6944 94.9278C48.5 102.75 42.7777 110.544 37.75 118.128C11.7333 157.35 4.51108 178.661 4.21663 179.544C3.63885 181.278 4.57774 183.139 6.30552 183.717C6.64996 183.833 6.99996 183.883 7.34996 183.883C8.7333 183.883 10.0222 183.011 10.4833 181.628C10.5444 181.439 16.1666 164.967 34.8055 134.928C37.3777 132.45 67.4833 104.567 104.006 113.939C105.75 114.378 107.572 113.322 108.022 111.556C108.472 109.789 107.411 107.989 105.639 107.533C80.7777 101.178 59.1222 110.133 45.3722 118.661C54.4 105.45 65.5777 91.4778 77.8055 77.9167C82.9333 76.9778 105.844 73.6 121.833 84.4722C122.406 84.8555 123.05 85.0444 123.683 85.0444C124.739 85.0444 125.783 84.5389 126.417 83.6C127.444 82.0944 127.05 80.0389 125.544 79.0111C112.122 69.8889 95.1833 69.4889 84.7777 70.3555C92.7111 61.9222 100.956 53.7667 109.228 46.1611C113.75 45.4167 134.772 42.6889 154.983 52.0555C155.433 52.2667 155.906 52.3667 156.372 52.3667C157.617 52.3667 158.806 51.6555 159.367 50.45C160.156 48.7944 159.433 46.8278 157.778 46.0667Z" fill="#A6D388"/>
</svg>
