<svg width="200" height="200" viewBox="0 0 200 200" fill="none" xmlns="http://www.w3.org/2000/svg">
<path d="M22.4556 155.089C49.6222 158.15 75 146.061 97.2945 122.056C124.028 93.2667 125.072 49.8333 125.072 44.2778C125.072 38.7222 187.906 27.3 186.183 72.0556C183.794 134.256 144.906 188.422 75.5334 193.811C42.3 196.394 21.7611 188.656 12.2722 180.783C-2.6722 168.389 8.10002 153.472 22.4556 155.089Z" fill="#DA2F47"/>
<path d="M169.694 34.7C170.828 25.5667 170.133 13.8445 165.544 7.73891C159.372 -0.477758 140.928 3.48891 145.717 8.36669C151.05 13.8056 159.356 20.8889 159.056 31.4278C158.811 31.3722 158.583 31.3056 158.333 31.25C136.911 26.4222 120.994 39.0556 118.517 47.6834C114.172 62.8056 141.1 50.8389 144.517 57.4722C154.628 77.0834 166.2 58.3334 168.978 64.5834C171.756 70.8334 191.739 88.4889 191.739 68.1167C191.739 51.3945 185.117 40.8778 169.694 34.7Z" fill="#77B255"/>
</svg>
