<svg width="200" height="200" viewBox="0 0 200 200" fill="none" xmlns="http://www.w3.org/2000/svg">
<path d="M38.8889 66.6667C57.2984 66.6667 72.2222 51.7428 72.2222 33.3333C72.2222 14.9238 57.2984 0 38.8889 0C20.4794 0 5.55556 14.9238 5.55556 33.3333C5.55556 51.7428 20.4794 66.6667 38.8889 66.6667Z" fill="#C1694F"/>
<path d="M161.111 66.6667C179.521 66.6667 194.444 51.7428 194.444 33.3333C194.444 14.9238 179.521 0 161.111 0C142.702 0 127.778 14.9238 127.778 33.3333C127.778 51.7428 142.702 66.6667 161.111 66.6667Z" fill="#C1694F"/>
<path d="M38.8889 55.5556C51.1619 55.5556 61.1111 45.6063 61.1111 33.3333C61.1111 21.0603 51.1619 11.1111 38.8889 11.1111C26.6159 11.1111 16.6667 21.0603 16.6667 33.3333C16.6667 45.6063 26.6159 55.5556 38.8889 55.5556Z" fill="#E6AAAA"/>
<path d="M161.111 55.5556C173.384 55.5556 183.333 45.6063 183.333 33.3333C183.333 21.0603 173.384 11.1111 161.111 11.1111C148.838 11.1111 138.889 21.0603 138.889 33.3333C138.889 45.6063 148.838 55.5556 161.111 55.5556Z" fill="#E6AAAA"/>
<path d="M194.444 122.222C194.444 122.222 187.178 0 100 0C12.8222 0 5.55556 122.222 5.55556 122.222C5.55556 154.844 30.55 179.572 73.4222 186.722C79.5056 194.778 89.1333 200 100 200C110.867 200 120.489 194.778 126.578 186.722C169.45 179.572 194.444 154.844 194.444 122.222Z" fill="#C1694F"/>
<path d="M100 188.889C112.273 188.889 122.222 178.94 122.222 166.667C122.222 154.394 112.273 144.444 100 144.444C87.727 144.444 77.7778 154.394 77.7778 166.667C77.7778 178.94 87.727 188.889 100 188.889Z" fill="#DD2E44"/>
<path d="M100 111.111C100 111.111 38.8889 131.594 38.8889 150C38.8889 168.406 53.8167 183.333 72.2222 183.333C83.8222 183.333 94.0278 177.406 100 168.417C105.967 177.406 116.178 183.333 127.778 183.333C146.183 183.333 161.111 168.406 161.111 150C161.111 131.594 100 111.111 100 111.111Z" fill="#D99E82"/>
<path d="M72.9167 138.889C63.8944 144.444 90.9722 161.111 100 161.111C109.028 161.111 136.106 144.444 127.078 138.889C118.05 133.333 81.9444 133.333 72.9167 138.889Z" fill="#272B2B"/>
</svg>
