<svg width="200" height="200" viewBox="0 0 200 200" fill="none" xmlns="http://www.w3.org/2000/svg">
<path d="M83.3334 150V183.333C83.3334 183.333 83.3334 200 100 200C116.667 200 116.667 183.333 116.667 183.333V150H83.3334Z" fill="#DD2E44"/>
<path d="M83.3334 183.333L83.3389 183.539C89.1223 183.344 94.5389 182.017 97.9611 176.394C98.9111 174.833 101.089 174.833 102.044 176.394C105.467 182.011 110.883 183.344 116.667 183.539V150H83.3334V183.333Z" fill="#BE1931"/>
<path d="M177.522 120.106C177.522 154.972 149.744 154.972 149.744 154.972H49.7445C49.7445 154.972 21.9667 154.972 21.9667 120.106C21.9667 82.75 49.7445 16.6667 99.7445 16.6667C149.744 16.6667 177.522 88.3055 177.522 120.106Z" fill="#D99E82"/>
<path d="M100 111.111C61.1111 111.111 44.4445 130.706 44.4445 146.639C44.4445 163.511 58.1222 177.194 75 177.194C83.9167 177.194 91.9 173.506 97.4945 161.822C98.5222 159.678 101.472 159.678 102.5 161.822C108.094 173.506 116.083 177.194 124.994 177.194C141.872 177.194 155.55 163.511 155.55 146.639C155.556 130.706 138.889 111.111 100 111.111Z" fill="#F4C7B5"/>
<path d="M83.3333 20.0444C77.45 12.2167 64.8944 4.89443 15.7111 23.3333C-7.31112 31.9667 3.93333 98.9111 21.8611 103.25C28.0055 103.25 46.45 103.25 46.45 54.0722C46.45 52.85 46.4389 51.7222 46.4222 50.6C57.5 34.9889 69.4444 26.9833 83.3333 20.0444ZM184.289 23.3333C135.106 4.89443 122.55 12.2167 116.667 20.0444C130.556 26.9889 142.5 34.9944 153.578 50.6055C153.561 51.7222 153.55 52.85 153.55 54.0778C153.55 103.256 171.989 103.256 178.139 103.256C196.067 98.9111 207.311 31.9667 184.289 23.3333Z" fill="#662113"/>
<path d="M130.556 144.444C132.09 144.444 133.333 143.201 133.333 141.667C133.333 140.133 132.09 138.889 130.556 138.889C129.021 138.889 127.778 140.133 127.778 141.667C127.778 143.201 129.021 144.444 130.556 144.444Z" fill="#D99E82"/>
<path d="M63.8889 144.444C65.423 144.444 66.6666 143.201 66.6666 141.667C66.6666 140.133 65.423 138.889 63.8889 138.889C62.3547 138.889 61.1111 140.133 61.1111 141.667C61.1111 143.201 62.3547 144.444 63.8889 144.444Z" fill="#D99E82"/>
<path d="M141.667 155.556C143.201 155.556 144.444 154.312 144.444 152.778C144.444 151.244 143.201 150 141.667 150C140.133 150 138.889 151.244 138.889 152.778C138.889 154.312 140.133 155.556 141.667 155.556Z" fill="#D99E82"/>
<path d="M58.3333 155.556C59.8674 155.556 61.1111 154.312 61.1111 152.778C61.1111 151.244 59.8674 150 58.3333 150C56.7992 150 55.5555 151.244 55.5555 152.778C55.5555 154.312 56.7992 155.556 58.3333 155.556Z" fill="#D99E82"/>
<path d="M127.778 161.111C130.846 161.111 133.333 158.624 133.333 155.556C133.333 152.487 130.846 150 127.778 150C124.709 150 122.222 152.487 122.222 155.556C122.222 158.624 124.709 161.111 127.778 161.111Z" fill="#D99E82"/>
<path d="M72.2222 161.111C75.2904 161.111 77.7777 158.624 77.7777 155.556C77.7777 152.487 75.2904 150 72.2222 150C69.1539 150 66.6666 152.487 66.6666 155.556C66.6666 158.624 69.1539 161.111 72.2222 161.111Z" fill="#D99E82"/>
<path d="M54.9055 40.1778C53.4666 36.4389 51.3833 32.4167 48.3722 29.4056C46.1999 27.2333 42.6888 27.2333 40.5166 29.4056C38.3444 31.5778 38.3444 35.0889 40.5166 37.2611C43.6833 40.4278 46.4388 48.0056 46.45 50.2945C47.2555 48.05 51.1111 43.9056 54.9055 40.1778ZM145 40.1778C146.439 36.4445 148.522 32.4167 151.533 29.4056C153.706 27.2333 157.217 27.2333 159.389 29.4056C161.561 31.5778 161.561 35.0889 159.389 37.2611C156.222 40.4278 153.467 48.0056 153.456 50.2945C152.65 48.05 148.794 43.9056 145 40.1778Z" fill="#380F09"/>
</svg>
