<svg width="200" height="200" viewBox="0 0 200 200" fill="none" xmlns="http://www.w3.org/2000/svg">
<path d="M124.967 29.6889C121.15 29.6889 117.456 30.0556 113.906 30.6722C109.356 30.0945 98.6833 29.3889 93.9555 29.3889C46.8833 29.3889 5.69995 47.0389 5.69995 108.822C5.69995 159.022 44.8611 199.717 100.011 199.717C155.161 199.717 199.867 159.022 199.867 108.822C199.861 46.3278 147.722 29.6889 124.967 29.6889Z" fill="#DD2E44"/>
<path d="M46.8833 0.505554C55.9777 9.59444 62.2722 13.0944 65.0722 27.7833C66.7277 36.4722 77.6611 36.1722 77.6611 36.1722C77.6611 36.1722 55.9777 45.9667 46.8833 55.0611C46.8833 55.0611 74.1611 45.9667 83.2555 45.9667C83.2555 45.9667 101.439 55.0611 101.439 64.15C101.439 64.15 101.439 45.9667 92.35 45.9667C92.35 45.9667 119.622 45.9667 119.622 64.15C119.622 64.15 119.622 36.8722 110.528 36.8722C110.528 36.8722 137.811 27.7833 146.906 36.8722C146.906 36.8722 137.539 27.3167 119.622 27.7833C119.622 27.7833 128.722 18.6889 146.906 18.6889C146.906 18.6889 117.528 10.2944 108.433 28.4833C108.433 28.4833 100.739 20.7889 116.128 5.4C116.128 5.4 92.35 9.59444 92.35 27.7833C92.35 27.7833 83.7277 27.5611 77.6611 20.7889C65.7666 7.5 46.8833 0.505554 46.8833 0.505554Z" fill="#77B255"/>
</svg>
