<svg width="200" height="200" viewBox="0 0 200 200" fill="none" xmlns="http://www.w3.org/2000/svg">
<path d="M154.857 191C152.493 191 150.14 190.272 148.115 188.822L100.501 154.566L52.8877 188.822C48.8316 191.734 43.3884 191.734 39.3557 188.775C35.323 185.845 33.6257 180.642 35.1357 175.892L52.8935 118.397L5.70718 85.0396C1.69792 82.0744 0.0298307 76.8603 1.5633 72.1043C3.10847 67.3599 7.50988 64.1364 12.4849 64.1012L70.9264 64.0131L89.5329 7.94439C91.1015 3.19419 95.5204 0 100.501 0C105.482 0 109.901 3.20007 111.476 7.94439L129.766 64.0131L188.506 64.1012C193.499 64.1364 197.906 67.3658 199.433 72.1043C200.973 76.8603 199.305 82.0744 195.29 85.0396L148.103 118.397L165.861 175.892C167.383 180.642 165.668 185.845 161.647 188.775C159.616 190.266 157.24 191 154.857 191Z" fill="#FFEB84"/>
</svg>
