<svg width="200" height="200" viewBox="0 0 200 200" fill="none" xmlns="http://www.w3.org/2000/svg">
<path d="M100 198.889C97.8333 198.889 95.8611 197.678 94.8833 195.75L84.8833 176.006L68.0833 190.428C67.0222 191.322 65.6944 191.8 64.35 191.8C63.6111 191.8 62.8666 191.661 62.1611 191.367C60.1666 190.544 58.7944 188.661 58.6389 186.517L56.95 164.428L35.9055 171.322C35.3222 171.511 34.7222 171.606 34.1222 171.606C32.6222 171.606 31.1666 171.017 30.0666 169.922C28.5444 168.406 28.0055 166.139 28.6778 164.083L35.5666 143.039L13.5 141.367C11.35 141.194 9.46664 139.839 8.63886 137.844C7.81664 135.839 8.17775 133.556 9.58331 131.917L23.9944 115.117L4.24997 105.117C2.3222 104.139 1.11108 102.156 1.11108 100C1.11108 97.8444 2.3222 95.8611 4.24997 94.8833L23.9944 84.8833L9.58331 68.0833C8.18331 66.4445 7.81664 64.15 8.63886 62.1611C9.46664 60.1667 11.3444 58.7945 13.5 58.6389L35.5666 56.95L28.6778 35.9056C28.0055 33.85 28.5444 31.6 30.0666 30.0667C31.1666 28.9778 32.6222 28.3945 34.1222 28.3945C34.7222 28.3945 35.3222 28.4889 35.9055 28.6778L56.95 35.5667L58.6389 13.5C58.8 11.3444 60.1666 9.46667 62.1611 8.63889C62.8666 8.35 63.6111 8.20556 64.35 8.20556C65.6944 8.20556 67.0222 8.67223 68.0833 9.58334L84.8833 23.9944L94.8833 4.25C95.8611 2.32223 97.8333 1.11111 100 1.11111C102.156 1.11111 104.139 2.32223 105.111 4.25L115.122 23.9944L131.922 9.58334C132.978 8.67223 134.317 8.20556 135.65 8.20556C136.4 8.20556 137.139 8.35 137.85 8.63889C139.839 9.46667 141.2 11.3444 141.372 13.5L143.056 35.5667L164.083 28.6778C164.667 28.4833 165.278 28.3945 165.867 28.3945C167.367 28.3945 168.833 28.9778 169.917 30.0667C171.45 31.6 171.989 33.8556 171.317 35.9056L164.422 56.95L186.511 58.6389C188.656 58.8 190.539 60.1667 191.361 62.1611C192.183 64.15 191.828 66.4445 190.422 68.0833L176 84.8833L195.744 94.8833C197.678 95.8667 198.889 97.8444 198.889 100C198.889 102.156 197.678 104.133 195.75 105.117L176.006 115.117L190.428 131.917C191.833 133.556 192.189 135.839 191.367 137.844C190.544 139.833 188.661 141.194 186.5 141.367L164.428 143.039L171.322 164.083C171.994 166.144 171.456 168.4 169.922 169.922C168.839 171.017 167.367 171.606 165.872 171.606C165.283 171.606 164.672 171.511 164.089 171.322L143.061 164.428L141.378 186.5C141.206 188.661 139.85 190.544 137.856 191.367C137.139 191.661 136.4 191.8 135.656 191.8C134.322 191.8 132.989 191.322 131.928 190.428L115.128 176.006L105.117 195.75C104.139 197.678 102.156 198.889 100 198.889Z" fill="#F4900C"/>
<path d="M172.222 100C172.222 139.883 139.883 172.222 100 172.222C60.1167 172.222 27.7778 139.889 27.7778 100C27.7778 60.1111 60.1167 27.7778 100 27.7778C139.883 27.7778 172.222 60.1167 172.222 100Z" fill="#FFCC4D"/>
</svg>
