<svg width="200" height="200" viewBox="0 0 200 200" fill="none" xmlns="http://www.w3.org/2000/svg">
<path d="M195.833 100C195.833 152.928 152.928 195.833 100 195.833C47.0722 195.833 4.16667 152.928 4.16667 100C4.16667 47.0722 47.0722 4.16667 100 4.16667C152.928 4.16667 195.833 47.0722 195.833 100Z" fill="#FFF5DB"/>
<path d="M100.439 199.717C96.0556 199.717 91.7111 199.478 87.5222 199L88.4667 190.722C96.7556 191.661 105.639 191.6 114.8 190.5L116.361 198.694L115.828 198.778C110.578 199.406 105.417 199.717 100.439 199.717ZM59.9889 191.944C51.1649 188.26 42.9613 183.238 35.6667 177.056L41.0556 170.694C47.6997 176.324 55.1728 180.894 63.2111 184.244L59.9889 191.944ZM143.494 190.15L139.872 182.65C147.74 178.84 155.025 173.928 161.506 168.061L167.094 174.244C160.024 180.642 152.078 185.998 143.494 190.15ZM16.9222 155.594C11.7924 147.575 7.79538 138.886 5.04445 129.772L13.0222 127.35C15.5503 135.728 19.2239 143.717 23.9389 151.089L16.9222 155.594ZM185.283 152.389L178.189 148.017C182.776 140.582 186.259 132.52 188.528 124.083L196.578 126.244C194.094 135.458 190.29 144.265 185.283 152.389ZM0.483341 101.744C0.199625 92.2293 1.2335 82.7207 3.55556 73.4889L11.6333 75.5278C9.49818 84.0153 8.54843 92.7575 8.81112 101.506L0.483341 101.744ZM191.65 98.1611C191.481 89.426 190.061 80.7602 187.433 72.4278L195.378 69.9167C198.244 78.9778 199.789 88.4167 199.983 97.9889L191.65 98.1611ZM21.6333 51.5111L14.5056 47.1944C19.4621 39.0141 25.6538 31.6493 32.8611 25.3611L38.3445 31.6389C31.7831 37.362 26.1462 44.0653 21.6333 51.5111ZM176.094 48.95C171.212 41.6986 165.325 35.1763 158.611 29.5778L163.95 23.1778C171.271 29.2795 177.688 36.3892 183.011 44.2944L176.094 48.95ZM60.2667 17.5278L56.7722 9.96666C65.3718 6.04015 74.4019 3.13515 83.6778 1.31111L85.3167 9.48333C76.6815 11.1787 68.2744 13.8786 60.2667 17.5278ZM136.411 15.8778C128.401 12.3959 119.93 10.0869 111.261 9.02222L112.283 0.755554C121.75 1.91667 130.989 4.43889 139.733 8.23889L136.411 15.8778Z" fill="#FFCC4D"/>
</svg>
