<svg width="200" height="200" viewBox="0 0 200 200" fill="none" xmlns="http://www.w3.org/2000/svg">
<g clip-path="url(#clip0_277_19)">
<path d="M186.339 128.878C188.361 120.111 187.689 110.733 183.794 101.4C180.028 92.3722 173.533 85.2333 165.622 80.4389C167.389 73.8167 166.922 66.6889 163.822 59.6056C159.15 48.9389 149.044 41.8222 137.644 39.8167C139.028 36.6389 139.472 32.6556 137.844 27.7778C132.289 11.1111 110.067 22.2222 93.4 0.0055542C79.8444 8.13889 76.9 20.2278 77.4111 30.4889C63.9611 32.7778 56.3 35.6889 56.3 35.6889V35.7C48.7444 38.7556 43.4 46.1611 43.4 54.8222C43.4 59.7055 45.1667 64.1333 48 67.6667L44.1556 69.1L44.1611 69.1167C31.2167 73.9555 22.0778 85.65 22.0778 99.3333C22.0778 105.15 23.7444 110.594 26.6333 115.322C10.95 122.372 0 137.672 0 155.556C0 180.1 20.5056 200 45.8 200C63.9611 200 82.2389 196.094 98.75 190.75C111.211 196.528 130.389 200 159.261 200C181.761 200 200 181.761 200 159.261C200 147.172 194.706 136.344 186.339 128.878Z" fill="#BF6952"/>
</g>
<defs>
<clipPath id="clip0_277_19">
<rect width="200" height="200" fill="white"/>
</clipPath>
</defs>
</svg>
