<svg width="200" height="200" viewBox="0 0 200 200" fill="none" xmlns="http://www.w3.org/2000/svg">
<g clip-path="url(#clip0_251_406)">
<path d="M198.522 110.717C196.528 92.5556 194.444 83.3333 188.889 72.2222C188.889 72.2222 205.556 22.2222 194.444 1.66668C190.7 -5.25554 153.311 11.0445 138.889 22.2222C138.889 22.2222 116.667 16.6778 100 16.6778C83.3333 16.6778 61.1111 22.2222 61.1111 22.2222C46.6889 11.0445 9.29997 -5.25554 5.55553 1.66668C-5.55558 22.2222 11.1111 72.2222 11.1111 72.2222C5.55553 83.3333 3.47219 92.5556 1.47775 110.717C-0.716695 130.628 3.64997 146.5 5.55553 150C7.72219 153.978 18.7055 166.806 33.3333 177.778C55.5555 194.444 88.8889 196 100 196C111.111 196 144.444 194.444 166.667 177.778C181.294 166.806 192.278 153.978 194.444 150C196.35 146.5 200.717 130.628 198.522 110.717Z" fill="#FFCC4D"/>
<path d="M11.1112 16.6667C13.5946 9.21111 42.4446 22.2222 48.0001 27.7778C48.0001 27.7778 22.2223 44.4444 16.6668 61.1111C16.6668 61.1111 5.55566 33.3333 11.1112 16.6667ZM188.889 16.6667C186.406 9.21111 157.556 22.2222 152 27.7778C152 27.7778 177.778 44.4444 183.333 61.1111C183.333 61.1111 194.445 33.3333 188.889 16.6667Z" fill="#F18F26"/>
<path d="M27.4111 31.1278C27.4111 23.2722 61.1111 38.8889 55.5556 44.4445C50 50 44.4445 53.35 38.8889 58.9056C33.3334 64.4611 27.4111 36.6833 27.4111 31.1278ZM172.589 31.1278C172.589 23.2722 138.889 38.8889 144.444 44.4445C150 50 155.556 53.35 161.111 58.9056C166.667 64.4611 172.589 36.6833 172.589 31.1278Z" fill="#FFCC4D"/>
<path d="M3.89454 138.889C3.07232 138.889 2.26121 138.528 1.71121 137.833C0.761208 136.628 0.966764 134.883 2.17232 133.933C3.07232 133.228 24.5057 116.6 61.3279 119.461C62.8557 119.572 64.0001 120.911 63.8834 122.439C63.7668 123.967 62.4557 125.222 60.9001 124.994C26.2723 122.361 5.81676 138.139 5.61676 138.3C5.1001 138.694 4.49454 138.889 3.89454 138.889ZM53.1612 112.983C52.889 112.983 52.6057 112.944 52.3334 112.861C25.7223 104.544 3.79454 110.933 3.57232 110.994C2.1001 111.444 0.555653 110.606 0.111208 109.133C-0.327681 107.661 0.505653 106.117 1.97232 105.678C2.93343 105.389 25.7834 98.75 53.9834 107.556C55.4501 108.017 56.2668 109.572 55.8057 111.039C55.439 112.222 54.3445 112.983 53.1612 112.983ZM196.106 138.889C196.928 138.889 197.739 138.528 198.289 137.833C199.239 136.628 199.033 134.883 197.828 133.933C196.928 133.228 175.495 116.6 138.672 119.461C137.145 119.572 136 120.911 136.117 122.439C136.233 123.967 137.545 125.222 139.1 124.994C173.728 122.361 194.183 138.139 194.383 138.3C194.9 138.694 195.506 138.889 196.106 138.889ZM146.839 112.983C147.111 112.983 147.395 112.944 147.667 112.861C174.278 104.544 196.206 110.933 196.428 110.994C197.9 111.444 199.445 110.606 199.889 109.133C200.328 107.661 199.495 106.117 198.028 105.678C197.067 105.389 174.217 98.75 146.017 107.556C144.55 108.017 143.733 109.572 144.195 111.039C144.556 112.222 145.656 112.983 146.839 112.983Z" fill="#FEE7B8"/>
</g>
<defs>
<clipPath id="clip0_251_406">
<rect width="200" height="200" fill="white"/>
</clipPath>
</defs>
</svg>
