<svg width="200" height="200" viewBox="0 0 200 200" fill="none" xmlns="http://www.w3.org/2000/svg">
<g clip-path="url(#clip0_288_566)">
<path d="M16.6666 108.333C16.6666 57.7111 57.7055 16.6667 108.328 16.6667C158.956 16.6667 199.994 57.7056 199.994 108.333C199.994 158.961 158.956 200 108.328 200C57.7055 200 16.6666 158.961 16.6666 108.333Z" fill="#F4900C"/>
<path d="M63.4111 42.1389C61.9278 40.6556 58.9833 41.0444 55.8833 42.8056C37.55 27.6278 7.81112 22.5167 6.46668 22.2944C3.43335 21.8 0.583346 23.8333 0.0777903 26.8556C-0.427765 29.8778 1.61112 32.7444 4.6389 33.25C4.93335 33.3 32.05 37.9944 48.0889 50.8056C46.5611 53.7222 46.2889 56.4444 47.7 57.85C49.8667 60.0222 55.1445 58.2611 59.4833 53.9222C63.8222 49.5889 65.5778 44.3111 63.4111 42.1389Z" fill="#662113"/>
<path d="M116.667 5.55558C116.667 5.55558 99.4111 29.5445 77.6611 34.85C61.1111 38.8889 39.1166 39.2778 36.9222 34.1667C34.7333 29.0611 45.6555 12.2945 64.5277 4.20558C83.3999 -3.87775 116.667 5.55558 116.667 5.55558Z" fill="#5C913B"/>
</g>
<defs>
<clipPath id="clip0_288_566">
<rect width="200" height="200" fill="white"/>
</clipPath>
</defs>
</svg>
