<svg width="200" height="200" viewBox="0 0 200 200" fill="none" xmlns="http://www.w3.org/2000/svg">
<g clip-path="url(#clip0_288_561)">
<path d="M63.3611 18.55C99.3611 11.4666 110.322 25.5778 128.111 19.0166C145.9 12.4555 128.628 34.6833 123.972 38.5055C119.306 42.3278 78.7445 65.2222 61.1556 56.8278C43.5667 48.4333 43.4778 22.4611 63.3611 18.55Z" fill="#5C913B"/>
<path d="M83.3389 88.8889C81.65 88.8889 79.9778 88.1222 78.8889 86.6667C75.0723 81.5778 71.6223 75.8055 67.9723 69.6889C55.3723 48.6055 41.0889 24.7 4.35002 16.5333C1.35558 15.8667 -0.533309 12.9 0.133357 9.90555C0.800024 6.90555 3.76669 5.02777 6.76114 5.68888C48.1723 14.8889 64.4389 42.1167 77.5112 63.9944C81.0112 69.85 84.3112 75.3778 87.7778 80C89.6223 82.4555 89.1223 85.9389 86.6667 87.7778C85.6667 88.5278 84.5 88.8889 83.3389 88.8889Z" fill="#77B255"/>
<path d="M190.556 175.189C190.567 175.094 190.539 175.033 190.539 174.95C205.95 145.311 205.244 90.9889 171.95 57.6889C139.722 25.4667 95.95 25.35 67.6889 35.0944C58.9167 38.5055 51.4834 35.4611 46.4945 40.4555C41.6 45.35 44.5445 55.5611 42.5278 61.6722C24.9222 90.5722 23.6111 134.033 57.4611 167.878C85.0278 195.444 115.45 205.889 168.461 194.839C168.472 194.828 168.489 194.833 168.506 194.828C174.883 193.617 184.894 197.733 188.317 194.306C194.344 188.278 190.033 181.206 190.556 175.189Z" fill="#FFCC4D"/>
<path d="M45.6 36.5722C45.6 36.5722 21.8777 33.2945 7.50552 62.1222C-6.8667 90.9445 10.7389 112.817 9.11663 132.417C7.48885 152.028 17.8166 139.444 23.6777 129.944C29.5389 120.444 47.1777 102.75 51.1111 78.45C55.0389 54.1389 50.7222 42.5722 45.6 36.5722Z" fill="#77B255"/>
</g>
<defs>
<clipPath id="clip0_288_561">
<rect width="200" height="200" fill="white"/>
</clipPath>
</defs>
</svg>
