<svg width="65" height="65" viewBox="0 0 65 65" fill="none" xmlns="http://www.w3.org/2000/svg">
<path d="M50.5898 28.2028L31.3014 1.6362C31.18 1.49332 31.0564 1.36503 30.9437 1.2603C30.9172 1.22267 30.8985 1.16203 30.867 1.12498C29.2447 -0.784416 21.2937 3.30484 13.111 10.2574C4.92727 17.2108 -0.392158 24.395 1.23108 26.3055C1.26256 26.3425 1.31023 26.3622 1.3461 26.3937C1.4302 26.5227 1.52965 26.6569 1.65106 26.7998L24.7684 50.1422C21.8781 54.2565 20.5978 57.679 21.8784 59.1862C24.3623 62.1095 35.489 56.7344 45.4266 48.2908C55.3642 39.8473 62.4656 29.7346 59.9817 26.8112C58.7011 25.304 55.1169 26.0148 50.5898 28.2028Z" fill="#31373D"/>
<path d="M18.4915 17.5851C13.3158 21.9827 8.58111 24.3725 5.52517 25.6022C4.81318 25.8882 4.00358 25.5445 3.71757 24.8325C3.43156 24.1205 3.77311 23.3127 4.48722 23.0249C8.41104 21.4461 18.4779 16.4065 27.1454 3.74398C27.5776 3.11795 28.4417 2.94875 29.0754 3.38355C29.7092 3.81639 29.8704 4.68181 29.4367 5.31461C25.8542 10.5492 22.0679 14.5463 18.4915 17.5851Z" fill="#66757F"/>
<path d="M50.5898 28.2028L45.8198 21.6321C39.6044 30.8443 29.1921 39.7823 18.6857 43.9999L23.7258 49.0889C24.0723 49.3486 24.43 49.6752 24.8131 50.1261C26.3869 51.9784 28.7206 51.9601 30.8 51.2286C37.0545 49.0273 47.0538 40.4183 50.8398 34.4731C51.9852 32.6743 52.2195 30.1423 50.9083 28.5992C50.8013 28.4732 50.7075 28.3306 50.6091 28.1955L50.5898 28.2028Z" fill="#744EAA"/>
</svg>
