<svg width="86" height="86" viewBox="0 0 86 86" fill="none" xmlns="http://www.w3.org/2000/svg">
<g clip-path="url(#clip0_189_166)">
<path d="M31.6422 41.5221L9.68664 37.7621L16.373 55.3769L31.6422 41.5221Z" fill="#F4900C"/>
<path d="M22.4528 21.0329L28.8619 46.163L46.8422 29.8482L22.4528 21.0329Z" fill="#F4900C"/>
<path d="M42.1249 32.0103L40.5101 9.79373L57.3942 18.1555L42.1249 32.0103Z" fill="#F4900C"/>
<path d="M49.1562 20.9219L28.1027 10.8832L34.5513 34.1765L34.5454 34.1894L34.5309 34.1926L11.9719 25.5173L19.9247 47.4458C10.2154 45.3727 2.75001 45.1752 2.75001 45.1752C2.75001 45.1752 20.9028 60.4462 36.13 77.2279L77.2279 39.9368C62.0007 23.1551 48.5604 3.60805 48.5604 3.60805C48.5604 3.60805 48.0337 11.0575 49.1562 20.9219Z" fill="#FFCC4D"/>
<path d="M47.5309 48.6189C50.3212 46.087 50.5308 41.7725 47.9989 38.9822C45.4671 36.1919 41.1526 35.9824 38.3623 38.5143C35.572 41.0461 35.3625 45.3606 37.8943 48.1509C40.4262 50.9412 44.7406 51.1507 47.5309 48.6189Z" fill="#5C913B"/>
<path d="M57.5974 36.2976C59.4223 34.6417 59.5594 31.82 57.9035 29.9951C56.2476 28.1702 53.4259 28.0332 51.601 29.689C49.7761 31.3449 49.6391 34.1666 51.295 35.9915C52.9508 37.8164 55.7725 37.9534 57.5974 36.2976Z" fill="#981CEB"/>
<path d="M65.8204 27.7722C67.323 26.4088 67.4358 24.0854 66.0724 22.5829C64.709 21.0803 62.3856 20.9674 60.8831 22.3308C59.3805 23.6943 59.2676 26.0176 60.631 27.5202C61.9944 29.0228 64.3178 29.1356 65.8204 27.7722Z" fill="#DD2E44"/>
<path d="M34.2908 57.4453C36.1157 55.7895 36.2528 52.9678 34.5969 51.1429C32.941 49.318 30.1193 49.1809 28.2944 50.8368C26.4695 52.4927 26.3325 55.3144 27.9884 57.1393C29.6442 58.9642 32.4659 59.1012 34.2908 57.4453Z" fill="#981CEB"/>
<path d="M25.0088 64.8035C26.5114 63.4401 26.6242 61.1167 25.2608 59.6142C23.8974 58.1116 21.5741 57.9987 20.0715 59.3621C18.5689 60.7255 18.4561 63.0489 19.8195 64.5515C21.1829 66.0541 23.5062 66.1669 25.0088 64.8035Z" fill="#DD2E44"/>
<path d="M78.4709 41.3067L37.373 78.5978C36.6168 79.2839 35.4475 79.2285 34.7601 78.4709C34.0727 77.7133 34.1307 76.5441 34.8869 75.8579L75.9848 38.5668C76.7424 37.8794 77.9104 37.9362 78.5978 38.6937C79.2852 39.4513 79.2285 40.6193 78.4709 41.3067ZM74.1377 36.5311L33.0398 73.8222C32.2836 74.5084 31.1142 74.4529 30.4268 73.6953C29.7394 72.9378 29.7975 71.7685 30.5537 71.0824L71.6516 33.7913C72.4092 33.1039 73.5772 33.1606 74.2646 33.9182C74.952 34.6757 74.8952 35.8437 74.1377 36.5311Z" fill="#FFAC33"/>
<path d="M4.72774 46.8951C5.79226 45.9292 5.87219 44.2832 4.90627 43.2186C3.94035 42.1541 2.29436 42.0742 1.22983 43.0401C0.165309 44.006 0.0853735 45.652 1.05129 46.7166C2.01721 47.7811 3.66321 47.861 4.72774 46.8951Z" fill="#FFCC4D"/>
<path d="M11.1683 39.395C12.0702 38.5767 12.1379 37.1822 11.3196 36.2804C10.5013 35.3785 9.1068 35.3108 8.20494 36.1291C7.30309 36.9474 7.23537 38.3419 8.05369 39.2438C8.87201 40.1456 10.2665 40.2133 11.1683 39.395Z" fill="#F4900C"/>
<path d="M14.1907 27.9626C15.5405 26.7379 15.6419 24.6508 14.4171 23.3011C13.1924 21.9513 11.1054 21.85 9.75559 23.0747C8.40584 24.2994 8.30448 26.3865 9.52922 27.7362C10.754 29.086 12.841 29.1874 14.1907 27.9626Z" fill="#FFCC4D"/>
<path d="M50.0806 5.74313C51.1451 4.77721 51.2251 3.13121 50.2592 2.06669C49.2932 1.00217 47.6472 0.922231 46.5827 1.88815C45.5182 2.85407 45.4383 4.50007 46.4042 5.56459C47.3701 6.62912 49.0161 6.70905 50.0806 5.74313Z" fill="#FFCC4D"/>
<path d="M41.9917 11.4267C42.8936 10.6084 42.9613 9.2139 42.143 8.31205C41.3247 7.41019 39.9302 7.34247 39.0283 8.16079C38.1265 8.97911 38.0588 10.3736 38.8771 11.2754C39.6954 12.1773 41.0899 12.245 41.9917 11.4267Z" fill="#F4900C"/>
<path d="M30.3203 13.3271C31.6701 12.1024 31.7714 10.0153 30.5467 8.66559C29.3219 7.31583 27.2349 7.21448 25.8851 8.43921C24.5354 9.66394 24.434 11.751 25.6588 13.1007C26.8835 14.4505 28.9705 14.5519 30.3203 13.3271Z" fill="#FFCC4D"/>
<path d="M24.6703 23.4769C26.0201 22.2521 26.1214 20.1651 24.8967 18.8153C23.672 17.4656 21.5849 17.3642 20.2352 18.589C18.8854 19.8137 18.7841 21.9007 20.0088 23.2505C21.2335 24.6002 23.3206 24.7016 24.6703 23.4769Z" fill="#F4900C"/>
</g>
<defs>
<clipPath id="clip0_189_166">
<rect width="66.5936" height="66.5936" fill="white" transform="translate(-9 35.7493) rotate(-42.2197)"/>
</clipPath>
</defs>
</svg>
