<svg width="89" height="100" viewBox="0 0 89 100" fill="none" xmlns="http://www.w3.org/2000/svg">
<path d="M58.0389 2.03056C68.1306 5.47222 71.7472 25.6556 60.7917 30.6333C56.3861 32.6333 49.5444 34.8306 43.6111 33.5C36.0083 31.7972 30.4972 32.8389 30.4972 32.8389C30.4972 32.8389 43.8222 38.9222 48.1056 50.4028C52.3889 61.8833 51.0833 70.3222 57.0917 75.8556C61.8361 80.225 64.8417 86.1333 61.6444 89.7278C57.3528 94.5556 50.7306 89.65 44.7 96.6167C40.4722 101.5 31.3389 99.9 25.0111 97.0111C17.0139 93.3611 27.2528 90.925 30.1278 90.6306C33.3222 90.3056 44.8222 84.1083 39.3778 75.2306C27.7222 56.2278 15.7639 45.9417 7.95277 40.2028C0.969441 35.075 0.252774 25.4444 7.54444 16.6889C12.1611 11.1444 22.0694 6.81667 33.2472 3.54167C41.025 1.26111 49.8389 -0.766665 58.0389 2.03056Z" fill="#FFDC5D"/>
<path d="M11.9639 36.2416L11.8472 36.1861C10.7889 35.625 10.3861 34.3139 10.9472 33.2583C14.1528 27.2055 12.2583 22.15 12.1778 21.9361C11.7472 20.825 12.2917 19.5694 13.4 19.1305C14.5056 18.6944 15.7583 19.2222 16.2028 20.3305C16.3167 20.6139 18.9611 27.3889 14.7778 35.2833C14.2389 36.3028 13 36.7139 11.9639 36.2416Z" fill="#EF9645"/>
</svg>
