<svg width="83" height="100" viewBox="0 0 83 100" fill="none" xmlns="http://www.w3.org/2000/svg">
<g clip-path="url(#clip0_356_111)">
<path d="M57.9778 52.8223C57.2694 52.1139 56.4417 51.5167 55.5472 51.0556L54.4361 47.2889L32.1806 47.1334L31.3278 50.1639C30.0306 50.4278 28.4361 51.2445 27.4583 52.1584L17.4278 41.175C15.1583 42.1862 13.5694 44.4528 13.5694 47.1V49.7667L2.45833 61.3389L2.50277 67.4167L30.2361 97.2195C30.2361 97.2195 59.4528 54.7528 59.5222 54.8362C59.1694 54.2139 58.1028 52.8834 57.9778 52.8223Z" fill="#EF9645"/>
<path d="M51.2806 50.0001H33C32.4222 50.0001 31.8583 50.0584 31.3139 50.1695L31.1111 49.3973L22.0194 14.7751C22.0194 14.7751 20.8639 9.33895 26.2972 8.18617C31.7306 7.03061 32.8861 12.4639 32.8861 12.4639L41.4889 44.6001C42.7278 44.6667 43.9278 44.7751 45.1139 44.8973L50.8389 15.6973C50.8389 15.6973 51.3611 10.1667 56.8944 10.6862C62.425 11.2084 61.9028 16.7389 61.9028 16.7389L56.1667 47.7417L55.5528 51.0584C54.2639 50.4056 52.825 50.0001 51.2806 50.0001ZM7.76667 44.4445H8.23333C11.175 44.4445 13.5556 46.8278 13.5556 49.7695V61.3417C13.5556 64.2834 11.175 66.6667 8.23333 66.6667H7.76667C4.825 66.6667 2.44444 64.2834 2.44444 61.3417V49.7695C2.44444 46.8278 4.825 44.4445 7.76667 44.4445ZM26.9833 52.6667L26.8278 52.8389C25.5111 54.3084 24.6667 56.2028 24.6667 58.3334C24.6667 58.5084 24.7028 58.6751 24.7167 58.8473C24.8389 60.7306 25.5722 62.4362 26.7389 63.7751C26.5417 64.1334 26.2861 64.4501 26.0194 64.7556C25.0028 65.9139 23.5472 66.6667 21.8889 66.6667C18.8222 66.6667 16.3333 64.1778 16.3333 61.1112V44.4445C16.3333 43.2195 16.7417 42.0973 17.4139 41.1778C18.425 39.7973 20.0444 38.8889 21.8889 38.8889C24.9556 38.8889 27.4444 41.3778 27.4444 44.4445V52.1612C27.275 52.3139 27.1417 52.5028 26.9833 52.6667Z" fill="#FFDC5D"/>
<path d="M8.17223 69.4445C11.0167 69.4445 13.5194 67.9834 14.9778 65.7723C15.3194 66.2806 15.7306 66.7334 16.175 67.1528C19.4667 70.2501 24.6028 70.0528 27.75 66.9139C28.1722 66.4917 28.5917 66.0667 28.9139 65.5584L28.9056 65.5501C29.4639 65.8695 30.2222 66.6667 33 66.6667H40.0472C39.0194 67.4417 38.0806 68.3973 37.2028 69.4445C33.7917 73.5195 31.6111 79.4612 31.6111 86.1112C31.6111 86.8778 32.2333 87.5001 33 87.5001C33.7667 87.5001 34.3889 86.8778 34.3889 86.1112C34.3889 79.0334 37.0444 72.8473 40.9917 69.4445C43.025 67.6917 45.3917 66.6667 47.9306 66.6667C49.9111 66.8862 50.2833 63.8889 48.2778 63.8889H33C29.9333 63.8889 27.4444 61.4001 27.4444 58.3334C27.4444 55.2667 29.9333 52.7778 33 52.7778H55.2222C57.6056 52.7778 59.8333 54.4334 60.5361 56.7084L63.5556 66.6667C63.8417 67.5973 64.8861 71.8639 64.6972 72.7528C64.6972 86.1112 51.6528 100 35.7778 100C17.6194 100 2.87778 85.4695 2.48334 67.4056L2.52223 67.4334C3.95278 68.6695 5.78889 69.4445 7.82778 69.4445H8.17223Z" fill="#FFDC5D"/>
</g>
<defs>
<clipPath id="clip0_356_111">
<rect width="100" height="100" fill="white" transform="translate(-17)"/>
</clipPath>
</defs>
</svg>
