<svg width="100" height="82" viewBox="0 0 100 82" fill="none" xmlns="http://www.w3.org/2000/svg">
<path d="M23.3361 17.1749C32.2722 19.5194 53.7333 25.8249 58.8417 28.0277C70.6306 33.1083 79.6944 42.7666 79.5306 53.5999C79.3528 65.3194 74.6194 72.8888 57.6194 75.9555C40.3944 79.0638 29.1722 79.9472 22.5472 80.9277C12.9583 82.3472 10.5417 68.161 20.6833 66.8999C20.6833 66.8999 11.875 65.6583 6.45833 65.0555C0.0666658 64.3444 -0.416668 59.2055 0.972221 52.3388C2.39167 45.3249 7.34444 33.1805 9.84167 26.9444C13.0194 19.0027 16.2333 15.3083 23.3361 17.1749Z" fill="#FFDC5D"/>
<path d="M14.2722 75.2611C14.2722 75.2611 13.4361 67.6695 20.8417 66.9139C25.1917 66.4695 31.0528 65.7528 33.2722 65.4945C37.0889 65.05 37.8889 61.7639 36.9139 58.925C35.95 56.1223 29.9889 41.4334 28.5667 37.7028C27.5111 34.9334 24.7778 35.8723 23.7722 37.8806C21.9139 41.5945 18.6944 48.5612 18.2667 49.6889C17.2972 52.2556 20.3083 54.0389 21.7306 51.4639C22.6917 49.7223 26.2583 41.3417 26.2583 41.3417C26.2583 41.3417 32.9167 57.4139 33.6278 59.4556C34.2472 61.2334 33.45 62.2973 31.675 62.5639C29.9 62.8306 21.9944 63.7889 19.6 64.1611C15.6028 64.7834 12.5833 68.7806 14.2722 75.2611Z" fill="#EF9645"/>
<path d="M21.375 48.8916C21.375 48.8916 24.2167 50.1361 26.4361 50.9333C28.6556 51.7333 27.8556 54.8388 25.5472 54.2194C23.2389 53.5972 19.5083 52.6222 19.5083 52.6222L21.375 48.8916ZM11.6083 26.25C12.6889 23.9472 15.25 25.2722 14.6278 27.1388C14.0056 29.0027 4.59444 51.4666 3.70555 53.775C2.81666 56.0833 1.39722 55.55 2.10833 53.1527C2.81944 50.7555 10.275 29.0916 11.6083 26.25Z" fill="#EF9645"/>
<path d="M26.2583 41.3445C25.1722 45.225 26.4083 49.9306 27.4833 51.9945L20.7167 49.5195L26.2583 41.3445Z" fill="#EF9645"/>
<path d="M59.0472 28.2167C67.9861 31.1056 80.225 31.3806 91.0889 30.3611C96.7028 29.8361 100 29.8139 100 34.35V63.8056C100 69.3333 98.1444 69.275 92.1889 68.4806C83.1139 67.2695 78.025 65.0695 69.3611 72.2222C63.3167 77.2139 42.225 22.7833 59.0472 28.2167Z" fill="#FFDC5D"/>
</svg>
