<svg width="84" height="100" viewBox="0 0 84 100" fill="none" xmlns="http://www.w3.org/2000/svg">
<path d="M58.9778 52.8222C58.2695 52.1139 56.7583 51.125 54.9778 50.15L49.6695 44.5944L43.8 50.15H42.1889L35.2195 40.0555C31.3889 40.0833 28.2833 43.2111 28.3111 47.0417L18.4333 41.175C16.1639 42.1861 14.575 44.4528 14.575 47.1V49.7667L3.4639 61.3444L3.50834 67.4139L31.2417 97.2167C31.2417 97.2167 60.4583 54.75 60.5278 54.8333C60.1695 54.2139 59.1028 52.8833 58.9778 52.8222Z" fill="#EF9645"/>
<path d="M54.9778 16.1389C54.9778 13.0639 52.4611 10.5472 49.3861 10.5472C46.3111 10.5472 43.7945 13.0639 43.7945 16.1389V50.1528H54.975L54.9778 16.1389ZM42.1861 50.15V44.4722C42.1639 41.4084 39.6611 38.9417 36.5972 38.9639C33.5333 38.9861 31.0667 41.4889 31.0889 44.5528L31.1222 50.1528L42.1861 50.15ZM8.76668 44.4445H9.23335C12.175 44.4445 14.5556 46.8278 14.5556 49.7695V61.3417C14.5556 64.2833 12.175 66.6667 9.23335 66.6667H8.76668C5.82501 66.6667 3.44446 64.2833 3.44446 61.3417V49.7695C3.44446 46.8278 5.82501 44.4445 8.76668 44.4445ZM27.9833 52.6667L27.8278 52.8389C26.5111 54.3083 25.6667 56.2028 25.6667 58.3333C25.6667 58.5083 25.7028 58.675 25.7167 58.8472C25.8389 60.7306 26.5722 62.4361 27.7389 63.775C27.5417 64.1333 27.2861 64.45 27.0195 64.7556C26.0028 65.9139 24.5472 66.6667 22.8889 66.6667C19.8222 66.6667 17.3333 64.1778 17.3333 61.1111V44.4445C17.3333 43.2195 17.7417 42.0972 18.4139 41.1778C19.425 39.7972 21.0445 38.8889 22.8889 38.8889C25.9556 38.8889 28.4445 41.3778 28.4445 44.4445V52.1611C28.275 52.3139 28.1417 52.5028 27.9833 52.6667Z" fill="#FFDC5D"/>
<path d="M9.17223 69.4445C12.0167 69.4445 14.5194 67.9834 15.9778 65.7723C16.3194 66.2806 16.7306 66.7334 17.175 67.1528C20.4667 70.2501 25.6028 70.0528 28.75 66.9139C29.1722 66.4917 29.5917 66.0667 29.9139 65.5584L29.9056 65.5501C30.4639 65.8695 31.2222 66.6667 34 66.6667H41.0472C40.0194 67.4417 39.0806 68.3973 38.2028 69.4445C34.7917 73.5195 32.6111 79.4612 32.6111 86.1112C32.6111 86.8778 33.2333 87.5001 34 87.5001C34.7667 87.5001 35.3889 86.8778 35.3889 86.1112C35.3889 79.0334 38.0444 72.8473 41.9917 69.4445C44.025 67.6917 46.3917 66.6667 48.9306 66.6667C50.9111 66.8862 51.2833 63.8889 49.2778 63.8889H34C30.9333 63.8889 28.4444 61.4001 28.4444 58.3334C28.4444 55.2667 30.9333 52.7778 34 52.7778H56.2222C58.6056 52.7778 60.8333 54.4334 61.5361 56.7084L64.5556 66.6667C64.8417 67.5973 65.8861 71.8639 65.6972 72.7528C65.6972 86.1112 52.6528 100 36.7778 100C18.6194 100 3.87778 85.4695 3.48334 67.4056L3.52223 67.4334C4.95278 68.6695 6.78889 69.4445 8.82778 69.4445H9.17223Z" fill="#FFDC5D"/>
</svg>
