<svg width="119" height="142" viewBox="0 0 119 142" fill="none" xmlns="http://www.w3.org/2000/svg">
<g clip-path="url(#clip0_353_59)">
<path d="M63.6357 76.0139C66.1577 77.4596 67.0043 80.6946 65.5252 83.2461L65.1678 83.8589C63.6828 86.4045 60.436 87.2943 57.9101 85.8486L23.7843 66.3128C19.636 64.0147 17.2436 60.3496 19.2274 56.7276L19.907 55.6434C21.388 53.0978 23.9316 53.2844 26.4537 54.73L63.6357 76.0139ZM79.0369 64.1562C80.7712 66.6448 80.1388 70.1017 77.6207 71.8734L77.4203 72.0149C74.9062 73.7866 71.4571 73.2012 69.7247 70.7106L45.518 35.9524C43.7837 33.4638 43.3555 30.9889 45.8696 29.2172L46.4864 28.8872C53.2176 24.7369 58.189 34.222 54.8283 29.3999L79.0369 64.1562Z" fill="#EF9645"/>
<path d="M59.2673 86.2317C61.6754 87.6223 62.5023 90.7002 61.1137 93.1103L60.5932 94.0118C59.2025 96.4199 56.1246 97.2469 53.7165 95.8562L23.9434 78.6696C21.5373 77.277 20.7104 74.1952 22.101 71.7871L22.6196 70.8875C24.0082 68.4774 27.0881 67.6525 29.4981 69.0412L59.2673 86.2317ZM63.6553 72.7299C66.1479 74.1657 67.0003 77.3516 65.5625 79.8422L65.2149 80.4452C63.7771 82.9358 60.5912 83.7883 58.1006 82.3505L21.4135 61.1687C18.921 59.7329 18.0685 56.547 19.5063 54.0564L19.854 53.4534C21.2918 50.9628 24.4777 50.1103 26.9702 51.5462L63.6553 72.7299ZM75.8293 65.2856C77.4793 67.6427 76.9077 70.8895 74.5507 72.5394L73.981 72.9361C71.624 74.586 68.3772 74.0145 66.7273 71.6574L42.4323 36.9601C40.7824 34.6031 41.354 31.3563 43.711 29.7064L44.2786 29.3076C46.6357 27.6577 49.8844 28.2313 51.5363 30.5863L75.8293 65.2856ZM87.4043 57.6037C88.9442 59.8036 88.4139 62.8324 86.212 64.3742L85.0748 65.1697C82.8749 66.7097 79.8461 66.1754 78.3042 63.9775L55.2054 30.9831C53.6674 28.7852 54.1978 25.7525 56.3957 24.2145L57.5349 23.4171C59.7348 21.8771 62.7655 22.4134 64.3035 24.6113L87.4043 57.6037ZM110.556 67.6309C111.304 70.4298 109.645 73.3074 106.844 74.0577L106.251 74.2148C103.45 74.9651 100.572 73.3054 99.8258 70.5045L91.755 40.3994C91.0066 37.6004 92.6663 34.719 95.4673 33.9687L96.0605 33.8115C98.8594 33.0592 101.739 34.7249 102.487 37.5238L110.556 67.6309Z" fill="#FFDC5D"/>
<path d="M43.5853 90.0068C47.3035 92.1537 53.4101 100.551 58.9256 106.066C64.441 111.581 86.6697 125.462 106.066 106.066C125.462 86.6696 110.517 69.2689 108.686 61.5458C106.856 53.8226 94.5284 50.6602 96.1646 56.8808C97.8007 63.1014 92.686 64.9281 86.9172 56.7983C81.1484 48.6686 70.0566 52.1943 74.7785 58.9432C78.7835 64.6688 75.3972 65.2109 71.3078 58.8273C67.2144 52.4437 57.6881 59.012 63.51 67.4383C67.7919 73.6333 62.41 72.0424 58.6231 69.8228C54.8361 67.6033 46.5473 75.3618 52.2552 78.9759C60.4026 84.1339 60.2337 86.9741 49.9276 81.0246C43.3889 77.2514 43.5853 90.0068 43.5853 90.0068Z" fill="#FFDC5D"/>
</g>
<defs>
<clipPath id="clip0_353_59">
<rect width="100" height="100" fill="white" transform="translate(0 70.7107) rotate(-45)"/>
</clipPath>
</defs>
</svg>
