<svg width="100" height="81" viewBox="0 0 100 81" fill="none" xmlns="http://www.w3.org/2000/svg">
<path d="M38.8778 65.2722C31.7421 62.5971 25.8824 57.3219 22.475 50.5055C20.2255 46.008 19.7304 40.8342 21.0861 35.9917C21.4348 34.7446 22.0841 33.6022 22.9772 32.6646C23.8703 31.727 24.9797 31.0228 26.2083 30.6139C29.0251 29.6744 32.0739 29.6949 34.8778 30.6722L39.7139 32.3583C40.9611 32.9833 41.9111 34.0778 42.3528 35.4028L43.5639 39.0333C44.0917 40.6055 45.5639 41.6667 47.2222 41.6667C47.2222 41.6667 50 41.6667 50 38.8889V32.7222C50.0001 31.1743 49.6597 29.6453 49.003 28.2436C48.3463 26.8419 47.3894 25.6018 46.2 24.6111L35.5889 15.7694C34.8932 15.1897 34.0665 14.7888 33.1806 14.6014C32.2946 14.4141 31.3763 14.446 30.5056 14.6944L15.5944 18.9583C14.4852 19.2743 13.5017 19.9276 12.7806 20.8278L0 33.3333V57.6944L3.51667 66.4222L12.3472 70.3639C14.2444 69.7972 16.2167 69.4444 18.0556 69.4444C25.5389 69.4444 34.7861 71.2278 42.7917 77.2333L45.3944 79.1861C45.9017 79.5658 46.5288 79.7501 47.1608 79.7052C47.7929 79.6603 48.3876 79.3892 48.8361 78.9417L50 77.7778V72.2222C50 69.4444 38.8778 65.2722 38.8778 65.2722Z" fill="#FFE277"/>
<path d="M87.2194 20.8278C86.4994 19.9271 85.517 19.2727 84.4083 18.9555L69.4944 14.6944C68.6237 14.4457 67.7053 14.4137 66.8194 14.601C65.9334 14.7884 65.1066 15.1895 64.4111 15.7694L53.8 24.6111C52.6106 25.6018 51.6537 26.8419 50.997 28.2436C50.3403 29.6453 49.9999 31.1743 50 32.7222V38.8889C50 41.6666 52.7778 41.6666 52.7778 41.6666C54.4361 41.6666 55.9083 40.6055 56.4333 39.0305L57.6444 35.4C58.0861 34.075 59.0361 32.9805 60.2833 32.3555L65.1194 30.6694C67.9234 29.6922 70.9721 29.6716 73.7889 30.6111C75.0174 31.0202 76.1267 31.7245 77.0198 32.6621C77.9128 33.5996 78.5622 34.7419 78.9111 35.9889C80.2669 40.8314 79.7718 46.0052 77.5222 50.5028C74.1139 57.3185 68.2545 62.5934 61.1194 65.2694C61.1194 65.2694 50 69.4444 50 72.2222V77.7778L51.1639 78.9417C51.6124 79.3892 52.2071 79.6603 52.8392 79.7052C53.4712 79.75 54.0983 79.5658 54.6056 79.1861L57.2083 77.2333C65.2139 71.2278 74.4611 69.4444 81.9444 69.4444C83.7806 69.4444 85.7556 69.8 87.65 70.3667L96.4833 66.4222L100 57.6944V33.3333L87.2194 20.8278Z" fill="#FFE277"/>
<path d="M12.3472 70.3639C7.98333 66.7528 6.30278 68.0417 3.51667 63.6445C3.28056 63.2833 0.572222 57.8583 0 57.6945V77.7778L5.46389 73.6806C7.23056 72.3556 9.71944 71.1528 12.35 70.3667L12.3472 70.3639ZM96.4833 63.6445C93.6972 68.0417 92.0167 66.7528 87.65 70.3667C90.2833 71.1528 92.7694 72.3556 94.5361 73.6806L100 77.7778V57.6945C99.4278 57.8583 96.7194 63.2833 96.4833 63.6445Z" fill="#FDC029"/>
</svg>
