<svg width="100" height="100" viewBox="0 0 100 100" fill="none" xmlns="http://www.w3.org/2000/svg">
<path d="M89.4944 30.3139C87.2444 27.0167 83.4611 24.85 79.1667 24.85H77.7778C77.7778 24.85 62.9083 9.09448 63.4722 7.93059C60.4278 9.57226 58.3333 12.7528 58.3333 16.4556C58.3333 16.4556 43.0306 6.92503 43.7583 5.4917C40.8611 7.41392 38.8889 10.9611 38.8889 15.0667V16.5167C38.8889 16.5167 23.7583 12.0028 24.6028 10.6973C21.5472 12.3361 19.4444 15.5223 19.4444 19.2334V24.4723L2.77778 41.8945V49.2417L50.4444 89.35C50.4444 89.3528 86.9111 27.7834 89.4944 30.3139Z" fill="#EF9645"/>
<path d="M11.4556 52.6278C15.55 52.6278 19.0611 50.3194 20.8778 46.9528C22.7611 50.3194 26.3167 52.6278 30.45 52.6278H30.6611C33.8639 52.6278 36.6861 51.2111 38.6861 49.0222C38.75 48.9556 38.8889 48.7944 38.8889 48.7944C39.4028 48.2056 39.8417 47.55 40.225 46.8639C40.3361 46.6639 41.0056 45.1389 41.175 44.55C41.3194 44.0694 41.4694 43.5944 41.5472 43.0889C41.9389 43.5528 42.3694 43.975 42.825 44.3667C43.0167 44.5306 44.075 45.3083 44.425 45.5139C46.0611 46.4889 47.9556 47.0694 50.0028 47.0694H58.7972C57.3111 47.8194 56.0222 48.775 54.8417 49.8472C50.0389 54.2028 47.6778 61.1944 47.6778 71.1333C47.6778 71.9 48.3 72.5222 49.0667 72.5222C49.8333 72.5222 50.4556 71.9 50.4556 71.1333C50.4556 60.1278 53.2611 53.2806 59.4556 49.8472C62.7194 48.0389 66.9056 47.1611 72.1528 47.1611C72.3167 47.1611 73.6139 47.0694 73.6139 47.0694C74.3806 47.0694 75.0028 46.4472 75.0028 45.6806C75.0028 44.9139 74.3806 44.2917 73.6139 44.2917H50C45.3972 44.2917 41.6667 40.5611 41.6667 35.9583C41.6667 31.3556 45.3972 27.625 50 27.625H80.5556C83.2583 27.625 86.9111 27.7806 89.4944 30.3111C90.3972 31.1944 91.1722 32.3556 91.725 33.9139L96.3333 49.1139C96.7667 50.5361 98.3611 57.05 98.0722 58.4083C98.0722 78.7972 73.9056 99.9972 45.2833 99.9972C17.5722 100 2.77778 77.4528 2.77778 49.8806V49.2444C2.80556 49.2722 2.83611 49.2889 2.86389 49.3167C5.31111 51.7667 7.86111 52.6278 10.7667 52.6278H11.4556Z" fill="#FFDC5D"/>
<path d="M10.7333 16.5167H11.4861C15.8833 16.5167 19.4444 20.0806 19.4444 24.4723V41.8945C19.4444 46.2889 15.8833 49.85 11.4889 49.85H10.7333C6.33889 49.85 2.77778 46.2889 2.77778 41.8945V24.4723C2.77778 20.0806 6.33889 16.5167 10.7333 16.5167ZM38.8889 41.5167C38.8889 43.9917 37.7889 46.1917 36.0722 47.7195C34.6 49.0306 32.6806 49.85 30.5556 49.85C25.9528 49.85 22.2222 46.1195 22.2222 41.5167V16.5167C22.2222 14.25 23.1333 12.2 24.6028 10.6973C26.1139 9.15003 28.2194 8.18336 30.5556 8.18336C35.1583 8.18336 38.8889 11.9139 38.8889 16.5167V41.5167ZM50 24.85C46.6639 24.85 43.7028 26.3528 41.6667 28.6834V10.9611C41.6667 8.85559 42.4722 6.95559 43.7583 5.48892C45.2861 3.74725 47.5 2.62781 50 2.62781C54.6028 2.62781 58.3333 6.35836 58.3333 10.9611V24.85H50ZM61.1111 13.7195C61.1111 11.4639 62.0167 9.42781 63.4722 7.92781C64.9833 6.37503 67.0861 5.40281 69.425 5.40281H69.4639C74.0556 5.40559 77.7778 9.12781 77.7778 13.7195V24.85H61.1111V13.7195Z" fill="#FFDC5D"/>
</svg>
