<svg width="91" height="100" viewBox="0 0 91 100" fill="none" xmlns="http://www.w3.org/2000/svg">
<g clip-path="url(#clip0_353_59)">
<path d="M32.2472 48.7473C33.0083 51.5528 31.3194 54.4389 28.4694 55.1973L27.7833 55.3778C24.9333 56.1278 22.0083 54.4611 21.2444 51.6528L10.9278 13.7084C9.61943 9.15003 10.5194 4.86669 14.4833 3.70836L15.7305 3.42225C18.5778 2.66947 20.2444 4.60003 21.0055 7.40558L32.2472 48.7473ZM51.5222 51.2528C50.9889 54.2389 48.0972 56.2361 45.0639 55.7084L44.8222 55.6667C41.7917 55.1417 39.7667 52.2889 40.3028 49.3028L47.7639 7.60836C48.2972 4.62225 49.7444 2.56947 52.775 3.09447L53.4444 3.29725C61.1389 5.12225 57.9472 15.3445 58.9805 9.55836L51.5222 51.2528Z" fill="#EF9645"/>
<path d="M21.9333 52.8834C22.6528 55.5695 21.0611 58.3306 18.375 59.0528L17.3695 59.3222C14.6833 60.0417 11.9222 58.45 11.2028 55.7639L2.30278 22.5584C1.58612 19.8722 3.18056 17.1084 5.86667 16.3889L6.86945 16.1195C9.55556 15.3972 12.3167 16.9917 13.0389 19.6778L21.9333 52.8834ZM34.5833 46.4389C35.3306 49.2167 33.6806 52.0722 30.9028 52.8167L30.2306 52.9972C27.4528 53.7417 24.5972 52.0917 23.8528 49.3139L12.8889 8.39447C12.1417 5.61669 13.7917 2.76114 16.5695 2.01669L17.2417 1.83614C20.0194 1.09169 22.875 2.74169 23.6222 5.51947L34.5833 46.4389ZM48.4556 49.7834C47.9556 52.6167 45.2556 54.5084 42.4222 54.0084L41.7389 53.8861C38.9056 53.3861 37.0139 50.6861 37.5139 47.8528L44.8694 6.13892C45.3694 3.30558 48.0695 1.41392 50.9028 1.91392L51.5861 2.03336C54.4195 2.53336 56.3111 5.23614 55.8139 8.06947L48.4556 49.7834ZM62.0722 52.5361C61.6056 55.1806 59.0889 56.9472 56.4417 56.4806L55.075 56.2389C52.4306 55.7722 50.6667 53.2528 51.1306 50.6084L58.1278 10.9445C58.5945 8.3028 61.1139 6.53336 63.7556 7.00003L65.125 7.24169C67.7695 7.70836 69.5333 10.2306 69.0667 12.8722L62.0722 52.5361ZM71.3528 75.9972C69.9028 78.5056 66.6945 79.3667 64.1833 77.9167L63.6528 77.6084C61.1417 76.1584 60.2806 72.95 61.7333 70.4417L77.3139 43.4472C78.7639 40.9389 81.975 40.075 84.4861 41.525L85.0167 41.8334C87.5278 43.2806 88.3861 46.4945 86.9361 49.0028L71.3528 75.9972Z" fill="#FFDC5D"/>
<path d="M8.17499 44.4639C9.2861 48.6111 7.66666 58.8666 7.66666 66.6666C7.66666 74.4666 13.5694 100 41 100C68.4305 100 70.1667 77.1277 74.3333 70.3722C78.5 63.6166 72.0194 52.6639 68.7778 58.2194C65.5361 63.775 60.6278 61.45 62.2972 51.6222C63.9667 41.7944 53.6305 36.4444 52.1972 44.5555C50.9805 51.4361 48.2028 49.425 49.825 42.0194C51.4444 34.6111 40.0639 32.5194 38.2222 42.5944C36.8694 50.0028 34.1889 45.0722 33.0805 40.825C31.9722 36.5778 20.625 36.2028 22.1055 42.7944C24.2194 52.2028 22.0917 54.0916 19.0111 42.5972C17.0555 35.3055 8.17499 44.4639 8.17499 44.4639Z" fill="#FFDC5D"/>
<path d="M64.4972 61.1528C64.5611 61.1473 64.625 61.1306 64.6889 61.1223C63.6083 60.9334 62.7083 59.9028 62.2639 58.05C56.9389 58.7389 49.525 60.0306 43.7778 65.65C36.6778 72.5917 35.4667 80.0945 35.525 85.1139C35.5722 89.1612 37.7806 91.0778 38.4278 85.0806C39.2639 77.3167 44.95 62.7473 64.4972 61.1528Z" fill="#EF9645"/>
</g>
<defs>
<clipPath id="clip0_353_59">
<rect width="100" height="100" fill="white" transform="translate(-9)"/>
</clipPath>
</defs>
</svg>
