<svg width="100" height="100" viewBox="0 0 100 100" fill="none" xmlns="http://www.w3.org/2000/svg">
<g clip-path="url(#clip0_357_162)">
<path d="M89.7278 67.6306C87.7972 64.825 88.875 60.7695 88.3944 56.2917C87.9 48.9861 84.7611 41.9083 78.6722 36.2472L57.9333 16.9639C57.9333 16.9639 53.8472 13.1611 50.0417 17.25C46.2417 21.3361 50.3305 25.1389 50.3305 25.1389L59.0917 33.2889L66.6861 40.35C66.6861 40.35 64.7833 42.3945 56.3778 34.5778L27.9889 8.17223C27.9889 8.17223 23.8972 4.37224 20.0944 8.46112C16.2944 12.5472 20.3805 16.35 20.3805 16.35L47.225 41.3195C47.1667 41.2639 45.1944 43.2417 45.1583 43.2083L16.4361 16.4945C16.4361 16.4945 12.3472 12.6917 8.54444 16.7806C4.74166 20.8695 8.83055 24.6695 8.83055 24.6695L37.5555 51.3889C37.5889 51.4222 35.7389 53.5111 35.7944 53.5639L11.0167 30.5139C11.0167 30.5139 6.92777 26.7111 3.12499 30.8C-0.677784 34.8889 3.4111 38.6917 3.4111 38.6917L29.7555 63.1917C29.9972 63.4167 28.3667 65.7139 28.6694 65.9945L9.6861 48.3389C9.6861 48.3389 5.59722 44.5361 1.79444 48.6278C-2.00834 52.7167 2.08055 56.5195 2.08055 56.5195L33.0444 85.3056C38.2139 90.1139 43.5222 92.5472 49.9222 93.4389C51.225 93.6195 52.8917 93.6195 53.575 93.7056C55.7333 93.9778 57.6278 94.7445 60.1639 96.3C63.4278 98.3 68.325 99.1333 71.1389 96.125L80.7333 85.8611L89.5917 76.3833C92.4028 73.3778 91.9 70.7833 89.7278 67.6306Z" fill="#EF9645"/>
<path d="M5.43333 97.2944C4.72222 97.2944 4.01111 97.0222 3.46944 96.4806C2.38333 95.3944 2.38333 93.6389 3.46944 92.5528L13.3333 82.6944C14.4194 81.6083 16.175 81.6083 17.2611 82.6944C18.3472 83.7806 18.3472 85.5361 17.2611 86.6222L7.39722 96.4833C6.85555 97.025 6.14444 97.2944 5.43333 97.2944ZM24.1722 99.8556C23.8694 99.8556 23.5583 99.8055 23.2528 99.7C21.8056 99.1944 21.0417 97.6111 21.55 96.1611L24.2472 88.4583C24.7528 87.0111 26.3389 86.25 27.7861 86.7528C29.2333 87.2611 29.9972 88.8444 29.4889 90.2917L26.7917 97.9944C26.3917 99.1389 25.3194 99.8556 24.1722 99.8556ZM2.875 78.5583C1.73055 78.5583 0.65833 77.8444 0.255552 76.7056C-0.255559 75.2583 0.502775 73.6722 1.95 73.1611L8.88055 70.7139C10.3333 70.2139 11.9139 70.9667 12.425 72.4083C12.9361 73.8556 12.1778 75.4417 10.7306 75.9528L3.8 78.4C3.49166 78.5083 3.18055 78.5583 2.875 78.5583ZM84.7083 18.0944C83.9972 18.0944 83.2861 17.8222 82.7444 17.2806C81.6583 16.1944 81.6583 14.4361 82.7444 13.35L92.6111 3.48889C93.6972 2.40556 95.4528 2.40556 96.5389 3.48889C97.625 4.57222 97.625 6.33333 96.5389 7.41945L86.6722 17.2806C86.1305 17.825 85.4194 18.0944 84.7083 18.0944ZM73.1417 13.3806C72.8389 13.3806 72.5278 13.3278 72.225 13.2222C70.7778 12.7167 70.0139 11.1333 70.5194 9.68333L73.2139 1.98056C73.7222 0.533334 75.3028 -0.230554 76.7528 0.275001C78.2 0.780557 78.9639 2.36389 78.4583 3.81389L75.7639 11.5167C75.3639 12.6639 74.2889 13.3806 73.1417 13.3806ZM90.2055 29.4194C89.0611 29.4194 87.9889 28.7056 87.5861 27.5667C87.075 26.1194 87.8361 24.5333 89.2805 24.0222L96.2083 21.575C97.6583 21.0611 99.2417 21.825 99.7528 23.2694C100.264 24.7167 99.5028 26.3028 98.0583 26.8139L91.1305 29.2611C90.8222 29.3694 90.5111 29.4194 90.2055 29.4194Z" fill="#FA743E"/>
<path d="M98.3055 66.1722C96.4694 63.3056 97.6833 59.2861 97.3556 54.7945C97.1056 47.4778 94.2083 40.2972 88.3139 34.4333L68.2361 14.4639C68.2361 14.4639 64.2806 10.5278 60.3389 14.4861C56.4028 18.4417 60.3611 22.3806 60.3611 22.3806L68.8444 30.8222L76.1944 38.1333C76.1944 38.1333 74.2222 40.1111 66.0861 32.0167C57.9444 23.9195 38.6028 4.66945 38.6028 4.66945C38.6028 4.66945 34.6444 0.733342 30.7056 4.69167C26.7667 8.64723 30.725 12.5833 30.725 12.5833L56.7139 38.4445C56.6583 38.3889 54.6194 40.2972 54.5833 40.2611L26.7778 12.5945C26.7778 12.5945 22.8194 8.65556 18.8806 12.6139C14.9444 16.5722 18.9 20.5083 18.9 20.5083L46.7083 48.1806C46.7417 48.2139 44.8194 50.2389 44.875 50.2945L20.8889 26.425C20.8889 26.425 16.9306 22.4889 12.9917 26.4472C9.05278 30.4056 13.0111 34.3445 13.0111 34.3445L38.5139 59.7195C38.7472 59.95 37.0417 62.1945 37.3333 62.4861L18.9556 44.2C18.9556 44.2 14.9972 40.2639 11.0583 44.2222C7.11945 48.1806 11.0778 52.1195 11.0778 52.1195L41.05 81.9306C46.0556 86.9111 51.2778 89.5195 57.6444 90.6278C58.9417 90.8528 60.6083 90.9083 61.2861 91.0167C63.4333 91.3611 65.3 92.1917 67.7861 93.8333C70.9806 95.9417 75.8472 96.9389 78.7611 94.0278L88.6972 84.0945L97.8694 74.9222C100.783 72.0056 100.369 69.3945 98.3055 66.1722Z" fill="#FFDB5E"/>
</g>
<defs>
<clipPath id="clip0_357_162">
<rect width="100" height="100" fill="white"/>
</clipPath>
</defs>
</svg>
