<svg width="100" height="96" viewBox="0 0 100 96" fill="none" xmlns="http://www.w3.org/2000/svg">
<path d="M4.96945 44.0444C9.07501 36.7389 15.4472 30.5805 21.9445 27.6083C32.1028 22.9611 36.3028 6.5472 39.1972 2.46942C43.2167 -3.18891 51.3444 2.01109 50 10.4278C48.55 19.4972 44.6028 21.6861 42.2111 27.1528C40.9945 29.9416 41.3861 31.9111 46.5333 32.2833C51.6833 32.6555 65.9667 34.0444 66.6694 36.8583C68.3806 43.7028 45.0389 60.3166 63.9528 74.4528C63.9528 74.4528 88.0111 79.0389 92.8667 79.7528C101.272 80.9889 99.7583 92.3389 90.9917 91.4083C82.7361 90.5361 62.5472 86.3361 56.3333 90.1972C51.3445 93.2972 32.7361 97.4444 16.2083 88.1583C-0.316661 78.875 -3.44444 59.0166 4.96945 44.0444Z" fill="#FFDC5D"/>
<path d="M39.1639 71.9416C27.6194 69.5389 28.9167 55.5916 39.9139 56.4722C48.8583 57.1861 64.4861 59.9027 68.3917 60.7861C76.3833 62.5889 74.6083 76.5055 65.1722 75.3666C59.0444 74.6277 48.1472 73.8111 39.1639 71.9416Z" fill="#EF9645"/>
<path d="M40.3361 69.3778C30.7556 67.1694 33.4194 57.075 42.375 57.5889C51.3333 58.1028 64.9833 60.175 68.9389 60.8083C78.1778 62.2917 74.0194 74.1583 67.2139 73.1944C60.4083 72.2306 47.4806 71.0222 40.3361 69.3778Z" fill="#FFDC5D"/>
<path d="M36.6444 61.1222C22.9139 60.9306 23.6611 45.6195 33.9389 44.4195C42.85 43.3778 62.4944 45.5834 66.5 45.7472C73.9528 46.0556 74.0056 59.6778 65.5417 60.125C58.675 60.4834 43.9778 61.225 36.6444 61.1222Z" fill="#EF9645"/>
<path d="M36.2389 58.5167C27.7 58.9084 26.7333 47.3667 35.6639 46.5306C44.5944 45.6917 63.6889 45.8917 67.6917 45.9584C74.6583 46.0722 74.4111 57.7195 65.8556 58.0472C58.9889 58.3084 43.5639 58.1834 36.2389 58.5167Z" fill="#FFDC5D"/>
<path d="M35.4944 49.2666C23.1417 50.7055 22.8 34.9694 31.7194 34.0138C44.3167 32.6666 50.0444 34.6805 50.9444 34.4722C58.6083 32.6944 65.2944 32.9194 66.6694 36.8583C67.8444 40.225 65.6111 45.7583 61.1917 46.3333C54.3778 47.2222 42.7778 48.4166 35.4944 49.2666Z" fill="#EF9645"/>
<path d="M35.9972 46.8278C27.4778 47.5167 25.3167 36.7972 34.1 34.9778C42.8861 33.1556 55.4583 32.1722 60.5583 31.9472C68.3667 31.6 69.7472 42.9639 61.2806 44.2334C54.4833 45.2556 44.6639 46.125 35.9972 46.8278Z" fill="#FFDC5D"/>
</svg>
