<svg width="100" height="100" viewBox="0 0 100 100" fill="none" xmlns="http://www.w3.org/2000/svg">
<path d="M44.3806 26H54.9056C55.2222 25.4694 55.3139 24.7805 55.0667 24.1305L44.3833 11.0611L44.3806 26Z" fill="#EF9645"/>
<path d="M35.5667 61.8805C35.4083 60.9111 35.2222 59.9944 34.9944 59.1778C33.2722 53.0028 31.8278 50.3889 32.4444 43.9166C33.25 39.5166 33.2028 30.6861 44.8972 32.0611C47.9861 32.425 52.7944 34.6361 55.5472 34.5889C57.1222 34.5611 58.2694 31.375 58.3722 30.3139C58.5139 28.8528 55.9694 26.3694 54.9056 25.9972C53.8417 25.625 49.3167 24.2444 47.4583 23.7083C44.5722 22.8722 44.7222 18.9722 44.5389 17.5833C44.4528 16.9305 44.7722 16.2861 45.3556 15.9416C45.9389 15.5972 46.3972 15.9194 46.9639 16.2889L49.4222 18.0889C50.8028 19.2722 46.9944 21.5333 48.025 21.9111C48.025 21.9111 52.9 23.7416 54.9889 24.1222C56.1333 24.3305 60.0833 19.875 60.3139 17.2611C60.4944 15.2055 50.875 5.91942 44.0167 2.31387C41.6056 1.0472 40.1917 0.311089 38.6028 0.386089C36.7056 0.474978 36.1083 1.22498 33.7472 3.2472C23.0611 12.3889 12.6889 32.1583 11.1667 36.5333C4.92778 54.4805 3.95278 63.9361 3.73056 69.2778C3.59445 70.9166 3.51945 72.5472 3.51945 74.1611C3.7 74.1611 0.741669 88.05 3.51945 90.8278C6.29723 93.6055 18.3139 93.6055 18.3139 93.6055C46.0917 104.686 97.675 101.794 97.675 73.5139C97.675 39.7028 45.4167 44.1889 35.5667 61.8805Z" fill="#FFDC5D"/>
<path d="M57.3056 89.1055C48.5278 88.1833 41.6722 83.8805 41.2861 83.6333C39.9944 82.8083 39.6167 81.0972 40.4389 79.8028C41.2611 78.5083 42.975 78.1278 44.2722 78.9472C44.3833 79.0167 55.3917 85.8694 66.0667 83.0222C71.9694 81.45 76.8083 77.1472 80.4472 70.2417C81.1639 68.8805 82.8528 68.3639 84.2 69.0778C85.5556 69.7917 86.0778 71.4722 85.3639 72.8305C80.9611 81.1805 74.9361 86.4222 67.4556 88.4028C63.9639 89.325 60.5056 89.4417 57.3056 89.1055Z" fill="#EF9645"/>
</svg>
