<svg width="85" height="100" viewBox="0 0 85 100" fill="none" xmlns="http://www.w3.org/2000/svg">
<g clip-path="url(#clip0_354_87)">
<path d="M68.3639 56.0639C68.3639 56.0639 68.6222 49.5028 63.3861 47.5416C58.7556 45.8055 56.9722 49.2694 56.9722 49.2694C56.9722 49.2694 57.1361 43.9528 51.5806 41.9861C46.3444 40.1305 43.2917 44.1333 43.2917 44.1333C43.2917 44.1333 43.0917 39.4472 37.575 37.9333C32.9333 36.6583 29.475 41.175 29.475 41.175V38.8916C29.475 36.2278 27.9694 31.7389 22.4111 31.7361C16.8556 31.7305 15.5861 36.3444 15.5861 38.8916V43.375C15.5861 47.05 12.9528 43.925 11.0417 45.6611C6.68055 49.625 4.73889 63.525 7.74167 74.8278C11.3861 88.5444 19.025 100.108 34.6694 100.108C57.2583 100.108 68.3472 85.3916 68.3611 66.9861L68.3639 56.0639Z" fill="#FFDC5D"/>
<path d="M43.3333 51.3889C43.3333 55.225 40.225 58.3333 36.3889 58.3333C32.5528 58.3333 29.4444 55.225 29.4444 51.3889V6.94444C29.4444 3.10833 32.5528 0 36.3889 0C40.225 0 43.3333 3.10833 43.3333 6.94444V51.3889ZM19.0278 44.4444L12.6055 44.4528C8.09165 44.4528 6.65832 45.7444 4.79443 53.125C3.57776 57.9278 2.0611 60.2 2.0611 65.3222C2.0611 73.3944 14.8222 99.6222 33.6139 99.7417L19.0278 44.4444Z" fill="#FFDC5D"/>
<path d="M12.7778 70.8917C12.7778 71.5889 13.3444 72.2222 14.0444 72.2222H14.2889C14.9889 72.2222 15.5555 71.6556 15.5555 70.9556V44.4445H12.8639L12.7778 70.8917Z" fill="#EF9645"/>
</g>
<defs>
<clipPath id="clip0_354_87">
<rect width="100" height="100" fill="white" transform="translate(-15)"/>
</clipPath>
</defs>
</svg>
