<svg width="83" height="100" viewBox="0 0 83 100" fill="none" xmlns="http://www.w3.org/2000/svg">
<path d="M33 90.625L10.3722 69.5611L13.5556 47.2222C13.5556 44.9694 14.9028 43.0361 16.8333 42.1666L27.4444 44.4444C27.4444 42.1916 28.7917 40.2583 30.7222 39.3889L41.0444 41.6083L41.3333 41.6666V16.6666C41.3333 14.4139 42.6806 12.4805 44.6111 11.6111L54.6444 49.5555L55.2222 50C57.7833 50 60.0083 55.5555 60.0083 55.5555L60.0139 55.5972L33 90.625Z" fill="#EF9645"/>
<path d="M27.4444 52.1611C25.7528 53.6861 24.6667 55.8723 24.6667 58.3334C24.6667 60.425 25.4639 62.3139 26.7361 63.775C25.7889 65.4889 23.9861 66.6667 21.8889 66.6667C18.8222 66.6667 16.3333 64.1778 16.3333 61.1111V44.4445C16.3333 43.6306 16.5194 42.8639 16.8333 42.1667C17.7028 40.2361 19.6361 38.8889 21.8889 38.8889C24.9556 38.8889 27.4444 41.3778 27.4444 44.4445V52.1611Z" fill="#FFDC5D"/>
<path d="M2.44444 22.2223C2.44444 19.1556 4.93333 16.6667 8 16.6667C11.0667 16.6667 13.5556 19.1556 13.5556 22.2223V61.1112C13.5556 63.4418 14.6056 65.7195 16.3306 67.2806C19.575 69.9473 24.2278 70.1779 27.4417 67.2751C28.0028 66.764 28.5083 66.2001 28.9139 65.5584L28.9056 65.5501C29.4639 65.8695 30.2222 66.6668 33 66.6668H40.0472C35.0222 70.4584 31.6111 77.7501 31.6111 86.1112C31.6111 86.8779 32.2333 87.5001 33 87.5001C33.7667 87.5001 34.3889 86.8779 34.3889 86.1112C34.3889 75.3918 40.4639 66.6668 47.9306 66.6668C49.9111 66.8862 50.2833 63.889 48.2778 63.889H33C29.9333 63.889 27.4444 61.4001 27.4444 58.3334C27.4444 55.2667 29.9333 52.7779 33 52.7779H55.2222C57.9111 52.7779 59.3361 54.4334 60.0139 55.5973C60.3639 56.2001 60.5278 56.6779 60.5361 56.7084L63.5556 66.6668C63.8417 67.5973 64.8861 71.864 64.6972 72.7529C64.6972 86.1112 51.6528 100 35.7778 100C17.6194 100 2.44444 85.4168 2.44444 66.6668C2.46666 66.6862 2.44444 22.2223 2.44444 22.2223Z" fill="#FFDC5D"/>
<path d="M41.3333 50H33C32.0222 50 31.0972 50.2 30.2222 50.5112V41.6667C30.2222 40.8528 30.4083 40.0862 30.7222 39.3889C31.5917 37.4584 33.525 36.1112 35.7778 36.1112C38.8444 36.1112 41.3333 38.6 41.3333 41.6667V50ZM44.1111 50V13.8889C44.1111 13.075 44.2972 12.3084 44.6111 11.6112C45.4805 9.6806 47.4139 8.33337 49.6667 8.33337C52.7333 8.33337 55.2222 10.8223 55.2222 13.8889V50H44.1111Z" fill="#FFDC5D"/>
</svg>
