<svg width="96" height="94" viewBox="0 0 96 94" fill="none" xmlns="http://www.w3.org/2000/svg">
<path d="M7.11112 51.1277C7.11112 52.2111 6.85834 53.2805 6.375 54.25L2.55278 61.8944C1.43114 64.1382 0.987742 66.6603 1.27684 69.1521C1.56593 71.644 2.57498 73.9975 4.18056 75.925L10.3167 83.2888C11.8526 85.1329 13.8729 86.5115 16.15 87.2694L33.5861 93.0805C36.2348 93.9639 39.0986 93.9639 41.7472 93.0805L48.2139 90.925C50.1145 90.2917 51.8415 89.2246 53.2581 87.808C54.6746 86.3914 55.7418 84.6644 56.375 82.7638L57.1111 80.5555C57.1111 80.5555 69.9917 77.8583 69.0028 73.1222C69.0028 73.1222 73.7778 77.7777 79.3333 72.2222C82.2972 69.2583 85.2611 65.5027 87.3806 62.6444C89.3585 59.9783 90.233 56.6525 89.8222 53.3583L89.05 47.1833C88.6358 43.8683 87.292 40.7381 85.174 38.1545C83.0559 35.571 80.25 33.6395 77.0806 32.5833L71 30.5555L62.4695 23.2555C64.1472 14.1638 59.25 8.15273 51.5389 7.41662C46.7917 6.96384 38.3694 9.0694 38.0306 17.2638C38.006 17.8461 37.7952 18.4052 37.4291 18.8587C37.0631 19.3122 36.5612 19.6363 35.9972 19.7833L26.5556 22.2222L20.7611 24.5388C18.3713 25.4949 16.3229 27.1452 14.8801 29.2767C13.4373 31.4082 12.6663 33.9232 12.6667 36.4972C12.6667 38.0555 12.2056 39.5805 11.3389 40.8805L9.27778 43.9722C7.86445 46.0909 7.1105 48.5809 7.11112 51.1277Z" fill="#FFDC5D"/>
<path d="M56.8361 80.4917C56.9417 80.4917 57.0306 80.5417 57.1333 80.5528L57.1111 80.5556L56.3722 82.7695C55.9769 83.9364 55.4156 85.0404 54.7056 86.0473H50.5C41.3799 86.0452 32.561 82.7821 25.6361 76.8473L16.1417 68.7112C15.5825 68.2319 15.2366 67.5502 15.1801 66.816C15.1236 66.0817 15.361 65.3551 15.8403 64.7959C16.3195 64.2367 17.0012 63.8908 17.7355 63.8343C18.4698 63.7778 19.1964 64.0153 19.7556 64.4945L29.25 72.6306C35.1694 77.7009 42.7059 80.4889 50.5 80.4917H56.8361ZM69.4639 41.9584C69.1376 41.7951 68.7823 41.6977 68.4184 41.6717C68.0544 41.6457 67.6889 41.6917 67.3428 41.807C66.9966 41.9223 66.6765 42.1047 66.4009 42.3437C66.1252 42.5827 65.8993 42.8737 65.7361 43.2001L62.9583 48.7556L62.9222 48.8334L57.4778 46.6251C54.5994 45.4608 51.9852 43.7281 49.7917 41.5306L42.4056 34.1445C41.8847 33.6236 41.1783 33.331 40.4417 33.331C39.7051 33.331 38.9986 33.6236 38.4778 34.1445C37.9569 34.6654 37.6643 35.3718 37.6643 36.1084C37.6643 36.845 37.9569 37.5514 38.4778 38.0723L45.8639 45.4584C48.5822 48.1818 51.8218 50.3292 55.3889 51.7723L60.825 53.9778C58.6028 60.7417 59.2333 65.9473 60.6722 69.6084L54.2472 67.889C48.8811 66.3681 43.9929 63.5004 40.0472 59.5584L27.1306 46.6417C26.8726 46.3838 26.5665 46.1792 26.2295 46.0397C25.8925 45.9001 25.5314 45.8283 25.1667 45.8283C24.8019 45.8283 24.4408 45.9001 24.1038 46.0397C23.7668 46.1792 23.4607 46.3838 23.2028 46.6417C22.9449 46.8996 22.7403 47.2058 22.6007 47.5428C22.4611 47.8797 22.3893 48.2409 22.3893 48.6056C22.3893 48.9703 22.4611 49.3315 22.6007 49.6685C22.7403 50.0054 22.9449 50.3116 23.2028 50.5695L36.1194 63.4862C40.7482 68.1082 46.483 71.4685 52.7778 73.2473L65.0222 76.5195C65.6844 76.704 66.3887 76.668 67.0286 76.4169C67.6685 76.1659 68.2093 75.7134 68.5694 75.1278C68.9321 74.5462 69.0917 73.8607 69.0233 73.1787C68.955 72.4967 68.6625 71.8565 68.1917 71.3584C66.3167 69.3362 62.675 63.7278 66.8639 53.5806C66.8833 53.5362 66.9194 53.5028 66.9361 53.4584C66.9528 53.4167 66.9444 53.3751 66.9583 53.3334C67.2444 52.6556 67.5667 51.9556 67.925 51.2389L70.7028 45.6834C70.8665 45.3576 70.9643 45.0026 70.9907 44.6389C71.017 44.2752 70.9713 43.9099 70.8562 43.5638C70.7411 43.2178 70.5589 42.8979 70.32 42.6224C70.0811 42.3469 69.7902 42.1213 69.4639 41.9584ZM78.8444 56.9306C76.6667 55.2362 74.1083 58.5223 76.2833 60.2195C80.3333 63.3751 79.3917 68.0362 82.2611 68.0362C86.9111 68.0362 82.5528 59.8195 78.8444 56.9306ZM44.1944 16.7528C48.4611 14.6667 52.7333 14.6001 57.35 16.7889C59.3583 17.7362 58.925 11.1723 50.8056 11.0306C42.7417 10.8139 42.1389 17.7473 44.1944 16.7528ZM49.9167 29.7501C58.1472 30.0889 62.8222 24.7751 62.0833 21.0695C61.9611 20.0667 60.2083 20.1028 60.0333 20.7417C58.85 25.0723 50.1083 27.5639 44.2389 23.8084C39.7556 20.9973 41.5028 19.0806 39.6444 19.0417C36.2139 18.9806 39.9806 29.6612 49.9167 29.7501Z" fill="#EF9645"/>
</svg>
