<svg width="70" height="106" viewBox="0 0 70 106" fill="none" xmlns="http://www.w3.org/2000/svg">
<g clip-path="url(#clip0_353_37)">
<path d="M64.8333 50.339L64.65 50.2279C59.9889 47.3668 53.8333 48.839 50.9722 53.5001L50.1333 54.8612C47.1222 51.739 43.1889 49.4501 38.6444 48.5223L30.8722 46.9334L37.9389 12.3557C39.0333 6.99451 35.5445 1.71673 30.1889 0.622287L29.9778 0.577846C24.6167 -0.516598 19.3389 2.97229 18.2445 8.32785L8.95001 53.789L8.86667 54.2001L7.12779 62.7057L7.12223 62.7612L0.855559 93.5001C-0.366663 99.489 2.35556 106 11.3833 106H29.5556C45.1333 106 49.75 100.389 52.8778 88.8168L68.1056 64.0223C70.9611 59.3612 69.4945 53.2057 64.8333 50.339Z" fill="#FFDC5D"/>
<path d="M48.4945 76.7944C48.3833 76.7944 48.2611 76.7832 48.1389 76.761C47.1167 76.5721 46.4445 75.5833 46.6445 74.5556C46.9722 72.8222 46.6333 71.2943 45.6056 69.8943C42.3278 65.4055 32.8889 63.3666 29.5278 62.961C28.4945 62.8388 27.7556 61.8944 27.8833 60.8666C28.0056 59.8332 28.9056 59.0832 29.9778 59.2221C30.5389 59.2832 43.7222 60.9445 48.6445 67.6722C50.3 69.9333 50.8722 72.4943 50.3445 75.2721C50.1722 76.1666 49.3833 76.7944 48.4945 76.7944ZM30.3889 103.072C28.9833 103.072 27.4445 102.9 25.7611 102.506C22.3722 101.706 19.9833 99.7333 19.2056 97.0888C18.55 94.861 19.15 92.5055 20.8111 90.7832C22.9667 88.5499 26.3833 87.8166 30.2278 88.7944C31.2333 89.0499 31.8445 90.0777 31.5889 91.0888C31.3333 92.0888 30.3167 92.7055 29.2944 92.4499C26.8222 91.8166 24.7111 92.1721 23.5278 93.3999C22.8167 94.1332 22.5556 95.1166 22.8222 96.0277C23.2056 97.3388 24.5945 98.3666 26.6278 98.8388C33.1833 100.378 36.8111 97.8055 38.7056 95.3666C41.5278 91.7388 41.8611 86.8221 40.8556 84.8944C38.5111 80.3832 29.4722 79.3832 26.1889 79.3777C25.15 79.3777 24.3056 78.5332 24.3056 77.4944C24.3056 76.4555 25.15 75.611 26.1889 75.611C26.7611 75.611 40.3111 75.6944 44.2 83.161C45.8945 86.411 45.4111 92.8888 41.6778 97.6832C39.9667 99.8721 36.4389 103.072 30.3889 103.072Z" fill="#FFAC33"/>
</g>
<defs>
<clipPath id="clip0_353_37">
<rect width="70" height="106" fill="white"/>
</clipPath>
</defs>
</svg>
