<svg width="89" height="100" viewBox="0 0 89 100" fill="none" xmlns="http://www.w3.org/2000/svg">
<path d="M70.9444 54.2195C70.5664 51.6412 69.4814 49.2181 67.8099 47.219C66.1383 45.2199 63.9456 43.7231 61.475 42.8945L30.9444 31.0195L39.2778 9.85284C39.6558 8.9965 39.8346 8.06555 39.8006 7.13011C39.7666 6.19467 39.5208 5.27913 39.0817 4.45248C38.6425 3.62582 38.0215 2.90959 37.2654 2.35776C36.5093 1.80593 35.6379 1.43289 34.7167 1.26672C33.4353 1.0328 32.1163 1.11276 30.8726 1.49976C29.6289 1.88677 28.4974 2.56929 27.575 3.48895C24.6771 6.82549 21.9842 10.3347 19.5111 13.9973C16.9361 11.6862 8.69166 5.16395 1.10833 8.86672C-6.83056 12.7445 7.12499 26.1834 10.8805 29.6056C3.84444 45.7139 2.81111 60.6695 5.00277 71.0584C7.22499 81.6139 11.3333 84.3917 20.7944 89.9917C31.3947 96.389 43.6298 99.5581 56.0028 99.1112C59.9902 99.027 63.8037 97.4623 66.701 94.7215C69.5984 91.9807 71.3724 88.26 71.6778 84.2834C72.4555 74.2639 72.2083 64.1889 70.9444 54.2195Z" fill="#FFDC5D"/>
<path d="M60.1111 42.3584C60.053 42.588 60.025 42.8243 60.0278 43.0612C60.3341 50.8467 59.9576 58.6441 58.9028 66.3639C58.8392 67.0882 59.0621 67.8084 59.5236 68.3701C59.9851 68.9319 60.6485 69.2903 61.3712 69.3685C62.094 69.4466 62.8187 69.2383 63.3896 68.7883C63.9605 68.3382 64.3323 67.6822 64.425 66.9612C65.3361 59.7751 65.7639 52.5362 65.7028 45.2945C64.4213 44.2962 63.0031 43.487 61.4917 42.8917L60.1111 42.3584ZM45.2778 37.5862C45.3751 45.983 44.6306 54.3684 43.0556 62.6167C42.9727 62.9778 42.963 63.3517 43.0268 63.7166C43.0906 64.0814 43.2268 64.4299 43.4273 64.7413C43.6278 65.0528 43.8886 65.321 44.1942 65.5302C44.4999 65.7394 44.8444 65.8853 45.2073 65.9594C45.5702 66.0335 45.9443 66.0343 46.3075 65.9617C46.6707 65.8891 47.0158 65.7446 47.3223 65.5366C47.6289 65.3287 47.8907 65.0616 48.0925 64.7509C48.2943 64.4403 48.4319 64.0924 48.4972 63.7278C50.0833 55.4951 50.8721 47.1286 50.8528 38.7445L45.4389 36.6667C45.3327 36.9617 45.2782 37.2727 45.2778 37.5862ZM27.1917 62.2223H27.3333C28.0475 62.2231 28.7346 61.9488 29.2518 61.4564C29.7691 60.9639 30.0768 60.2912 30.1111 59.5778C30.1838 50.4046 32.2441 41.3561 36.15 33.0556L30.9444 31.0195C26.8359 39.8943 24.6583 49.5403 24.5556 59.3195C24.5216 60.0536 24.7799 60.7713 25.274 61.3154C25.7681 61.8595 26.4576 62.1856 27.1917 62.2223ZM15.0278 10.675C11.8235 15.3547 9.00764 20.2888 6.60834 25.4278C7.9799 26.8731 9.404 28.2675 10.8778 29.6084C13.2668 24.1668 16.1473 18.9544 19.4833 14.0362C18.1052 12.7805 16.6137 11.6553 15.0278 10.675Z" fill="#EF9645"/>
</svg>
