<svg width="100" height="93" viewBox="0 0 100 93" fill="none" xmlns="http://www.w3.org/2000/svg">
<path d="M48.7611 68.8889C47.7282 68.8899 46.7155 68.6029 45.8367 68.0603C44.9579 67.5176 44.2478 66.7406 43.7861 65.8167C40.5583 59.3611 33.6333 51.9889 28.7555 48.3334C28.1719 47.8954 27.6802 47.3468 27.3086 46.7189C26.9369 46.091 26.6926 45.396 26.5896 44.6736C26.4865 43.9512 26.5268 43.2157 26.708 42.5088C26.8892 41.802 27.2079 41.1378 27.6458 40.5542C28.0837 39.9705 28.6323 39.4789 29.2603 39.1072C29.8882 38.7356 30.5832 38.4913 31.3056 38.3882C32.0279 38.2852 32.7635 38.3254 33.4703 38.5066C34.1771 38.6879 34.8413 39.0065 35.425 39.4445C41.2778 43.8361 49.5028 52.4084 53.7278 60.85C54.1517 61.6967 54.3521 62.6378 54.3099 63.5837C54.2677 64.5297 53.9842 65.4491 53.4865 66.2547C52.9888 67.0603 52.2934 67.7252 51.4663 68.1862C50.6392 68.6473 49.708 68.8892 48.7611 68.8889Z" fill="#EF9645"/>
<path d="M50.0056 66.6666C48.9727 66.6676 47.96 66.3807 47.0812 65.838C46.2024 65.2953 45.4923 64.5184 45.0306 63.5944C41.8028 57.1389 34.8778 49.7666 30 46.1111C28.8213 45.2267 28.0421 43.9102 27.834 42.4513C27.6259 40.9925 28.0059 39.5107 28.8903 38.3319C29.7747 37.1532 31.0912 36.3741 32.55 36.1659C34.0089 35.9578 35.4907 36.3378 36.6695 37.2222C42.5222 41.6139 50.7472 50.1861 54.9722 58.6278C55.3962 59.4744 55.5966 60.4155 55.5543 61.3615C55.5121 62.3074 55.2287 63.2269 54.731 64.0324C54.2333 64.838 53.5379 65.5029 52.7108 65.964C51.8837 66.425 50.9525 66.6669 50.0056 66.6666Z" fill="#FFDC5D"/>
<path d="M65.4278 74.4445C64.4672 74.4451 63.5229 74.1968 62.6869 73.7235C61.851 73.2503 61.1521 72.5684 60.6583 71.7445C54.8 61.9806 48.425 55.6361 34.4167 45.6306C33.2749 44.7528 32.5184 43.4662 32.3065 42.0417C32.0946 40.6173 32.4438 39.1662 33.2807 37.9941C34.1175 36.822 35.3766 36.0205 36.7927 35.7584C38.2088 35.4963 39.6713 35.794 40.8722 36.5889C56.1139 47.475 63.5111 54.9028 70.1861 66.0306C70.6917 66.8732 70.9647 67.8348 70.9774 68.8174C70.99 69.8 70.7418 70.7684 70.2581 71.6237C69.7744 72.4791 69.0724 73.1908 68.2238 73.6864C67.3753 74.1819 66.4105 74.4435 65.4278 74.4445Z" fill="#EF9645"/>
<path d="M66.6722 72.2222C65.7117 72.2229 64.7673 71.9745 63.9314 71.5012C63.0955 71.028 62.3965 70.3461 61.9028 69.5222C56.0445 59.7583 49.6695 53.4138 35.6611 43.4083C34.5194 42.5306 33.7628 41.2439 33.5509 39.8195C33.339 38.395 33.6883 36.9439 34.5251 35.7718C35.3619 34.5997 36.621 33.7982 38.0371 33.5361C39.4532 33.274 40.9158 33.5717 42.1167 34.3666C57.3583 45.2527 64.7556 52.6805 71.4306 63.8083C71.9361 64.6509 72.2092 65.6126 72.2218 66.5951C72.2345 67.5777 71.9863 68.5461 71.5025 69.4014C71.0188 70.2568 70.3169 70.9685 69.4683 71.4641C68.6197 71.9596 67.6549 72.2212 66.6722 72.2222Z" fill="#FFDC5D"/>
<path d="M82.0889 73.0528C81.3592 73.0539 80.6365 72.9106 79.9624 72.6312C79.2883 72.3519 78.6762 71.9419 78.1611 71.425C70.5 63.7667 61.8528 56.6945 48.3056 47.0167C47.1323 46.1507 46.3466 44.8582 46.118 43.418C45.8894 41.9778 46.2361 40.5055 47.0834 39.3187C47.9308 38.132 49.2107 37.3259 50.6471 37.0745C52.0835 36.8231 53.5611 37.1466 54.7611 37.975C68.8389 48.0334 77.8972 55.4473 86.0167 63.5667C86.7944 64.3435 87.3241 65.3336 87.5389 66.4115C87.7537 67.4895 87.644 68.607 87.2235 69.6226C86.8029 70.6382 86.0906 71.5062 85.1766 72.1168C84.2627 72.7274 83.1881 73.0531 82.0889 73.0528Z" fill="#EF9645"/>
<path d="M83.3334 70.8333C82.6037 70.8344 81.881 70.6911 81.2069 70.4118C80.5328 70.1324 79.9206 69.7225 79.4056 69.2056C71.7445 61.5472 63.0972 54.475 49.55 44.7972C48.3768 43.9312 47.5911 42.6387 47.3624 41.1985C47.1338 39.7583 47.4806 38.286 48.3279 37.0992C49.1752 35.9125 50.4552 35.1064 51.8915 34.855C53.3279 34.6037 54.8056 34.9271 56.0056 35.7556C70.0834 45.8139 79.1417 53.2278 87.2611 61.3472C88.0388 62.124 88.5686 63.1141 88.7834 64.1921C88.9982 65.2701 88.8884 66.3875 88.4679 67.4031C88.0474 68.4187 87.3351 69.2867 86.4211 69.8973C85.5071 70.5079 84.4325 70.8336 83.3334 70.8333Z" fill="#FFDC5D"/>
<path d="M38.15 71.5278L34.8861 65.7501C34.449 64.9849 34.1786 64.136 34.0924 63.259C34.0062 62.3821 34.1063 61.4968 34.3861 60.6612L0 28.1528V54.5917L0.772222 54.7834C6.2398 56.1502 11.1311 59.2204 14.7389 63.5501L29.5417 81.5306L32.5167 89.6723C32.7972 90.6084 33.725 91.3862 34.9 91.6278C38.6611 92.3112 42.7306 90.5334 43.4583 87.8278C44.525 82.3862 41.6139 76.5584 38.15 71.5278Z" fill="#EF9645"/>
<path d="M0 22.0333L14.4861 28.2417C17.7694 29.6472 21.2611 30.4972 24.825 30.75L51.2583 32.6389C55.9194 32.9722 60.45 34.3194 64.5361 36.5889L78.5 44.3472C81.7 46.125 85.1809 47.3417 88.7917 47.9444L94.975 48.975C96.4624 49.2251 97.8016 50.0248 98.7273 51.2156C99.653 52.4064 100.098 53.9014 99.9733 55.4045C99.8489 56.9077 99.1645 58.3093 98.0557 59.3317C96.9468 60.3541 95.4944 60.9227 93.9861 60.925C86.9667 60.925 80.0278 59.4222 73.6389 56.5167L65.6583 52.8889C61.6016 51.0451 57.2049 50.0678 52.749 50.0195C48.2932 49.9712 43.8763 50.8529 39.7806 52.6083C38.9698 52.9543 38.2416 53.4681 37.6437 54.1158C37.0459 54.7636 36.592 55.5306 36.312 56.3664C36.032 57.2022 35.9322 58.0879 36.0192 58.965C36.1062 59.8422 36.378 60.691 36.8167 61.4555L40.1028 67.2055C42.9055 72.1113 43.8389 77.8654 42.7306 83.4055C42.5874 84.1205 42.301 84.7991 41.8886 85.4004C41.4763 86.0017 40.9464 86.5134 40.3311 86.9045C39.7157 87.2956 39.0275 87.5581 38.308 87.6762C37.5885 87.7943 36.8525 87.7656 36.1444 87.5917C35.225 87.3667 34.525 86.6055 34.2639 85.6972L31.9444 77.5889L16.6639 59.25C13.0561 54.9203 8.1648 51.8501 2.69722 50.4833L0 49.8111V22.0333Z" fill="#FFDC5D"/>
<path d="M93.9833 60.9222C86.9639 60.9222 80.025 59.4195 73.6361 56.5139L65.6556 52.8861C61.5988 51.0423 57.2021 50.0651 52.7463 50.0168C48.2905 49.9685 43.8736 50.8502 39.7778 52.6056C38.5215 53.1477 37.4782 54.0875 36.8083 55.2806L36.825 55.2722C40.9208 53.5168 45.3377 52.6351 49.7935 52.6834C54.2493 52.7318 58.6461 53.709 62.7028 55.5528L70.6861 59.1806C77.076 62.086 84.014 63.5892 91.0333 63.5889C93.3 63.5889 95.2528 62.3195 96.2778 60.4667C95.5499 60.7662 94.7705 60.921 93.9833 60.9222Z" fill="#EF9645"/>
</svg>
