<svg width="99" height="83" viewBox="0 0 99 83" fill="none" xmlns="http://www.w3.org/2000/svg">
<g clip-path="url(#clip0_353_42)">
<path d="M98.9393 4.92651C98.6076 3.62691 97.883 2.46069 96.8639 1.58629C95.8447 0.711882 94.5805 0.171682 93.243 0.0390789C92.0633 -0.0862148 90.8711 0.0909399 89.7793 0.553773L64.7443 11.1331C50.3779 15.7783 51.2362 15.3501 49.0253 16.6736C45.0587 19.0395 40.3249 23.2176 31.8541 31.2797C24.6536 38.1307 0.0781265 42.3824 9.53816e-05 66.1837C-0.0302501 75.4439 7.1833 83.0302 17.1626 82.9999C27.6665 82.9653 33.7052 77.4205 36.5924 73.6619C38.3351 71.3947 40.5938 69.5741 43.1817 68.3506C60.2185 60.2409 52.9616 53.1174 65.659 36.8591C65.9398 36.5047 66.1389 36.0929 66.2423 35.653C66.3458 35.2131 66.3509 34.756 66.2574 34.3139C66.1639 33.8718 65.9741 33.4557 65.7013 33.095C65.4286 32.7343 65.0796 32.438 64.6792 32.2269L94.4091 14.8225C97.0448 13.2784 98.2153 10.48 97.435 7.58215L97.8468 7.36157C98.273 7.13315 98.6113 6.77033 98.809 6.32978C99.0066 5.88923 99.0524 5.39578 98.9393 4.92651Z" fill="#FFDC5D"/>
<path d="M97.8587 5.08199C97.7743 4.90225 97.6555 4.74116 97.509 4.60807C97.3625 4.47497 97.1913 4.37252 97.0052 4.30663C96.8192 4.24074 96.622 4.21273 96.4252 4.22423C96.2284 4.23573 96.0357 4.28649 95.8585 4.3736L84.3028 9.96302C84.7556 8.2919 84.6225 6.51436 83.9259 4.93081C83.594 4.2101 83.1354 3.55594 82.5724 3L79.3002 4.3952C80.1387 4.72898 80.819 5.37335 81.2019 6.19642C82.097 8.15747 81.4674 11.0343 78.5335 12.7534L67.4618 18.1096C68.614 15.7771 68.9095 13.3884 68.3613 11.4489C68.1568 10.7414 67.8322 10.0749 67.4019 9.47923L64.4423 10.7448C64.935 11.1354 65.2968 11.6692 65.4788 12.2739C66.3183 15.2501 64.0525 19.8201 58.7972 22.3081C53.7818 24.6838 52.227 28.4893 50.4239 32.8995C49.5972 34.9167 48.6635 37.2017 47.2801 39.6077C43.601 46.0005 34.5038 56.3889 30.4477 60.4103C30.3074 60.5496 30.1956 60.7154 30.1188 60.8982C30.042 61.081 30.0016 61.2773 30 61.4758C29.9985 61.6744 30.0357 61.8713 30.1095 62.0553C30.1834 62.2394 30.2925 62.407 30.4306 62.5485C30.5687 62.69 30.733 62.8027 30.9143 62.8802C31.0956 62.9577 31.2902 62.9983 31.4871 63C31.6839 63.0016 31.8792 62.964 32.0617 62.8895C32.2442 62.815 32.4103 62.705 32.5507 62.5658C36.4697 58.6869 45.8753 48.0782 49.8756 41.1281L49.8928 41.0979L49.897 41.0936C53.7646 33.9232 58.0049 31.2106 60.5104 31.7203C62.305 32.0831 62.7762 34.0744 62.8961 35.232C62.9473 35.6221 63.1473 35.9767 63.4536 36.2204C63.7599 36.4642 64.1484 36.5779 64.5365 36.5374C64.9245 36.4969 65.2817 36.3054 65.532 36.0036C65.7824 35.7018 65.9062 35.3134 65.8771 34.921C65.5345 31.595 63.7484 29.2927 61.0972 28.7571C59.3797 28.4029 57.1611 28.8478 54.7669 30.4979C55.9404 28.1567 57.3624 26.3382 60.0779 25.0553C60.292 24.956 60.4633 24.8264 60.6646 24.7227C60.7075 24.7054 60.7546 24.7141 60.8017 24.6925L96.5566 7.39724C96.548 7.35836 96.5566 7.32381 96.5438 7.28493L96.9464 7.06464C97.2099 6.91839 97.4399 6.7178 97.6215 6.47592C97.803 6.23404 97.932 5.9563 98 5.66081C97.9932 5.46007 97.9451 5.26295 97.8587 5.08199Z" fill="#FFAC33"/>
</g>
<defs>
<clipPath id="clip0_353_42">
<rect width="99" height="83" fill="white"/>
</clipPath>
</defs>
</svg>
