<svg width="98" height="100" viewBox="0 0 98 100" fill="none" xmlns="http://www.w3.org/2000/svg">
<path d="M97.1 49.7667C97.1 48.3694 96.7667 47.0583 96.2083 45.8667C92.4833 33.85 75.0444 34.7278 50.2389 34.1417C46.0917 34.0444 48.4639 29.1472 49.9194 18.3972C50.8667 11.4055 46.3583 0.669434 38.7806 0.669434C26.2861 0.669434 38.3056 10.525 27.2583 34.8972C21.3556 47.9194 8.16111 40.625 8.16111 53.7055V83.4805C8.16111 88.5722 8.66111 93.4666 15.8222 94.2722C22.7639 95.0528 21.2028 100 31.2167 100H81.3389C86.4444 100 90.5972 95.8444 90.5972 90.7389C90.5972 88.6222 89.8556 86.6944 88.6583 85.1333C91.4917 83.5472 93.4361 80.5528 93.4361 77.0805C93.4361 74.9694 92.6972 73.0417 91.5028 71.4833C94.3445 69.9 96.2944 66.9028 96.2944 63.425C96.2944 60.9 95.2722 58.6111 93.625 56.9361C95.7278 55.2389 97.1 52.6722 97.1 49.7667Z" fill="#FFDB5E"/>
<path d="M63.9444 59.025H87.8444C91.0944 59.025 94.1445 57.2861 95.8056 54.4889C96.4889 53.3361 96.1083 51.8444 94.9528 51.1583C93.8 50.4722 92.3083 50.8583 91.6222 52.0111C90.8361 53.3416 89.3833 54.1639 87.8417 54.1639H63.3694C60.9444 54.1639 58.9722 52.1916 58.9722 49.7666C58.9722 47.3416 60.9444 45.3694 63.3694 45.3694H79.7222C81.0639 45.3694 82.1528 44.2805 82.1528 42.9389C82.1528 41.5972 81.0639 40.5083 79.7222 40.5083H63.3667C58.2611 40.5083 54.1083 44.6611 54.1083 49.7666C54.1083 52.6139 55.4278 55.1333 57.4556 56.8333C55.7472 58.5139 54.6833 60.8472 54.6833 63.425C54.6833 66.2805 56.0111 68.8083 58.05 70.5055C56.3528 72.1833 55.3 74.5083 55.3 77.0805C55.3 80.1916 56.8528 82.9361 59.2139 84.6166C57.7583 86.2527 56.8472 88.3833 56.8472 90.7389C56.8472 95.8444 61 99.9972 66.1056 99.9972H81.3389C84.5889 99.9972 87.6417 98.2611 89.3028 95.4639C89.9889 94.3111 89.6083 92.8194 88.4556 92.1333C87.3 91.4527 85.8083 91.8277 85.125 92.9805C84.3333 94.3111 82.8806 95.1361 81.3389 95.1361H66.1056C63.6806 95.1361 61.7083 93.1639 61.7083 90.7389C61.7083 88.3139 63.6806 86.3416 66.1056 86.3416H84.1778C87.4278 86.3416 90.4833 84.6027 92.1417 81.8055C92.8278 80.65 92.4472 79.1583 91.2944 78.475C90.1306 77.7777 88.6444 78.1694 87.9639 79.3222C87.1611 80.675 85.7444 81.4805 84.1778 81.4805H64.5583C62.1333 81.4805 60.1611 79.5055 60.1611 77.0805C60.1611 74.6555 62.1333 72.6833 64.5583 72.6833H87.0333C90.2833 72.6833 93.3361 70.9472 94.9972 68.15C95.6833 66.9972 95.3028 65.5055 94.15 64.8194C92.9917 64.1361 91.5028 64.5139 90.8194 65.6666C90.0167 67.0166 88.6 67.8222 87.0333 67.8222H63.9444C61.5194 67.8222 59.5472 65.85 59.5472 63.425C59.5472 61 61.5167 59.025 63.9444 59.025Z" fill="#EE9547"/>
</svg>
