<svg width="124" height="82" viewBox="0 0 124 82" fill="none" xmlns="http://www.w3.org/2000/svg">
<path d="M0.888885 0.127808C0.888885 22.15 26.4222 50.1278 62 50.1278C97.5778 50.1278 123.111 22.35 123.111 0.127808C123.111 0.127808 65.7055 15.4389 0.888885 0.127808Z" fill="#664500"/>
<path d="M28.6667 9.79443V48.4667C28.6667 65.1333 39.7778 81.8 62 81.8C84.2222 81.8 95.3333 65.1333 95.3333 48.4667V10.0222C60.3833 17.2 28.6667 9.79443 28.6667 9.79443Z" fill="#5D9040"/>
<path d="M78.5 54.6056C78.5 47.0056 70.8389 44.0444 64.6833 41.6667C60.5889 40.0889 56.7167 38.5889 56.7167 36.4278C56.7167 32.8556 61.5 32.6778 62.4611 32.6778C65.8444 32.6778 67.5278 33.95 69.0167 35.0667C70.1556 35.9278 71.3389 36.8167 72.9778 36.8167C76.0333 36.8167 77.4278 34.6611 77.4278 32.6667C77.4278 28.6833 72.5444 25.8667 67.3611 24.6833V22.5556C67.3611 19.75 65.0778 17.4667 62.2722 17.4667C59.4667 17.4667 57.1833 19.75 57.1833 22.5556V24.8611C50.9889 26.6611 47.1889 31.2222 47.1889 36.9667C47.1889 44.0667 54.1944 46.9833 60.3722 49.55C64.8 51.3889 68.9778 53.1278 68.9778 55.8389C68.9778 57.8222 66.4889 59.9667 62.4611 59.9667C58.4 59.9667 56.0722 58.3444 54.0167 56.9056C52.6 55.9167 51.2556 54.9778 49.6556 54.9778C47.3278 54.9778 45.5 56.9444 45.5 59.4444C45.5 63.1278 50.5389 66.7889 57.1778 68.0778V70.6278C57.1778 73.4278 59.4611 75.7056 62.2722 75.7056C65.0778 75.7056 67.3556 73.4278 67.3556 70.6278L67.3389 67.9278C74.3556 66.2111 78.5 61.3 78.5 54.6056Z" fill="white"/>
</svg>
