<svg width="118" height="51" viewBox="0 0 118 51" fill="none" xmlns="http://www.w3.org/2000/svg">
<path d="M59 0.444443C7.15005 0.444443 0.750051 46.8556 0.68894 47.3222C0.572273 48.2722 0.944495 49.2111 1.68338 49.8167C2.18338 50.2278 2.81116 50.4445 3.44449 50.4445C3.73894 50.4445 4.03338 50.3945 4.32227 50.3056C4.65005 50.1945 37.4778 39.3334 59 39.3334C90.0834 39.3334 113.139 50.0722 113.367 50.1778C114.261 50.6056 115.356 50.5111 116.183 49.9167C117 49.3222 117.439 48.3278 117.311 47.3167C117.25 46.8556 110.85 0.444443 59 0.444443Z" fill="#664500"/>
<path d="M59 8.77778C81.2222 8.77778 92.3333 19.8889 92.3333 19.8889H25.6666C25.6666 19.8889 36.7777 8.77778 59 8.77778Z" fill="#CCD6DD"/>
</svg>
