<svg width="80" height="80" viewBox="0 0 80 80" fill="none" xmlns="http://www.w3.org/2000/svg">
<path d="M48.8889 17.7778C43.2378 17.7778 43.5956 22.2222 40 22.2222C36.4044 22.2222 36.1111 17.7778 31.1111 17.7778C22.2222 17.7778 2.22222 33.3333 2.22222 37.7778C2.22222 42.0955 14.7356 43.1356 24.4444 46.6667C35.0933 50.54 45.1378 57.7778 51.1111 57.7778C63 57.7778 77.7778 42.2222 77.7778 37.7778C77.7778 33.3333 57.7778 17.7778 48.8889 17.7778Z" fill="#EA596E"/>
<path d="M40 31.1111C23.0733 31.1111 22.2622 37.1556 12.6333 37.7333C12.5364 37.7394 12.4441 37.777 12.3705 37.8404C12.297 37.9039 12.2463 37.9897 12.2261 38.0847C12.2059 38.1797 12.2175 38.2787 12.2589 38.3665C12.3003 38.4544 12.3694 38.5262 12.4556 38.5711C18.42 41.6333 22.9867 37.7778 33.3333 37.7778C40 37.7778 51.0911 43.6978 53.3333 44.4444C59.6289 46.5422 63.9444 42.6956 68.1489 38.5178C68.2097 38.4567 68.2515 38.3793 68.2692 38.2949C68.2868 38.2105 68.2795 38.1228 68.2482 38.0425C68.2168 37.9622 68.1628 37.8928 68.0927 37.8426C68.0226 37.7924 67.9395 37.7637 67.8533 37.76C57.76 37.3578 57.2067 31.1111 40 31.1111Z" fill="#78273B"/>
<path d="M40 31.1111C29.5667 31.1111 25.2578 33.4044 21.2311 35.3L21.4422 35.8267C21.7072 36.4888 22.1249 37.079 22.6613 37.549C23.1977 38.019 23.8376 38.3555 24.5289 38.5311C27.06 39.1756 31.8844 40 40 40C48.1156 40 52.94 39.1756 55.4711 38.5311C56.1621 38.355 56.8018 38.0183 57.3382 37.5484C57.8745 37.0784 58.2924 36.4885 58.5578 35.8267L58.7689 35.3C54.7422 33.4044 50.4333 31.1111 40 31.1111Z" fill="#F4F7F9"/>
</svg>
