<svg width="155" height="78" viewBox="0 0 155 78" fill="none" xmlns="http://www.w3.org/2000/svg">
<path d="M130.906 14.6667C132.7 10.5056 133.467 7.68333 133.494 7.57222C134.239 4.60556 132.439 1.60001 129.467 0.850006C126.489 0.09445 123.483 1.89445 122.717 4.86667C122.306 6.50556 111.894 45.1111 67 45.1111C22.1056 45.1111 11.6944 6.50555 11.2778 4.86111C10.5111 1.89444 7.50556 0.0944437 4.52778 0.844444C1.56112 1.59444 -0.238883 4.6 0.500006 7.56667C0.622228 8.05556 13.2833 56.2222 67 56.2222C76.1667 56.2222 84.0556 54.7444 90.9722 52.4167C115.028 44.3167 126.383 25.1389 130.906 14.6667Z" fill="#664500"/>
<path d="M147.039 32.2278L130.617 15.2778C130.617 15.2778 126.839 12.8445 123.544 18.4334C119.211 25.7778 112.017 34.7389 101.689 41.6056C97.35 44.4889 89.8056 48.2111 86.7056 48.9278C82.6222 49.8667 84.55 54.2834 84.55 54.2834C87.8 53.5778 90.3889 52.6111 90.3889 52.6111L92.0333 54.2556L107.178 69.4C116.778 79 134.956 80.5111 146.067 69.4C157.178 58.2889 156.644 41.8334 147.039 32.2278Z" fill="#E75B70"/>
<path d="M133.194 56.6333C134.378 55.45 134.378 53.5333 133.194 52.35L113.033 32.1889L108.611 36.3445L128.906 56.6389C130.089 57.8167 132.011 57.8167 133.194 56.6333Z" fill="#DE3146"/>
</svg>
