<svg width="124" height="82" viewBox="0 0 124 82" fill="none" xmlns="http://www.w3.org/2000/svg">
<path d="M0.888916 0.122223C0.888916 22.1444 26.4222 50.1222 62 50.1222C97.5778 50.1222 123.111 22.3444 123.111 0.122223C123.111 0.122223 65.7056 15.4333 0.888916 0.122223Z" fill="#66471B"/>
<path d="M65.0278 13.1333L58.9667 13.1055C41.1 12.6944 28.6667 9.79443 28.6667 9.79443V48.4667C28.6667 65.1333 39.7778 81.8 62 81.8C84.2222 81.8 95.3334 65.1333 95.3334 48.4667V10.0222C84.6556 12.2111 74.2945 13.0333 65.0278 13.1333Z" fill="#E8596E"/>
<path d="M62 58.9056C63.6722 58.9056 65.0278 57.55 65.0278 55.8778V13.1333L58.9667 13.1056V55.8778C58.9722 57.55 60.3278 58.9056 62 58.9056Z" fill="#DD2F45"/>
</svg>
