<svg width="123" height="62" viewBox="0 0 123 62" fill="none" xmlns="http://www.w3.org/2000/svg">
<path d="M61.1111 5.75875C40.9833 5.75875 27.6278 3.4143 11.1111 0.203192C7.33889 -0.524586 0 0.203191 0 11.3143C0 33.5365 25.5278 61.3143 61.1111 61.3143C96.6889 61.3143 122.222 33.5365 122.222 11.3143C122.222 0.203191 114.883 -0.530142 111.111 0.203192C94.5945 3.4143 81.2389 5.75875 61.1111 5.75875Z" fill="#664500"/>
<path d="M11.1111 11.3143C11.1111 11.3143 27.7778 16.8698 61.1111 16.8698C94.4444 16.8698 111.111 11.3143 111.111 11.3143C111.111 11.3143 103.644 48.8143 61.1111 48.8143C18.5778 48.8143 11.1111 11.3143 11.1111 11.3143Z" fill="white"/>
<path d="M61.1111 36.8365C41.1333 36.8365 26.2667 34.7698 17.0167 32.6976L12.4333 22.3032C17.0055 24.0365 34.0389 27.2865 61.1167 27.2865C88.6389 27.2865 105.767 23.8643 110.361 22.0754L106.467 32.3087C97.3889 34.4198 81.9167 36.8365 61.1111 36.8365Z" fill="#664500"/>
</svg>
