<svg width="122" height="101" viewBox="0 0 122 101" fill="none" xmlns="http://www.w3.org/2000/svg">
<path d="M59.4722 17.3166C39.7889 21.5333 26.2444 22.0389 9.41664 22.3611C5.57775 22.4444 -1.44447 24.6889 0.883312 35.5555C5.53887 57.2833 36.3222 79.0944 71.1166 71.6389C105.906 64.1833 125.05 31.6722 120.394 9.94442C118.067 -0.922249 110.733 -0.100034 107.2 1.41108C91.7222 8.00552 79.1555 13.1 59.4722 17.3166Z" fill="#65471B"/>
<path d="M20 34V67.3333C20 84 31.1111 100.667 53.3333 100.667C75.5556 100.667 86.6667 84 86.6667 67.3333V34H20Z" fill="#E8596E"/>
<path d="M50.4445 78.1278C52.1167 78.1278 53.4722 76.7723 53.4722 75.1V40.1278H47.4111V75.1C47.4167 76.7723 48.7722 78.1278 50.4445 78.1278Z" fill="#DD2F45"/>
<path d="M11.7444 33.2278C11.7444 33.2278 29.2056 35.1667 61.8 28.1833C94.3944 21.2 109.528 12.2722 109.528 12.2722C109.528 12.2722 103.322 36.3278 65.2944 44.4778C27.2667 52.6278 11.7444 33.2278 11.7444 33.2278Z" fill="white"/>
</svg>
