<svg width="116" height="47" viewBox="0 0 116 47" fill="none" xmlns="http://www.w3.org/2000/svg">
<path d="M83.8111 46.0333C78.2944 46.0333 72.9667 43.5055 68.3222 38.5944C52.6778 22.0111 48.4944 25.6333 41.5611 31.6444C37.2222 35.4167 31.8167 40.1055 23.7556 40.1055C10.6944 40.1055 1.70555 27.3167 1.33333 26.7722C-0.411113 24.25 0.222219 20.7889 2.74444 19.0444C5.25 17.3111 8.71111 17.9333 10.4667 20.4389C12.1389 22.8222 17.7833 28.9944 23.7611 28.9944C27.6722 28.9944 30.7389 26.3333 34.2889 23.2555C44.3778 14.4889 55.2 8.50554 76.4167 30.9667C80.9889 35.8167 84.4833 35.2667 87.0167 34.2555C96.2333 30.5611 104.822 13.7111 104.778 5.64444C104.761 2.57777 107.233 0.0777629 110.3 0.0610962H110.333C113.389 0.0610962 115.872 2.52777 115.889 5.58888C115.956 17.2722 105.589 38.7889 91.1444 44.5722C88.6833 45.5444 86.2278 46.0278 83.8111 46.0333Z" fill="#664500"/>
</svg>
