<svg width="34" height="63" viewBox="0 0 34 63" fill="none" xmlns="http://www.w3.org/2000/svg">
<path d="M18.9501 31.5556C26.3667 29.2667 33.5556 25.1333 33.5556 17.6667C33.5556 3.11666 6.26673 1.17777 3.15562 1.00555C1.63339 0.85555 0.327836 2.07777 0.227836 3.60555C0.133392 5.12777 1.2834 6.44444 2.80562 6.55C3.00006 6.56111 22.4445 8.21111 22.4445 17.6667C22.4445 27.1222 3.00006 28.7722 2.80562 28.7833C2.7334 28.7889 2.67784 28.8278 2.60562 28.8389C2.31118 28.8722 2.03895 28.9389 1.77784 29.0667L1.6945 29.1167C1.42784 29.2667 1.18895 29.4444 0.988953 29.6722C0.911176 29.7555 0.861176 29.8444 0.79451 29.9333C0.666732 30.1111 0.550058 30.2889 0.461169 30.5056C0.394502 30.6667 0.361168 30.8444 0.327835 31.0167C0.305612 31.1444 0.238948 31.2611 0.227836 31.3889C0.227836 31.45 0.250057 31.5055 0.250057 31.5611C0.250057 31.6167 0.222281 31.6778 0.227836 31.7333C0.233392 31.8667 0.300057 31.9833 0.327835 32.1111C0.361168 32.2833 0.38895 32.45 0.455616 32.6111C0.527838 32.7778 0.627837 32.9278 0.727837 33.0778C0.822282 33.2111 0.905615 33.3555 1.01673 33.4722C1.1445 33.6 1.29451 33.7 1.45007 33.8111C1.5834 33.9056 1.70562 34 1.86117 34.0722C2.03895 34.1555 2.22784 34.1889 2.42228 34.2222C2.55562 34.2555 2.66673 34.3222 2.80562 34.3333C3.00006 34.3389 22.4445 35.9889 22.4445 45.4444C22.4445 54.9 3.00006 56.55 2.80562 56.5611C1.2834 56.6722 0.133392 57.9889 0.227836 59.5055C0.322281 60.9778 1.54451 62.1111 3.00006 62.1111L3.15562 62.1056C6.26673 61.9333 33.5556 59.9944 33.5556 45.4444C33.5556 37.9778 26.3667 33.8444 18.9501 31.5556Z" fill="#664500"/>
</svg>
