<svg width="80" height="80" viewBox="0 0 80 80" fill="none" xmlns="http://www.w3.org/2000/svg">
<path d="M64.4444 26.6667C54.0267 18.8556 51.1111 13.3333 46.6667 13.3333C42.2222 13.3333 42.2222 15.5556 40 15.5556C37.7778 15.5556 37.7778 13.3333 33.3333 13.3333C28.8889 13.3333 25.9711 18.8556 15.5556 26.6667C6.66667 33.3333 0 33.3333 0 37.7778C0 42.2222 11.1111 51.1111 17.7778 57.7778C22.2222 62.2222 28.8889 66.6667 40 66.6667C51.1111 66.6667 57.7778 62.2222 62.2222 57.7778C68.8889 51.1111 80 42.2222 80 37.7778C80 33.3333 73.3333 33.3333 64.4444 26.6667Z" fill="#E75A70"/>
<path d="M63.0867 34.4444C53.2511 31.1889 46.6667 29.8156 40 29.8156C33.3333 29.8156 26.7511 31.1889 16.9133 34.4444C8.51778 37.2222 2.22222 35.9267 2.22222 37.7778C2.22222 39.6311 22.2222 48.8889 40 48.8889C57.7778 48.8889 77.7778 39.6311 77.7778 37.7778C77.7778 35.9267 71.48 37.2222 63.0867 34.4444Z" fill="#662113"/>
<path d="M63.0867 34.4444C53.2511 31.1889 46.6667 29.8156 40 29.8156C33.3333 29.8156 26.7511 31.1889 16.9133 34.4444C8.86 37.1089 2.75556 36.0333 2.26889 37.5733C7.72222 38.4289 22.5333 36.1422 40 36.1422C57.4667 36.1422 72.2756 38.4289 77.7311 37.5733C77.2444 36.0333 71.1378 37.1089 63.0867 34.4444Z" fill="white"/>
</svg>
