<svg width="106" height="43" viewBox="0 0 106 43" fill="none" xmlns="http://www.w3.org/2000/svg">
<path d="M104.861 1.27222C103.872 0.377774 102.394 0.322222 101.333 1.11111C101.117 1.27222 79.5444 17.2222 53 17.2222C26.5222 17.2222 4.87778 1.27222 4.66667 1.11111C3.60556 0.322222 2.12778 0.388885 1.13889 1.27222C0.155554 2.16111 -0.0666671 3.62778 0.616666 4.76111C1.33333 5.95555 18.4889 33.8889 53 33.8889C87.5111 33.8889 104.672 5.95555 105.383 4.76111C106.067 3.62222 105.85 2.16111 104.861 1.27222Z" fill="#664500"/>
<path d="M53 17.7278C52.1778 17.7278 51.3833 17.6667 50.5667 17.6389V42.7278H55.4278V17.6333C54.6222 17.6611 53.8222 17.7278 53 17.7278Z" fill="#65471B"/>
<path d="M75.2223 14.4444C75.3112 14.4222 67.1667 16.5444 61.6334 17.1444C59.6 17.3778 57.5389 17.5667 55.4278 17.6389V42.7333H64.1112C70.2223 42.7333 75.2223 37.7333 75.2223 31.6222V14.4444ZM30.7778 14.4444C30.6889 14.4222 38.8334 16.5444 44.3667 17.1444C46.4 17.3778 48.4612 17.5667 50.5723 17.6389V42.7333H41.8889C35.7778 42.7333 30.7778 37.7333 30.7778 31.6222V14.4444Z" fill="white"/>
<path d="M104.861 1.27222C103.872 0.377775 102.394 0.322221 101.333 1.11111C101.167 1.23333 88.7833 10.3778 71.2722 14.8333C68.8111 15.4611 60.9166 17.2222 53.0166 17.2278C45.1055 17.2278 37.1889 15.4611 34.7277 14.8333C17.2166 10.3778 4.83329 1.23333 4.66663 1.11111C3.61107 0.322221 2.12774 0.377775 1.13885 1.27222C0.149958 2.16111 -0.0667081 3.62222 0.616625 4.76111C1.15551 5.66111 11.0888 21.8 30.7777 29.6556V19.4944C30.6888 19.4722 38.8333 21.5944 44.3666 22.1944C46.4 22.4278 48.4611 22.6167 50.5722 22.6889C51.3833 22.7167 52.1777 22.7778 53 22.7778C53.8222 22.7778 54.6166 22.7167 55.4333 22.6889C57.5444 22.6167 59.6055 22.4333 61.6389 22.1944C67.1722 21.5944 75.3166 19.4722 75.2277 19.4944V29.6556C94.9166 21.8 104.85 5.66111 105.389 4.76111C106.067 3.62222 105.85 2.16111 104.861 1.27222Z" fill="#65471B"/>
</svg>
