<svg width="124" height="62" viewBox="0 0 124 62" fill="none" xmlns="http://www.w3.org/2000/svg">
<path d="M12 0.666677C28.5167 3.87779 41.8722 6.22223 62 6.22223C82.1278 6.22223 95.4833 3.87779 112 0.666677C115.772 -0.0666559 123.111 0.666677 123.111 11.7778C123.111 34 97.5778 61.7778 62 61.7778C26.4167 61.7778 0.888885 34 0.888885 11.7778C0.888885 0.666677 8.22777 -0.0611003 12 0.666677Z" fill="#664500"/>
<path d="M12 11.7778C12 11.7778 28.6667 17.3333 62 17.3333C95.3333 17.3333 112 11.7778 112 11.7778C112 11.7778 100.889 34 62 34C23.1111 34 12 11.7778 12 11.7778Z" fill="white"/>
</svg>
