<svg width="149" height="61" viewBox="0 0 149 61" fill="none" xmlns="http://www.w3.org/2000/svg">
<path d="M115.122 49.3833L56.3833 42.1445C50.1056 41.5778 39.0667 41.5222 39.6333 31.5778C40.15 22.5611 50.9667 23.95 58.9611 25.1333L118.061 34.9889L115.122 49.3833Z" fill="#3B88C3"/>
<path d="M142.989 33.3389L128.422 46.7333L102.383 18.4167L116.95 5.02222C124.511 -1.93334 136.389 -1.43333 143.344 6.12778L144.094 6.94444C151.044 14.5111 150.55 26.3833 142.989 33.3389Z" fill="#3B88C3"/>
<path d="M47.2861 44.9218C53.4226 44.9218 58.3972 38.7036 58.3972 31.0329C58.3972 23.3623 53.4226 17.1441 47.2861 17.1441C41.1496 17.1441 36.175 23.3623 36.175 31.0329C36.175 38.7036 41.1496 44.9218 47.2861 44.9218Z" fill="#664500"/>
<path d="M21.4361 60.3274C21.0584 60.3274 20.675 60.2774 20.2972 60.1718C18.0861 59.5441 16.7972 57.2441 17.425 55.0274C19.8528 46.4718 18.8584 38.1996 14.7028 32.3274C11.9417 28.4274 8.00836 26.0441 3.90836 25.7829C1.60836 25.6441 -0.136084 23.6607 0.0083604 21.3663C0.152805 19.0718 2.12503 17.1941 4.42503 17.4718C11.0528 17.8829 17.275 21.5441 21.4973 27.5107C27.1139 35.4496 28.5528 46.3052 25.4361 57.2941C24.9195 59.1329 23.2472 60.3274 21.4361 60.3274ZM82.7528 43.3218C81.9639 43.3218 81.1695 43.0996 80.4639 42.6329C73.9806 38.3552 70.3528 30.8718 70.5084 22.1052C70.6695 13.0218 75.0028 4.5885 81.5306 0.610723C83.4917 -0.589277 86.0528 0.0329418 87.2528 2.00516C88.4528 3.97183 87.8306 6.52739 85.8584 7.72739C81.775 10.2163 78.9472 16.0552 78.8361 22.2496C78.725 28.1107 80.9972 33.0052 85.0472 35.6774C86.9695 36.9441 87.4973 39.5274 86.2306 41.4496C85.4306 42.6663 84.1084 43.3218 82.7528 43.3218Z" fill="#E2A62D"/>
<path d="M126.705 46.3295C132.961 40.577 132.205 29.5748 125.015 21.7554C117.826 13.936 106.926 12.2604 100.669 18.0129C94.4128 23.7654 95.1693 34.7676 102.359 42.587C109.548 50.4064 120.449 52.0819 126.705 46.3295Z" fill="#88C9F9"/>
<path d="M123.205 41.0768C126.334 38.2006 125.373 32.066 121.06 27.3748C116.746 22.6836 110.714 21.2123 107.585 24.0885C104.457 26.9648 105.418 33.0994 109.731 37.7906C114.045 42.4818 120.077 43.9531 123.205 41.0768Z" fill="#226699"/>
</svg>
