<svg width="150" height="66" viewBox="0 0 150 66" fill="none" xmlns="http://www.w3.org/2000/svg">
<path d="M88.8944 23.0222H47.225H5.55556C0 23.0222 0 17.4667 0 17.4667V11.9111C0 11.9111 0 6.33888 5.55556 6.33888L47.225 6.34722L88.8944 6.35555V23.0222Z" fill="#664500"/>
<path d="M145.861 17.9111L103.011 6.12778C99.0111 5.03333 97.1833 7.72223 96.5055 9.16667L87.3944 4.81111L83.3333 13.3056V0.783333H72.2222V11.8944H61.1111V0.783333H49.9944V11.8944H38.8889V0.783333H27.7778V11.8944H16.6667V0.783333H5.55554V17.45H16.6667V28.5611H27.7778V17.45H38.8833V28.5611H49.9944V17.45H61.1111V28.5611H72.2222V17.45H81.35L78.1278 24.1833L87.2833 28.5611L86.7333 29.7111C86.7333 29.7111 85.3555 33.8056 88.8055 36.7944C92.2555 39.7778 118.167 63.1 118.167 63.1C118.167 63.1 123.161 67.9111 127.994 63.5389C132.094 59.8167 148.267 30.0944 149.739 24.7444C151.217 19.3889 145.861 17.9111 145.861 17.9111ZM124.906 51.6389L110.217 39.15L119.183 22.1L137.728 28.3889L124.906 51.6389Z" fill="#99AAB5"/>
</svg>
