<svg width="103" height="120" viewBox="0 0 103 120" fill="none" xmlns="http://www.w3.org/2000/svg">
<path d="M66 111.424V8.57645C66 5.82943 64.3872 3.59998 62.4 3.59998H57.6C55.6128 3.59998 54 5.82943 54 8.57645V111.424C54 114.171 55.6128 116.4 57.6 116.4H62.4C64.3872 116.4 66 114.171 66 111.424Z" fill="#D99E82"/>
<path d="M93.3333 70H23.3333C19.65 70 16.6667 67.0167 16.6667 63.3333V16.6667C16.6667 12.9833 19.65 10 23.3333 10H93.3333C97.0167 10 100 12.9833 100 16.6667V63.3333C100 67.0167 97.0167 70 93.3333 70Z" fill="#E1E8ED"/>
<path d="M54 69.6H66V76.8H54V69.6Z" fill="#C1694F"/>
</svg>
