<svg width="100" height="90" viewBox="0 0 100 90" fill="none" xmlns="http://www.w3.org/2000/svg">
<path d="M83.0444 64.075C83.0528 64.8611 82.85 65.8889 82.6389 66.7361C81.1639 72.6944 74.6139 79.3805 65.3944 78.7722C57.0389 78.2222 50.2333 74.2111 50.2333 68.5861C50.2333 62.9611 57.0222 58.4 65.3944 58.4C73.7667 58.4 82.9917 58.45 83.0444 64.075Z" fill="#EA596E"/>
<path d="M65.3944 59.3445C60.8972 59.3445 50.6333 60.5889 48.2778 60.5889C44.1167 60.5889 40.7417 63.2 40.7417 66.4222C40.7417 67.9722 41.5361 69.3722 42.8083 70.4167C42.8083 70.4167 45.6028 73.2195 50.6361 71.875C52.8389 71.2861 56.4222 66.9139 62.7306 66.2194C65.8722 65.8722 71.7583 68.3028 82.1028 68.3611C82.5472 67.4056 82.6389 66.7417 82.6389 66.7417C82.6389 61.1111 73.7667 59.3445 65.3944 59.3445Z" fill="#DD2E44"/>
<path d="M82.6389 66.7361C82.6389 66.7361 88.7056 65.5056 92.4778 60.5444C96.875 54.7583 96.2972 48.5667 96.2972 48.5667C100.753 40.2333 94.9083 32.4194 94.9083 32.4194C94.3278 23.6222 88.8889 19.9778 88.8889 19.9778C85.3583 11.5861 77.5472 9.33056 77.5472 9.33056C71.4139 2.15556 60.5333 2.38611 60.5333 2.38611C60.5333 2.38611 50.3389 -1.35 36.3444 2.85C34.0306 3.54444 26.275 5.16389 20.6028 8.63611C2.725 19.5806 1.37222 36.6472 1.62222 39.4222C3.00833 54.9306 13.8889 57.7083 20.8333 59.3278C22.4528 63.725 28.4139 71.8278 39.1194 68.8194C52.3139 66.5056 57.8694 62.5694 61.1111 62.5694C64.3528 62.5694 73.3806 66.0417 82.6389 66.7361Z" fill="#F4ABBA"/>
<path d="M49.2694 41.8C55.7361 38.3139 59.2417 38.6389 62.3361 38.9195C63.3194 39.0083 64.25 39.0778 65.1917 39.0722C70.7028 38.9472 75.1667 36.625 77.1417 34.3778C77.6472 33.8 77.5889 32.925 77.0139 32.4167C76.4417 31.9111 75.5667 31.9639 75.0528 32.5417C73.5306 34.275 69.7778 36.1889 65.1278 36.2945C64.2944 36.3195 63.4583 36.2361 62.5917 36.1556C59.2722 35.8472 55.15 35.4695 47.95 39.3556C46.1028 40.3528 43.5694 40.7222 40.825 41C34.7222 32.1917 38.3944 24.5195 39.4444 22.6917C39.5472 22.6972 39.6472 22.7306 39.7528 22.7306C40.8639 22.7306 41.9806 22.4583 42.9917 21.8861C43.6583 21.5083 43.8944 20.6611 43.5167 19.9945C43.1389 19.3278 42.2917 19.0917 41.625 19.4695C39.8472 20.475 37.5083 19.8945 36.4028 18.1722C35.9889 17.525 35.1306 17.3361 34.4861 17.7528C33.8417 18.1667 33.6528 19.025 34.0667 19.6695C34.725 20.7 35.6528 21.475 36.7 21.9945C35.2528 24.9333 32.5056 32.6611 37.7333 41.3028C34.0556 41.6639 30.3722 42.1833 27.4889 44.0417C25.6278 45.2417 23.725 46.9972 22.2722 49.0167C20.525 48.7167 14.1278 47.1417 13.0111 40.0417C13.7056 39.5028 14.2667 38.7917 14.6139 37.9139C14.8972 37.2 14.5472 36.3945 13.8333 36.1111C13.1195 35.8278 12.3139 36.1778 12.0306 36.8917C11.7833 37.5167 11.3361 37.9722 10.7695 38.1722C10.2083 38.3722 9.57223 38.3056 8.98334 37.9778C8.30834 37.6028 7.46667 37.85 7.09445 38.5167C6.72223 39.1861 6.96389 40.0333 7.63334 40.4056C8.42223 40.8445 9.26667 41.0667 10.1056 41.0667C10.2083 41.0667 10.3056 41.0195 10.4083 41.0139C11.7306 47.7167 17.0278 50.6611 20.775 51.5528C20.2861 52.6306 19.9556 53.7417 19.8556 54.8639C19.7889 55.625 20.3528 56.3028 21.1167 56.3695L21.2417 56.375C21.9528 56.375 22.5611 55.8333 22.625 55.1083C22.925 51.7389 26.1389 48.2195 28.9944 46.3722C31.6722 44.6472 35.5917 44.2834 39.3861 43.9306C43.0667 43.5945 46.5444 43.2722 49.2694 41.8ZM85.0083 37.6222C84.6444 38.2945 84.8944 39.1389 85.5639 39.5028C85.775 39.6195 86.0056 39.675 86.2306 39.675C86.7194 39.675 87.1944 39.4167 87.4472 38.9556C87.5 38.8611 92.5639 29.375 83.0833 23C82.45 22.5778 81.5861 22.7417 81.1556 23.3778C80.7278 24.0139 80.8972 24.8778 81.5333 25.3056C88.8778 30.2445 85.1694 37.3222 85.0083 37.6222ZM27.4333 15.1945C27.8667 15.1945 28.2917 14.9945 28.5611 14.6167C32.5889 9.0139 38.1667 10.9306 38.4028 11.0195C39.1222 11.2806 39.9139 10.9139 40.1806 10.1972C40.4472 9.47779 40.0806 8.68057 39.3611 8.4139C36.6944 7.42501 30.5361 7.1139 26.3056 12.9972C25.8583 13.6167 26 14.4861 26.6222 14.9333C26.8694 15.1111 27.1528 15.1945 27.4333 15.1945ZM63.7444 9.95001C69.925 9.44723 72.7361 13.9278 72.8639 14.1389C73.125 14.5778 73.5861 14.8222 74.0611 14.8222C74.3 14.8222 74.5444 14.7611 74.7639 14.6306C75.425 14.2417 75.6472 13.3917 75.2611 12.7306C75.1111 12.4778 71.5389 6.56946 63.5278 7.18057C62.7639 7.2389 62.1944 7.90835 62.2528 8.67501C62.3139 9.4389 63.0056 10.0195 63.7444 9.95001ZM89.1611 50.5361C88.4778 50.4972 87.725 51.0389 87.6639 51.8056C87.6583 51.8556 87.2167 56.5806 82.3583 58.1778C81.6306 58.4167 81.2333 59.2 81.475 59.9306C81.6639 60.5139 82.2111 60.8861 82.7944 60.8861C82.9389 60.8861 83.0833 60.8639 83.2278 60.8167C89.8167 58.6556 90.4111 52.3056 90.4333 52.0361C90.4917 51.2695 89.925 50.5972 89.1611 50.5361Z" fill="#EA596E"/>
<path d="M20.4083 37.0389C20.2083 37.7806 20.6472 38.5417 21.3889 38.7417C21.5083 38.775 21.6306 38.7889 21.75 38.7889C22.3639 38.7889 22.9222 38.3806 23.0889 37.7611C23.6167 35.7861 25.6639 34.5194 27.6778 34.9444C28.4306 35.0972 29.1639 34.6222 29.3222 33.8694C29.4806 33.1194 29 32.3833 28.2472 32.225C27.0639 31.975 25.875 32.0917 24.7806 32.4639C21.5417 26.925 22.1722 21.4639 22.1806 21.4056C22.2806 20.6472 21.7472 19.95 20.9889 19.8444C20.2333 19.7528 19.5333 20.2722 19.4278 21.0306C19.3917 21.3 18.65 27.4639 22.3806 33.8472C21.4528 34.6833 20.7472 35.775 20.4083 37.0389ZM51.4611 30.1778C52.5917 29.1306 54.4056 29.15 55.5028 30.2194C55.775 30.4806 56.1222 30.6111 56.4722 30.6111C56.8361 30.6111 57.1972 30.4694 57.4667 30.1889C58 29.6389 57.9889 28.7583 57.4389 28.225C56.8 27.6056 56.0361 27.1917 55.225 26.9333C56.0472 24.1111 55.7222 22.8583 54.9583 20.5111C54.825 20.1028 54.6778 19.6472 54.5222 19.1278L54.4389 18.85C53.4278 15.4944 52.7583 13.2806 54.6806 10.1556C55.0833 9.50278 54.8778 8.64722 54.225 8.24445C53.5833 7.84445 52.7195 8.04167 52.3139 8.7C49.7361 12.8889 50.6833 16.025 51.7806 19.6556L51.8639 19.9333C52.0278 20.4722 52.1778 20.9444 52.3167 21.3694C53.0028 23.4833 53.2111 24.1917 52.3722 26.7472C51.3472 26.9389 50.3667 27.4028 49.5667 28.1472C49.0056 28.6694 48.975 29.55 49.4972 30.1111C50.0222 30.6722 50.9028 30.7 51.4611 30.1778ZM69.1417 21.8861C69.95 21.8861 70.7667 21.7167 71.5278 21.3556C72.2222 21.0278 72.5194 20.2 72.1917 19.5056C71.8667 18.8111 71.0278 18.5222 70.3444 18.8417C68.95 19.4972 67.2306 18.9278 66.5 17.5722C66.1361 16.8944 65.2889 16.6472 64.6194 17.0028C63.9444 17.3639 63.6889 18.2083 64.0528 18.8833C64.5528 19.8167 65.2972 20.5528 66.1639 21.0639C64.6722 24.6889 65.5194 28.5389 66.2111 30.5806C66.4056 31.1611 66.9472 31.525 67.5278 31.525C67.675 31.525 67.8222 31.5028 67.9722 31.4528C68.7 31.2083 69.0889 30.4194 68.8417 29.6944C68.375 28.3111 67.4694 24.8167 68.8361 21.8444C68.9417 21.85 69.0389 21.8861 69.1417 21.8861ZM82.4667 48.0778C82.4139 47.3139 81.7528 46.7111 80.9917 46.7806C78.175 46.9806 75.775 44.8444 75.5833 42.05C75.5278 41.2861 74.8472 40.7167 74.1028 40.7583C73.3389 40.8111 72.7611 41.475 72.8111 42.2389C72.925 43.8778 73.55 45.3556 74.5 46.5583C72.2667 49.1861 69.3417 49.9333 67.7111 50.125C66.2694 50.2972 65.0083 50.15 63.55 49.9778C62.2139 49.825 60.7028 49.65 58.8333 49.7056L58.8194 49.7083C58.7639 48.9139 58.575 47.7556 57.9722 46.7917C57.5667 46.1444 56.7083 45.9472 56.0583 46.3528C55.4111 46.7583 55.2111 47.6167 55.6195 48.2667C55.9917 48.8639 56.0611 49.8167 56.0611 50.2806C54.6611 50.7833 53.45 51.5222 52.3556 52.2361C50.4 53.5083 48.8583 54.5139 46.5389 53.9917C44.4389 53.5111 42.3361 53.4139 40.5528 53.6639C40.275 52.9667 39.8361 52.1333 39.1583 51.4917C38.6 50.9639 37.7222 50.9861 37.1945 51.5472C36.6695 52.1028 36.6917 52.9833 37.25 53.5111C37.4889 53.7361 37.6778 54.0639 37.8306 54.3917C34.7667 55.6528 33.2306 57.7611 33.1583 57.8639C32.7139 58.4861 32.8611 59.3444 33.4778 59.7917C33.7222 59.9667 34.0056 60.0528 34.2889 60.0528C34.7194 60.0528 35.1444 59.8556 35.4167 59.4833C35.4306 59.4611 36.9556 57.4194 39.9639 56.5944C41.5195 56.1667 43.75 56.2028 45.925 56.6972C46.5333 56.8361 47.0972 56.8833 47.6445 56.8917C47.9028 57.4972 48.0028 58.2167 48.0167 58.4833C48.0611 59.2222 48.6722 59.7944 49.4028 59.7944L49.4778 59.7917C50.2417 59.75 50.8278 59.1028 50.7917 58.3389C50.7833 58.2 50.7278 57.3778 50.4306 56.4333C51.7111 55.9694 52.825 55.2444 53.8722 54.5639C55.4611 53.5278 56.9639 52.5472 58.9278 52.4833C60.5722 52.425 61.9278 52.5833 63.2361 52.7361C64.5528 52.8889 65.8472 52.9889 67.275 52.9056C67.5278 53.6083 67.5083 54.5472 67.4694 54.8611C67.3778 55.6194 67.9139 56.3139 68.675 56.4139C68.7333 56.4222 68.7917 56.425 68.85 56.425C69.5361 56.425 70.1333 55.9167 70.225 55.2167C70.2472 55.0444 70.3889 53.7944 70.0611 52.4917C72.0556 51.9556 74.5278 50.7917 76.575 48.4056C77.7722 49.1389 79.1694 49.5694 80.6556 49.5694C80.8278 49.5694 81.0028 49.5639 81.175 49.5528C81.9389 49.5028 82.5167 48.8445 82.4667 48.0778Z" fill="#EA596E"/>
</svg>
