<svg width="80" height="80" viewBox="0 0 80 80" fill="none" xmlns="http://www.w3.org/2000/svg">
<path d="M77.7778 42.2222C77.7778 37.64 76.9622 33.2467 75.4667 29.1822C74.4445 41.1578 68.06 47.3089 61.3889 44.4444C55.14 41.76 59.3511 31.2955 59.6622 26.3022C60.1867 17.8378 59.6356 8.14888 44.26 0.0933228C50.6489 12.3155 45 19.9089 39.0756 20.3711C32.5022 20.8844 26.4822 14.7222 28.7045 4.72221C21.5089 10.0244 21.3 18.9489 23.52 24.7222C25.8356 30.74 23.4267 35.74 17.78 36.2955C11.4689 36.9178 7.96223 29.5378 11.1956 17.7778C5.60001 24.3667 2.22223 32.9 2.22223 42.2222C2.22223 63.0867 19.1356 80 40 80C60.8645 80 77.7778 63.0867 77.7778 42.2222Z" fill="#F4900C"/>
<path d="M63.0978 53.3311C63.4266 60.1845 57.4066 62.8711 54.1666 61.5734C49.4866 59.7 50.7422 56.4822 49.5378 49.8156C48.3333 43.1489 43.7044 38.52 36.8533 36.4822C41.8533 50.5556 34.0822 55.7422 30.0089 56.6689C25.8489 57.6156 21.6689 56.6667 21.1911 47.7645C16.3378 52.5956 13.3333 59.28 13.3333 66.6667C13.3333 67.4845 13.3844 68.2889 13.4555 69.0889C20.2778 75.8311 29.6489 80 40 80C50.3511 80 59.7222 75.8311 66.5444 69.0889C66.6155 68.2889 66.6666 67.4845 66.6666 66.6667C66.6666 61.8067 65.3689 57.2534 63.0978 53.3311Z" fill="#FFCC4D"/>
</svg>
