<svg width="73" height="80" viewBox="0 0 73 80" fill="none" xmlns="http://www.w3.org/2000/svg">
<path d="M64.1111 71.1111C64.1111 76.02 60.1311 80 55.2222 80H10.7778C5.86889 80 1.88889 76.02 1.88889 71.1111V8.88889C1.88889 3.98 5.86889 0 10.7778 0H55.2222C60.1311 0 64.1111 3.98 64.1111 8.88889V71.1111Z" fill="#E6E7E8"/>
<path d="M11.66 26.4245C12.8378 26.4245 13.8733 26.5978 14.7533 26.94C15.2955 27.0867 15.76 27.2578 16.1533 27.4534C17.9222 27.3556 19.7355 27.1822 21.6044 26.94C24.0578 26.6422 27.0778 26.28 30.6622 25.8356V20.6822C30.6622 17.0978 30.2444 14.1311 29.4111 11.7711C29.0667 11.0334 28.8933 10.5445 28.8933 10.3C28.8933 9.56447 29.1889 9.19336 29.7778 9.19336C31.3467 9.19336 32.7978 9.39114 34.12 9.78447C35.6444 10.2245 36.4044 10.7911 36.4044 11.4756C36.4044 11.7222 36.3111 12.2356 36.1067 13.0222C35.5178 14.5445 35.2289 17.3667 35.2289 21.4911V25.32C38.1156 25.0267 41.28 24.7067 44.72 24.3645C46.2889 24.2645 47.7889 23.9956 49.2156 23.5511C50.2444 23.3556 50.8578 23.2578 51.06 23.2578C51.6467 23.2578 52.92 23.7511 54.8822 24.7289C56.9444 25.9578 57.98 26.9156 57.98 27.6022C57.98 28.14 57.7133 28.6822 57.1756 29.2222C55.3556 31.18 54.0467 33.2422 53.2667 35.4045L51.4933 39.1622C51.2044 39.8934 50.88 40.4578 50.5467 40.8511L50.8311 41C51.96 41.6911 52.5222 42.3022 52.5222 42.8422C52.5222 43.2822 52.1156 43.5289 51.2778 43.58C47.5022 43.58 44.0867 43.7756 41.0422 44.1711L35.2333 44.6067L35.1578 54.4778C35.1578 58.9422 35.0044 62.5222 34.7178 65.2289C34.4222 68.2689 33.9778 70.4311 33.3889 71.7045C32.8444 72.7889 32.4 73.3334 32.06 73.3334C31.8622 73.3334 31.5444 72.7422 31.1022 71.56C30.8089 70.1889 30.6622 67.8111 30.6622 64.4178V44.9756L26.6867 45.3467C24.0333 45.5934 21.9956 45.72 20.5756 45.72C19.9844 45.72 19.4911 45.6667 19.1 45.5667C19.0022 46.0111 18.8555 46.4023 18.66 46.7511C18.3644 47.3889 18.0444 47.7067 17.7 47.7067C17.26 47.7067 16.8444 47.3645 16.4511 46.6734C15.8133 45.7 15.4689 44.6911 15.42 43.6556L14.5355 37.9111C14.1911 34.9156 13.7978 32.8311 13.3555 31.6489C13.1089 30.4245 12.4467 29.2467 11.3689 28.1156C10.9755 27.8711 10.7778 27.7022 10.7778 27.6045C10.7778 26.8178 11.0733 26.4245 11.66 26.4245ZM19.0978 42.4711C23.1244 42.2822 26.9756 42.0356 30.66 41.7423V28.1156C26.8778 28.5578 23.2222 29.1467 19.6889 29.8845C19 30.1311 18.3622 30.3022 17.7733 30.4C17.7733 30.9889 17.8222 31.5778 17.9222 32.1622C18.5111 36.6356 18.9022 40.0756 19.0978 42.4711ZM35.2289 27.6045V41.3C36.8467 41.1067 38.4178 40.9022 39.9378 40.7111C42.8844 40.3156 45.0178 40.0756 46.3355 39.9756C46.4422 39.7311 46.5644 39.46 46.7089 39.1689C47.1511 37.7445 47.7378 35.5111 48.4822 32.4667C49.0689 30.0578 49.3578 28.5378 49.3578 27.8978C49.3578 27.1134 48.6044 26.7222 47.0822 26.7222C44.7689 26.7222 41.0911 26.9911 36.0311 27.5289C35.7422 27.5267 35.4667 27.5556 35.2289 27.6045Z" fill="#BE1931"/>
</svg>
