<svg width="156" height="58" viewBox="0 0 156 58" fill="none" xmlns="http://www.w3.org/2000/svg">
<path d="M143.217 57.3333H12.7833C5.87223 57.3333 0.222229 51.6833 0.222229 44.7722V12.8889C0.222229 5.97776 5.87223 0.327759 12.7833 0.327759H143.217C150.128 0.327759 155.778 5.97776 155.778 12.8889V44.7722C155.778 51.6833 150.128 57.3333 143.217 57.3333Z" fill="#292F33"/>
<path d="M21.5611 25.2723H17.0167C15.2722 25.2723 14.4778 24 14.4778 22.7334C14.4778 21.4667 15.2722 20.2001 17.0167 20.2001H22.2944L23.4556 11.7C23.7167 9.80005 24.5111 9.16672 26.0944 9.16672C27.3611 9.16672 28.5278 10.0056 28.5278 11.2778C28.5278 12.0723 28.5278 11.7 28.4222 12.55L27.3667 20.2056H32.4389L33.6 11.7056C33.8611 9.80561 34.6555 9.17227 36.2389 9.17227C37.5055 9.17227 38.6722 10.0112 38.6722 11.2834C38.6722 12.0778 38.6722 11.7056 38.5667 12.5556L37.5056 20.2112H42.05C43.7944 20.2112 44.5833 21.4834 44.5833 22.7445C44.5833 24.0112 43.7889 25.2834 42.05 25.2834H36.7667L35.9222 31.3H40.4667C42.2111 31.3 43 32.5723 43 33.8389C43 35.1056 42.2056 36.3723 40.4667 36.3723H35.1833L34.0222 44.8723C33.7555 46.7778 32.9611 47.4056 31.3778 47.4056C30.1111 47.4056 28.9444 46.5667 28.9444 45.2945C28.9444 44.5001 28.9444 44.8723 29.05 44.0223L30.1111 36.3667H25.0444L23.8833 44.8667C23.6167 46.7723 22.8278 47.4001 21.2389 47.4001C19.9722 47.4001 18.8055 46.5612 18.8055 45.2889C18.8055 44.4945 18.8055 44.8667 18.9111 44.0167L19.9667 36.3612H15.4333C13.6944 36.3612 12.9 35.0889 12.9 33.8278C12.9 32.5556 13.6944 31.2889 15.4333 31.2889H20.7167L21.5611 25.2723ZM25.8389 31.2889H30.8555L31.7 25.2723H26.6833L25.8389 31.2889ZM51.4833 17.4001C51.4833 12.8056 54.9167 8.84449 59.6167 8.84449C64.3167 8.84449 67.75 12.8056 67.75 17.4001C67.75 21.9945 64.3167 25.9056 59.6167 25.9056C54.9111 25.9112 51.4833 22.0001 51.4833 17.4001ZM62.3611 17.4001C62.3611 15.7112 61.3556 14.2334 59.6167 14.2334C57.8722 14.2334 56.8667 15.7167 56.8667 17.4001C56.8667 19.0945 57.8722 20.5223 59.6167 20.5223C61.3556 20.5223 62.3611 19.0945 62.3611 17.4001ZM75.1944 10.2223C75.8833 8.90561 76.4111 8.53338 77.6278 8.53338C79.2667 8.53338 80.7444 9.85005 80.7444 11.4889C80.7444 11.9112 80.7444 12.2834 80.3222 13.0723L62.5778 46.2889C61.7833 47.3945 61.4667 48.0278 60.2 48.0278C58.8278 48.0278 57.1889 46.7112 57.1889 45.1278C57.1889 44.3334 57.5055 43.6001 57.7167 43.1723L75.1944 10.2223ZM70.0722 39.2167C70.0722 34.6223 73.5056 30.6612 78.2056 30.6612C82.9056 30.6612 86.3389 34.6223 86.3389 39.2167C86.3389 43.8056 82.9056 47.7167 78.2056 47.7167C73.5 47.7223 70.0722 43.8056 70.0722 39.2167ZM80.95 39.2167C80.95 37.5223 79.9444 36.0501 78.2 36.0501C76.4556 36.0501 75.45 37.5278 75.45 39.2167C75.45 40.9056 76.4556 42.3334 78.2 42.3334C79.9444 42.3334 80.95 40.9056 80.95 39.2167ZM94.7611 43.6001C94.7611 41.3278 96.6111 39.4778 98.8778 39.4778C101.15 39.4778 103 41.3278 103 43.6001C103 45.8667 101.15 47.7167 98.8778 47.7167C96.6111 47.7223 94.7611 45.8723 94.7611 43.6001ZM95.0778 12.4389C95.0778 10.2223 96.7111 8.85006 98.8778 8.85006C100.994 8.85006 102.683 10.2778 102.683 12.4389V32.7723C102.683 34.9389 100.994 36.3612 98.8778 36.3612C96.7111 36.3612 95.0778 34.9889 95.0778 32.7723V12.4389ZM139.956 48.0334C138.917 48.0334 138.267 47.7389 137.561 46.9445L133.539 42.5556L133.139 42.9223C129.239 46.5056 125.872 48.0278 121.894 48.0278C115.733 48.0278 109.511 44.5167 109.511 36.6723C109.511 30.5223 114.328 26.8445 117.2 25.2001L117.85 24.8278L117.322 24.2834C114.961 21.8112 113.994 19.7667 113.994 17.2334C113.994 11.2501 119.456 8.52783 124.528 8.52783C128.772 8.52783 134.75 11.0445 134.75 16.6278C134.75 21.9112 129.844 24.9667 128.344 25.7778L127.706 26.1223L134.156 33.5723L136.622 30.5945C137.994 28.9445 138.794 28.25 140.211 28.25C141.35 28.25 142.567 29.2723 142.567 31.1556C142.567 32.5667 141.167 34.4056 139.794 36.0167L138.144 37.8778L142.067 42.5334C142.794 43.4001 143.094 43.8612 143.094 44.9112C143.1 46.5501 141.6 48.0334 139.956 48.0334ZM120.806 28.7334C118.428 30.3278 116.006 32.4278 116.006 35.9056C116.006 39.5501 118.378 41.9001 122.056 41.9001C125.122 41.9001 127.106 40.5556 129.139 38.5334L129.533 38.1501L121.2 28.4667L120.806 28.7334ZM124.533 13.6723C122.978 13.6723 120.811 14.9445 120.811 17.0167C120.811 18.9501 121.761 20.1278 123.778 22.1778L124.061 22.4667L124.411 22.2834C127.172 20.8389 128.572 19.2112 128.572 17.4556C128.578 14.8556 126.483 13.6723 124.533 13.6723Z" fill="white"/>
</svg>
