<svg width="84" height="100" viewBox="0 0 84 100" fill="none" xmlns="http://www.w3.org/2000/svg">
<path d="M64.5556 94.4444C64.5556 97.5139 62.0694 100 59 100H9C5.93055 100 3.44444 97.5139 3.44444 94.4444V5.55556C3.44444 2.48611 5.93055 0 9 0H59C62.0694 0 64.5556 2.48611 64.5556 5.55556V94.4444Z" fill="#BF6952"/>
<path d="M14.5556 54.1666C16.8567 54.1666 18.7222 52.3012 18.7222 50C18.7222 47.6988 16.8567 45.8333 14.5556 45.8333C12.2544 45.8333 10.3889 47.6988 10.3889 50C10.3889 52.3012 12.2544 54.1666 14.5556 54.1666Z" fill="#FFAC33"/>
<path d="M53.4444 8.33331C51.9111 8.33331 50.6667 9.57776 50.6667 11.1111V36.1111H14.5556C13.0222 36.1111 11.7778 37.3555 11.7778 38.8889C11.7778 40.4222 13.0222 41.6666 14.5556 41.6666H53.4444C54.9778 41.6666 56.2222 40.4222 56.2222 38.8889V11.1111C56.2222 9.57776 54.9778 8.33331 53.4444 8.33331ZM53.4444 77.7778C54.9778 77.7778 56.2222 79.0222 56.2222 80.5555V88.8889C56.2222 90.4222 54.9778 91.6667 53.4444 91.6667H14.5556C13.0222 91.6667 11.7778 90.4222 11.7778 88.8889C11.7778 87.3555 13.0222 86.1111 14.5556 86.1111H50.6667V80.5555C50.6667 79.0222 51.9111 77.7778 53.4444 77.7778Z" fill="#AC5640"/>
<path d="M14.5556 91.6667C13.0222 91.6667 11.7778 90.4222 11.7778 88.8889V80.5555C11.7778 79.0222 13.0222 77.7778 14.5556 77.7778H53.4444C54.9778 77.7778 56.2222 79.0222 56.2222 80.5555C56.2222 82.0889 54.9778 83.3333 53.4444 83.3333H17.3333V88.8889C17.3333 90.4222 16.0889 91.6667 14.5556 91.6667Z" fill="#854836"/>
<path d="M53.4444 58.3333C54.9778 58.3333 56.2222 59.5778 56.2222 61.1111V69.4444C56.2222 70.9778 54.9778 72.2222 53.4444 72.2222H14.5556C13.0222 72.2222 11.7778 70.9778 11.7778 69.4444C11.7778 67.9111 13.0222 66.6666 14.5556 66.6666H50.6667V61.1111C50.6667 59.5778 51.9111 58.3333 53.4444 58.3333Z" fill="#AC5640"/>
<path d="M14.5556 72.2222C13.0222 72.2222 11.7778 70.9778 11.7778 69.4444V61.1111C11.7778 59.5778 13.0222 58.3333 14.5556 58.3333H53.4444C54.9778 58.3333 56.2222 59.5778 56.2222 61.1111C56.2222 62.6444 54.9778 63.8889 53.4444 63.8889H17.3333V69.4444C17.3333 70.9778 16.0889 72.2222 14.5556 72.2222ZM14.5556 41.6666C13.0222 41.6666 11.7778 40.4222 11.7778 38.8889V11.1111C11.7778 9.57776 13.0222 8.33331 14.5556 8.33331H53.4444C54.9778 8.33331 56.2222 9.57776 56.2222 11.1111C56.2222 12.6444 54.9778 13.8889 53.4444 13.8889H17.3333V38.8889C17.3333 40.4222 16.0889 41.6666 14.5556 41.6666Z" fill="#854836"/>
</svg>
