<svg width="46" height="46" viewBox="0 0 46 46" fill="none" xmlns="http://www.w3.org/2000/svg">
<path d="M31.6315 14.3685L42.8911 18.5343C44.7622 19.2294 46 21.0099 46 23C46 24.9948 44.7622 26.7707 42.8911 27.4657L31.6315 31.6315L27.4657 42.8911C26.7706 44.7622 24.9901 46 23 46C21.0099 46 19.2294 44.7622 18.5343 42.8911L14.3685 31.6315L3.10888 27.4657C1.23784 26.7707 0 24.9901 0 23C0 21.0099 1.23784 19.2294 3.10888 18.5343L14.3637 14.3685L18.5343 3.10888C19.2246 1.23784 21.0052 0 23 0C24.9901 0 26.7706 1.23784 27.4657 3.10888L31.6315 14.3685Z" fill="#FFAC33"/>
</svg>
