<svg width="100" height="100" viewBox="0 0 100 100" fill="none" xmlns="http://www.w3.org/2000/svg">
<g clip-path="url(#clip0_246_169)">
<path d="M37.5084 54.7028L45.3639 62.5583L31.6139 76.3083L23.7584 68.45L37.5084 54.7028Z" fill="#9AAAB4"/>
<path d="M3.49169 80.8611L19.825 64.5305C21.9945 62.3611 25.5111 62.3611 27.6806 64.5305L35.5361 72.3861C37.7056 74.5555 37.7056 78.0722 35.5361 80.2416L19.2056 96.5722C14.8667 100.914 7.8278 100.914 3.48892 96.5722C-0.847196 92.2361 -0.844418 85.2 3.49169 80.8611Z" fill="#66757F"/>
<path d="M62.0972 75.4694C82.8079 75.4694 99.5972 58.6801 99.5972 37.9694C99.5972 17.2587 82.8079 0.469421 62.0972 0.469421C41.3866 0.469421 24.5972 17.2587 24.5972 37.9694C24.5972 58.6801 41.3866 75.4694 62.0972 75.4694Z" fill="#8899A6"/>
<path d="M62.0972 64.3583C76.6714 64.3583 88.4861 52.5436 88.4861 37.9695C88.4861 23.3953 76.6714 11.5806 62.0972 11.5806C47.523 11.5806 35.7083 23.3953 35.7083 37.9695C35.7083 52.5436 47.523 64.3583 62.0972 64.3583Z" fill="#BBDDF5"/>
</g>
<defs>
<clipPath id="clip0_246_169">
<rect width="100" height="100" fill="white"/>
</clipPath>
</defs>
</svg>
