<svg width="159" height="70" viewBox="0 0 159 70" fill="none" xmlns="http://www.w3.org/2000/svg">
<path opacity="0.4" d="M7 7H152V60H7V7Z" fill="white"/>
<path d="M149.062 0H9.9375C0 0 0 10 0 10V50C0 64.61 23.1842 70 39.75 70C56.3158 70 65.5776 60 79.5 60C93.4224 60 102.684 70 119.25 70C135.816 70 159 64.61 159 50V10C159 0 149.062 0 149.062 0ZM149.062 40C149.062 53.25 140.596 60 119.25 60C103.956 60 91.3852 50 79.5 50C67.6148 50 55.0438 60 39.75 60C18.4042 60 9.9375 53.25 9.9375 40V10H149.062V40Z" fill="#F5F8FA"/>
</svg>
