<svg width="100" height="86" viewBox="0 0 100 86" fill="none" xmlns="http://www.w3.org/2000/svg">
<path d="M6.86666 18.2556C4.24444 24.1612 2.77777 30.6612 2.77777 37.5001C2.77777 64.3473 25.1639 86.1112 52.7778 86.1112C74.2944 86.1112 92.5833 72.8695 99.6333 54.3334L6.86666 18.2556Z" fill="#5C913B"/>
<path d="M12.0333 20.2639C9.66387 25.5472 8.33331 31.3695 8.33331 37.5C8.33331 61.3639 28.2333 80.7111 52.7778 80.7111C71.9555 80.7111 88.25 68.8778 94.4805 52.3278L12.0333 20.2639Z" fill="#FFE8B6"/>
<path d="M17.1972 22.275C15.0834 26.9361 13.8889 32.0778 13.8889 37.5C13.8889 58.3834 31.3 75.3084 52.7778 75.3084C69.6167 75.3084 83.9167 64.8834 89.3222 50.3222L17.1972 22.275Z" fill="#DD2E44"/>
<path d="M27.5445 39.6584C26.6917 40.9361 25.4861 41.625 24.8472 41.2C24.2083 40.775 24.3806 39.3972 25.2333 38.1195C26.0861 36.8417 27.2917 36.1528 27.9306 36.5778C28.5695 37.0028 28.3972 38.3806 27.5445 39.6584ZM44.2111 42.4361C43.3583 43.7139 42.1528 44.4028 41.5139 43.9778C40.875 43.5528 41.0472 42.175 41.9 40.8972C42.7528 39.6195 43.9583 38.9306 44.5972 39.3556C45.2361 39.7806 45.0639 41.1584 44.2111 42.4361ZM58.3278 55.4306C58.4667 56.9611 57.9611 58.2528 57.2 58.3223C56.4361 58.3917 55.7056 57.2111 55.5667 55.6806C55.425 54.15 55.9333 52.8584 56.6945 52.7917C57.4583 52.7195 58.1889 53.8972 58.3278 55.4306ZM33.3278 49.875C33.4667 51.4056 32.9611 52.6972 32.2 52.7667C31.4361 52.8361 30.7056 51.6556 30.5667 50.125C30.4278 48.5945 30.9333 47.3028 31.6945 47.2361C32.4611 47.1639 33.1889 48.3417 33.3278 49.875ZM44.1639 64.725C43.2389 65.95 41.9972 66.5667 41.3861 66.1056C40.7722 65.6445 41.0278 64.2778 41.9556 63.0528C42.8806 61.8278 44.125 61.2111 44.7333 61.6722C45.3472 62.1334 45.0945 63.4972 44.1639 64.725ZM66.4861 65.9861C67.2445 67.3222 67.3167 68.7056 66.6528 69.0834C65.9833 69.4639 64.8306 68.6861 64.0722 67.35C63.3139 66.0167 63.2417 64.6306 63.9083 64.2528C64.5778 63.8695 65.7278 64.6445 66.4861 65.9861ZM46.9945 52.0195C47.8361 53.3056 48 54.6806 47.3583 55.1C46.7167 55.5223 45.5167 54.8222 44.675 53.5389C43.8333 52.2556 43.6722 50.8778 44.3111 50.4611C44.9528 50.0334 46.1528 50.7306 46.9945 52.0195ZM71.9417 56.3917C71.0167 57.6167 69.775 58.2334 69.1611 57.7723C68.5472 57.3111 68.8028 55.9445 69.7306 54.7195C70.6556 53.4917 71.8972 52.8778 72.5083 53.3389C73.125 53.8 72.8722 55.1639 71.9417 56.3917Z" fill="black"/>
</svg>
