<svg width="145" height="131" viewBox="0 0 145 131" fill="none" xmlns="http://www.w3.org/2000/svg">
<path d="M61.4227 76.9505C50.4993 76.9505 41.6463 65.5236 41.6463 48.5023C41.6463 31.1063 49.8428 23.24 53.3107 20.6905C53.7129 20.3952 54.2104 20.2598 54.7067 20.3104C55.203 20.361 55.6629 20.594 55.9972 20.9643C59.586 24.9478 70.2072 37.6273 70.2072 48.2646C70.2072 65.29 72.3339 76.9505 61.4227 76.9505ZM83.3821 76.9505C94.3054 76.9505 103.158 65.5236 103.158 48.5023C103.158 31.1063 94.962 23.24 91.4941 20.6905C91.0919 20.3952 90.5944 20.2598 90.0981 20.3104C89.6017 20.361 89.1419 20.594 88.8075 20.9643C85.2188 24.9478 74.5975 37.6273 74.5975 48.2646C74.5975 65.29 72.4709 76.9505 83.3821 76.9505Z" fill="#EF8294"/>
<path d="M72.4024 81.2239C51.5788 60.0781 59.0221 54.991 14.8293 40.0681C14.3496 39.9053 13.8261 39.9293 13.3632 40.1354C12.9004 40.3414 12.5322 40.7143 12.3321 41.1798C5.06601 58.1609 6.81809 70.8202 29.2528 77.0028C20.6293 76.9464 11.5588 78.0057 1.81156 78.9845C1.54765 79.0111 1.29161 79.0897 1.05813 79.2155C0.824657 79.3414 0.618348 79.5122 0.451055 79.718C0.283762 79.9239 0.158781 80.1607 0.0832879 80.415C0.00779496 80.6693 -0.0167219 80.936 0.0111451 81.1998C1.32017 93.6818 14.5796 111.614 45.1786 101.826C44.5477 103.211 44.2169 104.714 44.2079 106.236C44.2079 117.043 65.0074 123.25 70.8718 124.784C71.8759 125.042 72.9289 125.042 73.9329 124.784C79.7974 123.25 100.597 117.043 100.597 106.236C100.597 104.678 100.238 103.212 99.6261 101.83C130.221 111.618 143.481 93.6859 144.794 81.2038C144.821 80.94 144.797 80.6733 144.721 80.419C144.646 80.1648 144.521 79.9279 144.354 79.722C144.186 79.5162 143.98 79.3454 143.747 79.2196C143.513 79.0937 143.257 79.0152 142.993 78.9885C133.246 78.0098 124.179 76.9464 115.552 77.0068C137.987 70.8242 139.735 58.1649 132.473 41.1838C132.273 40.7176 131.905 40.3438 131.443 40.137C130.98 39.9302 130.456 39.9056 129.975 40.0681C85.7827 54.987 93.226 60.0781 72.4024 81.2239Z" fill="#F4ABBA"/>
<path d="M108.552 30.4538C108.343 30.1471 108.062 29.8966 107.734 29.7243C107.406 29.552 107.04 29.4633 106.669 29.4661C106.298 29.4689 105.934 29.5631 105.608 29.7403C105.283 29.9175 105.006 30.1722 104.802 30.482L91.6753 50.4638L89.9595 50.4598C89.9595 50.3671 89.9796 50.2825 89.9796 50.1899C89.9796 35.3798 77.1632 26.8368 73.4214 24.6578C73.1136 24.4796 72.7641 24.3858 72.4084 24.3858C72.0527 24.3858 71.7033 24.4796 71.3954 24.6578C67.6536 26.8368 54.8292 35.3798 54.8292 50.1899C54.8292 50.2825 54.8493 50.3671 54.8493 50.4598L53.1335 50.4638L40.0029 30.482C39.7988 30.1724 39.5215 29.918 39.1956 29.7411C38.8697 29.5643 38.5053 29.4706 38.1345 29.4682C37.7637 29.4658 37.398 29.5548 37.0699 29.7274C36.7417 29.9001 36.4612 30.1509 36.2531 30.4578C30.5457 38.8598 26.4334 49.2796 28.7614 60.5534C33.1839 81.9932 52.3884 92.55 72.4104 87.8174C92.4204 92.55 111.625 81.9973 116.047 60.5534C118.371 49.2756 114.259 38.8557 108.552 30.4538Z" fill="#EA596E"/>
<path d="M60.891 83.4191L50.4309 52.6629H94.3739L83.9138 83.4191H60.891Z" fill="#F4900C"/>
<path d="M72.4024 59.2524C84.5369 59.2524 94.3739 56.3022 94.3739 52.663C94.3739 49.0237 84.5369 46.0735 72.4024 46.0735C60.2679 46.0735 50.4309 49.0237 50.4309 52.663C50.4309 56.3022 60.2679 59.2524 72.4024 59.2524Z" fill="#FFDC5D"/>
<path d="M72.4064 100.63C62.6954 100.63 54.8252 91.3296 54.8252 77.4781C54.8252 62.1846 67.5811 53.3436 71.3632 51.0639C71.6781 50.8743 72.0388 50.774 72.4064 50.774C72.774 50.774 73.1347 50.8743 73.4496 51.0639C77.2277 53.3477 89.9796 62.1846 89.9796 77.4821C89.9796 91.3296 82.1093 100.63 72.4064 100.63Z" fill="#EA596E"/>
<path d="M128.791 55.1803C128.792 54.8749 128.724 54.5732 128.591 54.2979C128.459 54.0227 128.266 53.7809 128.027 53.5907C127.788 53.4005 127.509 53.2668 127.211 53.1996C126.913 53.1324 126.604 53.1335 126.306 53.2027C115.552 55.7966 72.5434 68.186 72.4064 100.477C72.2654 68.186 29.2568 55.7966 18.5027 53.2027C18.2046 53.1295 17.8937 53.1255 17.5939 53.191C17.2941 53.2566 17.0132 53.3899 16.7729 53.5809C16.5326 53.7718 16.3392 54.0152 16.2076 54.2925C16.076 54.5697 16.0096 54.8734 16.0135 55.1803C16.0981 65.0524 20.0372 100.622 72.3943 100.63H72.4104C124.768 100.622 128.707 65.0524 128.791 55.1803Z" fill="#EF8294"/>
</svg>
