<svg width="94" height="100" viewBox="0 0 94 100" fill="none" xmlns="http://www.w3.org/2000/svg">
<path d="M50 5.55554C26.9889 5.55554 8.33334 18.0333 8.33334 40.2778C8.33334 40.4417 8.47779 42.3833 8.68057 44.4694C9.41945 44.4305 50 77.7778 50 77.7778C50 77.7778 90.575 44.4278 91.3083 44.4667C91.4472 43.0944 91.6667 40.4917 91.6667 40.2778C91.6667 18.0333 73.0111 5.55554 50 5.55554Z" fill="#BE1931"/>
<path d="M83.7944 31.9694C82.8694 31.8638 81.9917 32.0805 81.2444 32.5138C81.2361 31.3138 81.0805 30.2611 80.6833 29.4472L81.7278 26.3138C82.4555 24.1305 81.2778 21.7722 79.0944 21.0444C78.1194 20.7138 77.1139 20.7861 76.2278 21.1444C75.6944 19.1444 73.7722 17.7944 71.6583 18.0888C71.3167 18.1361 70.9972 18.2333 70.6917 18.3555C70.2667 16.7861 68.9417 15.5444 67.2305 15.3111C64.9222 15.0027 62.8472 16.5972 62.5389 18.8777L61.6667 25.2833C60.8444 24.1805 59.5028 23.4999 58.0389 23.6166C56.2528 23.7444 54.825 24.9805 54.3472 26.6027L54.1444 24.5805C53.9139 22.2888 51.8528 20.6166 49.5833 20.8499C47.3167 21.0777 45.6611 23.0833 45.8528 25.3472L45.7972 25.3749C45.9333 23.8999 45.2889 22.4833 44.1305 21.6361L42.9722 15.8472C42.5194 13.5916 40.3333 12.1222 38.0694 12.5777C35.8139 13.0277 34.35 15.2249 34.8 17.4805L36.7944 27.4555L35.7333 31.9138L31.6944 20.7972C30.9055 18.6333 28.5139 17.5166 26.3555 18.3055C24.1917 19.0944 23.075 21.4833 23.8611 23.6472L26.9389 32.1111C25.9805 32.7666 25.2889 33.8055 25.1444 35.0499L24.4639 40.8805L23.5555 35.4277C23.1778 33.1555 21.025 31.6166 18.7611 32.0027C16.4917 32.3805 14.9583 34.5277 15.3361 36.7972L19.6417 62.6277H84.3778C84.5139 62.2888 87.4778 36.5722 87.4778 36.5722C87.7278 34.2833 86.0805 32.2249 83.7944 31.9694Z" fill="#F4900C"/>
<path d="M76.35 21.6583C76.325 21.4805 76.2722 21.3166 76.2278 21.1472C75.6944 19.1472 73.7722 17.7972 71.6583 18.0916C71.3167 18.1389 70.9972 18.2361 70.6917 18.3583C68.95 19.0472 67.8278 20.8444 68.0944 22.7833L73.5278 62.625H81.9389L76.35 21.6583ZM62.4889 27.4805C62.4305 26.6555 62.125 25.9055 61.6639 25.2861C60.8417 24.1833 59.5 23.5028 58.0361 23.6194C56.25 23.7472 54.8222 24.9833 54.3444 26.6055C54.2083 27.0694 54.1389 27.5611 54.175 28.0722L56.6167 62.2722L56.6417 62.625H65L64.9944 62.55L62.4889 27.4805ZM29.7639 31.3916C28.725 31.2722 27.7417 31.5583 26.9389 32.1083C25.9805 32.7639 25.2889 33.8028 25.1444 35.0472L21.925 62.6277H30.3139L33.4194 36.0139C33.6861 33.7278 32.05 31.6583 29.7639 31.3916ZM42.975 15.85C42.5222 13.5944 40.3361 12.125 38.0722 12.5805C35.8167 13.0305 34.3528 15.2278 34.8028 17.4833L43.8305 62.6277H52.3278L42.975 15.85Z" fill="#FFCC4D"/>
<path d="M80.5555 47.2222C80.5555 54.8944 68.4083 61.1111 50 61.1111C31.5917 61.1111 19.4444 54.8944 19.4444 47.2222C19.4444 44.1555 14.1778 44.4444 11.1111 44.4444C10.2333 44.4444 9.41943 44.4305 8.68054 44.4694C8.84999 46.2333 13.8889 86.1111 13.8889 86.1111C13.8889 92.2472 18.8639 97.2222 25 97.2222H75C81.1361 97.2222 86.1111 92.2472 86.1111 86.1111C86.1111 86.1111 91.2722 44.8222 91.3083 44.4666C90.575 44.4277 89.7611 44.4444 88.8889 44.4444C85.8222 44.4444 80.5555 44.1555 80.5555 47.2222Z" fill="#DD2E44"/>
<path d="M50 88.8888C56.1365 88.8888 61.1111 83.9142 61.1111 77.7777C61.1111 71.6412 56.1365 66.6666 50 66.6666C43.8635 66.6666 38.8889 71.6412 38.8889 77.7777C38.8889 83.9142 43.8635 88.8888 50 88.8888Z" fill="#BE1931"/>
</svg>
