<svg width="80" height="80" viewBox="0 0 80 80" fill="none" xmlns="http://www.w3.org/2000/svg">
<g clip-path="url(#clip0_359_254)">
<path d="M40 80C62.0914 80 80 70.0508 80 57.7778C80 45.5048 62.0914 35.5555 40 35.5555C17.9086 35.5555 0 45.5048 0 57.7778C0 70.0508 17.9086 80 40 80Z" fill="#292F33"/>
<path d="M40 75.5556C62.0914 75.5556 80 65.6063 80 53.3333C80 41.0603 62.0914 31.1111 40 31.1111C17.9086 31.1111 0 41.0603 0 53.3333C0 65.6063 17.9086 75.5556 40 75.5556Z" fill="#66757F"/>
<path d="M40 68.8889C6.76001 68.8889 2.22223 35.5555 2.22223 26.6667H77.7778C77.7778 31.1111 73.4267 68.8889 40 68.8889Z" fill="#E1E8ED"/>
<path d="M77.7778 26.7911C77.7778 38.3822 60.8645 47.7778 40 47.7778C19.1356 47.7778 2.22223 38.38 2.22223 26.7911C2.22223 15.2 19.1356 8.02444 40 8.02444C60.8645 8.02444 77.7778 15.2 77.7778 26.7911Z" fill="#77B255"/>
<path d="M40 44.4445C58.4095 44.4445 73.3333 37.48 73.3333 28.8889C73.3333 20.2978 58.4095 13.3333 40 13.3333C21.5905 13.3333 6.66667 20.2978 6.66667 28.8889C6.66667 37.48 21.5905 44.4445 40 44.4445Z" fill="#A6D388"/>
<path d="M46.6667 37.7778C46.0978 37.7778 45.5289 37.56 45.0956 37.1267C39.9022 31.9333 39.8156 26.2711 44.8178 18.7667C46.46 16.3022 46.8178 13.7756 45.88 11.2622C44.8556 8.51555 42.6844 6.82666 42.0333 6.64666C40.8044 6.64666 39.9044 5.66222 39.9044 4.43333C39.9044 3.20666 40.9956 2.22222 42.2222 2.22222C44.4378 2.22222 47.5444 4.78444 49.2956 8.05555C51.5933 12.3511 51.3178 17.0311 48.5156 21.2311C44.1578 27.7689 45.1133 30.8578 48.2378 33.9822C49.1067 34.8511 49.1067 36.2555 48.2378 37.1244C47.8044 37.56 47.2356 37.7778 46.6667 37.7778ZM33.3333 33.3333C32.7644 33.3333 32.1956 33.1156 31.7622 32.6822C26.5689 27.4889 26.4822 21.8267 31.4844 14.3222C33.1 11.8978 33.4689 9.69333 32.5822 7.77333C31.5956 5.63777 29.4022 4.50888 28.84 4.44222C27.6133 4.44222 26.6422 3.44888 26.6422 2.21999C26.6422 0.993328 27.66 -0.00222778 28.8889 -0.00222778C31.1044 -0.00222778 34.6333 2.16222 36.3556 5.38222C37.4244 7.37999 38.6933 11.5178 35.1822 16.7844C30.8244 23.3222 31.78 26.4111 34.9044 29.5356C35.7733 30.4044 35.7733 31.8089 34.9044 32.6778C34.4711 33.1156 33.9022 33.3333 33.3333 33.3333Z" fill="#5C913B"/>
</g>
<defs>
<clipPath id="clip0_359_254">
<rect width="80" height="80" fill="white"/>
</clipPath>
</defs>
</svg>
