<svg width="80" height="80" viewBox="0 0 80 80" fill="none" xmlns="http://www.w3.org/2000/svg">
<g clip-path="url(#clip0_246_155)">
<path d="M80 40C80 62.0889 62.0911 80 40 80C17.9089 80 0 62.0889 0 40C0 17.9089 17.9089 0 40 0C62.0911 0 80 17.9089 80 40Z" fill="#DD2E44"/>
<path d="M31.1155 27.0111C32.1955 27.0111 32.7955 27.7911 32.7955 28.9911C32.7955 30.2511 32.1955 31.0911 31.1155 31.0911H25.6555C27.0355 34.2711 29.0155 37.1489 31.1733 39.3089C31.5933 39.7289 31.8333 40.3889 31.8333 40.9867C31.8333 41.5267 31.6533 42.0067 31.3533 42.3667C30.9933 42.7867 30.5133 43.0267 29.9733 43.0267C29.4333 43.0267 28.7733 42.7267 28.3533 42.1867C27.1533 40.6267 25.7733 38.0489 24.7533 35.2889C25.1133 38.4067 25.4133 41.7667 25.4133 44.4044V65.76C25.4133 66.9 24.6333 67.5578 23.2533 67.5578C21.9333 67.5578 21.2155 66.8978 21.2155 65.76V45.9667C21.2155 42.8467 21.6955 39.4267 22.1155 36.6089C20.6155 41.5867 18.0955 47.8244 15.0378 52.0244C14.5578 52.6844 13.8978 53.0444 13.1778 53.0444C12.7578 53.0444 12.3378 52.9244 11.9778 52.6267C11.3778 52.1444 11.0778 51.5467 11.0778 50.8867C11.0778 50.4067 11.2578 49.9267 11.6178 49.4489C15.6955 44.3489 18.8755 37.2711 20.4955 31.0933H14.02C12.94 31.0933 12.34 30.2533 12.34 28.9933C12.34 27.7933 12.94 27.0133 14.02 27.0133H21.2178V19.2133C19.3578 19.6333 17.4378 19.9933 15.6978 20.2333C15.5778 20.2933 15.46 20.2933 15.2778 20.2933C14.2578 20.2933 13.4778 19.6933 13.2978 18.4356V18.0756C13.2978 16.9956 13.9578 16.2156 14.9178 16.0356C19.8355 15.3756 25.2355 13.9378 28.8333 12.0778C29.3133 11.8378 29.7933 11.7178 30.2733 11.7178C31.0533 11.7178 31.7133 12.1378 32.1933 12.7978C32.4933 13.2178 32.6133 13.6378 32.6133 14.0578C32.6133 14.7778 32.1933 15.3778 31.4133 15.7378C29.7355 16.5778 27.6355 17.3578 25.4155 18.0778V27.0156H31.1155V27.0111ZM41.3111 25.8111C41.3111 24.7311 42.2111 24.0711 43.5911 24.0711C44.8489 24.0711 45.7511 24.7311 45.7511 25.8711V46.3844C51.7489 38.4067 55.9466 28.4489 58.7066 16.8111C58.9466 15.7911 59.6066 15.1911 60.7466 15.1911C60.9266 15.1911 61.1666 15.1911 61.4666 15.2511C62.6644 15.4911 63.3844 16.4511 63.3844 17.4111C63.3844 17.6511 63.3844 17.8311 63.3266 18.0111C59.3666 32.5867 53.3666 44.3444 45.7511 52.9222V58.98C45.7511 60.42 46.1711 61.02 47.6689 61.2C48.6889 61.32 49.9466 61.38 51.8089 61.38C53.6666 61.38 55.0466 61.2 56.0666 60.96C57.2666 60.6578 57.9266 60.24 58.2844 58.9778C58.6444 57.72 58.9466 55.5 59.0044 52.74C59.0644 51.78 59.9044 50.94 61.2244 50.94H61.3444C62.7244 50.9978 63.3844 51.78 63.3844 53.1V53.28C63.2644 56.6378 62.8444 59.5178 62.1266 61.4956C61.4066 63.5356 59.9066 64.7956 57.4489 65.2756C55.8889 65.5756 54.0289 65.6933 51.8111 65.7556C49.4111 65.7556 47.4311 65.6356 45.8711 65.4556C42.6911 65.0356 41.3133 63.5956 41.3133 60.5356V56.2178C38.3733 58.9178 35.0755 61.4378 31.5955 63.5356C31.0555 63.8956 30.5155 64.0756 30.0355 64.0756C29.3155 64.0756 28.6555 63.7156 28.2955 62.9356C27.9955 62.5756 27.8755 62.0956 27.8755 61.6756C27.8755 60.8956 28.2355 60.1178 29.0755 59.6356C33.5755 57.1178 37.6533 53.8178 41.3133 50.1L41.3111 25.8111ZM36.2133 32.6489C36.3333 32.6489 36.4533 32.6489 36.6333 32.7089C37.8933 32.8889 38.4933 33.6689 38.4933 34.7489C38.4933 34.9289 38.4933 35.1089 38.4333 35.2889C37.8333 40.8067 36.5133 46.6267 34.6555 51.0044C34.1755 51.9044 33.3955 52.3844 32.5555 52.3844C32.2555 52.3844 31.8955 52.3244 31.5955 52.1444C30.7555 51.7867 30.3955 51.1844 30.3955 50.4644C30.3955 50.0467 30.5155 49.6244 30.7555 49.1444C32.5555 45.0067 33.7555 39.7289 34.3555 34.3889C34.4733 33.2489 35.1333 32.6489 36.2133 32.6489ZM52.1089 18.6733C52.7689 19.2733 53.1866 19.9933 53.1866 20.7111C53.1866 21.1311 53.0666 21.5511 52.7666 21.9111C52.2844 22.5711 51.5089 22.9311 50.7266 22.9311C50.1266 22.9311 49.5866 22.7511 49.1689 22.3911C46.7066 20.3511 42.6289 17.7111 39.3911 16.1533C38.7311 15.7333 38.3111 15.0733 38.3111 14.3533C38.3111 13.9933 38.4311 13.5733 38.6711 13.2133C39.1511 12.4333 39.9311 12.0733 40.7111 12.0733C41.1311 12.0733 41.5511 12.1933 41.9711 12.3733C45.3289 13.8756 49.5889 16.4533 52.1089 18.6733ZM62.0044 33.4289C62.8444 33.4289 63.5644 33.9089 63.9866 34.8689C66.0244 39.1867 67.3444 43.5667 68.3044 48.0044C68.3622 48.3067 68.4244 48.6044 68.4244 48.8444C68.4244 49.8044 68.0044 50.5244 66.9244 50.8844C66.6244 50.9444 66.3266 51.0044 66.0244 51.0044C65.1266 51.0044 64.4066 50.4644 64.1066 49.2044C63.1466 45.2467 61.7666 40.5067 59.9666 36.5489C59.7889 36.2489 59.7289 35.8889 59.7289 35.5289C59.7289 34.7489 60.1489 34.0289 60.9889 33.6689C61.3444 33.4889 61.7066 33.4289 62.0044 33.4289Z" fill="white"/>
</g>
<defs>
<clipPath id="clip0_246_155">
<rect width="80" height="80" fill="white"/>
</clipPath>
</defs>
</svg>
