<svg width="87" height="100" viewBox="0 0 87 100" fill="none" xmlns="http://www.w3.org/2000/svg">
<path d="M20.0139 35.7306C20.3389 29.8222 20.6611 27.4917 20.2917 23.1278C19.8833 19.1278 19.1889 16.1972 18.2083 13.3444C17.2278 10.4917 9.00556 11.6056 9.98889 16.5056C10.9694 21.4056 11.6361 35.4194 11.2417 39.9778C15.5417 37.2444 20.0139 35.7306 20.0139 35.7306Z" fill="#F4ABBA"/>
<path d="M15.5417 37.2444C9.60001 40.2167 3.65834 46.1583 3.65834 55.0694C3.65834 79.3333 25.4083 84.9278 43.2361 90.8694C61.0611 96.8111 63.1833 95.2528 69.0222 90.7222C71.9944 84.7806 70.1722 52.7444 61.2583 40.8611C54.8306 32.2917 29.0917 30.4694 15.5417 37.2444Z" fill="#BE1931"/>
<path d="M15.5417 37.2444C9.60001 40.2167 3.65834 46.1583 3.65834 55.0694C3.65834 79.3333 30.9639 92.7944 40.75 95.1111C58.1806 99.2389 66.05 96.6639 69.0195 90.7222C64.0667 93.8139 43.1417 89.0167 32.05 79.1333C20.4195 68.7667 15.1778 50.6944 22.6528 41.4889C22.85 38.6111 22.325 37.0805 22.325 34.7778C19.8639 35.4111 17.5667 36.2305 15.5417 37.2444Z" fill="#A0041E"/>
<path d="M22.6556 41.4889C18.7306 35.5472 16.6667 24.6833 24.4556 16.4472C31.8167 8.6639 46.0389 8.55279 52.8556 19.15C58.65 28.1583 54.1639 46.1556 54.1639 46.1556C54.1639 46.1556 40.8194 32.3222 36.8083 38.7972C32.8028 45.275 23.275 42.425 22.6556 41.4889Z" fill="#EA596E"/>
<path d="M53.5306 48.8333C56.7417 44.3 56.7417 37.2556 56.7417 37.2556C56.7417 37.2556 57.6389 33.1194 67.0222 35.7611C67.9389 36.0194 70.7417 31.6528 68.9861 30.9889C62.6083 28.575 58.0694 30.1306 58.0694 30.1306C58.0694 30.1306 61.2056 27.8111 65.7695 27.2611C67.5806 27.0417 66.1111 23.4556 64.3111 23.4917C62.3667 23.5306 60.5972 24.0028 58.5 24.9194C57.5194 25.3472 56.5 24.6167 56.1333 24.2528C50.6111 18.7667 44.4028 19.5611 40.6139 21.2444C36.5722 23.0417 34.8917 28.1278 37.3778 31.5722C39.8639 35.0167 37.4139 37.6222 35.8695 40.375C33.3695 44.825 49.2889 54.8222 53.5306 48.8333Z" fill="#F4ABBA"/>
<path d="M29.3667 18.5361C27.3 13.7917 24.95 11.6667 21.8833 8.72224C18.8167 5.77779 23.9694 2.10001 27.2806 5.2889C30.5917 8.47779 33.6583 14.4889 34.15 15.9611C34.6417 17.4333 30.6 21.3639 29.3667 18.5361Z" fill="#EA596E"/>
<path d="M32.0528 11.7444C35.2028 10.0972 36.2361 5.5361 36.4806 4.06388C36.725 2.59166 41.2639 2.46943 40.7722 5.65832C40.2806 8.84721 40.8083 10.9889 40.8083 10.9889C40.8083 10.9889 43.225 6.86943 45.6778 4.78332C48.1306 2.69721 50.9444 6.01388 49.5944 7.95555C48.2444 9.89721 47.9861 13.4555 48.6222 14.7139C49.2583 15.9722 42.3944 17.5528 38.025 16.6944C33.6611 15.8389 32.0528 11.7444 32.0528 11.7444Z" fill="#EA596E"/>
<path d="M22.3278 29.9028L22.2417 29.9C21.475 29.8528 20.8944 29.1945 20.9417 28.4278C21.4139 20.7833 26.4861 14.6639 33.8611 12.8417C43.2556 10.5278 49.0111 16.0195 49.25 16.2556C49.7972 16.7917 49.8083 17.6695 49.2722 18.2195C48.7417 18.7639 47.8611 18.7778 47.3139 18.2445C47.1167 18.0556 42.375 13.6028 34.5278 15.5389C28.2611 17.0889 24.1167 22.0917 23.7139 28.6C23.6667 29.3361 23.0556 29.9028 22.3278 29.9028ZM29.3389 12.8722C28.8583 12.8722 28.3917 12.625 28.1333 12.1778C28.1167 12.1472 26.3306 9.09446 23.7556 7.44168C23.1111 7.02779 22.9222 6.16946 23.3361 5.52501C23.75 4.87779 24.6083 4.6889 25.2556 5.10557C28.4083 7.13057 30.4556 10.6445 30.5389 10.7917C30.9222 11.4556 30.6944 12.3028 30.0306 12.6861C29.8139 12.8111 29.575 12.8722 29.3389 12.8722ZM37.3306 10.9C37.1889 10.9 37.0472 10.8806 36.9056 10.8333C36.175 10.6 35.775 9.81946 36.0056 9.0889C36.0083 9.07501 36.4889 7.54724 36.7778 4.88612C36.8611 4.12224 37.5583 3.56946 38.3083 3.65557C39.0722 3.7389 39.6222 4.42224 39.5389 5.18612C39.2167 8.15835 38.6722 9.86946 38.65 9.9389C38.4611 10.5278 37.9167 10.9 37.3306 10.9ZM44.1167 11.3917C43.8639 11.3917 43.6083 11.3222 43.3778 11.1778C42.7306 10.7695 42.5333 9.9139 42.9417 9.26668C43.0028 9.16946 44.4472 6.89446 46.85 5.15279C47.4694 4.70557 48.3389 4.84168 48.7889 5.46112C49.2389 6.08057 49.1028 6.95001 48.4833 7.40001C46.5278 8.81668 45.3028 10.7278 45.2944 10.7472C45.0278 11.1639 44.5778 11.3917 44.1167 11.3917Z" fill="#F4ABBA"/>
<path d="M53.9611 39.85C53.8833 39.85 53.8028 39.8444 53.7222 39.8306C52.9694 39.7 52.4611 38.9833 52.5889 38.2278L52.7167 37.4972C53.7028 31.8611 54.5556 26.9917 47.1167 23.7972C46.4111 23.4944 46.0861 22.6778 46.3889 21.9722C46.6889 21.2667 47.5083 20.9389 48.2111 21.2444C57.6667 25.3028 56.4389 32.3306 55.45 37.975L55.325 38.6944C55.2139 39.3722 54.625 39.85 53.9611 39.85ZM58.6778 27.8444C58.2861 27.8444 57.9139 27.6222 57.7361 27.2472C57.4889 26.725 57.7111 26.1056 58.2333 25.8611C58.3694 25.7972 61.6139 24.275 64.0417 24.2111C64.6194 24.2917 65.0944 24.6528 65.1111 25.225C65.125 25.8 64.6722 26.2778 64.0972 26.2944C62.1111 26.3472 59.1556 27.7306 59.125 27.7444C58.9778 27.8111 58.825 27.8444 58.6778 27.8444ZM66.8444 33.875C66.6944 33.875 66.5444 33.8528 66.3972 33.8C63.1861 32.7028 59.8861 33.4944 59.8556 33.5028C59.1028 33.6861 58.3583 33.2306 58.1778 32.4889C57.9944 31.7444 58.4444 30.9944 59.1861 30.8083C59.3528 30.7667 63.2889 29.8056 67.2944 31.1722C68.0222 31.4194 68.4083 32.2083 68.1611 32.9361C67.9611 33.5111 67.4222 33.875 66.8444 33.875ZM17.2806 35.0333C16.5139 35.0333 15.8917 34.4111 15.8917 33.6444C15.8917 33.525 15.8667 21.5667 13.8611 15.4083C13.6222 14.6778 14.0222 13.8944 14.75 13.6583C15.475 13.4194 16.2611 13.8194 16.5 14.55C18.6417 21.1306 18.6667 33.1361 18.6667 33.6472C18.6694 34.4111 18.0472 35.0333 17.2806 35.0333Z" fill="#F7DAE2"/>
<path d="M8.80555 70.9028C8.16666 70.9028 7.58889 70.4583 7.45 69.8083C7.38611 69.5139 5.90555 62.5278 7.95833 57.9694C9.79444 53.8889 12.5056 52.3222 14.8944 50.9417C17.7389 49.2972 19.7944 48.1111 20.2028 43.0111C20.2639 42.2472 20.9333 41.6889 21.7 41.7389C22.4639 41.8 23.0333 42.4694 22.9722 43.2361C22.4472 49.7889 19.3139 51.6 16.2861 53.35C14.0611 54.6361 11.9611 55.8472 10.4944 59.1111C8.81944 62.8333 10.1556 69.1556 10.1694 69.2222C10.3306 69.9722 9.85555 70.7111 9.10555 70.8722C9 70.8917 8.90278 70.9028 8.80555 70.9028ZM43.2833 79.9389C42.8 79.9389 42.3306 79.6861 42.0722 79.2361C41.6917 78.5722 41.925 77.7222 42.5917 77.3417C42.6472 77.3111 47.8083 74.3306 49.4833 70.6083C51.225 66.7361 50.4028 65.0333 49.1611 62.4556C48.0139 60.0778 46.5861 57.1139 47.0056 51.9C47.0639 51.1361 47.7556 50.5694 48.5 50.6278C49.2639 50.6889 49.8333 51.3583 49.7722 52.125C49.4167 56.5889 50.5583 58.9583 51.6639 61.2528C53.0139 64.0556 54.2917 66.7 52.0194 71.75C49.9694 76.3056 44.2111 79.6194 43.9694 79.7583C43.75 79.8806 43.5139 79.9389 43.2833 79.9389Z" fill="#D84864"/>
<path d="M40.1944 67.1528C39.7972 67.1528 39.4028 66.9806 39.1278 66.6528C38.0444 65.3556 37.8056 63.2028 38.5417 61.4111C39.225 59.75 40.5861 58.7083 42.2861 58.5472C44.6139 58.325 46.6361 56.1444 46.725 54.8389C46.7778 54.0722 47.4472 53.4778 48.2028 53.5444C48.9667 53.5972 49.5472 54.2583 49.4972 55.0222C49.3056 57.9306 45.9278 60.9861 42.55 61.3139C41.8861 61.375 41.4028 61.7639 41.1111 62.4667C40.7306 63.3889 40.8944 64.4333 41.2611 64.8722C41.7528 65.4611 41.6722 66.3361 41.0861 66.8278C40.825 67.0472 40.5111 67.1528 40.1944 67.1528ZM61.5833 78.5417C61.4806 78.5417 61.375 78.5305 61.2722 78.5055C60.5222 78.3333 60.0556 77.5861 60.2306 76.8389C60.3361 76.3889 60.1139 75.4417 59.5028 74.5722C58.9722 73.8194 58.2861 73.325 57.6722 73.2528C54.3639 72.8611 50.6722 67.0194 50.0889 64.2444C49.9306 63.4917 50.4111 62.7555 51.1611 62.5972C51.9194 62.4472 52.65 62.9167 52.8083 63.6694C53.325 66.1111 56.525 70.3222 58 70.4917C59.4278 70.6611 60.7694 71.5417 61.775 72.975C62.7972 74.425 63.2417 76.1472 62.9389 77.4639C62.7861 78.1083 62.2139 78.5417 61.5833 78.5417ZM53.3889 92.2917C53.0472 92.2917 52.7028 92.1667 52.4333 91.9111C51.8778 91.3861 51.8528 90.5056 52.3778 89.9472C54.2667 87.95 53.1278 84.9305 51.2694 82.9694C49.5555 81.1611 46.4889 76.3111 47.9417 72.8611C48.2417 72.1555 49.0556 71.8305 49.7611 72.1194C50.4667 72.4167 50.8 73.2305 50.5028 73.9389C49.7583 75.7028 51.6528 79.3333 53.2861 81.0556C56.6222 84.575 57.0806 89.0111 54.3972 91.8528C54.125 92.1444 53.7583 92.2917 53.3889 92.2917ZM24.6389 68.6805C24.4833 68.6805 24.325 68.6528 24.1694 68.6C23.4472 68.3389 23.0722 67.5444 23.3333 66.8222C24.025 64.9055 22.8556 63.5111 18.7083 61.2972C16.3778 60.0555 14.9056 57.9278 14.6667 55.4667C14.4611 53.3361 15.2333 51.2805 16.6806 50.1028C17.2806 49.6167 18.15 49.7083 18.6333 50.3028C19.1167 50.8972 19.0278 51.7722 18.4333 52.2555C17.7083 52.8444 17.3167 54 17.4333 55.1972C17.5194 56.0917 17.9694 57.7528 20.0167 58.8417C22.6972 60.275 27.6861 62.9361 25.9472 67.7583C25.7417 68.3278 25.2056 68.6805 24.6389 68.6805ZM21.7222 81.3194C21.6083 81.3194 21.4972 81.3056 21.3833 81.2778C18.2611 80.4972 16.3389 76.9889 17.1806 73.6194C17.6444 71.7694 14.2722 68.0639 12.8611 67.65C9.01667 66.5333 6.99444 62.4667 7.58333 59.5194C7.73333 58.7667 8.45 58.275 9.21666 58.4278C9.96944 58.5778 10.4556 59.3083 10.3056 60.0611C10.0444 61.3667 10.9611 64.2028 13.6389 64.9805C16.2 65.7305 20.7944 70.6139 19.875 74.2917C19.3556 76.3667 20.6111 78.2194 22.0611 78.5805C22.8056 78.7667 23.2583 79.5222 23.0694 80.2639C22.9111 80.9 22.3444 81.3194 21.7222 81.3194ZM25.1667 52.325C23.6222 52.325 22.0667 51.5167 20.9056 50.0833C19.6056 48.475 19.1528 46.5278 19.725 44.9972C19.9944 44.275 20.7972 43.9139 21.5139 44.1833C22.2333 44.4528 22.5972 45.2528 22.3278 45.9722C22.1111 46.5472 22.4222 47.5417 23.0639 48.3361C23.6028 49 24.4889 49.6611 25.4028 49.5305C26.1833 49.4333 26.8694 49.9389 26.9833 50.6972C27.0972 51.4555 26.575 52.1639 25.8167 52.2778C25.6 52.3083 25.3833 52.325 25.1667 52.325Z" fill="#D84864"/>
<path d="M20.3417 61.6889C19.8111 61.6889 19.2722 61.5778 18.7389 61.3111C18.0528 60.9667 17.775 60.1333 18.1167 59.4472C18.4611 58.7639 19.2917 58.4805 19.9806 58.825C20.5917 59.1417 21.7333 58.5139 22.8389 57.9111C24.4611 57.0305 26.3028 56.0222 28.2306 56.8417C28.9361 57.1389 29.2694 57.9528 28.9722 58.6583C28.675 59.3694 27.8611 59.6972 27.1528 59.4028C26.4583 59.1055 25.2917 59.7417 24.1611 60.3555C23.0361 60.9667 21.7083 61.6889 20.3417 61.6889ZM61.5833 88.9583C61.2528 88.9583 60.9194 88.8417 60.6528 88.6C60.0833 88.0861 60.0361 87.2111 60.5528 86.6389C60.7278 86.4417 60.8167 85.8611 60.6222 85.1722C60.3944 84.3667 59.7667 83.3889 58.6861 83.0639C57.7444 82.7805 56.7861 83.0278 55.7722 83.2861C54.5167 83.6083 53.0972 83.9778 51.6583 83.2555C50.9722 82.9139 50.6944 82.0778 51.0361 81.3917C51.3806 80.7055 52.2083 80.4222 52.9 80.7694C53.3806 81.0055 54.0389 80.8611 55.0806 80.5944C56.2917 80.2861 57.8028 79.8917 59.4833 80.4055C61.3194 80.9555 62.7444 82.4555 63.2972 84.4222C63.7389 86.0055 63.4833 87.5305 62.6139 88.5C62.3389 88.8055 61.9611 88.9583 61.5833 88.9583ZM64.7778 54.2361C64.2333 54.2361 63.7139 53.9139 63.4944 53.375C62.5583 51.1055 61.2528 49.6055 60.0917 49.4639C59.1472 49.3611 58.3611 50.1778 57.8389 50.8889C55.7472 53.7417 50.6 53.7694 48.1694 53.3833C47.4139 53.2639 46.8944 52.5528 47.0139 51.7944C47.1333 51.0361 47.8528 50.5139 48.6028 50.6389C51.1722 51.0444 54.5861 50.6278 55.6 49.2444C57.3389 46.875 59.1583 46.5555 60.4278 46.7055C62.65 46.975 64.7028 49.0194 66.0583 52.3167C66.35 53.025 66.0111 53.8389 65.3056 54.1278C65.1333 54.2055 64.9528 54.2361 64.7778 54.2361Z" fill="#D84864"/>
</svg>
