<svg width="200" height="67" viewBox="0 0 200 67" fill="none" xmlns="http://www.w3.org/2000/svg">
<path d="M55.5556 22.2225C41.2222 22.2225 24.2722 8.52246 18.9667 3.25579C15.7944 0.0780162 11.0056 -0.871984 6.86111 0.850238C2.70556 2.56691 0 6.61691 0 11.1114C0 30.328 9.28889 66.6669 44.4444 66.6669C48.65 66.6669 52.5 64.2891 54.3833 60.5225L65.4944 38.3002C67.2167 34.8558 67.0333 30.7669 65.0056 27.4891C62.9833 24.2169 59.4056 22.2225 55.5556 22.2225ZM193.144 0.850238C188.978 -0.877539 184.217 0.0780162 181.033 3.26135C176.111 8.17802 158.828 22.2225 144.444 22.2225C140.594 22.2225 137.017 24.2169 134.994 27.4947C132.972 30.7669 132.789 34.8614 134.506 38.3058L145.617 60.528C147.5 64.2891 151.344 66.6669 155.556 66.6669C190.711 66.6669 200 30.328 200 11.1114C200 6.61691 197.294 2.56691 193.144 0.850238Z" fill="#AA8DD8"/>
</svg>
