<svg width="97" height="100" viewBox="0 0 97 100" fill="none" xmlns="http://www.w3.org/2000/svg">
<path d="M68.6278 89.1833C68.5778 89.0861 67.7 87.4944 66.0778 86.2666C66.3333 85.2194 66.2167 84.1889 65.3139 83.5222C63.075 81.875 43.3639 84.0833 41.9556 91.1305C41.3722 94.0444 43.4194 94.0444 44.5389 93.1416C44.1972 94.3833 44.0111 95.6555 44.1167 96.85C44.175 97.5194 44.7667 98.0139 45.4361 97.9555C45.5083 97.95 45.5778 97.9361 45.6444 97.9194C46.2056 97.7694 46.5944 97.2333 46.5417 96.6361C46.4694 95.8055 46.5972 94.9083 46.8167 94.0194C47.3167 94.4666 47.8722 94.8333 48.5222 94.6889C49.3 94.5139 49.7917 93.75 50.1167 92.9166C50.1556 93.4444 50.2333 93.7833 50.2417 93.8222C50.4139 94.4666 51.0722 94.8472 51.7167 94.6805L51.7306 94.6778C52.3694 94.5055 52.7528 93.85 52.5972 93.2055C52.5861 93.1639 52.4694 92.6361 52.55 91.8C53.65 92.4639 55.0389 93.0666 56.175 92.7889C57.6222 92.4361 58.3111 91.2166 58.6556 90.0194C59.7472 91.0444 60.3917 92.2444 61.0417 93.6389C61.2944 94.1833 61.8972 94.4528 62.4583 94.3028C62.5278 94.2833 62.5917 94.2611 62.6583 94.2305C63.2694 93.9472 63.5333 93.2222 63.25 92.6139C62.7889 91.6222 62.2194 90.4222 61.275 89.2583C62.1361 89.8333 63.0444 90.2361 63.6389 89.8889C64.0528 89.6472 64.5444 89.1361 64.9944 88.5139C65.9333 89.35 66.4611 90.3083 66.4667 90.325C66.7417 90.8333 67.3222 91.0722 67.8583 90.9278C67.9444 90.9055 68.0306 90.8722 68.1139 90.8278C68.7139 90.5055 68.9417 89.775 68.6278 89.1833Z" fill="#99AAB5"/>
<path d="M60.6667 32.625C51.4333 31.8139 46.9972 26.6167 44.2611 21.5611C43.7333 20.5833 39.5222 11.3806 37.3556 5.43889C35.3 -0.197222 31.8472 2.77778 30.2639 3.20278C28.6778 3.62778 26.1444 3.67778 26.625 8.31389C27.3444 15.2667 28.5917 24.625 28.7055 25.7278C29.3555 31.9583 27.6194 38.1917 20.0306 43.5111C5.80833 53.4778 1.56388 62.7861 4.31944 73.0722C8.26388 87.7917 17.0028 98.7778 53.9639 88.8722C90.925 78.9667 93 65.0861 89.0556 50.3667C86.2972 40.0861 77.9667 34.1444 60.6667 32.625Z" fill="#E1E8ED"/>
<path d="M28.3611 91.4C20.7389 87.975 12.125 81.7334 11.9778 70.2472C11.8167 57.6806 23.2917 50.5333 24.6639 43.2639C25.1445 51.7778 17.0195 57.2556 17.1028 68.1139C17.1806 77.95 19.9333 85.4 28.3611 91.4ZM47.7611 90.0195C40.5056 86.2972 31.6722 78.3945 29.7389 67.5195C26.9556 51.8639 33.5306 42.2139 31.9111 30.375C35.8417 43.9834 33.475 50.525 35.9 64.0584C37.4778 72.8639 41.9028 84.9778 47.7611 90.0195ZM77.3917 78.2611C82.2778 71.4834 86.6194 61.7695 81.0028 51.75C74.8583 40.7861 61.3472 40.3334 56.525 34.725C60.3667 42.3389 70.1417 43.0195 75.4972 52.4639C80.3528 61.0222 81.6917 68.8528 77.3917 78.2611ZM59.9028 86.7639C64.325 79.9139 68.025 68.6528 64.2611 58.2667C58.8417 43.3167 48.325 38.2472 43.8083 27.1833C47.2083 40.9361 52.5278 45.4167 57.1944 58.35C60.2278 66.7667 62.4556 79.4695 59.9028 86.7639Z" fill="#99AAB5"/>
</svg>
