<svg width="80" height="80" viewBox="0 0 80 80" fill="none" xmlns="http://www.w3.org/2000/svg">
<g clip-path="url(#clip0_359_261)">
<path d="M79.7222 76.8978L43.9911 33.5844C43.9911 33.5844 31.4644 41.7889 26.9044 55.0867C26.9044 55.0867 37.2756 66.8467 48.66 73.3644C62.8111 81.4667 74.5311 79.7089 79.1111 78.6778C79.9156 78.4978 80.2467 77.5378 79.7222 76.8978Z" fill="#CCD6DD"/>
<path d="M40.1578 28.9L31.1911 36.8089C31.3378 36.8711 31.8933 37.8089 31.5778 39.2689C30.6844 43.4133 26.3644 48.7978 24.9689 50.5978C24.5378 51.1533 24.4711 52.1333 25.0267 52.8355L26.9044 55.0867C30.9511 46.2778 41.4733 35.7667 43.9911 33.5844L40.1578 28.9Z" fill="#AAB8C2"/>
<path d="M40.1578 28.9C40.1578 28.9 32.78 19.5311 27.3511 13.3756C21.9222 7.22001 18.24 3.68445 14.7222 1.42223C11.1333 -0.884437 7.3 0.455563 4.40222 3.0089C1.50444 5.56223 -1.60444 11.2933 1.74889 15.0956C3.58444 17.1778 7.93778 15.2689 10.1733 17.8045C11.6911 19.5245 12.4644 20.8378 17.8711 26.38C26.2244 34.9445 31.1911 36.8067 31.1911 36.8067C31.1911 36.8067 33.9711 34.4911 35.4844 33.1444C37 31.8022 40.1578 28.9 40.1578 28.9Z" fill="#31373D"/>
<path d="M25.8178 26.4622C27.493 26.4622 28.8511 25.1042 28.8511 23.4289C28.8511 21.7536 27.493 20.3956 25.8178 20.3956C24.1425 20.3956 22.7844 21.7536 22.7844 23.4289C22.7844 25.1042 24.1425 26.4622 25.8178 26.4622Z" fill="#F5F8FA"/>
<path d="M13.1178 13.3733C14.793 13.3733 16.1511 12.0153 16.1511 10.34C16.1511 8.66474 14.793 7.30667 13.1178 7.30667C11.4425 7.30667 10.0844 8.66474 10.0844 10.34C10.0844 12.0153 11.4425 13.3733 13.1178 13.3733Z" fill="#F5F8FA"/>
</g>
<defs>
<clipPath id="clip0_359_261">
<rect width="80" height="80" fill="white"/>
</clipPath>
</defs>
</svg>
