<svg width="50" height="50" viewBox="0 0 50 50" fill="none" xmlns="http://www.w3.org/2000/svg">
<path d="M25 50C38.8071 50 50 38.8071 50 25C50 11.1929 38.8071 0 25 0C11.1929 0 0 11.1929 0 25C0 38.8071 11.1929 50 25 50Z" fill="#A8E0F9" fill-opacity="0.5"/>
<path d="M25 46.0526C24.302 46.0526 23.6327 45.7753 23.1392 45.2818C22.6457 44.7883 22.3684 44.1189 22.3684 43.421C22.3684 42.723 22.6457 42.0537 23.1392 41.5602C23.6327 41.0667 24.302 40.7894 25 40.7894C33.7079 40.7894 40.7895 33.7078 40.7895 24.9999C40.7895 24.302 41.0667 23.6326 41.5602 23.1391C42.0537 22.6456 42.7231 22.3683 43.421 22.3683C44.119 22.3683 44.7883 22.6456 45.2818 23.1391C45.7754 23.6326 46.0526 24.302 46.0526 24.9999C46.0526 36.6078 36.6079 46.0526 25 46.0526Z" fill="#F2F9FF"/>
<path d="M6.57896 28.9474C5.53205 28.9474 4.52802 28.5315 3.78775 27.7912C3.04747 27.051 2.63159 26.0469 2.63159 25C2.63159 12.6658 12.6658 2.63159 25 2.63159C26.0469 2.63159 27.051 3.04747 27.7912 3.78775C28.5315 4.52802 28.9474 5.53205 28.9474 6.57896C28.9474 7.62587 28.5315 8.6299 27.7912 9.37017C27.051 10.1104 26.0469 10.5263 25 10.5263C21.1626 10.5305 17.4836 12.0568 14.7702 14.7702C12.0568 17.4836 10.5305 21.1626 10.5263 25C10.5263 26.0469 10.1104 27.051 9.37017 27.7912C8.6299 28.5315 7.62587 28.9474 6.57896 28.9474Z" fill="white"/>
<path d="M25.7895 0.657892C27.5619 0.539738 29.7816 0.842103 31.4763 1.17105C32.3026 3.02631 32.8215 5.14093 32.8237 7.23684C32.8194 10.7137 31.5637 14.0729 29.2861 16.7C27.0086 19.327 23.8615 21.0465 20.4204 21.5438C16.9792 22.0412 13.4741 21.2832 10.5459 19.4085C7.61773 17.5337 5.6579 14.8684 4.47369 11.3158C9.21054 4.80263 16.9079 1.24997 25.7895 0.657892Z" fill="white" fill-opacity="0.5"/>
</svg>
