<svg width="199" height="199" viewBox="0 0 199 199" fill="none" xmlns="http://www.w3.org/2000/svg">
<path d="M117.019 20.8377C117.019 22.171 117.186 23.4599 117.475 24.7044C119.836 39.3877 136.164 54.8766 147.864 59.1321C157.114 55.771 169.231 45.3766 175.075 33.9155C163.469 20.3599 148.303 9.94881 131.025 4.12659C123.069 5.55436 117.019 12.471 117.019 20.8377ZM75.4306 160.454C75.7473 159.11 75.9306 157.71 75.9306 156.265C75.9306 146.082 67.675 137.827 57.4917 137.827C51.3084 137.827 45.8584 140.877 42.5084 145.543C39.1639 140.882 33.7084 137.827 27.525 137.827C20.6306 137.827 14.6861 141.654 11.525 147.26C21.6584 165.565 37.3584 180.354 56.3472 189.338C65.4417 181.832 73.7417 170.965 75.4306 160.454ZM189.642 141.365C188.075 136.088 183.242 132.215 177.453 132.215C173.169 132.215 169.392 134.327 167.075 137.56C164.758 134.327 160.981 132.215 156.697 132.215C149.642 132.215 143.925 137.932 143.925 144.988C143.925 145.988 144.053 146.954 144.269 147.888C145.975 158.471 157.314 169.532 165.986 173.227C175.853 164.338 183.936 153.521 189.642 141.365Z" fill="#FFAC33"/>
<path d="M185.886 17.071C185.886 7.67102 178.264 0.0543518 168.869 0.0543518C163.164 0.0543518 158.131 2.87102 155.042 7.17657C151.953 2.87102 146.919 0.0543518 141.214 0.0543518C131.814 0.0543518 124.197 7.67102 124.197 17.071C124.197 18.4044 124.364 19.6932 124.653 20.9377C127.019 35.621 143.342 51.1099 155.042 55.3655C166.742 51.1099 183.064 35.621 185.425 20.9432C185.72 19.6932 185.886 18.4044 185.886 17.071ZM66.9028 156.732C66.9028 146.549 58.6473 138.293 48.4639 138.293C42.2806 138.293 36.8306 141.343 33.4806 146.01C30.1362 141.343 24.6806 138.293 18.4973 138.293C8.31394 138.293 0.0583801 146.549 0.0583801 156.732C0.0583801 158.177 0.241713 159.571 0.552825 160.921C3.11394 176.827 20.7973 193.61 33.475 198.221C46.1528 193.615 63.8362 176.832 66.3973 160.927C66.7195 159.571 66.9028 158.171 66.9028 156.732ZM198.792 144.06C198.792 137.004 193.075 131.288 186.019 131.288C181.736 131.288 177.958 133.399 175.642 136.632C173.325 133.399 169.547 131.288 165.264 131.288C158.208 131.288 152.492 137.004 152.492 144.06C152.492 145.06 152.619 146.027 152.836 146.96C154.608 157.977 166.858 169.604 175.642 172.793C184.419 169.604 196.675 157.977 198.442 146.96C198.664 146.027 198.792 145.06 198.792 144.06Z" fill="#DD2E44"/>
</svg>
