<svg width="79" height="80" viewBox="0 0 79 80" fill="none" xmlns="http://www.w3.org/2000/svg">
<path d="M42.8467 14.2045C42.8467 15.1045 37.58 15.1045 37.58 14.2045C37.58 12.2045 4.44446 -7.79332 4.44446 8.20446V38.2022C4.44446 43.7289 12.1689 42.5289 20.4289 39.0045C17.2533 46.8378 10.4333 60.5156 4.76224 69.9689C4.25335 70.8178 4.36668 71.8978 5.03779 72.6222C5.71112 73.3445 6.77779 73.5445 7.66224 73.1L19.3467 67.2578C20.3267 68.8711 21.4156 71.4089 22.4045 73.7156C23.1445 75.4445 23.9111 77.2311 24.68 78.7711C25 79.4089 25.6067 79.8556 26.3111 79.9711C26.4289 79.9911 26.5489 80 26.6667 80C27.2511 80 27.8178 79.7689 28.2378 79.3489C31.3933 76.1956 35.8578 60.6933 38.8889 48.0311C41.92 60.6933 46.3845 76.1956 49.54 79.3489C49.9578 79.7689 50.5267 80 51.1111 80C51.2289 80 51.3467 79.9911 51.4667 79.9711C52.1711 79.8556 52.78 79.4089 53.0978 78.7711C53.8689 77.2311 54.6333 75.4445 55.3733 73.7156C56.3622 71.4089 57.4511 68.8689 58.4311 67.2578L70.1156 73.1C71 73.54 72.0689 73.3467 72.74 72.6222C73.4133 71.8978 73.5222 70.8178 73.0156 69.9689C66.9378 59.84 59.5467 44.8667 56.7311 37.4289C65.8933 42.0733 75.5556 44.4889 75.5556 38.2V8.20224C75.5556 -7.79332 42.8467 12.2045 42.8467 14.2045Z" fill="#DD2E44"/>
<path d="M4.69775 39.7089C7.31331 46.8178 30.1822 35.7378 37.72 28.2C38.4089 27.5111 38.94 26.8622 39.4044 26.2333C16.1911 26.7933 7.08886 34.8044 4.69775 39.7089ZM41.3244 26.2244C41.7955 26.8578 42.3311 27.5089 43.0244 28.2022C51.0244 36.2022 75.5555 48.2 75.5555 38.2022V37.7378C71.8422 32.8511 62.14 26.5778 41.3244 26.2244Z" fill="#A0041E"/>
<path d="M48.8889 25.3334C48.8889 29.7511 45.3089 33.3334 40.8911 33.3334H36.8867C32.4689 33.3334 28.8889 29.7511 28.8889 25.3334V16.8889C28.8889 12.4711 32.4689 8.88892 36.8867 8.88892H40.8911C45.3089 8.88892 48.8889 12.4711 48.8889 16.8889V25.3334Z" fill="#FC7185"/>
</svg>
