<svg width="200" height="200" viewBox="0 0 200 200" fill="none" xmlns="http://www.w3.org/2000/svg">
<g clip-path="url(#clip0_228_56)">
<path d="M113.383 138.144L111.111 122.222L153.044 27.8722C154.661 24.2389 157.589 21.3499 161.244 19.7833L191.894 6.64998C192.651 6.32429 193.296 5.78398 193.749 5.0958C194.203 4.40763 194.444 3.60175 194.444 2.77776C194.443 2.45606 194.367 2.1391 194.222 1.85198C194.077 1.56487 193.867 1.31548 193.608 1.12358C193.35 0.931681 193.051 0.802533 192.734 0.746366C192.417 0.690199 192.092 0.708555 191.783 0.799982L145.694 14.6278C143.555 15.2705 141.576 16.36 139.888 17.8243C138.201 19.2886 136.843 21.0943 135.906 23.1222L105.556 88.8889L0 200H50L60.3278 189.672C64.5181 185.48 69.4448 182.096 74.8611 179.689L116.667 161.111C130.35 151.989 177.756 146.611 194.272 144.978C195.841 144.822 197.296 144.089 198.354 142.92C199.413 141.752 199.999 140.232 200 138.656C200 137.971 199.861 137.294 199.59 136.665C199.32 136.037 198.924 135.47 198.427 135C197.929 134.53 197.341 134.166 196.699 133.931C196.056 133.696 195.372 133.595 194.689 133.633L113.383 138.144Z" fill="#65471B"/>
<path d="M186.028 82.7389C185.689 81.9222 185.472 79.3833 184.306 76.9611C184.033 76.5389 182.183 74.0555 182.478 74.2333C179.522 71.0555 177.822 69.6278 174.4 67.1555C172.928 67.1111 171.972 66.9944 169.911 64.2389C155.65 55.6555 136.828 42.4111 109.933 42.25C85.0889 42.1 52.5278 54.1555 29.6 67.2278C8.7889 79.0944 9.79446 81.0722 9.98335 95.8055L26.9889 117.433C32.9333 124.989 38.5056 133.933 45.9556 140.106C50.5445 143.906 60.75 151.872 102.256 154.889C107.311 155.256 111.856 155.333 114.783 154.856C130.133 152.35 145.033 138.822 149.133 136.839C168.328 127.556 184.056 120.233 186.128 91.1778C186.356 88.3678 186.322 85.5427 186.028 82.7389Z" fill="#BD9366"/>
<path d="M199.383 169.783C189.589 156.144 170.317 135.306 151.306 148.828C150.861 149.166 150.517 149.62 150.311 150.139C149.311 149.882 148.251 150.003 147.333 150.478C137.533 155.583 122.839 159.222 129.417 197.3C129.589 198.311 130.294 199.183 131.311 199.65C132.328 200.117 133.533 200.122 134.556 199.661C151.9 191.806 155.839 177.206 155.511 165.906C157.5 168.817 159.872 171.311 162.783 173.178C172.433 179.35 184.7 178.061 191.939 176.461C194.011 176.02 196.052 175.445 198.05 174.739C198.499 174.56 198.899 174.277 199.217 173.913C199.535 173.548 199.761 173.114 199.878 172.644C200.011 172.161 200.035 171.653 199.95 171.159C199.864 170.664 199.671 170.195 199.383 169.783Z" fill="#77B255"/>
<path d="M136.111 188.889C135.38 188.887 134.678 188.598 134.158 188.084C133.638 187.569 133.342 186.87 133.333 186.139C133.206 172.861 136.456 167.111 140.589 159.828C141.933 157.45 143.394 154.878 144.878 151.744C145.956 149.467 148.4 148.15 150.872 148.422C164.494 150 179.372 159.622 187.972 167.383C188.519 167.877 188.847 168.567 188.885 169.303C188.922 170.039 188.666 170.759 188.172 171.306C187.679 171.852 186.988 172.18 186.253 172.218C185.517 172.255 184.797 171.999 184.25 171.506C177.817 165.7 163.411 155.467 150.233 153.939C148.344 157.4 146.828 160.083 145.422 162.567C141.561 169.378 138.772 174.3 138.889 186.083C138.893 186.448 138.824 186.81 138.688 187.148C138.552 187.487 138.35 187.795 138.095 188.056C137.84 188.316 137.535 188.524 137.2 188.667C136.864 188.81 136.504 188.885 136.139 188.889H136.111Z" fill="#5C913B"/>
<path d="M184.344 81.2722C182.333 78.4056 178.95 69.5056 176.55 70.8444C175.739 70.3562 174.818 70.081 173.872 70.0444C173.489 70.0444 173.078 70.1944 172.672 70.2889C168.85 62.65 161.567 56.7556 152.661 53.5722C151.189 53.0444 149.922 53.1556 148.889 53.6556C147.767 52.8279 146.65 51.9927 145.539 51.15C142.694 48.9833 139.928 53.8056 142.733 55.9444C149.011 60.7333 152 61.2222 152.3 69.3167C153.544 102.689 149.628 124.994 102.289 123.728C88.9611 123.372 70.5222 113.306 56.9778 102.15C55.4432 99.9475 54.1294 97.5991 53.0556 95.1389C51.8611 92.3167 47.7444 91.75 45.35 93.1167C45.05 93.2889 44.8889 93.5389 44.6444 93.7389C41.4167 91.4361 37.9391 89.5053 34.2778 87.9833C31.4667 86.8111 28.0833 89.25 27.35 91.9167C26.4556 95.1611 28.4667 97.6722 31.2833 98.8444C52.4611 107.672 39.5833 119.533 77.5278 129.3C84.55 131.106 81.5556 141.961 74.5333 140.156C56.6444 135.55 17.8722 108.211 17.8722 108.211C18.35 108.744 22.5778 168.933 98.6667 171.883C100.733 171.961 166.211 175.606 182.433 112.111C184.894 102.461 192.506 92.9167 184.344 81.2722Z" fill="#A57F5A"/>
<path d="M109.772 138.228C109.633 135.15 112.456 132.656 115.4 132.6C116.722 132.578 118.028 132.472 119.35 132.356L119.572 132.339L119.778 132.3C120.411 132.189 121.044 132.089 121.678 131.967C123.867 131.539 126.028 130.961 128.161 130.306C132.578 128.944 136.878 127.233 141.239 125.694C144.211 124.644 147.278 126.889 148.161 129.622C149.144 132.656 147 135.567 144.233 136.544C134.794 139.878 125.578 143.661 115.406 143.85C112.244 143.911 109.906 141.228 109.772 138.228Z" fill="#BD9366"/>
<path d="M101.344 53.8166C82.6445 50.9833 63.4056 52.1666 50.4833 64.5444C48.3389 66.5944 47.3389 69.5166 47.3167 72.55C44.7444 75.5111 43.3611 79.0778 44.4944 83.7444C45.9278 89.6444 46.5167 93.7666 52.2056 96.35C88.2 112.689 150.956 113.217 155.917 71.8611C158.278 52.2055 118.094 56.3555 101.344 53.8166Z" fill="#936D46"/>
<path d="M104.589 156.161C104.722 159.144 101.939 161.744 99.0333 161.717C86.8499 161.619 74.7746 159.42 63.3389 155.217C60.4167 154.133 58.7445 151.528 59.4611 148.383C60.0889 145.633 63.5667 143.494 66.2945 144.506C77.2056 148.544 87.7056 150.5 99.0333 150.606C102.15 150.633 104.456 153.128 104.589 156.161ZM183.183 80.9222C182.161 78.1056 179.394 76.2111 176.344 77.0556C173.622 77.8111 171.45 81.0611 172.478 83.8945C175.4 91.9556 178.8 100.956 176.872 109.644C176.039 113.394 174.422 116.617 171.556 119.211C168.089 122.356 164.006 124.933 160.239 127.706C157.828 129.483 156.628 132.533 158.261 135.311C159.661 137.694 163.433 139.078 165.867 137.289C170.494 133.883 175.539 130.694 179.739 126.761C183.55 123.194 186.15 118.367 187.411 113.333C190.172 102.311 186.939 91.2834 183.183 80.9222Z" fill="#BD9366"/>
<path d="M138.811 19.9945C138.902 19.5898 138.898 19.1696 138.8 18.7667C138.794 18.7556 138.783 18.7445 138.783 18.7278C138.761 18.6445 138.706 18.5778 138.672 18.5C138.555 18.1766 138.38 17.8772 138.156 17.6167C138.117 17.5778 138.111 17.5167 138.072 17.4778C116.389 -4.20553 100.961 1.82781 93.5556 4.72225C92.5444 5.11669 91.6944 5.46114 90.9889 5.63892C90.5851 5.7397 90.2091 5.92994 89.8887 6.19557C89.5683 6.4612 89.3116 6.79544 89.1378 7.17359C88.9639 7.55173 88.8772 7.96411 88.8841 8.38025C88.8911 8.79639 88.9914 9.20566 89.1778 9.57781C89.2667 9.75003 95.5944 21.8778 111.844 24.7111C109.939 27.9222 108.294 31.8223 106.939 36.4667C106.753 37.1122 106.806 37.8031 107.089 38.4124C107.372 39.0217 107.865 39.5085 108.478 39.7834C110.172 40.5334 111.928 40.9056 113.733 40.9056C121.578 40.9056 130.317 33.9278 138.456 20.9222C138.572 20.7334 138.617 20.5167 138.683 20.3111C138.711 20.2278 138.783 20.1722 138.8 20.0834C138.822 20.05 138.806 20.0222 138.811 19.9945Z" fill="#77B255"/>
<path d="M115.122 16.8333C111.8 15.0444 108.039 13.0111 101.9 10.9667C101.545 10.8589 101.214 10.681 100.929 10.4434C100.643 10.2058 100.408 9.91336 100.238 9.58338C100.067 9.2534 99.9648 8.89258 99.9362 8.52226C99.9076 8.15194 99.9535 7.77964 100.071 7.42738C100.189 7.07513 100.376 6.75008 100.622 6.47145C100.868 6.19283 101.167 5.96629 101.501 5.80524C101.836 5.64418 102.2 5.55189 102.571 5.53381C102.942 5.51573 103.312 5.57224 103.661 5.69999C110.256 7.89999 114.422 10.1389 117.761 11.9444C119.839 13.0667 121.65 14.0278 123.65 14.7944C123.05 14.9555 122.428 15.0333 121.844 15.2722C120.21 15.9462 118.69 16.8702 117.339 18.0111C116.596 17.6259 115.857 17.2333 115.122 16.8333ZM122.083 31.4333C124.15 25.2333 128.739 22.2222 136.111 22.2222C136.848 22.2222 137.554 21.9296 138.075 21.4086C138.596 20.8877 138.889 20.1811 138.889 19.4444C138.889 18.7077 138.596 18.0012 138.075 17.4802C137.554 16.9593 136.848 16.6667 136.111 16.6667C126.317 16.6667 119.644 21.1667 116.806 29.6778C116.573 30.3776 116.628 31.1413 116.958 31.8008C117.288 32.4603 117.867 32.9616 118.567 33.1944C119.267 33.4272 120.03 33.3725 120.69 33.0422C121.349 32.7119 121.851 32.1332 122.083 31.4333Z" fill="#5C913B"/>
<path d="M118.178 56.3056C54.6278 53.9111 42.8222 80.4945 52.1167 91.1611C55 94.4667 58.4945 96.4445 62.4056 98.3667C68.9222 101.567 63.6667 111.533 57.1556 108.339C34.2222 97.0833 33.4722 77.8889 46.7778 64.8778C38.6611 68.0778 36.05 57.0445 42.5111 54.4334C51.5111 50.8 60.8333 48.4722 70.3111 46.9945C67.45 46.4778 62.3889 46.7 61.9 41.2611C60.9778 30.9445 76.4556 37.1222 87.2167 39.75C94.7889 35.1167 103.306 34.0834 112.194 34.7889C118.6 35.2945 119.739 41.7889 115.789 45C126.289 45.3556 124.828 56.5611 118.178 56.3056Z" fill="#DEAD74"/>
<path d="M48.6889 131.056C37.7444 111.394 26.15 111.472 18.7722 100.778C5.23889 81.15 34.1056 74.8556 29.0167 57.7167C26.95 50.7778 16.0722 53.7333 18.1444 60.7111C19.7222 66.0278 9.91111 68.9722 5.39444 82.8056C3.37127 89.0027 3.63537 95.7197 6.13889 101.739C-0.355557 102.889 0.522221 111.578 5.6 112.589C9.68333 113.4 12.0333 114.217 15.3722 115.5C16.85 116.472 30.1667 120.961 38.9556 136.744C42.4278 142.972 52.4444 137.8 48.6889 131.056ZM192.656 78.7667C190.372 74.0833 186.528 70.3111 182.294 67.1C181.783 65.0306 181.207 62.9777 180.567 60.9445C185.094 59.65 186.411 52.0111 180.706 50.1278C175.317 48.35 169.183 52.3722 168.917 59.3C160.249 54.0533 151.059 49.7226 141.494 46.3778C134.722 44.0111 130.961 54.6278 138.222 57.1611C158.956 64.4056 148.35 84.1722 130.594 94.7111C116.767 100.678 101.844 101.989 88.5556 97.4333C82.5222 95.3667 77.9722 105.639 86.1556 108.444C104.278 114.656 126.178 110.306 142.95 100.861C152.444 95.5111 161.317 80.3389 159.55 69.5389C159.267 67.8222 161.178 66.6556 162.594 67.6C167.444 70.8278 171.95 75.3667 171.728 77.3833C170.561 88.0778 169.428 93.3389 158.25 101.567C155.956 103.256 154.489 106.494 155.411 109.461C156.244 112.139 159.389 113.906 161.933 112.539C167.072 109.778 172.017 106.156 175.956 100.444C180.039 94.6722 180.511 88.8945 182.078 82.9222C184.517 87.1 185.239 92.4778 183.106 98.4667C182.05 101.428 184.133 104.878 186.85 105.306C196.583 107.2 197.35 88.3945 192.656 78.7667ZM125.289 120.55C123.111 109.372 101.272 124.489 81.6833 112.206C75.0389 108.039 69.3556 117.767 75.2722 121.478C89.0889 130.144 105.333 128.894 120.839 127.167C123.867 126.822 125.839 123.361 125.289 120.55Z" fill="#DEAD74"/>
</g>
<defs>
<clipPath id="clip0_228_56">
<rect width="200" height="200" fill="white"/>
</clipPath>
</defs>
</svg>
