<svg width="60" height="71" viewBox="0 0 60 71" fill="none" xmlns="http://www.w3.org/2000/svg">
<g clip-path="url(#clip0_244_89)">
<path d="M37.4675 52.0946L37.539 34.6891L11.1624 34.9424L11.0788 52.0002L11.0807 52.0002C11.0683 55.3727 12.3395 58.7504 14.8991 61.3349C20.0262 66.5119 28.3817 66.5523 33.5587 61.4253C36.1521 58.8568 37.456 55.4779 37.4675 52.0946Z" fill="#BB1A34"/>
<path d="M37.6062 18.1674C37.4881 14.977 36.2335 11.8213 33.8107 9.37495C28.6827 4.19702 20.3291 4.15657 15.1512 9.2846C12.7048 11.7074 11.4197 14.8527 11.2717 18.0409L11.2442 18.0408L11.1624 34.9424L37.539 34.6891L37.6062 18.1674Z" fill="#FDED58"/>
</g>
<defs>
<clipPath id="clip0_244_89">
<rect width="50" height="50" fill="white" transform="translate(24.5261) rotate(45.2774)"/>
</clipPath>
</defs>
</svg>
