<svg width="110" height="110" viewBox="0 0 110 110" fill="none" xmlns="http://www.w3.org/2000/svg">
<path d="M107.027 36.2564C107.027 24.4243 97.4435 14.8326 85.6216 14.8326C82.053 14.8326 78.6954 15.7201 75.7384 17.2627C69.3719 8.61049 59.1493 2.97296 47.5903 2.97296C31.8971 2.97296 18.6166 13.3176 14.1887 27.5675C6.06079 29.4559 0 36.7308 0 45.4381C0 54.5555 6.64791 62.1028 15.3538 63.5351C16.0143 75.6212 25.9862 85.2252 38.2239 85.2252C44.878 85.2252 50.8531 82.3697 55.0425 77.8401C59.2318 82.3697 65.2039 85.2252 71.861 85.2252C84.53 85.2252 94.7954 74.9509 94.7954 62.2711C94.7954 60.0981 94.4743 58.0047 93.9116 56.0123C101.615 52.7712 107.027 45.1473 107.027 36.2564Z" fill="#BDDDF4"/>
<path d="M12.2222 103.889C17.2848 103.889 21.3889 99.7848 21.3889 94.7222C21.3889 89.6596 17.2848 85.5555 12.2222 85.5555C7.15961 85.5555 3.05556 89.6596 3.05556 94.7222C3.05556 99.7848 7.15961 103.889 12.2222 103.889Z" fill="#BDDDF4"/>
</svg>
