<svg width="101" height="105" viewBox="0 0 101 105" fill="none" xmlns="http://www.w3.org/2000/svg">
<g clip-path="url(#clip0_359_267)">
<path d="M61.3798 58.6254H43.9504L26.5194 58.627C26.5194 58.627 44.8068 75.4844 31.092 98.3444C31.092 98.3444 36.6216 100.631 43.9504 100.631C51.2791 100.631 56.8087 98.3444 56.8087 98.3444C43.0924 75.4829 61.3798 58.6254 61.3798 58.6254Z" fill="#77B255"/>
<path d="M34.8067 60.9117C39.3793 67.7691 41.6641 83.7717 41.6641 83.7717L41.6641 56.3423C41.6641 47.2002 34.8067 60.9117 34.8067 60.9117ZM64.5225 51.7681C64.5225 51.7681 48.5214 70.0538 46.2351 88.3428C46.2351 63.1981 50.8077 56.3407 50.8077 56.3407L64.5225 51.7681Z" fill="#5C913B"/>
<path d="M78.685 53.4824C79.8038 52.505 80.5235 51.0845 80.5235 49.4818C80.5235 46.537 78.1351 44.1486 75.1904 44.1486C74.9232 44.1486 74.6655 44.1895 74.4078 44.2272C74.8949 43.4226 75.1904 42.4893 75.1904 41.4804C75.1904 40.5031 74.9091 39.5995 74.4503 38.8139C74.9075 38.0266 75.1904 37.1247 75.1904 36.1473C75.1904 33.2026 72.8019 30.8141 69.8572 30.8141C69.8572 27.8694 67.4688 25.481 64.524 25.481C63.4178 25.481 62.3902 25.8172 61.5385 26.3955C60.8109 24.3166 58.8515 22.816 56.5243 22.8144C55.5155 22.8144 54.5821 23.1098 53.7776 23.5969C53.8153 23.3392 53.8562 23.0815 53.8562 22.8144C53.8562 19.8697 51.4677 17.4812 48.523 17.4812C46.1943 17.4812 44.2348 18.9819 43.5088 21.0623C42.6556 20.4857 41.6295 20.1478 40.5233 20.1478C38.9205 20.1478 37.5016 20.8691 36.5226 21.9863C35.5452 20.8675 34.1247 20.1478 32.522 20.1478C29.5773 20.1478 27.1888 22.5363 27.1888 25.481C24.8601 25.481 22.9006 26.9816 22.1746 29.0621C21.3214 28.4854 20.2953 28.1476 19.1891 28.1476C16.2444 28.1476 13.8559 30.536 13.8559 33.4807C13.8559 34.5869 14.1922 35.6146 14.7704 36.4663C12.6915 37.1938 11.1909 39.1533 11.1893 41.4804C11.1893 42.4893 11.4848 43.4226 11.9719 44.2272C11.7142 44.1894 11.4565 44.1486 11.1893 44.1486C8.24463 44.1486 5.85618 46.537 5.85618 49.4818C5.85147 51.8089 7.35211 53.7684 9.43257 54.4975C8.85432 55.3492 8.51805 56.3768 8.51805 57.4831C8.51805 60.4278 10.9065 62.8162 13.8512 62.8162C14.86 62.8162 15.7934 62.5208 16.5979 62.0337C16.5602 62.2914 16.5194 62.5491 16.5194 62.8162C16.5194 65.7609 18.9078 68.1494 21.8525 68.1494C22.9587 68.1494 23.9864 67.8131 24.8381 67.2348C25.5656 69.3137 27.5251 70.8144 29.8522 70.8159C32.181 70.8159 34.1405 69.3153 34.8664 67.2348C35.7197 67.8115 36.7457 68.1494 37.852 68.1494C38.8608 68.1494 39.7942 67.854 40.5987 67.3668C40.561 67.6245 40.5201 67.8822 40.5201 68.1494C40.5201 71.0941 42.9086 73.4825 45.8533 73.4825C48.182 73.4825 50.1415 71.9819 50.8675 69.9014C51.7207 70.4781 52.7468 70.8159 53.853 70.8159C55.8518 70.8159 57.5724 69.705 58.4854 68.0787C58.7179 68.1101 58.9458 68.1494 59.1877 68.1494C60.7905 68.1494 62.2095 67.4281 63.1884 66.3109C64.1658 67.4297 65.5863 68.1494 67.1891 68.1494C70.1338 68.1494 72.5222 65.7609 72.5222 62.8162C72.5222 62.5491 72.4814 62.2914 72.4436 62.0337C73.2482 62.5208 74.1816 62.8162 75.1904 62.8162C78.1351 62.8162 80.5235 60.4278 80.5235 57.4831C80.5235 55.8803 79.8023 54.4614 78.685 53.4824Z" fill="#3E721D"/>
<path d="M15.5137 50.764C16.8528 49.4249 16.8528 47.2539 15.5137 45.9148C14.1746 44.5757 12.0036 44.5757 10.6645 45.9148C9.32544 47.2539 9.32544 49.4249 10.6645 50.764C12.0036 52.103 14.1746 52.103 15.5137 50.764Z" fill="#5C913B"/>
<path d="M22.3726 43.9051C23.7117 42.566 23.7117 40.3949 22.3726 39.0559C21.0336 37.7168 18.8625 37.7168 17.5234 39.0559C16.1844 40.3949 16.1844 42.566 17.5234 43.9051C18.8625 45.2441 21.0336 45.2441 22.3726 43.9051Z" fill="#5C913B"/>
<path d="M22.3726 34.7629C23.7117 33.4239 23.7117 31.2528 22.3726 29.9138C21.0336 28.5747 18.8625 28.5747 17.5234 29.9138C16.1844 31.2528 16.1844 33.4239 17.5234 34.7629C18.8625 36.102 21.0336 36.102 22.3726 34.7629Z" fill="#5C913B"/>
<path d="M31.5163 32.4766C32.8554 31.1376 32.8554 28.9665 31.5163 27.6274C30.1772 26.2884 28.0062 26.2884 26.6671 27.6274C25.328 28.9665 25.328 31.1376 26.6671 32.4766C28.0062 33.8157 30.1772 33.8157 31.5163 32.4766Z" fill="#5C913B"/>
<path d="M36.0874 27.9056C37.4264 26.5665 37.4264 24.3955 36.0874 23.0564C34.7483 21.7173 32.5772 21.7173 31.2382 23.0564C29.8991 24.3955 29.8991 26.5665 31.2382 27.9056C32.5772 29.2446 34.7483 29.2446 36.0874 27.9056Z" fill="#5C913B"/>
<path d="M40.66 30.1903C41.999 28.8512 41.999 26.6802 40.66 25.3411C39.3209 24.0021 37.1499 24.0021 35.8108 25.3411C34.4717 26.6802 34.4717 28.8512 35.8108 30.1903C37.1499 31.5294 39.3209 31.5294 40.66 30.1903Z" fill="#5C913B"/>
<path d="M45.231 27.904C46.5701 26.5649 46.5701 24.3939 45.231 23.0548C43.892 21.7157 41.7209 21.7157 40.3818 23.0548C39.0428 24.3939 39.0428 26.5649 40.3819 27.904C41.7209 29.2431 43.892 29.2431 45.231 27.904Z" fill="#5C913B"/>
<path d="M52.0884 25.6193C53.4275 24.2802 53.4275 22.1091 52.0884 20.7701C50.7493 19.431 48.5783 19.431 47.2392 20.7701C45.9001 22.1091 45.9001 24.2802 47.2392 25.6193C48.5783 26.9583 50.7493 26.9583 52.0884 25.6193Z" fill="#5C913B"/>
<path d="M54.3747 30.1903C55.7138 28.8512 55.7138 26.6802 54.3747 25.3411C53.0356 24.0021 50.8646 24.0021 49.5255 25.3411C48.1864 26.6802 48.1864 28.8512 49.5255 30.1903C50.8646 31.5294 53.0356 31.5294 54.3747 30.1903Z" fill="#5C913B"/>
<path d="M63.5184 32.4766C64.8574 31.1376 64.8574 28.9665 63.5184 27.6274C62.1793 26.2884 60.0083 26.2884 58.6692 27.6274C57.3301 28.9665 57.3301 31.1376 58.6692 32.4766C60.0083 33.8157 62.1793 33.8157 63.5184 32.4766Z" fill="#5C913B"/>
<path d="M70.3757 37.0493C71.7148 35.7102 71.7148 33.5391 70.3757 32.2001C69.0367 30.861 66.8656 30.861 65.5266 32.2001C64.1875 33.5391 64.1875 35.7102 65.5266 37.0493C66.8656 38.3883 69.0367 38.3883 70.3757 37.0493Z" fill="#5C913B"/>
<path d="M49.8021 34.7629C51.1411 33.4239 51.1411 31.2528 49.8021 29.9138C48.463 28.5747 46.292 28.5747 44.9529 29.9138C43.6138 31.2528 43.6138 33.4239 44.9529 34.7629C46.292 36.102 48.463 36.102 49.8021 34.7629Z" fill="#5C913B"/>
<path d="M40.66 34.7629C41.999 33.4239 41.999 31.2528 40.66 29.9138C39.3209 28.5747 37.1499 28.5747 35.8108 29.9138C34.4717 31.2528 34.4717 33.4239 35.8108 34.7629C37.1499 36.102 39.3209 36.102 40.66 34.7629Z" fill="#5C913B"/>
<path d="M31.5163 37.0493C32.8554 35.7102 32.8554 33.5391 31.5163 32.2001C30.1772 30.861 28.0062 30.861 26.6671 32.2001C25.328 33.5391 25.328 35.7102 26.6671 37.0493C28.0062 38.3883 30.1772 38.3883 31.5163 37.0493Z" fill="#5C913B"/>
<path d="M26.9437 46.1913C28.2827 44.8523 28.2827 42.6812 26.9437 41.3422C25.6046 40.0031 23.4336 40.0031 22.0945 41.3422C20.7554 42.6812 20.7554 44.8523 22.0945 46.1913C23.4336 47.5304 25.6046 47.5304 26.9437 46.1913Z" fill="#5C913B"/>
<path d="M26.9452 41.6203C28.2843 40.2812 28.2843 38.1102 26.9453 36.7711C25.6062 35.4321 23.4351 35.4321 22.0961 36.7711C20.757 38.1102 20.757 40.2812 22.0961 41.6203C23.4351 42.9594 25.6062 42.9594 26.9452 41.6203Z" fill="#5C913B"/>
<path d="M24.6574 53.0503C25.9964 51.7112 25.9964 49.5402 24.6574 48.2011C23.3183 46.862 21.1472 46.862 19.8082 48.2011C18.4691 49.5402 18.4691 51.7112 19.8082 53.0503C21.1472 54.3894 23.3183 54.3894 24.6574 53.0503Z" fill="#5C913B"/>
<path d="M38.3737 43.9066C39.7127 42.5676 39.7127 40.3965 38.3737 39.0574C37.0346 37.7184 34.8636 37.7184 33.5245 39.0574C32.1854 40.3965 32.1854 42.5676 33.5245 43.9066C34.8636 45.2457 37.0346 45.2457 38.3737 43.9066Z" fill="#5C913B"/>
<path d="M54.3747 43.9051C55.7138 42.566 55.7138 40.3949 54.3747 39.0559C53.0356 37.7168 50.8646 37.7168 49.5255 39.0559C48.1865 40.3949 48.1865 42.566 49.5255 43.9051C50.8646 45.2441 53.0356 45.2441 54.3747 43.9051Z" fill="#5C913B"/>
<path d="M63.5184 48.4792C64.8575 47.1402 64.8575 44.9691 63.5184 43.6301C62.1793 42.291 60.0083 42.291 58.6692 43.6301C57.3301 44.9691 57.3301 47.1402 58.6692 48.4792C60.0083 49.8183 62.1793 49.8183 63.5184 48.4792Z" fill="#5C913B"/>
</g>
<defs>
<clipPath id="clip0_359_267">
<rect width="80" height="80" fill="white" transform="translate(-13 56.5685) rotate(-45)"/>
</clipPath>
</defs>
</svg>
