<svg width="50" height="50" viewBox="0 0 50 50" fill="none" xmlns="http://www.w3.org/2000/svg">
<g clip-path="url(#clip0_246_161)">
<path d="M50 44.4444C50 47.5125 47.5125 50 44.4444 50H5.55556C2.4875 50 0 47.5125 0 44.4444V5.55556C0 2.4875 2.4875 0 5.55556 0H44.4444C47.5125 0 50 2.4875 50 5.55556V44.4444Z" fill="#3B88C3"/>
<path d="M22.8639 15.5208H20.3236C18.2569 15.5208 17.3958 14.0139 17.3958 12.55C17.3958 11.043 18.4722 9.57776 20.3236 9.57776H26.4375C28.2903 9.57776 29.3236 10.9125 29.3236 12.6347V37.1389C29.3236 39.293 27.9458 40.4972 26.093 40.4972C24.2416 40.4972 22.8639 39.293 22.8639 37.1389V15.5208Z" fill="white"/>
</g>
<defs>
<clipPath id="clip0_246_161">
<rect width="50" height="50" fill="white"/>
</clipPath>
</defs>
</svg>
