<svg width="80" height="73" viewBox="0 0 80 73" fill="none" xmlns="http://www.w3.org/2000/svg">
<path d="M36.9111 39.0867H48.64V41.4333H36.9111V39.0867Z" fill="#FFAC33"/>
<path d="M34.5667 34.3956C34.2667 34.3956 33.9667 34.5111 33.7378 34.74C33.28 35.1978 33.28 35.94 33.7378 36.3978C35.6156 38.2733 35.6156 42.2445 33.7378 44.1222C33.28 44.58 33.28 45.3222 33.7378 45.78C34.1956 46.2378 34.9378 46.2378 35.3956 45.78C38.1822 42.9956 38.1822 37.5245 35.3956 34.74C35.1667 34.5111 34.8667 34.3956 34.5667 34.3956Z" fill="#FFAC33"/>
<path d="M53.0844 52.1911H34.0289C29.8667 52.1911 26.7822 50.0267 25.5644 46.2556L20.22 31.5867L24.9178 29.8734L30.2933 44.6311C30.86 46.3822 32.0711 47.1889 34.0289 47.1889H53.0844V52.1911Z" fill="#77B255"/>
<path d="M78.2333 24.9378L73.8733 26.2911L70.9711 16.9356L75.3311 15.5822C76.6289 15.18 78.0222 15.9111 78.4244 17.2111L79.8622 21.8422C80.2644 23.1422 79.5333 24.5356 78.2333 24.9378Z" fill="#3E721D"/>
<path d="M3.74889 15.4378H7.66222V26.6022H3.74667C1.81333 26.6022 0.23111 25.02 0.23111 23.0867V18.9534C0.23111 17.02 1.81333 15.4378 3.74889 15.4378Z" fill="#E95F28"/>
<path d="M14.8755 10.8667C14.8755 12.9178 16.5378 14.58 18.5889 14.58C20.64 14.58 24.6489 12.9178 24.6489 10.8667C24.6489 8.81554 20.64 7.15332 18.5889 7.15332C16.5378 7.15332 14.8755 8.81554 14.8755 10.8667Z" fill="#3E721D"/>
<path d="M10.82 28.6778C10.82 31.2689 12.92 33.3689 16.7289 33.3689H48.8889V28.6778H10.82Z" fill="#5C913B"/>
<path d="M78.3978 65.2934C78.3978 65.2934 74.0089 51.6178 72.3289 45.8089C70.6489 40 70.0933 35.5556 74.7222 32.1489C77.2444 30.2934 77.9022 28.0511 77.3978 25.7067C76.56 21.8134 74.5444 16.6489 73.5755 14.7622C73.1555 13.9422 72.4955 13.0778 71.1911 12.7C71.1911 12.7 62.4911 8.84003 37.3244 8.84003C23.2511 8.84003 5.73555 10.9667 5.73555 16.0956V24.1222C5.73555 26.8556 7.95111 29.0711 10.6844 29.0711H41.1333C42.7489 29.0711 44.1778 30.1223 44.66 31.6667L54.3311 62.3111C55.2844 65.4267 52.2978 65.9422 52.2978 68.5067C52.2978 70.0934 53.5955 71.3889 55.18 71.3889H73.92C77.0867 71.3889 79.3444 68.3156 78.3978 65.2934Z" fill="#77B255"/>
<path d="M61.1089 46.6844C60.1222 46.6844 59.2178 46.02 58.96 45.02C55.9444 33.3822 49.8689 26.2689 40.3956 23.2733C26.8956 19.0044 10.6333 22.5555 10.4711 22.5889C9.27334 22.8555 8.08445 22.1022 7.81778 20.9044C7.54889 19.7089 8.30001 18.52 9.49778 18.2511C10.2089 18.0911 27.0733 14.4 41.7333 19.0333C52.6333 22.4777 59.8778 30.8466 63.2622 43.9022C63.5711 45.0911 62.8556 46.3022 61.6689 46.6111C61.4822 46.6622 61.2933 46.6844 61.1089 46.6844Z" fill="#A6D388"/>
<path d="M64.8556 31.0555C68.9118 31.0555 72.2 27.7673 72.2 23.7111C72.2 19.6549 68.9118 16.3666 64.8556 16.3666C60.7993 16.3666 57.5111 19.6549 57.5111 23.7111C57.5111 27.7673 60.7993 31.0555 64.8556 31.0555Z" fill="#F5F8FA"/>
<path d="M64.8556 28.8045C67.6685 28.8045 69.9489 26.5241 69.9489 23.7111C69.9489 20.8982 67.6685 18.6178 64.8556 18.6178C62.0426 18.6178 59.7622 20.8982 59.7622 23.7111C59.7622 26.5241 62.0426 28.8045 64.8556 28.8045Z" fill="#FFCC4D"/>
</svg>
