<svg width="69" height="63" viewBox="0 0 69 63" fill="none" xmlns="http://www.w3.org/2000/svg">
<path d="M59.0111 29.35C57.7 24.9611 54.6833 21.0944 50.2444 18.9333C45.1222 16.4389 39.3778 16.7611 34.7278 19.2667C33.8389 14.0667 30.5611 9.32778 25.45 6.83889C17.0222 2.72778 6.84999 6.22778 2.74444 14.65C2.1611 15.8444 1.74444 17.0778 1.46666 18.3111C-2.83889 32.5111 5.02221 53.5389 13.6444 62.4667C20.4778 63.1889 30.05 61.3667 38.7167 57.6167C47.05 49.5056 53.9 39.9333 59.0111 29.35Z" fill="#FFAC33"/>
<path d="M67.0778 37.2333C71.1833 28.8111 67.6889 18.6389 59.2722 14.5333C54.15 12.0389 48.4056 12.3611 43.7556 14.8667C42.8667 9.66665 39.5889 4.92776 34.4778 2.43888C26.05 -1.67223 15.8778 1.83332 11.7722 10.25C11.1889 11.4444 10.7722 12.6778 10.4944 13.9111C6.19445 28.1111 14.05 49.1389 22.6722 58.0667C35.0222 59.3667 56.4333 52.6278 64.9778 40.5055C65.7833 39.5111 66.4944 38.4278 67.0778 37.2333Z" fill="#DD2E44"/>
</svg>
