<svg width="198" height="195" viewBox="0 0 198 195" fill="none" xmlns="http://www.w3.org/2000/svg">
<path d="M11.8889 194.444C16.4913 194.444 20.2222 190.713 20.2222 186.111C20.2222 181.509 16.4913 177.778 11.8889 177.778C7.28652 177.778 3.55556 181.509 3.55556 186.111C3.55556 190.713 7.28652 194.444 11.8889 194.444Z" fill="#55ACEE"/>
<path d="M159.111 22.2222C165.248 22.2222 170.222 17.2476 170.222 11.1111C170.222 4.97461 165.248 0 159.111 0C152.975 0 148 4.97461 148 11.1111C148 17.2476 152.975 22.2222 159.111 22.2222Z" fill="#55ACEE"/>
<path d="M25.0222 162.478L12.0333 131.278L0.288887 164.861L25.0222 162.478ZM142.444 27.7778L120.222 33.3333L125.778 11.1111L142.444 27.7778Z" fill="#EA596E"/>
<path d="M175.772 72.2222L198 44.4389L181.333 33.3333L175.772 72.2222Z" fill="#77B255"/>
</svg>
