<svg width="84" height="100" viewBox="0 0 84 100" fill="none" xmlns="http://www.w3.org/2000/svg">
<path d="M80.5556 88.8889H19.4444C17.9167 88.8889 16.6667 87.6389 16.6667 86.1111V19.4445C16.6667 17.9167 17.9167 16.6667 19.4444 16.6667H80.5556C82.0833 16.6667 83.3333 17.9167 83.3333 19.4445V86.1111C83.3333 87.6389 82.0833 88.8889 80.5556 88.8889Z" fill="#FFAC33"/>
<path d="M22.2222 22.2222H77.7778V83.3333H22.2222V22.2222Z" fill="#D99E82"/>
<path d="M77.7778 83.3333H22.2222L77.7778 22.2222V83.3333Z" fill="#FFD983"/>
<path d="M25 25H75V80.5556H25V25Z" fill="#BBDDF5"/>
<path d="M67.3083 25L32.6917 80.5556H50L75 39.9583V25H67.3083Z" fill="#F5F8FA"/>
<path d="M77.7778 22.2222H19.4444V19.4445H80.5556L77.7778 22.2222ZM22.2222 83.3333L19.4444 86.1111V22.2222H22.2222V83.3333Z" fill="#662113"/>
<path d="M80.5556 86.1111H19.4444L22.2222 83.3333H80.5556V86.1111ZM80.5556 19.4445L77.7778 22.2222V83.3333H80.5556V19.4445Z" fill="#C1694F"/>
<path d="M73.0389 14.75C73.0389 14.75 72.5861 13.1194 70.15 11.7805C68.5 10.8722 65.6944 11.5333 65.6944 11.5333C65.6944 11.5333 64.7972 9.21666 61.1556 7.73888C58.5167 6.66388 55.5556 8.33333 55.5556 8.33333C55.5556 5.55555 52.8417 2.77777 50 2.77777C47.1583 2.77777 44.4444 5.55555 44.4444 8.33333C44.4444 8.33333 41.4833 6.66388 38.8444 7.73888C35.2056 9.21666 34.3056 11.5333 34.3056 11.5333C34.3056 11.5333 31.5 10.8722 29.85 11.7805C27.4167 13.1194 26.9611 14.75 26.9611 14.75C26.9611 14.75 21.9278 16.6667 19.4444 16.6667H80.5556C78.0722 16.6667 73.0389 14.75 73.0389 14.75ZM19.4444 88.8889C21.9278 88.8889 26.9611 90.0389 26.9611 90.0389C26.9611 90.0389 27.4139 91.0167 29.85 91.8222C31.5 92.3667 34.3056 91.9694 34.3056 91.9694C34.3056 91.9694 35.2028 93.3583 38.8444 94.2472C41.4833 94.8889 44.4444 93.8889 44.4444 93.8889C44.4444 95.5555 47.1583 97.2222 50 97.2222C52.8417 97.2222 55.5556 95.5555 55.5556 93.8889C55.5556 93.8889 58.5167 94.8889 61.1556 94.2472C64.7944 93.3611 65.6944 91.9694 65.6944 91.9694C65.6944 91.9694 68.5 92.3667 70.15 91.8222C72.5833 91.0194 73.0389 90.0389 73.0389 90.0389C73.0389 90.0389 78.0722 88.8889 80.5556 88.8889H19.4444Z" fill="#FFAC33"/>
<path d="M27.4111 17.7084H30.5556C31.1306 17.7084 31.5972 17.2417 31.5972 16.6667C31.5972 15.7861 31.8528 15.175 32.375 14.7973C33.9056 13.6917 37.3556 14.4778 38.5611 14.8778C38.8778 14.9834 39.2222 14.9278 39.4917 14.7334C39.7611 14.5417 39.925 14.2278 39.9306 13.8972C39.9361 13.4889 40.0861 12.1528 41.6667 12.1528C43.5778 12.1528 45.7861 13.9334 46.4833 14.6222L46.4861 14.625C46.8917 15.0306 47.5528 15.0306 47.9583 14.625C48.3583 14.225 48.3639 13.5806 47.9778 13.1723L47.975 13.1695L47.9611 13.1556C46.8361 12.0306 46.9972 10.275 47.525 9.00558C48.0889 7.63058 49.1556 6.59725 50 6.59725C50.8444 6.59725 51.9111 7.63058 52.4778 9.0028C53.0056 10.2722 53.1667 12.0278 52.0417 13.1528L52.0278 13.1667L52.025 13.1695C51.6361 13.5778 51.6444 14.2222 52.0444 14.6222C52.45 15.0278 53.1083 15.0278 53.5194 14.6222C54.2139 13.9361 56.4222 12.1528 58.3333 12.1528C59.9139 12.1528 60.0611 13.4889 60.0694 13.8889C60.0694 14.225 60.2306 14.5361 60.5 14.7334C60.775 14.9278 61.1278 14.9834 61.4389 14.8778C62.6417 14.4806 66.0889 13.6917 67.625 14.7973C68.1472 15.175 68.4028 15.7861 68.4028 16.6667C68.4028 17.2417 68.8694 17.7084 69.4444 17.7084H72.5889C73.1639 17.7084 73.6306 17.2417 73.6306 16.6667C73.6306 16.0917 73.1639 15.625 72.5889 15.625H70.3944C70.1444 14.3139 69.4472 13.5417 68.8417 13.1056C66.8472 11.6695 63.6556 12.1611 61.9278 12.5778C61.4944 11.3111 60.4 10.0695 58.3333 10.0695C57.1389 10.0695 55.9667 10.4889 54.9694 11.0195C54.9833 10.1139 54.7972 9.15558 54.4028 8.20558C53.5611 6.17225 51.9944 4.81114 50.4111 4.59725C50.2833 4.54447 50.1444 4.51392 50 4.51392C49.8556 4.51392 49.7167 4.54447 49.5889 4.60003C48.0056 4.81392 46.4361 6.17503 45.5944 8.20836C45.2 9.15836 45.0167 10.1167 45.0306 11.0222C44.0306 10.4889 42.8611 10.0695 41.6667 10.0695C39.6 10.0695 38.5056 11.3111 38.0722 12.5778C36.3417 12.1584 33.1417 11.6722 31.1583 13.1056C30.5528 13.5417 29.8556 14.3139 29.6083 15.625H27.4111C26.8361 15.625 26.3694 16.0917 26.3694 16.6667C26.3694 17.2417 26.8361 17.7084 27.4111 17.7084ZM72.5889 87.0139H69.4444C68.8694 87.0139 68.3194 87.6306 68.3194 88.2056C67.3944 88.9917 63.575 88.8 61.2833 88.4167C60.9778 88.3667 60.6778 88.3973 60.4444 88.5917C60.2111 88.7889 60.0806 89.025 60.0806 89.3334C60.0361 89.4528 59.6278 89.7917 58.3333 89.7917C55.8444 89.7917 53.2694 88.525 53.2417 88.5111C52.7306 88.2584 52.1056 88.4611 51.8472 88.9778C51.5889 89.4945 51.7972 90.1195 52.3139 90.375C52.7361 90.5861 52.925 90.7972 52.8778 91C52.7333 91.6195 51.4306 92.5695 50.0028 92.5695C48.575 92.5695 47.2722 91.6167 47.1278 91C47.0778 90.8 47.2694 90.5889 47.6917 90.375C48.2083 90.1195 48.4167 89.4945 48.1583 88.9778C47.9 88.4667 47.275 88.2584 46.7639 88.5111C46.7389 88.525 44.1611 89.7917 41.6722 89.7917C40.3778 89.7917 39.9667 89.4528 39.9361 89.4445C39.9361 89.1389 39.8028 88.8473 39.5667 88.65C39.3361 88.4528 39.0278 88.3723 38.7222 88.4167C36.4361 88.8028 32.6167 88.9945 31.6028 88.0556C31.6028 87.4806 31.1361 87.0139 30.5611 87.0139H27.4111C26.8361 87.0139 26.3694 87.4806 26.3694 88.0556C26.3694 88.6306 26.8361 89.0973 27.4111 89.0973H29.7667C29.9028 89.3556 30.0944 89.5889 30.3333 89.7945C32.0306 91.2306 36.3139 90.85 38.2611 90.5917C38.7167 91.2223 39.6694 91.875 41.6694 91.875C42.8778 91.875 44.0694 91.6417 45.075 91.3556C45.0806 91.3973 45.0917 91.4361 45.1 91.4778C45.5056 93.1973 47.7528 94.6528 50.0028 94.6528C52.2528 94.6528 54.5 93.2 54.9083 91.4778L54.9333 91.3556C55.9361 91.6417 57.1306 91.875 58.3389 91.875C60.3389 91.875 61.2889 91.2223 61.7472 90.5917C63.6889 90.8528 67.9778 91.2306 69.675 89.7945C69.9167 89.5889 70.1056 89.3556 70.2417 89.0973H72.5972C73.1722 89.0973 73.6389 88.6306 73.6389 88.0556C73.6389 87.4806 73.1639 87.0139 72.5889 87.0139Z" fill="#C1694F"/>
</svg>
