<svg width="75" height="80" viewBox="0 0 75 80" fill="none" xmlns="http://www.w3.org/2000/svg">
<path d="M73.1956 34.78C72.8711 33.9111 72.04 33.3333 71.1111 33.3333H44.2778L59.7556 3.24C60.2422 2.29333 59.9911 1.13556 59.1534 0.477778C58.7489 0.157778 58.2622 0 57.7778 0C57.26 0 56.7422 0.182222 56.3267 0.54L40 14.64L7.4378 42.7622C6.73558 43.3689 6.48225 44.3489 6.80669 45.2178C7.13113 46.0867 7.96002 46.6667 8.88891 46.6667H35.7222L20.2445 76.76C19.7578 77.7067 20.0089 78.8644 20.8467 79.5222C21.2511 79.8422 21.7378 80 22.2222 80C22.74 80 23.2578 79.8178 23.6734 79.46L40 65.36L72.5622 37.2378C73.2667 36.6311 73.5178 35.6511 73.1956 34.78Z" fill="#FFAC33"/>
</svg>
