<svg width="80" height="80" viewBox="0 0 80 80" fill="none" xmlns="http://www.w3.org/2000/svg">
<path d="M42.2222 61.3022V18.7L52.9511 7.96889C52.9511 7.96889 54.5222 6.39778 52.9511 4.82444C51.38 3.25333 49.8089 4.82444 49.8089 4.82444L42.2222 12.4133V2.22222C42.2222 2.22222 42.2222 0 40 0C37.7777 0 37.7777 2.22222 37.7777 2.22222V12.4133L30.1911 4.82444C30.1911 4.82444 28.62 3.25333 27.0489 4.82444C25.4777 6.39778 27.0489 7.96889 27.0489 7.96889L37.7777 18.7V61.3022L27.0489 72.0311C27.0489 72.0311 25.4777 73.6022 27.0489 75.1733C28.62 76.7444 30.1911 75.1733 30.1911 75.1733L37.7777 67.5867V77.7778C37.7777 77.7778 37.7777 80 40 80C42.2222 80 42.2222 77.7778 42.2222 77.7778V67.5867L49.8089 75.1733C49.8089 75.1733 51.38 76.7444 52.9511 75.1733C54.5222 73.6022 52.9511 72.0311 52.9511 72.0311L42.2222 61.3022Z" fill="#88C9F9"/>
<path d="M76.9378 46.3689C76.3622 44.2222 74.2155 44.7978 74.2155 44.7978L59.56 48.7245L22.6644 27.4222L18.7378 12.7667C18.7378 12.7667 18.1622 10.62 16.0155 11.1956C13.8667 11.7711 14.4444 13.9178 14.4444 13.9178L17.2222 24.2822L8.39554 19.1845C8.39554 19.1845 6.4711 18.0733 5.35999 19.9978C4.24888 21.9222 6.17332 23.0333 6.17332 23.0333L14.9978 28.1289L4.63332 30.9045C4.63332 30.9045 2.48443 31.48 3.06221 33.6267C3.63776 35.7756 5.78443 35.2 5.78443 35.2L20.4422 31.2733L57.3378 52.5756L61.2644 67.2333C61.2644 67.2333 61.84 69.38 63.9867 68.8045C66.1333 68.2267 65.5578 66.0822 65.5578 66.0822L62.78 55.7178L71.6067 60.8133C71.6067 60.8133 73.5333 61.9245 74.6444 60.0022C75.7555 58.0756 73.8289 56.9645 73.8289 56.9645L65.0044 51.8689L75.3667 49.0933C75.3667 49.0911 77.5133 48.5156 76.9378 46.3689Z" fill="#88C9F9"/>
<path d="M75.3667 30.9045L65.0022 28.1267L73.8289 23.0311C73.8289 23.0311 75.7556 21.9178 74.6445 19.9934C73.5311 18.0667 71.6067 19.18 71.6067 19.18L62.7823 24.2734L65.5578 13.9111C65.5578 13.9111 66.1334 11.7645 63.9867 11.1889C61.84 10.6134 61.2645 12.76 61.2645 12.76L57.3378 27.4156L20.44 48.7245L5.78669 44.7956C5.78669 44.7956 3.64002 44.22 3.06447 46.3667C2.48669 48.5156 4.63558 49.0889 4.63558 49.0889L14.9978 51.8645L6.17336 56.96C6.17336 56.96 4.25113 58.0734 5.36225 59.9978C6.47336 61.92 8.39558 60.8089 8.39558 60.8089L17.2222 55.7134L14.4445 66.0756C14.4445 66.0756 13.8689 68.2245 16.0156 68.7978C18.1645 69.3756 18.74 67.2289 18.74 67.2289L22.6689 52.5689L59.5667 31.2689L74.2222 35.1978C74.2222 35.1978 76.3689 35.7734 76.9445 33.6267C77.5111 31.4778 75.3667 30.9045 75.3667 30.9045Z" fill="#88C9F9"/>
</svg>
