<svg width="82" height="95" viewBox="0 0 82 95" fill="none" xmlns="http://www.w3.org/2000/svg">
<g clip-path="url(#clip0_244_19)">
<path d="M2.62173 23.2894L2.23373 89.5614C2.22661 90.7776 3.21387 91.7765 4.43007 91.7836L44.1939 92.0165C45.4101 92.0236 46.409 91.0363 46.4161 89.8201L46.8042 23.5481L2.62173 23.2894Z" fill="#FA3C32"/>
<path d="M44.6062 21.3274L4.84394 21.093C3.62774 21.0859 2.62885 22.0731 2.62173 23.2893L2.60169 26.7117C6.18659 31.4421 16.0502 34.916 24.6422 34.9663C33.3882 35.0175 43.2179 31.9323 46.7817 27.107L46.8026 23.5464C46.8097 22.3334 45.8224 21.3345 44.6062 21.3274Z" fill="#DC282C"/>
<path d="M24.6437 34.9679C16.0518 34.9176 6.18657 31.4452 2.60325 26.7133L2.57932 30.8019C7.10769 34.8841 16.6403 37.7322 24.6273 37.7774C32.729 37.8249 42.1903 35.4069 46.7589 31.2789L46.7833 27.1087C43.2195 31.9339 33.3897 35.0191 24.6437 34.9679Z" fill="#B3282C"/>
<path d="M24.541 53.0507C21.7158 53.0341 18.8518 54.2682 18.7891 56.6579C18.976 56.9418 20.4387 58.0613 24.5115 58.0852C28.5844 58.109 30.0601 57.0067 30.2503 56.725C30.2125 54.3347 27.3631 53.0672 24.541 53.0507ZM22.1133 50.6291C21.821 50.6274 21.5455 50.4529 21.4246 50.1631L19.9279 46.5433C19.7667 46.1558 19.9469 45.709 20.3297 45.5463C20.7125 45.3835 21.153 45.5668 21.3125 45.9527L22.8093 49.5725C22.9705 49.96 22.7903 50.4068 22.4075 50.5696C22.313 50.6099 22.2138 50.6297 22.1133 50.6291ZM17.7458 52.6118C17.5667 52.6107 17.3895 52.5453 17.2457 52.4124L14.1637 49.5628C13.8589 49.2797 13.8366 48.7987 14.115 48.4861C14.3933 48.1766 14.8665 48.1526 15.1744 48.4357L18.2564 51.2854C18.5612 51.5684 18.5835 52.0494 18.3051 52.3621C18.1549 52.5293 17.9501 52.613 17.7458 52.6118ZM26.9907 50.6577C26.8932 50.6571 26.7928 50.6377 26.6972 50.5947C26.3163 50.4275 26.1429 49.9802 26.3071 49.593L27.8461 45.991C28.0118 45.6054 28.4512 45.4273 28.8337 45.5961C29.2145 45.7633 29.3879 46.2106 29.2238 46.5977L27.6847 50.1998C27.5621 50.4866 27.2829 50.6594 26.9907 50.6577ZM31.3377 52.6913C31.1335 52.6901 30.9297 52.6041 30.7814 52.4351C30.5051 52.1208 30.5331 51.6401 30.8427 51.3591L33.9579 48.5457C34.2676 48.2646 34.7435 48.2941 35.0167 48.6085C35.293 48.9228 35.265 49.4034 34.9554 49.6845L31.8402 52.4979C31.6964 52.6274 31.5169 52.6924 31.3377 52.6913Z" fill="#FFE933"/>
<path d="M17.2949 56.6193C14.577 56.2561 12.7899 55.8041 12.1514 55.6259C12.8641 57.6116 14.4045 59.1448 16.7901 60.1802C19.7697 61.472 23.1677 61.6286 24.4876 61.6363C25.8107 61.6441 29.2087 61.5257 32.2048 60.2704C34.6039 59.2647 36.1621 57.7495 36.8965 55.7708C36.2576 55.9399 34.4652 56.3741 31.7433 56.7023L31.7474 56.795C31.7391 58.2123 29.248 59.634 24.4995 59.6062C19.751 59.5784 17.2767 58.1277 17.285 56.7103L17.2949 56.6193Z" fill="#FFE933"/>
<path d="M24.4803 63.159C18.9021 63.1263 13.034 61.3461 10.9648 56.7299C10.686 57.3835 10.4259 58.328 10.4182 59.6385C10.3739 67.2059 19.5749 69.2602 24.4444 69.2903C29.3155 69.3188 38.5383 67.374 38.5826 59.8034C38.5902 58.4929 38.3413 57.5423 38.0701 56.8886C35.947 61.4803 30.0585 63.1916 24.4803 63.159Z" fill="#FFE933"/>
</g>
<defs>
<clipPath id="clip0_244_19">
<rect width="80" height="80" fill="white" transform="translate(-32 56.2364) rotate(-44.6646)"/>
</clipPath>
</defs>
</svg>
