<svg width="133" height="76" viewBox="0 0 133 76" fill="none" xmlns="http://www.w3.org/2000/svg">
<path d="M124.278 69.6333C124.3 69.3889 124.406 69.2056 124.406 68.95C124.406 64.7611 121.361 62.35 117.6 62.35H97.7L121.472 29.0556C122.617 27.4833 123.039 26.5389 123.039 24.55C123.039 20.4667 119.483 19.8333 118.122 19.8333H88.4056L88.2278 16.0111C88.2278 16.0111 80.4 20.6278 79.8778 20.9444C79.3556 21.2611 77.0722 23.0111 77.0722 26.4278C77.0722 30.6167 80.1056 33.0222 83.8778 33.0222H101.372L77.7 66.3167C77.1778 67.1556 76.3445 68.7222 76.3445 70.4C76.3445 73.8556 79.1667 75.5333 82.5167 75.5333H117.6C119.033 75.5333 120.461 75.1111 121.383 74.5556L129.733 69.6222H124.278V69.6333Z" fill="#FFAC33"/>
<path d="M109.506 28.2444H92.0111C88.2389 28.2444 85.2056 25.8389 85.2056 21.65C85.2056 17.4611 88.2389 15.05 92.0111 15.05H126.256C127.617 15.05 131.172 15.6778 131.172 19.7611C131.172 21.75 130.75 22.6944 129.606 24.2667L105.833 57.5611H125.733C129.494 57.5611 132.539 59.9667 132.539 64.1555C132.539 68.3444 129.494 70.75 125.733 70.75H90.65C87.3 70.75 84.4778 69.0722 84.4778 65.6166C84.4778 63.9389 85.3111 62.3722 85.8333 61.5333L109.506 28.2444Z" fill="#2A6797"/>
<path d="M71.2556 41.5556C71.2722 41.3722 71.3556 41.2334 71.3556 41.0445C71.3556 37.9111 69.0778 36.1056 66.2611 36.1056H51.3611L69.1556 11.1778C70.0222 10 70.3333 9.29446 70.3333 7.81113C70.3333 4.75557 67.6722 4.28335 66.65 4.28335H44.4056L44.2722 1.42224C44.2722 1.42224 38.4111 4.8778 38.0222 5.11669C37.6333 5.35557 35.9222 6.66668 35.9222 9.22224C35.9222 12.3556 38.1944 14.1611 41.0167 14.1611H54.1111L36.3889 39.0889C36 39.7167 35.3722 40.8889 35.3722 42.1445C35.3722 44.7334 37.4833 45.9834 39.9944 45.9834H66.2611C67.3333 45.9834 68.4 45.6667 69.0944 45.25L75.3444 41.5556H71.2556Z" fill="#FFAC33"/>
<path d="M60.2 10.5722H47.1056C44.2833 10.5722 42.0111 8.77224 42.0111 5.63335C42.0111 2.50001 44.2833 0.694458 47.1056 0.694458H72.7444C73.7667 0.694458 76.4278 1.16668 76.4278 4.22224C76.4278 5.71112 76.1111 6.41668 75.2556 7.59446L57.4611 32.5222H72.3611C75.1667 32.5222 77.4445 34.3222 77.4445 37.4611C77.4445 40.6 75.1667 42.4 72.35 42.4H46.0833C43.5722 42.4 41.4611 41.1445 41.4611 38.5611C41.4611 37.3056 42.0889 36.1333 42.4778 35.5056L60.2 10.5722Z" fill="#2A6797"/>
<path d="M31.5611 57.9167C31.5778 57.7611 31.6445 57.6444 31.6445 57.4778C31.6445 54.7944 29.6945 53.25 27.2833 53.25H14.5333L29.7667 31.9167C30.5 30.9111 30.7722 30.3055 30.7722 29.0333C30.7722 26.4167 28.4945 26.0111 27.6222 26.0111H8.58334L8.46667 23.5611L3.11668 26.7222C2.78334 26.9278 1.31667 28.0444 1.31667 30.2389C1.31667 32.9222 3.26112 34.4667 5.67778 34.4667H16.8833L1.71668 55.8C1.38334 56.3389 0.844452 57.3444 0.844452 58.4167C0.844452 60.6333 2.65556 61.7055 4.80001 61.7055H27.2833C28.2 61.7055 29.1167 61.4333 29.7056 61.0778L35.0556 57.9167H31.5611Z" fill="#FFAC33"/>
<path d="M22.0944 31.4H10.8889C8.47221 31.4 6.52776 29.8556 6.52776 27.1722C6.52776 24.4889 8.47221 22.9445 10.8889 22.9445H32.8333C33.7055 22.9445 35.9833 23.35 35.9833 25.9667C35.9833 27.2389 35.7167 27.8445 34.9778 28.85L19.7444 50.1833H32.4944C34.9055 50.1833 36.8555 51.7278 36.8555 54.4111C36.8555 57.0945 34.9055 58.6389 32.4944 58.6389H10.0111C7.86666 58.6389 6.05554 57.5667 6.05554 55.35C6.05554 54.2778 6.58888 53.2722 6.92777 52.7333L22.0944 31.4Z" fill="#2A6797"/>
</svg>
