<svg width="80" height="80" viewBox="0 0 80 80" fill="none" xmlns="http://www.w3.org/2000/svg">
<g clip-path="url(#clip0_228_98)">
<path d="M2.36 11.3889C2.36 11.3889 13.1933 0.277832 24.5822 0.277832C38.1956 0.277832 42.2222 11.2489 42.2222 11.2489C42.2222 11.2489 43.6111 2.36005 53.3333 2.36005C63.0556 2.36005 68.7511 9.3045 68.7511 9.3045C68.7511 9.3045 60.8356 14.0267 58.4733 14.9978C52.2489 17.5601 33.1956 22.9134 24.3067 20.6912C15.4178 18.4689 2.36 11.3889 2.36 11.3889Z" fill="#5C913B"/>
<path d="M40 13.3333C40 13.3333 42.3156 11.3422 53.3333 11.3422C67.8711 11.3422 80 22.0355 80 40.0689C80 65.6933 46.76 79.8044 46.76 79.8044C46.76 79.8044 2.22222 77.4066 2.22222 39.9489C2.22222 17.8177 17.2222 11.1111 26.6667 11.1111C37.6844 11.1111 40 13.3333 40 13.3333Z" fill="#FF886C"/>
<path d="M2.36 11.3889C2.36 11.3889 13.1933 0.277832 24.5822 0.277832C38.1956 0.277832 42.2222 11.2489 42.2222 11.2489C42.2222 11.2489 33.1956 22.9156 24.3067 20.6934C15.4178 18.4712 2.36 11.3889 2.36 11.3889Z" fill="#77B255"/>
<path d="M51.1089 66.6667C50.6867 66.6667 50.2578 66.5445 49.8778 66.2934C48.8556 65.6112 48.58 64.2334 49.2622 63.2112C49.2956 63.1623 53.3333 56.7512 53.3333 42.2223C53.3333 27.9001 43.16 19.5956 43.0556 19.5134C42.0978 18.7467 41.9422 17.3489 42.7089 16.3912C43.4778 15.4334 44.8756 15.2778 45.8333 16.0445C46.32 16.4334 57.7778 25.7867 57.7778 42.2223C57.7778 58.2667 53.1578 65.3823 52.96 65.6778C52.5333 66.32 51.8267 66.6667 51.1089 66.6667Z" fill="#DD2E44"/>
</g>
<defs>
<clipPath id="clip0_228_98">
<rect width="80" height="80" fill="white"/>
</clipPath>
</defs>
</svg>
