<svg width="100" height="100" viewBox="0 0 100 100" fill="none" xmlns="http://www.w3.org/2000/svg">
<path d="M22.2222 44.4444C20.6889 44.4444 19.4444 43.2 19.4444 41.6666V11.1111C19.4444 9.57776 20.6889 8.33331 22.2222 8.33331C23.7556 8.33331 25 9.57776 25 11.1111V41.6666C25 43.2 23.7556 44.4444 22.2222 44.4444Z" fill="#CCD6DD"/>
<path d="M5.55556 91.6667C5.55556 85.4556 16.6667 75 25 75V88.8889C22.2222 88.8889 13.8889 91.6667 11.1111 94.4444C8.33334 97.2222 5.55556 94.4444 5.55556 91.6667ZM44.4444 91.6667C44.4444 85.4556 33.3333 75 25 75V88.8889C27.7778 88.8889 36.1111 91.6667 38.8889 94.4444C41.6667 97.2222 44.4444 94.4444 44.4444 91.6667Z" fill="#3B88C3"/>
<path d="M41.6667 38.8889C47.2222 38.8889 52.7778 41.6667 52.7778 44.4445C52.7778 52.7778 43.9805 76.5056 30.0917 79.2834C16.2028 82.0611 41.6667 38.8889 41.6667 38.8889ZM8.33333 55.5556C5.55555 58.3334 2.77777 63.8889 2.77777 69.4445C2.77777 75 10.4167 63.7722 13.8889 66.6667C18.6611 70.6445 8.33333 55.5556 8.33333 55.5556Z" fill="#3B88C3"/>
<path d="M15.5083 34.0278C19.675 35.4167 22.6833 34.375 25.6944 31.9444C28.7056 29.5139 29.1667 39.0055 25 42.1305C20.8333 45.2555 13.5417 52.5472 13.6583 46.0667C13.7722 39.5833 15.5083 34.0278 15.5083 34.0278Z" fill="black"/>
<path d="M25.0639 30.5583C23.4694 32.3083 19.9083 37.0361 18.1722 42.8222C15.7417 44.2111 15.8583 39.4667 16.2056 37.9611C16.8306 35.2528 17.6111 35.2472 17.1667 33.7361C16.5833 32.2056 14.975 32.725 14.0583 33.2945C9.3 36.0278 5.55556 41.1111 5.55556 50C5.55556 65.3389 19.4444 86.1111 25 86.1111C30.5556 86.1111 44.4444 65.3389 44.4444 50C44.4444 34.6972 33.3917 30.5778 25.0639 30.5583Z" fill="#55ACEE"/>
<path d="M31.9444 47.2222C34.2456 47.2222 36.1111 45.3568 36.1111 43.0556C36.1111 40.7544 34.2456 38.8889 31.9444 38.8889C29.6433 38.8889 27.7778 40.7544 27.7778 43.0556C27.7778 45.3568 29.6433 47.2222 31.9444 47.2222Z" fill="black"/>
<path d="M24.8722 63.4084C20.6944 63.4084 17.0139 61.9139 13.7611 60.2167C12.4 59.5056 11.875 57.8278 12.5861 56.4667C13.2944 55.1111 14.9722 54.5778 16.3333 55.2889C21.5861 58.0334 26.3056 59.1361 32.2639 55.5945C33.5833 54.8139 35.2861 55.25 36.0694 56.5667C36.8528 57.8889 36.4167 59.5917 35.0972 60.375C31.3917 62.575 27.9917 63.4084 24.8722 63.4084Z" fill="#226699"/>
<path d="M82.8722 97.9167C81.5 97.2306 79.9778 95.2556 80.8472 93.2028C84.5528 84.4639 92.7306 46.2583 85.3028 24.4222C83.9111 20.3333 79.4194 14.2583 73.9694 10.9139C56.3667 0.116667 30.0639 6.03056 26.3889 7.86944C25.0139 8.55833 20.7111 9.93611 20.0222 8.56389C19.3361 7.19167 21.6583 5.77778 23.0306 5.09167C27.9083 2.65556 54.3194 -5.68056 77.6611 7.28889C81.8278 9.60278 87.6333 13.8889 90.725 22.0194C99.7722 45.8167 93.6333 87.0639 88.5389 96.525C86.9222 99.5361 83.2722 98.1139 82.8722 97.9167Z" fill="#662113"/>
<path d="M77.7778 80.5555C83.9143 80.5555 88.8889 75.5809 88.8889 69.4444C88.8889 63.3079 83.9143 58.3333 77.7778 58.3333C71.6413 58.3333 66.6667 63.3079 66.6667 69.4444C66.6667 75.5809 71.6413 80.5555 77.7778 80.5555Z" fill="#99AAB5"/>
<path d="M77.7778 75C80.846 75 83.3333 72.5127 83.3333 69.4445C83.3333 66.3762 80.846 63.8889 77.7778 63.8889C74.7095 63.8889 72.2222 66.3762 72.2222 69.4445C72.2222 72.5127 74.7095 75 77.7778 75Z" fill="#66757F"/>
</svg>
