<svg width="193" height="139" viewBox="0 0 193 139" fill="none" xmlns="http://www.w3.org/2000/svg">
<path d="M33.8779 36.9604C23.4446 42.7104 15.8779 50.5993 15.3446 51.4993C14.0168 53.7438 12.9168 60.3438 13.8113 64.916C14.6168 69.0327 14.7946 77.3493 17.4779 81.1104C18.5779 82.6493 18.0724 85.3271 17.3002 87.8215C14.9724 95.3382 19.0002 105.594 16.4946 103.833C11.3946 100.255 10.5279 93.666 10.6779 89.7882C10.7613 87.6049 9.75571 84.8771 9.25015 83.466C8.92238 82.5771 2.33349 65.6715 0.816819 58.2438C-0.00540308 54.2327 -1.03318 51.0104 2.3446 46.2716C7.36126 39.2382 13.9779 29.6271 20.739 24.6882C31.9168 16.516 42.6057 15.316 42.6057 15.316C42.6057 15.316 37.5446 34.9382 33.8779 36.9604ZM161.656 0.14933C161.189 0.19933 160.861 0.715996 160.528 1.47155C160.4 0.56044 160.117 -0.0617817 159.506 0.00488501C158.789 0.0771072 158.389 1.2271 157.817 2.73822C157.667 2.4771 157.472 2.29933 157.167 2.30488C155.717 2.35488 155.228 6.81044 152.117 9.71599C151.667 9.91599 151.261 10.1493 150.739 10.2938C150.411 10.3827 150.195 10.5215 149.928 10.6327C149.956 9.21599 150.878 8.38266 151.433 7.99932C152.761 7.0771 151.928 4.74377 149.689 6.16044C148.084 7.17711 147.411 8.18822 146.906 9.216C145.489 12.0993 144.939 15.0938 145.056 17.4771L144.395 18.6715C143.622 20.016 135.361 25.1715 129.417 29.5993C123.495 34.0049 119.161 39.0104 116 35.8882C113.8 33.716 107.161 26.4104 97.5446 20.1493C91.4724 16.1938 82.3613 15.3382 82.3613 15.3382C77.8779 19.016 83.2835 32.6104 87.3279 35.1493C92.539 38.4215 110.995 51.3993 116.806 53.9882C122.617 56.5771 126.272 53.0938 129.006 50.6049C131.245 48.5715 148.083 27.9827 149.578 26.5715C151.606 24.6604 155.483 22.1438 157.672 18.2882C159.55 14.9771 160.689 12.2938 161.378 7.98266C161.772 5.44933 163.611 -0.056226 161.656 0.14933Z" fill="#FFDC5D"/>
<path d="M82.3557 15.3271C82.3557 15.3271 69.8001 14.566 61.4446 14.566C53.089 14.566 45.0057 15.1216 42.6001 15.3271L31.6946 35.4327L34.6168 37.0049C34.6168 37.0049 41.3335 61.1938 41.3335 65.9049C41.3335 70.616 34.6168 94.8049 34.6168 94.8049H88.3612C88.3612 94.8049 81.6446 72.166 81.6446 65.9049C81.6446 59.6438 88.3612 37.0049 88.3612 37.0049L91.1112 35.5271L82.3557 15.3271Z" fill="#FFDC5D"/>
<path d="M42.6003 15.3271L34.6169 37.0049L40.0781 71.9382L82.8392 73.7549L88.3614 37.0049L82.3558 15.3271C82.3558 15.3271 77.5947 14.3493 62.5669 14.3493C47.5392 14.3493 42.6003 15.3271 42.6003 15.3271Z" fill="#FF5540"/>
<path d="M152.461 82.8882C162.117 67.4271 147.089 42.9105 147.089 42.9105C146.717 45.8771 145.156 52.4327 145.156 52.4327C144.25 57.9771 141.389 66.6882 132.828 77.2605C127 84.4493 157.645 107.838 164.539 103.299C175.3 96.2105 173.356 84.2327 184.845 71.4882C186.884 69.2271 189.289 66.9493 192.322 64.666C172.461 62.8938 152.461 82.8882 152.461 82.8882ZM135.111 99.9882C110.234 120.088 83.1391 112.722 77.4169 107.655L34.9503 74.4438C4.30581 74.4438 10.0614 118.033 41.2391 131.938C94.4391 155.666 136.256 124.033 143.456 108.716L135.111 99.9882Z" fill="#316116"/>
<path d="M147.295 90.2938C155.117 78.3216 149.278 60.5938 145.156 52.4327C144.25 57.9771 140.472 65.6716 131.911 76.2438C126.084 83.4327 129.228 94.5882 131.795 99.5716L131.8 99.5771C111.822 115.366 92.5503 112.155 82.7725 107.71C89.2725 104.699 93.8058 98.266 93.8058 90.7493C93.8058 80.3605 85.2114 71.9438 74.6169 71.9438H34.9503C4.30581 71.9438 10.0614 112.999 41.2391 126.627C92.1558 148.888 135.684 122.905 145.645 107.472C150.439 108.005 158.772 107.783 165.495 103.355C176.256 96.266 173.35 84.2382 184.839 71.4994C165.489 72.8827 147.295 90.2938 147.295 90.2938Z" fill="#66A644"/>
<path d="M82.8392 107.716C70.0114 105.16 43.9837 93.1327 42.8781 92.6216C41.8003 92.1216 41.3337 90.8493 41.8337 89.7771C42.3337 88.6938 43.617 88.2216 44.6837 88.7327C44.9503 88.8549 75.1725 102.222 87.5003 104.672C87.5003 104.672 86.6225 105.41 85.6337 106.155C84.6392 106.888 82.8392 107.716 82.8392 107.716Z" fill="#316116"/>
<path d="M52.7725 6.97156V20.6633C52.7725 24.4456 57.0237 33.9716 62.2725 33.9716C67.5213 33.9716 71.7725 24.4456 71.7725 20.6633V6.97156H52.7725Z" fill="#FFDC5D"/>
<path d="M52.7725 11.9716C55.4173 15.121 58.7016 15.9716 62.2725 15.9716C65.8382 15.9716 69.1225 15.1156 71.7725 11.9716V3.97156H52.7725V11.9716Z" fill="#F9CA55"/>
</svg>
