<svg width="200" height="200" viewBox="0 0 200 200" fill="none" xmlns="http://www.w3.org/2000/svg">
<path d="M112.683 38.5C106.183 40.5 106.683 40.5 100.683 43C100.683 43 100.728 44.2722 100.95 49.3167V49.3611C101 50.6445 100.867 52.1722 100.267 54.2111C97.2778 64.3167 110.85 70.5111 113.833 60.3833C115.011 56.3778 114.556 52.8556 113.956 49.6L113.9 49.3111C112.995 44.4778 113.183 44 112.683 38.5Z" fill="#FFDC5D"/>
<path d="M131.461 124.667C130.711 128.128 89.0167 131.906 89.0167 131.906C90.2 122.433 90.0222 98.3667 89.0056 81.3833C87.9333 63.3833 106.372 46.7611 112.467 48.1833C124.311 50.9555 132.472 63.7889 130.972 82.7944C128.817 110.111 131.811 123.044 131.461 124.667Z" fill="#FA743E"/>
<path d="M144.083 182.333L149.983 174.683C151.95 172.139 155.817 172.228 157.661 174.861C159.678 177.739 166.033 184.294 175.456 187.706C176.922 188.239 179.478 189.322 174.539 193.717C174.539 193.717 168.717 198.144 143.278 191.2M47.2112 200H75.0167C76.3556 200 77.4389 198.917 77.4389 197.578V195.289C77.4389 192.778 76.6723 190.322 75.2389 188.256L73.1112 185.183H62.3723L51.8723 188.083C47.6001 189.267 44.6778 193.206 44.789 197.639C44.8223 198.95 45.8945 200 47.2112 200Z" fill="#292F33"/>
<path d="M96.3167 142.683L94.5889 182.311C94.5889 182.311 93.7223 198.944 111.439 198.622L149.461 193.978C149.461 193.978 152.267 184.256 147.517 180.044L120.111 176.761C119.35 176.672 118.844 175.933 119.033 175.194L127.806 146.739C128.922 143.117 130.85 135.294 131.156 131.544C131.344 129.244 130.072 131.039 130.128 128.711L94.5889 138.922L96.3167 142.683Z" fill="#2A6797"/>
<path d="M106.711 118.772C96.3167 118.489 66 122.272 66 122.272C51.1278 125.767 54.7 147.478 54.7 147.478L57.6111 185.867C57.6111 185.867 66.8778 191.161 74.5556 185.867L79.7167 147.478L102.306 147.744C102.306 147.744 140.222 155.294 130.961 118.567C130.961 118.572 108.828 118.833 106.711 118.772Z" fill="#4289C1"/>
<path d="M102.244 75.75C100.211 86.4778 99.4833 105.272 97.8111 106.056C88.1555 110.589 79.7111 113.406 73.3722 115.628C68.7778 117.239 64.1944 118.161 62.2167 119.906C59.0555 122.694 55.2944 125.072 54.9667 127.9C54.6389 130.772 57.9389 131.806 63.7055 129.389C67.9389 127.611 71.2611 127.856 75.0444 125.111C80.4333 121.206 101.922 124.511 110.044 112.489C112.789 108.433 115.7 98.9444 119.6 79.0833C114.578 77.0167 102.244 75.75 102.244 75.75Z" fill="#FFDC5D"/>
</svg>
