<svg width="200" height="200" viewBox="0 0 200 200" fill="none" xmlns="http://www.w3.org/2000/svg">
<g clip-path="url(#clip0_277_36)">
<path d="M177.778 36.8055L161.111 27.7778L150 36.8055C150 36.8055 166.667 77.0833 166.667 98.6111C166.667 120.139 147.222 150 147.222 150H52.7778C52.7778 150 33.3333 120.139 33.3333 98.6111C33.3333 77.0833 50 36.8055 50 36.8055L38.8889 27.7778L22.2222 36.8055C22.2222 36.8055 0 76.3889 0 98.6111C0 120.833 30.5556 200 30.5556 200H169.444C169.444 200 200 120.833 200 98.6111C200 76.3889 177.778 36.8055 177.778 36.8055Z" fill="#FA743E"/>
<path d="M83.3333 128V155.556C83.3333 164.761 90.7944 172.222 99.9999 172.222C109.206 172.222 116.667 164.761 116.667 155.556V128H83.3333ZM106.889 13.3111C107.122 10.4167 110.183 9.27225 113.256 9.3778C113.256 9.3778 143.567 11.1056 155.039 16.4389C169.567 23.1889 177.778 36.8056 177.778 36.8056H150C150 36.8056 143.983 28.3556 139.233 25C134.339 21.5389 115.778 18.25 113.017 17.7111C110.256 17.1722 106.656 16.2056 106.889 13.3111ZM93.1111 13.3111C92.8777 10.4167 89.8166 9.27225 86.7444 9.3778C86.7444 9.3778 56.4333 11.1056 44.9611 16.4389C30.4333 23.1889 22.2222 36.8056 22.2222 36.8056H49.9999C49.9999 36.8056 56.0166 28.3556 60.7666 25C65.6611 21.5389 84.2222 18.25 86.9833 17.7111C89.7388 17.1667 93.3444 16.2056 93.1111 13.3111Z" fill="#FFDC5D"/>
</g>
<defs>
<clipPath id="clip0_277_36">
<rect width="200" height="200" fill="white"/>
</clipPath>
</defs>
</svg>
