<svg width="200" height="196" viewBox="0 0 200 196" fill="none" xmlns="http://www.w3.org/2000/svg">
<path d="M33.3333 151.556H166.667V196H33.3333V151.556Z" fill="#DD551F"/>
<path d="M17.7499 96.1389C19.2111 93.45 22.0611 92.0278 24.7944 92.2833C24.9833 91.9278 64.1499 108.628 64.1499 108.628L57.1055 117.222C53.2166 121.967 46.5111 122.906 42.1277 119.311L32.8111 111.672L20.2555 105.356C16.9999 103.706 15.8777 99.5833 17.7499 96.1389Z" fill="#F9CA55"/>
<path d="M2.02782 79.25C0.0833752 81.6222 0.277819 85 2.47226 86.8L29.7889 102.011L49.6167 118.267C51.8111 120.061 55.1612 119.594 57.1056 117.222L64.15 108.628L56.2167 102.128L38.3111 91.6111L9.51671 78.2056C9.51115 78.2056 3.97226 76.8778 2.02782 79.25Z" fill="#FFDC5D"/>
<path d="M52.8889 98.4333C52.8889 98.4333 161.761 146.528 164.6 147.789C171.211 150.728 182.122 157.233 182.122 168.222L180.172 194.611C180.172 195.378 179.55 196 178.783 196H160.322C160.044 196 159.778 195.917 159.55 195.761L51.55 123.211C51.1667 122.956 50.9333 122.522 50.9333 122.061V99.7C50.9389 98.6944 51.9667 98.0222 52.8889 98.4333Z" fill="#FA743E"/>
<path d="M101.256 119.7L96.9278 117.9L61.0278 129.617L69.2612 135.344L101.256 119.7ZM130.161 132.567L135.756 135.039L107.006 160.561L85.7778 160.422L130.161 132.567Z" fill="#DD551F"/>
<path d="M181.956 96.1389C180.495 93.45 177.645 92.0278 174.911 92.2833C174.722 91.9278 135.556 108.628 135.556 108.628L142.6 117.222C146.489 121.967 153.195 122.906 157.578 119.311L166.895 111.672L179.45 105.356C182.706 103.706 183.828 99.5833 181.956 96.1389Z" fill="#F9CA55"/>
<path d="M197.678 79.25C199.622 81.6222 199.428 85 197.233 86.8L169.917 102.011L150.089 118.267C147.895 120.061 144.545 119.594 142.6 117.222L135.556 108.628L143.489 102.128L161.395 91.6167L190.189 78.2111C190.189 78.2056 195.733 76.8778 197.678 79.25Z" fill="#FFDC5D"/>
<path d="M146.817 98.4333C146.817 98.4333 37.9444 146.528 35.1055 147.789C28.4944 150.728 17.5833 157.233 17.5833 168.222L19.5333 194.611C19.5333 195.378 20.1555 196 20.9221 196H39.3833C39.661 196 39.9277 195.917 40.1555 195.761L148.15 123.211C148.533 122.956 148.767 122.522 148.767 122.061V99.7C148.767 98.6944 147.733 98.0222 146.817 98.4333Z" fill="#FA743E"/>
</svg>
