<svg width="200" height="200" viewBox="0 0 200 200" fill="none" xmlns="http://www.w3.org/2000/svg">
<g clip-path="url(#clip0_277_66)">
<path d="M194.456 200V188.889C194.456 170.478 179.533 155.556 161.122 155.556H83.3444C64.9389 155.556 50.0111 170.478 50.0111 188.889V200H194.456Z" fill="#FA743E"/>
<path d="M108 133V163C108 171.285 114.491 178 122.5 178C130.509 178 137 171.285 137 163V133H108Z" fill="#FFDC5D"/>
<path d="M108 147.488C112.407 153.493 116.535 155 122.483 155C128.423 155 132.589 153.488 137 147.488V130H108.004V147.488H108Z" fill="#F9CA55"/>
<path d="M44.4556 158.656V200H50.0111L51.6945 158.656H44.4556Z" fill="#DD551F"/>
<path d="M24.0833 155.85L16.6777 200H44.4555L48.4611 157.844L24.0833 155.85Z" fill="#FA743E"/>
<path d="M37.7166 123.656C42.8444 118.528 57.4833 107.189 61.1333 103.45C64.7888 99.7167 69.6333 103.989 67.0666 108.55C64.4999 113.111 49.6833 129.922 49.6833 129.922C49.6833 129.922 58.5166 132.489 60.5111 134.767C62.5055 137.044 66.2111 151.867 62.7888 154.144C59.3666 156.422 54.2388 154.717 54.2388 154.717C54.2388 154.717 48.8333 168.111 34.8666 167.256C29.0666 166.9 23.1833 161.839 23.7499 153.289C24.3222 144.739 28.7722 136.794 30.3055 132.2C32.0166 127.072 37.7166 123.656 37.7166 123.656Z" fill="#FFDC5D"/>
<path d="M33.9055 115.028C33.6388 115.028 33.3666 114.989 33.0944 114.911C19.6 110.8 17.2111 95.1111 17.1166 94.4444C16.9 92.9278 17.9499 91.5278 19.4666 91.3055C20.9777 91.0944 22.3888 92.1333 22.6111 93.65C22.6277 93.7778 24.6222 106.517 34.7111 109.589C36.1777 110.039 37.0055 111.589 36.5611 113.056C36.1944 114.256 35.0944 115.028 33.9055 115.028ZM27.9222 126.206C27.65 126.206 27.3722 126.167 27.0999 126.083C7.33884 119.961 2.03328 97.7 1.81662 96.7556C1.47217 95.2611 2.40551 93.7722 3.89995 93.4278C5.40551 93.0833 6.88328 94.0167 7.23328 95.5111C7.27773 95.7111 12.0777 115.611 28.75 120.778C30.2166 121.233 31.0333 122.783 30.5833 124.25C30.2111 125.439 29.1111 126.206 27.9222 126.206Z" fill="#5DADEC"/>
</g>
<defs>
<clipPath id="clip0_277_66">
<rect width="200" height="200" fill="white"/>
</clipPath>
</defs>
</svg>
