<svg width="200" height="200" viewBox="0 0 200 200" fill="none" xmlns="http://www.w3.org/2000/svg">
<path d="M192 200V173.6C192 151.728 174.349 134 152.571 134H47.4286C25.6574 134 8 151.728 8 173.6V200H192Z" fill="#CCD6DD"/>
<path d="M76 143.444L99.5 167L123 143.444V114H76V143.444Z" fill="#FFDC5D"/>
<path d="M76 126.48C83.144 134.889 89.8356 137 99.4765 137C109.106 137 115.85 134.882 123 126.48V102H76V126.48Z" fill="#F9CA55"/>
<path d="M80.0866 200L73 139C73 139 82.4355 149.885 99.7672 149.885C117.099 149.885 128 139 128 139L119.816 200H80.0866Z" fill="#66757F"/>
<path d="M74.6055 129.298C78.2731 133.021 93.5202 200 93.5202 200H73.0698L62.0282 183.15L73.0698 164.504L60 160.335L61.6459 134.31C61.6459 134.31 72.8495 127.516 74.6055 129.298ZM125.394 129.298C121.727 133.021 106.48 200 106.48 200H126.93L137.972 183.15L126.93 164.504L140 160.335L138.354 134.31C138.354 134.31 127.15 127.516 125.394 129.298Z" fill="#F5F8FA"/>
</svg>
