<svg width="200" height="200" viewBox="0 0 200 200" fill="none" xmlns="http://www.w3.org/2000/svg">
<g clip-path="url(#clip0_279_137)">
<path d="M200 200V188.889C200 170.478 185.078 155.556 166.667 155.556H77.7778C59.3722 155.556 44.4445 170.478 44.4445 188.889V200H200Z" fill="#292F33"/>
<path d="M94 155.656H149.161V200.1H94V155.656Z" fill="#E1E8ED"/>
<path d="M98.0054 156.121C107.405 163.148 113.356 167 121.505 167C129.655 167 135.6 163.143 145 156.121V135H98L98.0054 156.121Z" fill="#FFDC5D"/>
<path d="M98.0054 145.331C104.554 152.94 112.674 155 121.505 155C130.331 155 138.446 152.935 145 145.331V126H98L98.0054 145.331Z" fill="#F9CA55"/>
<path d="M122.228 171.544C122.228 171.544 141.011 185.4 144.967 186.978C145.833 187.328 142.933 166.667 142.933 166.667H101.522C101.522 166.667 98.6166 187.672 100.239 186.806C103.783 184.9 122.228 171.544 122.228 171.544Z" fill="#99AAB5"/>
<path d="M96.0667 147.917C99.2112 151.061 122.228 166.711 122.228 166.711C122.228 166.711 110.417 173.611 99.5389 186.344C98.4445 187.622 90.9723 160.65 90.7445 154.628C90.6778 152.944 94.5612 146.411 96.0667 147.917ZM148.5 147.917C145.356 151.061 122.339 166.711 122.339 166.711C122.339 166.711 134.15 173.611 145.028 186.344C146.117 187.622 153.595 160.65 153.822 154.628C153.889 152.944 150.006 146.411 148.5 147.917Z" fill="#F5F8FA"/>
<path d="M153.444 155.556C153.444 155.556 144.878 185.906 122.222 196.728C99.5667 185.906 91 155.556 91 155.556H83.3334V200H161.111V155.556H153.444Z" fill="#292F33"/>
<path d="M67.1278 185.228C68.5222 185.228 69.3555 200 69.3555 200H64.0444C64.0444 200 65.1167 185.228 67.1278 185.228ZM83.7944 185.228C85.1889 185.228 86.0222 200 86.0222 200H80.7111C80.7111 200 81.7833 185.228 83.7944 185.228ZM177.383 185.228C175.989 185.228 175.156 200 175.156 200H180.467C180.467 200 179.389 185.228 177.383 185.228ZM160.717 185.228C159.322 185.228 158.489 200 158.489 200H163.8C163.8 200 162.722 185.228 160.717 185.228Z" fill="#66757F"/>
<path d="M43.6333 131.472C46.2333 138.361 44.6222 145.35 40.0277 147.094C35.4389 148.822 29.6055 144.644 27 137.756C24.4 130.872 26.0111 123.878 30.6055 122.139C35.1944 120.406 41.0277 124.583 43.6333 131.472Z" fill="#C1694F"/>
<path d="M50.5111 200L31.1834 148.844L32.5722 148.322C38.6722 146.017 41.7722 139.15 39.4722 133.044C37.1667 126.95 30.2945 123.844 24.1945 126.15L13.1111 130.339C7.01113 132.633 3.90557 139.506 6.21113 145.611C8.51113 151.711 15.3889 154.811 21.4834 152.506L22.8722 151.983L41.0111 200H50.5111Z" fill="#662113"/>
<path d="M18.6833 140.894C21.2833 147.783 19.6722 154.772 15.0778 156.517C10.4889 158.25 4.65557 154.072 2.05001 147.178C-0.549986 140.294 1.06112 133.3 5.65557 131.561C10.25 129.828 16.0833 134.006 18.6833 140.894Z" fill="#C1694F"/>
<path d="M62.8778 200L60.2889 191.178C58.2722 184.294 50.9945 180.317 44.1167 182.333L37.1445 184.378C30.45 186.344 26.55 193.289 28.2 200H62.8778Z" fill="#FFDC5D"/>
</g>
<defs>
<clipPath id="clip0_279_137">
<rect width="200" height="200" fill="white"/>
</clipPath>
</defs>
</svg>
