<svg width="200" height="200" viewBox="0 0 200 200" fill="none" xmlns="http://www.w3.org/2000/svg">
<path d="M159.067 169.794C158.078 161.872 150.356 159.067 146.528 159.067C141.617 159.067 129.906 165.211 127.778 155.817L127.572 154.8L72.5166 154.733L72.2222 155.756C70.1388 165.244 58.3777 159.067 53.4555 159.067C49.6277 159.067 41.9055 161.872 40.9166 169.794C40.9166 169.794 78.5 183.333 100 183.333C121.517 183.333 159.067 169.794 159.067 169.794Z" fill="#4289C1"/>
<path d="M67.5833 96.9166C64.5499 96.4111 61.6944 98.2166 61.1888 101.239L56.6055 126.572C56.2111 126.811 55.8166 127.056 55.3999 127.322C45.6111 133.606 46.1722 146.928 39.0999 152.967C38.1499 153.778 33.8277 157.222 32.4166 160.328C30.5499 164.428 33.6388 162.794 32.6666 164.189C30.4111 167.433 30.3666 172.4 31.9611 173.556L34.0333 174.111C37.1277 176.35 45.5944 166.689 46.7055 161.322C48.3722 153.306 63.7888 143.267 66.6444 135.472C67.5444 133.006 67.8888 131.1 67.6055 129.506L73.7499 100.922C74.2555 97.8889 70.6055 97.4166 67.5833 96.9166ZM167.15 164.511C166.178 163.117 169.578 164.422 167.711 160.322C166.294 157.211 161.661 153.772 160.717 152.961C153.644 146.922 154.517 133.6 144.728 127.317C144.267 127.017 143.817 126.739 143.378 126.478L138.811 101.239C138.311 98.2166 135.439 96.4166 132.422 96.9166C129.394 97.4222 125.561 97.8889 126.061 100.917L132.455 129.928C132.3 131.439 132.655 133.217 133.478 135.472C136.328 143.261 151.75 153.3 153.417 161.322C154.533 166.694 163 176.356 166.089 174.111L168.161 173.556C169.767 172.389 169.411 167.756 167.15 164.511Z" fill="#FFDC5D"/>
<path d="M126.428 199C120.65 199.494 115.205 197.844 109.761 199C107.122 199.167 105.305 199 102.667 196.689C100.028 194.378 56.6277 188.272 48.7055 182.994C45.0499 180.556 39.4722 174.439 40.9499 169.3C42.4111 164.228 47.2777 161.361 53.1611 161.217C64.6333 160.933 86.4944 177.556 102.333 183.661C105.211 184.772 107.6 183.372 111.244 184.322C115.039 185.311 124.117 181.239 128.739 181.844C135.011 182.672 137.483 185.639 136.989 190.756C136.467 196.167 132.205 198.506 126.428 199Z" fill="#FFDC5D"/>
<path d="M126.428 199C120.65 199.494 115.206 197.844 109.761 199C107.122 199.167 105.306 199 102.667 196.689C100.028 194.378 107.606 183.361 111.25 184.311C115.044 185.3 124.122 181.228 128.744 181.833C135.017 182.661 137.489 185.628 136.994 190.744C136.467 196.167 132.206 198.506 126.428 199ZM62.2 184.478C63.5222 181.011 68.8 179.528 71.2777 179.2C73.7555 178.872 77.8777 180.356 80.6833 181.511C83.4888 182.667 86.8944 182.811 89.0388 181.983C91.1833 181.156 92.75 181.294 94.3611 181.983C94.7944 182.167 96.7111 181.983 97.3944 181.611C97.3944 181.611 107.339 185.033 103.706 186.189C100.078 187.344 73.5888 189.1 69.9611 189.1C66.3333 189.1 62.2 184.478 62.2 184.478Z" fill="#F9CA55"/>
<path d="M40.9499 169.3C40.9833 169.189 41.0388 169.094 41.0722 168.989C42.1888 173.222 45.2944 178.211 48.8555 179.533C53.311 181.183 89.1166 191.744 93.5722 192.239C98.0277 192.733 104.628 193.394 105.95 194.383C107.272 195.372 110.733 195.706 113.539 195.044C116.344 194.383 123.439 197.022 127.072 196.2C130.7 195.378 135.983 193.728 136.972 189.272C136.989 189.189 137.011 189.15 137.033 189.083C137.056 189.617 137.05 190.167 136.994 190.761C136.472 196.178 132.211 198.517 126.433 199.011C120.655 199.506 115.211 197.856 109.767 199.011C107.128 199.178 105.311 199.011 102.672 196.7C100.033 194.389 56.6333 188.283 48.711 183.006C45.0499 180.556 39.4722 174.433 40.9499 169.3Z" fill="#F9CA55"/>
<path d="M73.5723 199C79.35 199.494 84.7945 197.844 90.2389 199C92.8778 199.167 94.6945 199 97.3334 196.689C99.9723 194.378 143.372 188.272 151.294 182.994C154.95 180.556 160.528 174.439 159.05 169.3C157.589 164.228 152.722 161.361 146.839 161.217C135.367 160.933 113.506 177.556 97.6667 183.661C94.7889 184.772 92.4 183.372 88.7556 184.322C84.9612 185.311 75.8834 181.239 71.2612 181.844C64.9889 182.672 62.5167 185.639 63.0112 190.756C63.5334 196.167 67.7945 198.506 73.5723 199Z" fill="#FFDC5D"/>
<path d="M141.433 106.422C141.433 106.422 138.35 89.8944 125.189 87.1166C109.517 83.8111 105.067 83.3333 100 83.3333C94.9333 83.3333 90.4833 83.8111 74.8111 87.1166C61.65 89.8889 58.5667 106.422 58.5667 106.422L72.2222 109.933C72.2222 109.933 74.1889 122.267 74.1889 133.161C74.1889 144.056 72.2222 155.556 72.2222 155.556C72.2222 155.556 83.5055 157.417 100 157.417C116.494 157.417 127.778 155.556 127.778 155.556C127.778 155.556 125.811 144.05 125.811 133.161C125.811 122.272 127.778 109.933 127.778 109.933L141.433 106.422Z" fill="#FA743E"/>
<path d="M91 70V87.3316C91 92.1184 95.0301 96 100 96C104.97 96 109 92.1235 109 87.3316V70H91Z" fill="#FFDC5D"/>
<path d="M91 82.5086C94.1655 83.5852 101.437 85.2839 109 82.4247V70H91V82.5086Z" fill="#F9CA55"/>
</svg>
