<svg width="200" height="200" viewBox="0 0 200 200" fill="none" xmlns="http://www.w3.org/2000/svg">
<path d="M166.122 113.578L137.317 83.5611C135.6 81.381 133.412 79.6174 130.918 78.4023C128.423 77.1872 125.686 76.5521 122.911 76.5444H95.9444C91.4516 76.5437 87.1118 78.1766 83.7337 81.1387C80.3556 84.1008 78.1697 88.19 77.5833 92.6444L72.2222 133.333L72.3055 134.056C67.2462 137.988 63.1761 143.048 60.4201 148.833C57.6641 154.618 56.2986 160.967 56.4324 167.374C56.5663 173.78 58.1958 180.067 61.191 185.731C64.1862 191.396 68.4641 196.282 73.6833 200H138.889V152.006C150.094 144.256 162.772 135.278 166.122 132.094C176.661 122.067 166.122 113.578 166.122 113.578Z" fill="#FA743E"/>
<path d="M138.883 152.011L138.878 159.283L116.989 174.139L102.317 151.144L133.678 118.867L122.906 108.183L125.689 104.011L141.433 119.75L107.8 152.472L120.144 164.817C120.144 164.817 128.933 158.894 138.883 152.011ZM97.6501 120.139C93.3056 120.139 89.1167 120.778 85.1278 121.9C84.8528 120.169 84.7079 118.419 84.6945 116.667C84.6945 105.933 89.3278 98.2722 93.6223 97.3333L92.4334 91.9055C84.7278 93.5944 79.1389 104.011 79.1389 116.667C79.1389 119.083 79.4112 121.422 79.8167 123.706C71.3659 127.227 64.1464 133.171 59.0677 140.788C53.9891 148.406 51.2787 157.356 51.2778 166.511C51.2778 179.689 56.8001 191.556 65.6334 200H73.6834C68.3489 196.195 64.0005 191.171 61 185.346C57.9996 179.521 56.4339 173.063 56.4334 166.511C56.4327 161.098 57.4983 155.738 59.5693 150.737C61.6404 145.736 64.6764 141.192 68.5038 137.365C72.3313 133.537 76.8753 130.501 81.8763 128.43C86.8772 126.359 92.2372 125.294 97.6501 125.294C99.9501 125.294 102.189 125.533 104.389 125.9V120.7C102.16 120.347 99.9071 120.159 97.6501 120.139Z" fill="#DD551F"/>
<path d="M112.95 152.956C106.706 149.983 100.783 150.394 95.0556 153.744C92.3167 155.35 91.2 158.35 95.3945 159.344C99.6056 160.328 112.95 152.956 112.95 152.956Z" fill="#F9CA55"/>
<path d="M121.361 163.606C122.133 173.411 108.994 182.572 99.0277 181.378C91.9055 180.522 85.7055 161.333 94.1555 158.861C101.689 156.661 103.772 149.817 112.711 152.372C119.811 154.406 121.078 159.839 121.361 163.606Z" fill="#FFDC5D"/>
<path d="M114.772 167.4L113.594 164.95C113.594 164.95 109.311 171.322 103.356 173.783C98.8389 175.628 95.0334 175.811 93.0389 175.483C93.8945 177.111 93.9111 177.389 95.0334 178.428C101.239 178.644 111.156 175.317 114.772 167.4ZM102.456 167.183C107.956 163.417 109.561 159.817 109.561 159.817L107.767 157.544C107.767 157.544 101.406 167.411 90.1167 166.906C90.2 168.283 90.0889 168.55 90.4945 169.961C92.0111 170.011 97.9889 170.239 102.456 167.183Z" fill="#EF9645"/>
</svg>
