<svg width="200" height="200" viewBox="0 0 200 200" fill="none" xmlns="http://www.w3.org/2000/svg">
<path d="M189 200V180.8C189 155.2 165.442 136 144.25 136H54.75C33.5705 136 10 155.2 10 180.8V200H189Z" fill="#292F33"/>
<path d="M128 162L156 156.05L143.52 136L128 136.019V162Z" fill="#546170"/>
<path d="M116 200H134.05L162 151.155L143.42 157.041L132.296 143L116 200Z" fill="#66757F"/>
<path d="M71 162L43 156.05L55.4734 136L71 136.019V162Z" fill="#546170"/>
<path d="M83 200H64.9495L37 151.155L55.5735 157.041L66.7035 143L83 200Z" fill="#66757F"/>
<path d="M117.566 200L136 136H63L81.4336 200H117.566Z" fill="#DFE7EC"/>
<path d="M99.5 178C101.985 178 104 175.985 104 173.5C104 171.015 101.985 169 99.5 169C97.0147 169 95 171.015 95 173.5C95 175.985 97.0147 178 99.5 178Z" fill="#292F33"/>
<path d="M99.5 196C101.985 196 104 193.985 104 191.5C104 189.015 101.985 187 99.5 187C97.0147 187 95 189.015 95 191.5C95 193.985 97.0147 196 99.5 196Z" fill="#292F33"/>
<path d="M74 136.652L99.5 147L125 136.652V113H74V136.652Z" fill="#FFDC5D"/>
<path d="M74 120.983C81.752 128.19 89.0131 130 99.4745 130C109.923 130 117.242 128.185 125 120.983V100H74V120.983Z" fill="#F9CA55"/>
<path d="M73.2666 128L99.5 146.743L82.3932 165L63 136.027L73.2666 128ZM125.733 128L99.5 146.743L116.607 165L136 136.027L125.733 128Z" fill="#F4F7F9"/>
<path d="M119.26 140.213C118.793 139.932 118.229 139.932 117.762 140.193L99.5032 150.269L81.245 140.193C80.7778 139.932 80.2133 139.939 79.7462 140.213C79.2855 140.486 79 140.988 79 141.522V162.482C79 163.016 79.2855 163.518 79.7462 163.792C79.9862 163.928 80.2523 164 80.5183 164C80.7713 164 81.0179 163.935 81.245 163.811L99.5032 153.728L117.762 163.811C117.989 163.941 118.235 164 118.488 164C118.754 164 119.02 163.928 119.26 163.792C119.715 163.518 120 163.016 120 162.482V141.522C120 140.988 119.715 140.486 119.26 140.213Z" fill="#292F33"/>
</svg>
