<svg width="200" height="200" viewBox="0 0 200 200" fill="none" xmlns="http://www.w3.org/2000/svg">
<path d="M154.395 155H60.4591C45.8639 155 32.4311 163.407 26.6306 175.094C24.4701 172.676 21.3056 171.488 17.7419 171.488C11.2839 171.488 6 176.935 6 183.128V200H188V188.75C188 170.113 173.845 155 154.395 155Z" fill="#FA743E"/>
<path d="M84 139V156.492C84 156.513 84.0591 156.529 84.0806 156.551C84.7902 157.833 104.17 193 105.524 193C106.884 193 126.242 157.833 126.946 156.551C126.968 156.529 127 156.513 127 156.492V139H84Z" fill="#FFDC5D"/>
<path d="M84 152.333C89.9931 159.153 97.4214 161 105.5 161C113.573 161 121.001 159.147 127 152.333V135H84V152.333Z" fill="#F9CA55"/>
<path d="M29 200H17V57.7582L11 35H35L29 57.7582V200Z" fill="#D99E82"/>
<path d="M23.5 41C33.165 41 41 33.165 41 23.5C41 13.835 33.165 6 23.5 6C13.835 6 6 13.835 6 23.5C6 33.165 13.835 41 23.5 41Z" fill="#55ACEE"/>
<path d="M20 30C24.9706 30 29 25.9706 29 21C29 16.0294 24.9706 12 20 12C15.0294 12 11 16.0294 11 21C11 25.9706 15.0294 30 20 30Z" fill="#B0F0FF"/>
<path d="M41 167.583C41 178.859 33.1658 188 23.5 188C13.8342 188 6 178.859 6 167.583C6 156.308 13.8342 153 23.5 153C33.1658 153 41 156.308 41 167.583Z" fill="#FFDC5D"/>
</svg>
