<svg width="200" height="200" viewBox="0 0 200 200" fill="none" xmlns="http://www.w3.org/2000/svg">
<g clip-path="url(#clip0_250_222)">
<path d="M161.111 27.7778C167.248 27.7778 172.222 22.8032 172.222 16.6667C172.222 10.5302 167.248 5.55554 161.111 5.55554C154.975 5.55554 150 10.5302 150 16.6667C150 22.8032 154.975 27.7778 161.111 27.7778Z" fill="#4289C1"/>
<path d="M183.333 61.1111C192.538 61.1111 200 53.6492 200 44.4444C200 35.2397 192.538 27.7778 183.333 27.7778C174.129 27.7778 166.667 35.2397 166.667 44.4444C166.667 53.6492 174.129 61.1111 183.333 61.1111Z" fill="#4289C1"/>
<path d="M183.333 38.8889C192.538 38.8889 200 31.427 200 22.2222C200 13.0175 192.538 5.55554 183.333 5.55554C174.129 5.55554 166.667 13.0175 166.667 22.2222C166.667 31.427 174.129 38.8889 183.333 38.8889Z" fill="#4289C1"/>
<path d="M38.8889 27.7778C45.0254 27.7778 50.0001 22.8032 50.0001 16.6667C50.0001 10.5302 45.0254 5.55554 38.8889 5.55554C32.7524 5.55554 27.7778 10.5302 27.7778 16.6667C27.7778 22.8032 32.7524 27.7778 38.8889 27.7778Z" fill="#4289C1"/>
<path d="M16.6667 61.1111C25.8714 61.1111 33.3333 53.6492 33.3333 44.4444C33.3333 35.2397 25.8714 27.7778 16.6667 27.7778C7.46192 27.7778 0 35.2397 0 44.4444C0 53.6492 7.46192 61.1111 16.6667 61.1111Z" fill="#4289C1"/>
<path d="M16.6667 38.8889C25.8714 38.8889 33.3333 31.427 33.3333 22.2222C33.3333 13.0175 25.8714 5.55554 16.6667 5.55554C7.46192 5.55554 0 13.0175 0 22.2222C0 31.427 7.46192 38.8889 16.6667 38.8889Z" fill="#4289C1"/>
<path d="M200 100C200 155.228 155.228 200 100 200C44.7722 200 0 155.228 0 100C0 44.7722 44.7722 0 100 0C155.228 0 200 44.7722 200 100Z" fill="#FEE7B8"/>
<path d="M169.444 38.8889C177.115 38.8889 183.333 32.6706 183.333 25C183.333 17.3294 177.115 11.1111 169.444 11.1111C161.774 11.1111 155.556 17.3294 155.556 25C155.556 32.6706 161.774 38.8889 169.444 38.8889Z" fill="#4289C1"/>
<path d="M177.778 50C183.914 50 188.889 45.0254 188.889 38.8889C188.889 32.7524 183.914 27.7778 177.778 27.7778C171.641 27.7778 166.667 32.7524 166.667 38.8889C166.667 45.0254 171.641 50 177.778 50Z" fill="#4289C1"/>
<path d="M30.5555 38.8889C38.2261 38.8889 44.4444 32.6706 44.4444 25C44.4444 17.3294 38.2261 11.1111 30.5555 11.1111C22.8849 11.1111 16.6666 17.3294 16.6666 25C16.6666 32.6706 22.8849 38.8889 30.5555 38.8889Z" fill="#4289C1"/>
<path d="M22.2222 50C28.3587 50 33.3333 45.0254 33.3333 38.8889C33.3333 32.7524 28.3587 27.7778 22.2222 27.7778C16.0857 27.7778 11.1111 32.7524 11.1111 38.8889C11.1111 45.0254 16.0857 50 22.2222 50Z" fill="#4289C1"/>
</g>
<defs>
<clipPath id="clip0_250_222">
<rect width="200" height="200" fill="white"/>
</clipPath>
</defs>
</svg>
