<svg width="200" height="200" viewBox="0 0 200 200" fill="none" xmlns="http://www.w3.org/2000/svg">
<path d="M5.90002 28.4722C5.90002 28.4722 32.9834 0.694458 61.4556 0.694458C95.4889 0.694458 105.556 28.1222 105.556 28.1222C105.556 28.1222 109.028 5.90001 133.333 5.90001C157.639 5.90001 171.878 23.2611 171.878 23.2611C171.878 23.2611 152.089 35.0667 146.183 37.4945C130.622 43.9 82.9889 57.2833 60.7667 51.7278C38.5445 46.1722 5.90002 28.4722 5.90002 28.4722Z" fill="#5C913B"/>
<path d="M100 33.3333C100 33.3333 105.789 28.3555 133.333 28.3555C169.678 28.3555 200 55.0889 200 100.172C200 164.233 116.9 199.511 116.9 199.511C116.9 199.511 5.55554 193.517 5.55554 99.8722C5.55554 44.5444 43.0555 27.7778 66.6667 27.7778C94.2111 27.7778 100 33.3333 100 33.3333Z" fill="#FF886C"/>
<path d="M5.90002 28.4722C5.90002 28.4722 32.9834 0.694458 61.4556 0.694458C95.4889 0.694458 105.556 28.1222 105.556 28.1222C105.556 28.1222 82.9889 57.2889 60.7667 51.7334C38.5445 46.1778 5.90002 28.4722 5.90002 28.4722Z" fill="#77B255"/>
<path d="M127.772 166.667C126.717 166.667 125.644 166.361 124.694 165.733C122.139 164.028 121.45 160.583 123.156 158.028C123.239 157.906 133.333 141.878 133.333 105.556C133.333 69.75 107.9 48.9889 107.639 48.7833C105.244 46.8667 104.856 43.3722 106.772 40.9778C108.694 38.5833 112.189 38.1944 114.583 40.1111C115.8 41.0833 144.444 64.4667 144.444 105.556C144.444 145.667 132.894 163.456 132.4 164.194C131.333 165.8 129.567 166.667 127.772 166.667Z" fill="#DD2E44"/>
</svg>
