<svg width="200" height="200" viewBox="0 0 200 200" fill="none" xmlns="http://www.w3.org/2000/svg">
<g clip-path="url(#clip0_250_285)">
<path d="M200 100C200 155.228 155.228 200 100 200C44.7722 200 0 155.228 0 100C0 44.7722 44.7722 0 100 0C155.228 0 200 44.7722 200 100Z" fill="#FFD983"/>
<path d="M52.7777 61.1111C63.5166 61.1111 72.2221 52.4055 72.2221 41.6666C72.2221 30.9278 63.5166 22.2222 52.7777 22.2222C42.0388 22.2222 33.3333 30.9278 33.3333 41.6666C33.3333 52.4055 42.0388 61.1111 52.7777 61.1111Z" fill="#FFCC4D"/>
<path d="M136.111 177.778C146.85 177.778 155.556 169.072 155.556 158.333C155.556 147.594 146.85 138.889 136.111 138.889C125.372 138.889 116.667 147.594 116.667 158.333C116.667 169.072 125.372 177.778 136.111 177.778Z" fill="#FFCC4D"/>
<path d="M122.222 38.8889C128.359 38.8889 133.333 33.9143 133.333 27.7778C133.333 21.6413 128.359 16.6667 122.222 16.6667C116.086 16.6667 111.111 21.6413 111.111 27.7778C111.111 33.9143 116.086 38.8889 122.222 38.8889Z" fill="#FFCC4D"/>
<path d="M16.6666 105.556C19.7349 105.556 22.2222 103.068 22.2222 100C22.2222 96.9317 19.7349 94.4444 16.6666 94.4444C13.5984 94.4444 11.1111 96.9317 11.1111 100C11.1111 103.068 13.5984 105.556 16.6666 105.556Z" fill="#FFCC4D"/>
<path d="M166.667 55.5555C169.735 55.5555 172.222 53.0682 172.222 50C172.222 46.9317 169.735 44.4444 166.667 44.4444C163.598 44.4444 161.111 46.9317 161.111 50C161.111 53.0682 163.598 55.5555 166.667 55.5555Z" fill="#FFCC4D"/>
<path d="M88.8888 177.778C91.9571 177.778 94.4444 175.29 94.4444 172.222C94.4444 169.154 91.9571 166.667 88.8888 166.667C85.8206 166.667 83.3333 169.154 83.3333 172.222C83.3333 175.29 85.8206 177.778 88.8888 177.778Z" fill="#FFCC4D"/>
<path d="M177.778 116.667C183.914 116.667 188.889 111.692 188.889 105.556C188.889 99.419 183.914 94.4444 177.778 94.4444C171.641 94.4444 166.667 99.419 166.667 105.556C166.667 111.692 171.641 116.667 177.778 116.667Z" fill="#FFCC4D"/>
<path d="M33.3333 155.556C39.4698 155.556 44.4444 150.581 44.4444 144.444C44.4444 138.308 39.4698 133.333 33.3333 133.333C27.1968 133.333 22.2222 138.308 22.2222 144.444C22.2222 150.581 27.1968 155.556 33.3333 155.556Z" fill="#FFCC4D"/>
</g>
<defs>
<clipPath id="clip0_250_285">
<rect width="200" height="200" fill="white"/>
</clipPath>
</defs>
</svg>
