<svg width="200" height="200" viewBox="0 0 200 200" fill="none" xmlns="http://www.w3.org/2000/svg">
<path d="M33.3333 22.2222C50 22.2222 61.1111 33.3333 77.7777 55.5556C94.4444 77.7778 121.983 95.5056 144.444 100C172.222 105.556 194.444 127.778 194.444 161.111C194.444 188.317 173.078 200 144.444 200C116.667 200 94.4444 183.333 66.6666 155.556C38.8889 127.778 11.1111 77.7778 11.1111 55.5556C11.1111 33.3333 16.6666 22.2222 33.3333 22.2222Z" fill="#744EAA"/>
<path d="M19.5277 0C26.4611 0 26.4611 6.93333 26.4611 13.8611C26.4611 23.6611 33.3944 20.1333 40.3277 20.1333C47.25 20.1333 61.1111 33.3333 61.1111 33.3333H40.3222C33.3888 33.3333 40.3222 47.8556 33.3888 47.8556C26.4555 47.8556 26.4555 41.2556 19.5277 41.2556C12.6 41.2556 11.1111 61.1111 11.1111 61.1111C11.1111 61.1111 2.19996 38.0389 12.5944 27.6444C19.5277 20.7111 5.66662 0 19.5277 0Z" fill="#77B255"/>
</svg>
