<svg width="200" height="200" viewBox="0 0 200 200" fill="none" xmlns="http://www.w3.org/2000/svg">
<path d="M128.835 7.70917C113.376 2.76003 77.009 4.1061 67.9201 15.8088C44.2808 16.2614 16.5511 37.4156 12.912 65.3233C9.31394 92.941 17.3305 105.769 20.1843 126.541C23.419 150.074 36.7799 157.599 47.4628 160.749C62.8336 180.853 79.1714 179.995 106.602 179.995C160.169 179.995 185.683 144.509 187.939 84.2322C189.299 47.7722 167.699 20.1603 128.835 7.70917Z" fill="#FFAC33"/>
<path d="M160.581 86.4214C155.358 79.2976 148.664 73.5636 134 71.534C139.501 74.0172 144.771 82.5891 145.456 87.3228C146.142 92.0623 146.833 95.8946 142.479 91.1551C125.038 72.1796 106.043 79.6523 87.2143 68.0565C74.0629 59.9615 70.0631 51 70.0631 51C70.0631 51 68.4561 62.9564 48.5222 75.1338C42.7441 78.6637 35.8494 86.5261 32.0209 98.1393C29.2737 106.484 30.1245 113.928 30.1245 126.652C30.1245 163.783 61.2128 195 99.5622 195C137.912 195 169 163.51 169 126.652C169 103.565 166.542 94.5454 160.581 86.4214Z" fill="#FFDC5D"/>
</svg>
