<svg width="200" height="200" viewBox="0 0 200 200" fill="none" xmlns="http://www.w3.org/2000/svg">
<g clip-path="url(#clip0_276_2)">
<g clip-path="url(#clip1_276_2)">
<path d="M35.8973 126.245C47.2127 123.214 52.8742 107.65 48.5426 91.4829C44.2109 75.3159 31.5264 64.6676 20.211 67.6994C8.89552 70.7311 3.23401 86.2948 7.56566 102.462C11.8973 118.629 24.5818 129.277 35.8973 126.245Z" fill="#D79E84"/>
<path d="M192.988 102.462C197.32 86.2946 191.659 70.7309 180.343 67.6992C169.028 64.6674 156.343 75.3157 152.012 91.4827C147.68 107.65 153.341 123.214 164.657 126.245C175.972 129.277 188.657 118.629 192.988 102.462Z" fill="#D79E84"/>
<path d="M105.656 200H94.3444C57.0222 200 20.8333 171.378 20.8333 131.311C20.8333 108.417 29.3167 96.9667 29.3167 96.9667C29.3167 96.9667 26.4889 85.5167 26.4889 74.0722C26.4889 39.7333 62.6778 11.1111 100 11.1111C137.322 11.1111 173.511 45.4556 173.511 74.0722C173.511 85.5222 170.683 96.9667 170.683 96.9667C170.683 96.9667 179.167 108.417 179.167 131.311C179.167 171.378 142.978 200 105.656 200Z" fill="#BF6952"/>
<path d="M166.667 89.1222C166.667 67.5167 149.028 50 127.272 50C116.678 50 107.078 54.1778 100 60.9333C92.9222 54.1778 83.3222 50 72.7278 50C50.9722 50 33.3333 67.5167 33.3333 89.1222C33.3333 102.228 39.8444 113.794 49.8056 120.894C47.0111 127.772 45.4556 135.339 45.4556 143.289C45.4556 174.867 69.8778 194.444 100 194.444C130.122 194.444 154.544 174.867 154.544 143.289C154.544 135.339 152.989 127.772 150.194 120.894C160.156 113.794 166.667 102.222 166.667 89.1222Z" fill="#D79E84"/>
<path d="M125.889 0.972223C125.889 0.972223 95.5833 -5.08889 83.4667 13.0944C71.35 31.2778 107.711 19.1556 107.711 19.1556C107.711 19.1556 113.767 0.972223 125.889 0.972223Z" fill="#BF6952"/>
</g>
</g>
<defs>
<clipPath id="clip0_276_2">
<rect width="200" height="200" fill="white"/>
</clipPath>
<clipPath id="clip1_276_2">
<rect width="200" height="200" fill="white"/>
</clipPath>
</defs>
</svg>
