<svg width="200" height="200" viewBox="0 0 200 200" fill="none" xmlns="http://www.w3.org/2000/svg">
<path d="M100 16.6667C133.333 16.6667 188.889 33.3333 188.889 105.556C188.889 177.778 188.889 194.444 172.222 194.444C155.556 194.444 133.333 177.778 100 177.778C66.6667 177.778 44.9167 194.444 27.7778 194.444C9.2056 194.444 11.1112 127.778 11.1112 105.556C11.1112 33.3333 66.6667 16.6667 100 16.6667Z" fill="#FFAC33"/>
<path d="M33.3333 103.122C33.3333 55.7556 63.1833 17.3556 99.9999 17.3556C136.817 17.3556 166.667 55.7556 166.667 103.122C166.667 150.489 136.817 188.889 99.9999 188.889C63.1833 188.889 33.3333 150.489 33.3333 103.122Z" fill="#FFDC5D"/>
<path d="M17.0221 133.333C16.8555 131.528 16.6666 129.739 16.6666 127.778C16.6666 100 33.3333 130.9 33.3333 111.111C33.3333 91.3167 44.4444 88.8889 55.5555 77.7778L72.2222 61.1111C72.2222 61.1111 99.9999 77.7778 122.222 77.7778C144.444 77.7778 166.667 88.8889 166.667 111.111C166.667 133.333 183.333 100 183.333 127.778C183.333 129.75 183.15 131.517 183.011 133.333H188.839C188.889 125.128 188.889 115.933 188.889 105.556C188.889 33.3333 133.333 5.55554 99.9999 5.55554C66.6666 5.55554 11.111 33.3333 11.111 105.556C11.111 111.989 10.9555 122.144 11.1777 133.333H17.0221Z" fill="#FFAC33"/>
</svg>
