<svg width="89" height="100" viewBox="0 0 89 100" fill="none" xmlns="http://www.w3.org/2000/svg">
<path d="M36.8361 89.6778C40.6714 89.6778 43.7806 86.5686 43.7806 82.7333C43.7806 78.898 40.6714 75.7889 36.8361 75.7889C33.0008 75.7889 29.8917 78.898 29.8917 82.7333C29.8917 86.5686 33.0008 89.6778 36.8361 89.6778Z" fill="#66757F"/>
<path d="M18.2139 40.175C25.2586 40.175 30.9694 34.4641 30.9694 27.4194C30.9694 20.3747 25.2586 14.6639 18.2139 14.6639C11.1692 14.6639 5.45833 20.3747 5.45833 27.4194C5.45833 34.4641 11.1692 40.175 18.2139 40.175Z" fill="#66757F"/>
<path d="M16.5389 13.1833C24.9556 7.57219 51.5222 1.96108 57.4639 1.46664C63.4055 0.972193 70.0111 2.28608 72.3167 4.43608C74.7917 6.74719 78.2361 10.8555 77.7611 17.4722C77.2667 24.4027 73.6361 30.3444 66.0444 31.4972C58.4528 32.6527 42.2833 29.1861 35.0222 32.1583C30.625 33.9583 29.7417 32.6527 28.5861 29.5194C27.4306 26.3833 24.6333 22.0833 22.4667 19.4639C19.1806 15.4944 13.0222 15.5277 16.5389 13.1833Z" fill="#CCD6DD"/>
<path d="M66.0445 31.5C73.6361 30.3445 77.2667 24.4056 77.7611 17.475C77.8445 16.3222 77.7722 15.2722 77.6445 14.2667C61.9195 13.6778 36.5083 17.3084 25.5861 23.85C26.825 25.7861 27.9583 27.8139 28.5889 29.5222C29.7445 32.6583 30.6278 33.9611 35.025 32.1639C42.2833 29.1889 58.4528 32.6556 66.0445 31.5ZM7.83612 33.4389C4.78056 39.5528 6.43334 50.2 17.0056 64.0028C23.3583 72.2972 27.1667 77.45 30.2222 80.5056C33.2778 83.5611 45.5028 80.5056 42.4472 74.3917C33.2778 56.0528 44.5139 45.6611 24.2472 32.5889C15.4667 26.925 9.92501 29.2611 7.83612 33.4389Z" fill="#99AAB5"/>
<path d="M37.025 81.3694C40.7972 80.4944 44.2333 77.9667 42.4472 74.3944C33.2778 56.0556 44.5139 45.6639 24.2472 32.5917C20.4333 30.1306 17.2305 29.1806 14.6555 29.2333C32.2861 45.6667 24.1083 56.0556 37.025 81.3694Z" fill="#CCD6DD"/>
<path d="M27.1278 82.5361C27.9 83.2389 30.2778 83.7306 31.7861 84.2028C31.3361 83.5472 30.1917 81.6556 29.7444 80.7111C29.6028 80.4111 29.225 80.2944 28.9167 80.45L27.0361 81.6333C26.6722 81.8111 26.8333 82.2694 27.1278 82.5361ZM8.04722 98.0389C11.125 99.225 14.0222 99.7861 16.8056 99.85C17.0167 99.8556 24.4194 99.85 28.1167 99.8306C30.8222 99.8167 33.1417 99.8028 33.925 99.8083L34.4083 99.8111L35.1389 99.8167C40.2611 99.8472 43.7944 100.108 45.3278 98.7556C45.5528 98.5556 45.6389 98.2556 45.65 97.9222C45.6667 97.4611 45.6278 96.975 45.6278 96.975C45.5306 97.3222 30.1556 98.3111 25.025 98.5861C8.07778 99.4917 3.94444 94.6 3.75833 94.1806C3.75833 94.1778 4.15277 96.5361 8.04722 98.0389Z" fill="#8899A6"/>
<path d="M15.8528 96.75C21.5889 97.1139 44.6083 94.9306 44.6083 94.9306L45.2028 94.0833C45.8 93.2361 45.6972 91.9028 45.7055 90.7556C45.7139 89.6084 45.375 85.3139 44.8667 84.2028C44.3583 83.0917 43.325 81.825 42.3694 82.2278C41.1694 82.7306 38.9778 85.3528 37.1194 85.3389C34.4306 85.3222 28.1889 81.2222 27.3055 81.2139C25.9805 81.2056 25.6611 82.6556 22.75 83.7528C21.3889 84.2667 15.175 86.6667 15.175 86.6667C13.5861 87.25 13.4861 87.5611 12.6361 87.8889C10.8917 88.5611 7.09166 89.7028 5.61388 90.2861C4.1361 90.8695 3.58888 92.0139 3.54444 92.8639C3.49999 93.7139 3.75555 94.1778 3.75555 94.1778C3.75555 94.1778 6.06944 96.1278 15.8528 96.75Z" fill="#BE1931"/>
<path d="M37.1056 86.3944C39.3556 86.4083 42.0056 83.0889 43.4861 82.4139C43.125 82.1694 42.7417 82.0694 42.3694 82.225C41.1722 82.7278 38.9778 85.35 37.1194 85.3361C34.4278 85.3194 28.1889 81.2194 27.3056 81.2111C26.9389 81.2083 26.6472 81.325 26.3583 81.5083C28.55 82.8722 34.3945 86.3778 37.1056 86.3944Z" fill="#A0041E"/>
<path d="M25.0389 85.2528L23.9861 83.575C23.7389 83.1778 23.8778 82.6667 24.2972 82.4306C24.7167 82.1945 25.2611 82.3278 25.5083 82.7223L26.5611 84.4C26.8083 84.7973 26.6694 85.3084 26.25 85.5445C25.9278 85.725 25.5333 85.6917 25.2556 85.4861C25.1722 85.4222 25.0972 85.3445 25.0389 85.2528ZM21.875 86.7222L21.0528 84.8139C20.8694 84.3861 21.0861 83.9 21.5389 83.725C21.9917 83.55 22.5083 83.7556 22.6917 84.1834L23.5139 86.0917C23.6972 86.5195 23.4806 87.0056 23.0278 87.1806C22.725 87.2973 22.3917 87.2445 22.15 87.0667C22.0306 86.9806 21.9361 86.8639 21.875 86.7222ZM18.5417 87.675L18.0139 85.8639C17.8861 85.4195 18.1611 84.9611 18.6333 84.8389C19.1056 84.7167 19.5917 84.9778 19.7194 85.4223L20.2472 87.2361C20.375 87.6806 20.1 88.1389 19.6278 88.2611C19.3472 88.3334 19.0611 88.2723 18.85 88.1139C18.7056 88.0056 18.5944 87.8556 18.5417 87.675ZM15.2444 88.4639L14.8972 87.0139C14.7917 86.5639 15.0889 86.1167 15.5667 86.0167C16.0444 85.9167 16.5167 86.2 16.625 86.6473L16.9722 88.0973C17.0778 88.5473 16.7806 88.9945 16.3028 89.0945C16.0333 89.1528 15.7667 89.0861 15.5639 88.9389C15.4083 88.825 15.2944 88.6611 15.2444 88.4639ZM45.6667 97.2445C45.6639 97.575 45.2806 98.1223 43.4389 98.6639C42.1444 99.0473 35.9944 98.9834 33.9306 98.9723C31.8667 98.9584 19.1167 99.0639 16.8306 99.0139C14.5472 98.9639 12.0222 98.6111 8.62222 97.5C5.06667 96.3361 3.92222 94.5722 3.75555 94.1778C4.71111 94.7334 6.03889 95.1695 7.64167 95.4445C8.88333 95.6584 10.8944 95.9028 13.1389 96.1C15.3861 96.2973 18.3778 96.0861 20.2944 95.8778C22.2139 95.6695 27.8806 94.25 31.0528 93.8667C34.225 93.4834 38.8028 93.5861 40.0194 93.5917C41.2361 93.6 42.8833 93.7556 43.5806 94.125C44.2778 94.4945 45.2361 94.4278 45.2361 94.4278C45.9389 94.4361 45.675 96.4389 45.6667 97.2445Z" fill="#CCD6DD"/>
<path d="M4.10001 91.4055C5.15001 92.1472 7.99167 92.2861 10.4389 91.5555C13.4917 90.6444 13.8945 89.2639 13.4472 87.9361C13.4167 87.8444 13.3278 87.6778 13.275 87.5944C12.5778 87.8778 11.4278 88.2583 11.1945 88.3722C9.45001 89.0444 7.09445 89.7055 5.61667 90.2889C4.9139 90.5611 4.42778 90.9666 4.10001 91.4055Z" fill="#DD2E44"/>
</svg>
