<svg width="100" height="86" viewBox="0 0 100 86" fill="none" xmlns="http://www.w3.org/2000/svg">
<path d="M45.6333 84.2528C47.0276 85.2285 48.7523 85.6104 50.4282 85.3145C52.104 85.0187 53.5936 84.0692 54.5694 82.675C54.7374 82.4361 54.8565 82.1664 54.9199 81.8814C54.9833 81.5963 54.9898 81.3016 54.9389 81.014C54.8881 80.7265 54.7809 80.4518 54.6236 80.2058C54.4663 79.9598 54.2619 79.7473 54.0222 79.5805L48.8833 74.1666L60.6111 82.375C61.0591 82.6898 61.5647 82.913 62.0992 83.0319C62.6336 83.1508 63.1863 83.1629 63.7254 83.0677C64.2645 82.9725 64.7796 82.7717 65.2409 82.4769C65.7023 82.1822 66.1009 81.7992 66.4139 81.35C66.7276 80.9017 66.95 80.3959 67.0682 79.8617C67.1865 79.3275 67.1984 78.7751 67.1032 78.2363C67.008 77.6975 66.8076 77.1826 66.5135 76.7212C66.2194 76.2599 65.8372 75.8609 65.3889 75.5472L55.4 66.3666L70.3306 76.8194C70.7785 77.1342 71.2842 77.3575 71.8186 77.4763C72.353 77.5952 72.9057 77.6074 73.4448 77.5121C73.984 77.4169 74.499 77.2161 74.9604 76.9214C75.4217 76.6266 75.8204 76.2436 76.1333 75.7944C76.4471 75.3461 76.6694 74.8404 76.7877 74.3061C76.9059 73.7719 76.9178 73.2196 76.8226 72.6807C76.7275 72.1419 76.5271 71.6271 76.2329 71.1657C75.9388 70.7043 75.5567 70.3054 75.1083 69.9916L61.8694 58.6778L78.1583 70.0805C78.6063 70.3953 79.112 70.6186 79.6464 70.7374C80.1808 70.8563 80.7335 70.8685 81.2726 70.7733C81.8118 70.678 82.3268 70.4773 82.7882 70.1825C83.2495 69.8877 83.6481 69.5047 83.9611 69.0555C84.2748 68.6072 84.4972 68.1015 84.6154 67.5673C84.7337 67.033 84.7456 66.4807 84.6504 65.9419C84.5552 65.403 84.3549 64.8882 84.0607 64.4268C83.7666 63.9654 83.3844 63.5665 82.9361 63.2528L13.1472 31.0944L3.51667 46.4305C2.43611 48.0972 2.73056 50.3555 4.28334 51.6833L25.9111 70.2139C26.8972 71.0583 27.9222 71.8555 28.9861 72.6L45.6333 84.2528Z" fill="#EF9645"/>
<path d="M82.7833 60.4222L51.3889 37.7805L51.225 37.5583L51.3722 37.3361L51.5194 37.1889L53.8917 38.4916C56.5528 40.2139 62.6333 42.7583 67.2417 42.7583C70.3944 42.7583 72.2833 41.5778 72.8472 39.2666C73.0187 38.245 72.7781 37.1972 72.1783 36.3526C71.5784 35.5081 70.6683 34.9357 69.6472 34.7611C66.8598 34.3451 64.2011 33.3095 61.8667 31.7305L60.325 30.6944C58.5917 29.525 56.6278 28.2 55.1778 27.3444C53.3722 26.25 51.4083 25.7194 49.1694 25.7194C45.8472 25.7194 42.4722 26.8916 39.2111 28.025L35.6944 29.2361C34.1769 29.7474 32.5847 30.0018 30.9833 29.9889C26.6944 29.9889 22.4972 28.3611 18.4389 26.7889L18.0306 26.6278C17.1953 26.3079 16.2749 26.2882 15.4267 26.5719C14.5785 26.8556 13.8552 27.4253 13.3806 28.1833L3.75 43.525C3.25969 44.2895 3.06193 45.2054 3.19309 46.1042C3.32426 47.0029 3.77552 47.8241 4.46389 48.4166L26.0889 66.95C27.0667 67.7861 28.0944 68.5833 29.1444 69.3166L46.2694 81.3055C46.8671 81.7243 47.5414 82.0211 48.2538 82.1792C48.9662 82.3373 49.7028 82.3534 50.4214 82.2268C51.1401 82.1001 51.8268 81.8331 52.4422 81.441C53.0577 81.0489 53.5898 80.5394 54.0083 79.9416C54.345 79.4581 54.4768 78.8611 54.3748 78.2808C54.2728 77.7005 53.9453 77.1841 53.4639 76.8444L48.3722 73.2805C48.2391 73.1869 48.1269 73.0668 48.0426 72.9276C47.9582 72.7885 47.9037 72.6334 47.8823 72.4721C47.8609 72.3108 47.8731 72.1468 47.9182 71.9905C47.9634 71.8342 48.0404 71.6889 48.1444 71.5639C48.3329 71.3378 48.5995 71.1908 48.8913 71.1522C49.1831 71.1136 49.4787 71.1862 49.7194 71.3555L60.7722 79.0916C61.6172 79.6832 62.6626 79.9149 63.6785 79.7357C64.6943 79.5565 65.5973 78.9811 66.1889 78.1361C66.7805 77.2911 67.0121 76.2457 66.8329 75.2299C66.6537 74.214 66.0783 73.311 65.2333 72.7194L54.8889 65.4805C54.7558 65.3869 54.6436 65.2668 54.5592 65.1276C54.4749 64.9885 54.4203 64.8334 54.3989 64.6721C54.3775 64.5108 54.3898 64.3468 54.4349 64.1905C54.48 64.0342 54.557 63.8889 54.6611 63.7639C54.8499 63.5383 55.1165 63.3918 55.4081 63.3532C55.6997 63.3146 55.9952 63.3868 56.2361 63.5555L70.4917 73.5361C70.9101 73.829 71.3821 74.0367 71.8807 74.1472C72.3794 74.2577 72.8949 74.2689 73.3979 74.1801C73.9009 74.0914 74.3815 73.9045 74.8122 73.63C75.243 73.3556 75.6154 72.9989 75.9083 72.5805C76.2013 72.1621 76.4089 71.6901 76.5194 71.1915C76.6299 70.6928 76.6411 70.1773 76.5524 69.6743C76.4637 69.1713 76.2767 68.6907 76.0023 68.26C75.7278 67.8293 75.3712 67.4568 74.9528 67.1639L61.4306 57.7C61.2963 57.6073 61.183 57.4874 61.0979 57.3482C61.0129 57.2089 60.958 57.0534 60.9368 56.8916C60.9156 56.7298 60.9285 56.5654 60.9748 56.409C61.0211 56.2525 61.0997 56.1075 61.2056 55.9833C61.3742 55.7821 61.6123 55.6517 61.8726 55.6177C62.1329 55.5837 62.3965 55.6488 62.6111 55.8L78.3222 66.7972C78.7408 67.0901 79.213 67.2977 79.7118 67.4082C80.2106 67.5186 80.7263 67.5297 81.2294 67.4408C81.7326 67.352 82.2132 67.1649 82.6441 66.8903C83.0749 66.6156 83.4474 66.2588 83.7403 65.8403C84.0332 65.4217 84.2408 64.9495 84.3512 64.4507C84.4617 63.9518 84.4728 63.4362 84.3839 62.933C84.2951 62.4299 84.108 61.9492 83.8333 61.5184C83.5587 61.0876 83.2019 60.7151 82.7833 60.4222Z" fill="#FFDC5D"/>
<path d="M45.9333 77.5806C45.7389 78.3223 45.3583 78.9639 44.8528 79.4723L42.0639 82.2389C41.5531 82.7557 40.9155 83.1292 40.215 83.3223C39.5145 83.5153 38.7756 83.5211 38.0722 83.3389C37.3621 83.154 36.7134 82.7849 36.1917 82.2688C35.67 81.7527 35.2939 81.108 35.1013 80.3999C34.9088 79.6918 34.9067 78.9454 35.0952 78.2362C35.2838 77.527 35.6562 76.8802 36.175 76.3611L38.9639 73.5945C39.4747 73.0777 40.1122 72.7041 40.8127 72.5111C41.5132 72.3181 42.2521 72.3123 42.9556 72.4945C44.0242 72.7752 44.9379 73.4683 45.4961 74.4218C46.0544 75.3753 46.2116 76.5113 45.9333 77.5806ZM16.6444 63.9111L20.8194 59.7528C21.2968 59.276 21.6513 58.6905 21.8523 58.0464C22.0534 57.4024 22.0951 56.7192 21.9738 56.0555C21.8524 55.3918 21.5718 54.7675 21.1559 54.2362C20.74 53.705 20.2013 53.2827 19.5861 53.0056C18.8155 52.659 17.9574 52.5557 17.1266 52.7096C16.2957 52.8635 15.5315 53.2671 14.9361 53.8667L10.7611 58.025C10.2838 58.502 9.92952 59.0878 9.72865 59.7319C9.52778 60.3761 9.48637 61.0594 9.60796 61.7231C9.72956 62.3868 10.0105 63.0111 10.4267 63.5422C10.8429 64.0734 11.3818 64.4955 11.9972 64.7723C12.7676 65.1178 13.625 65.2205 14.4552 65.0667C15.2854 64.9129 16.049 64.5098 16.6444 63.9111ZM31.1 64.0556C31.509 63.6737 31.8369 63.2134 32.0642 62.7021C32.2914 62.1908 32.4133 61.6389 32.4227 61.0795C32.432 60.52 32.3286 59.9644 32.1185 59.4458C31.9085 58.9271 31.5961 58.4561 31.2001 58.0609C30.804 57.6656 30.3325 57.3541 29.8134 57.145C29.2944 56.936 28.7386 56.8336 28.1792 56.844C27.6197 56.8544 27.0681 56.9773 26.5572 57.2055C26.0463 57.4338 25.5866 57.7625 25.2056 58.1722L16.8667 66.5C16.4577 66.8819 16.1298 67.3422 15.9025 67.8535C15.6753 68.3648 15.5533 68.9167 15.544 69.4761C15.5347 70.0356 15.6381 70.5912 15.8482 71.1098C16.0582 71.6285 16.3706 72.0995 16.7666 72.4947C17.1626 72.89 17.6342 73.2015 18.1532 73.4106C18.6722 73.6196 19.2281 73.722 19.7875 73.7116C20.3469 73.7012 20.8986 73.5783 21.4095 73.3501C21.9203 73.1219 22.38 72.7931 22.7611 72.3834L31.1 64.0556ZM37.35 72.3889C37.9123 71.8254 38.3015 71.1126 38.4713 70.3349C38.6412 69.5571 38.5847 68.747 38.3086 68.0003C38.0324 67.2537 37.5481 66.6018 36.9131 66.1217C36.278 65.6417 35.5187 65.3537 34.725 65.2917C34.1257 65.2465 33.5238 65.3324 32.961 65.5434C32.3983 65.7545 31.8884 66.0857 31.4667 66.5139L25.8972 72.0556C25.334 72.619 24.9441 73.332 24.7738 74.1102C24.6034 74.8884 24.6596 75.6991 24.9359 76.4463C25.2121 77.1934 25.6968 77.8458 26.3324 78.326C26.968 78.8062 27.728 79.0941 28.5222 79.1556C29.7861 79.2556 30.95 78.7639 31.7806 77.9334L37.35 72.3889ZM83.3361 60.8973L85.0778 59.3917L65.875 29.2528L31.7917 34.7667C31.2496 34.8582 30.7309 35.0557 30.2651 35.3477C29.7993 35.6397 29.3956 36.0206 29.0771 36.4687C28.7585 36.9167 28.5313 37.4231 28.4085 37.959C28.2856 38.4948 28.2695 39.0496 28.3611 39.5917C30.1889 47.0778 45.0361 41.5167 51.5694 37.9223L83.3361 60.8973Z" fill="#EF9645"/>
<path d="M45.9333 74.8028C45.7389 75.5445 45.3583 76.1861 44.8528 76.6945L42.0639 79.4611C41.5531 79.9779 40.9155 80.3514 40.215 80.5445C39.5145 80.7375 38.7756 80.7433 38.0722 80.5611C37.3621 80.3762 36.7134 80.0071 36.1917 79.491C35.67 78.9749 35.2939 78.3302 35.1013 77.6221C34.9088 76.914 34.9067 76.1676 35.0952 75.4584C35.2838 74.7492 35.6562 74.1024 36.175 73.5833L38.9639 70.8167C39.4747 70.2999 40.1122 69.9264 40.8127 69.7333C41.5132 69.5403 42.2521 69.5345 42.9556 69.7167C44.0242 69.9974 44.9379 70.6905 45.4961 71.644C46.0544 72.5975 46.2116 73.7335 45.9333 74.8028ZM16.6444 61.1333L20.8194 56.975C21.2968 56.4982 21.6513 55.9127 21.8523 55.2686C22.0534 54.6246 22.0951 53.9414 21.9738 53.2777C21.8524 52.614 21.5718 51.9897 21.1559 51.4584C20.74 50.9272 20.2013 50.5049 19.5861 50.2278C18.8153 49.882 17.9575 49.7792 17.1268 49.933C16.2961 50.0868 15.532 50.49 14.9361 51.0889L10.7611 55.2472C10.2838 55.7242 9.92952 56.31 9.72865 56.9541C9.52778 57.5983 9.48637 58.2816 9.60796 58.9453C9.72956 59.6091 10.0105 60.2333 10.4267 60.7644C10.8429 61.2956 11.3818 61.7177 11.9972 61.9945C12.7676 62.34 13.625 62.4428 14.4552 62.2889C15.2854 62.1351 16.049 61.732 16.6444 61.1333ZM31.1 61.2778C31.509 60.8959 31.8369 60.4356 32.0642 59.9243C32.2914 59.413 32.4133 58.8611 32.4227 58.3017C32.432 57.7422 32.3286 57.1866 32.1185 56.668C31.9085 56.1494 31.5961 55.6784 31.2001 55.2831C30.804 54.8878 30.3325 54.5763 29.8134 54.3672C29.2944 54.1582 28.7386 54.0558 28.1792 54.0662C27.6197 54.0766 27.0681 54.1995 26.5572 54.4278C26.0463 54.656 25.5866 54.9847 25.2056 55.3945L16.8667 63.7222C16.4577 64.1041 16.1298 64.5644 15.9025 65.0757C15.6753 65.587 15.5533 66.1389 15.544 66.6984C15.5347 67.2578 15.6381 67.8134 15.8482 68.3321C16.0582 68.8507 16.3706 69.3217 16.7666 69.717C17.1626 70.1122 17.6342 70.4237 18.1532 70.6328C18.6722 70.8419 19.2281 70.9442 19.7875 70.9338C20.3469 70.9235 20.8986 70.8005 21.4095 70.5723C21.9203 70.3441 22.38 70.0153 22.7611 69.6056L31.1 61.2778ZM37.35 69.6111C37.9123 69.0476 38.3015 68.3348 38.4713 67.5571C38.6412 66.7793 38.5847 65.9692 38.3086 65.2225C38.0324 64.4759 37.5481 63.824 36.9131 63.3439C36.278 62.8639 35.5187 62.5759 34.725 62.5139C34.1257 62.4687 33.5238 62.5546 32.961 62.7657C32.3983 62.9767 31.8884 63.3079 31.4667 63.7361L25.8972 69.2778C25.334 69.8412 24.9441 70.5542 24.7738 71.3324C24.6034 72.1106 24.6596 72.9213 24.9359 73.6685C25.2121 74.4157 25.6968 75.068 26.3324 75.5482C26.968 76.0284 27.728 76.3163 28.5222 76.3778C29.7861 76.4778 30.95 75.9861 31.7806 75.1556L37.35 69.6111ZM97.2305 48.9C97.966 48.2643 98.4467 47.3841 98.5841 46.4218C98.7214 45.4595 98.506 44.4799 97.9778 43.6639L97.9694 43.65L88.3389 25.5361C87.8304 24.7236 87.0552 24.113 86.1462 23.809C85.2371 23.5049 84.2506 23.5263 83.3556 23.8695C77.8222 26.0111 71.7611 28.4722 65.8778 26.4722L62.8278 25.425C57.4167 23.55 51.5333 21.3528 46.1611 24.6083C44.2306 25.7445 41.3333 27.7556 39.4639 28.9972C37.1543 30.5397 34.536 31.5597 31.7917 31.9861C31.2488 32.0759 30.729 32.2723 30.2623 32.5638C29.7956 32.8553 29.3912 33.2363 29.0723 33.6847C28.7535 34.1332 28.5265 34.6403 28.4044 35.1769C28.2824 35.7135 28.2676 36.2689 28.3611 36.8111C30.0639 43.7889 43.0833 39.3333 50.1333 35.7861C50.5734 35.5652 51.0657 35.4693 51.5565 35.509C52.0473 35.5487 52.5178 35.7224 52.9167 36.0111L85.0944 59.3889L97.2305 48.9Z" fill="#FFCC4D"/>
</svg>
