<svg width="100" height="93" viewBox="0 0 100 93" fill="none" xmlns="http://www.w3.org/2000/svg">
<path d="M92.4722 23.9666C92.4028 23.9444 68.0528 16.6666 59.7194 13.8889C56.3861 12.7778 1.38611 -5.55558 1.38611 58.3333C1.38611 60.1027 6.94166 88.8889 12.4972 88.8889H43.0528C66.3167 88.8889 58.725 59.2222 87.275 55.2611C92.1055 54.5916 94.5555 52.1722 94.125 48.1333C93.6667 43.8305 88.6389 42.4139 84.3083 42.4139C81.125 42.4139 68.325 43.0611 59.2361 47.8333C58.4417 42.8083 56.9417 36.6861 56.9417 30.5528C70.8306 33.3305 87.7528 37.0333 88.0778 37.1416C91.7167 38.3472 95.65 36.3889 96.8611 32.7472C98.0778 29.1111 96.1111 25.1805 92.4722 23.9666Z" fill="#FFDC5D"/>
<path d="M53.3528 20.2584C52.2722 19.1722 50.5111 19.1695 49.425 20.2556C48.3389 21.3389 48.3361 23.0972 49.4222 24.1861C49.4694 24.2334 54.1556 29.0111 54.1556 36.1111V55.8584C54.1556 58.225 52.7639 59.0639 51.4611 59.0639C50.0833 59.0639 48.6139 58.1417 48.6139 55.5528V49.9972C48.6139 39.5334 47.7722 28.4139 41.5222 25.2889C40.1472 24.6028 38.4806 25.1611 37.7944 26.5306C37.1083 27.9028 37.6639 29.5722 39.0361 30.2584C40.8695 31.175 43.0556 35.3445 43.0556 49.9945V52.7611C43.0556 52.7611 43.0444 55.5417 43.0444 61.4111C43.0444 63.7778 41.6528 64.6167 40.35 64.6167C38.9722 64.6167 37.5028 63.6945 37.5028 61.1056V55.55C37.5028 45.0861 36.6611 33.9667 30.4111 30.8417C29.0361 30.1528 27.3694 30.7139 26.6833 32.0834C25.9972 33.4556 26.5528 35.125 27.925 35.8111C29.7583 36.7278 31.9444 40.8972 31.9444 55.5472V61.1028C31.9444 61.1611 31.9583 61.2111 31.9583 61.2695C31.9556 61.3167 31.9306 61.3584 31.9306 61.4056C31.9306 63.7723 30.5389 64.6111 29.2361 64.6111C27.8583 64.6222 26.3889 63.7 26.3889 61.1111C26.3889 51.6834 26.3889 39.95 19.2972 36.4028C17.9222 35.7139 16.2556 36.275 15.5694 37.6445C14.8833 39.0167 15.4389 40.6861 16.8111 41.3722C20.8333 43.3834 20.8333 54.4806 20.8333 61.1111C20.8333 67.0639 25.0611 70.1778 29.2361 70.1778C31.2417 70.1778 33.25 69.4472 34.7889 68.0417C36.3444 69.4445 38.3472 70.1778 40.3472 70.1778C43.7806 70.1778 47.2167 68.0417 48.2528 63.9778C49.275 64.3972 50.3667 64.6222 51.4583 64.6222C55.5583 64.6222 59.7083 61.6139 59.7083 55.8611V36.1111C59.7083 26.7361 53.6139 20.5195 53.3528 20.2584Z" fill="#EF9645"/>
</svg>
