<svg width="100" height="100" viewBox="0 0 100 100" fill="none" xmlns="http://www.w3.org/2000/svg">
<path d="M53.1944 96.5778C60.8944 93.2695 65.9 86.5306 68.8722 80.0333C73.5195 69.875 89.9333 65.675 94.0111 62.7806C99.6722 58.7639 94.4722 50.6333 86.0556 51.9778C76.9861 53.4278 74.7972 57.375 69.3306 59.7667C66.5417 60.9833 64.5722 60.5917 64.2 55.4444C63.9278 51.6694 68.8 22.0083 70.2833 8.33334C70.7917 3.65278 68.8417 0.986115 65.075 0.483338C60.8083 -0.0861068 58.6 2.23612 57.6972 6.51112C55.4472 17.1556 51.8806 38.0222 50.3833 39.2C42.3389 44.2472 31.6139 50.85 22.0278 38.025C22.0278 38.025 17.4417 13.9667 16.7278 9.11112C15.4917 0.70556 4.14167 2.22223 5.07223 10.9861C5.94445 19.2417 8.65278 38.7222 6.28056 45.6417C4.19723 51.7222 0.51945 72.5917 8.62223 85.3C16.6167 97.8389 37.9556 103.125 53.1944 96.5778Z" fill="#FFDC5D"/>
<path d="M24.5389 62.8167C26.9417 74.3611 40.8889 73.0639 40.0083 62.0667C39.2944 53.1222 36.5778 37.4945 35.6944 33.5889C33.8944 25.5972 19.975 27.3722 21.1139 36.8083C21.8528 42.9333 22.6694 53.8306 24.5389 62.8167Z" fill="#EF9645"/>
<path d="M27.1056 61.6417C29.3139 71.2222 39.4083 68.5583 38.8944 59.6028C38.3805 50.6444 36.3083 36.9944 35.675 33.0389C34.1917 23.8 22.325 27.9583 23.2889 34.7639C24.2528 41.5694 25.4583 54.4972 27.1056 61.6417Z" fill="#FFDC5D"/>
<path d="M35.3611 65.3334C35.5528 79.0639 50.8639 78.3167 52.0639 68.0389C53.1056 59.1278 50.9 39.4834 50.7361 35.4778C50.4278 28.025 36.8056 27.9723 36.3583 36.4361C35.9972 43.3028 35.2583 58.0028 35.3611 65.3334Z" fill="#EF9645"/>
<path d="M37.9639 65.7389C37.5722 74.2778 49.1139 75.2444 49.95 66.3139C50.7889 57.3833 50.5889 38.2889 50.5222 34.2861C50.4083 27.3194 38.7611 27.5666 38.4333 36.1222C38.1722 42.9889 38.2972 58.4139 37.9639 65.7389Z" fill="#FFDC5D"/>
</svg>
