<svg width="100" height="100" viewBox="0 0 100 100" fill="none" xmlns="http://www.w3.org/2000/svg">
<g clip-path="url(#clip0_353_52)">
<mask id="mask0_353_52" style="mask-type:luminance" maskUnits="userSpaceOnUse" x="0" y="0" width="100" height="100">
<path d="M100 0H0V100H100V0Z" fill="white"/>
</mask>
<g mask="url(#mask0_353_52)">
<path d="M89.9306 45.0528C86.0944 43.3556 80.6139 45.6306 76.7361 51.1306C74.1889 54.7417 73.4389 59.8834 70.0944 60.4195C68.8167 60.625 68.1222 59.8473 67.7611 58.7278C67.3806 56.8389 67.4639 53.9195 68.1694 49.8361L75.7806 15.6278C76.3861 13.0139 74.9667 10.4834 71.55 9.65836C68.1333 8.83336 65.5639 10.5084 64.9556 13.1223L58.1611 44.1389C56.7917 50.9889 54.2528 49.7445 54.8667 41.9861L56.8139 5.6167C56.9722 2.80559 54.8111 0.508364 51.6167 0.386142C48.4222 0.263919 46.1194 2.18059 45.9556 4.98892L44.1 42.2361C43.7028 49.7556 41.0111 46.9223 40.4278 41.475L36.1111 11.3417C35.6694 8.50003 33.0056 6.53614 29.8111 7.04725C26.6167 7.56114 24.6861 10.2028 25.1278 13.0445L29.2806 40.5834C30.9278 51.0973 28.775 54.0084 25.2306 42.5917L20.8028 25.8556C20.0806 23.1695 17.4333 21.5028 14.1083 22.4361C10.7833 23.3695 9.35002 26.0445 10.0694 28.7306L14.3972 44.4611C16.2056 55.7861 16.2056 60.2556 16.2056 68.0528C16.2056 75.85 19.7917 100 47.2222 100C74.6528 100 80.2944 72.1361 80.5556 70.3723C80.5556 70.3723 80.8972 66.2611 83.7667 62.4139C87.8472 56.9445 90.7111 53.6473 92.4472 51.675C93.3278 50.6778 94.1833 46.9334 89.9306 45.0528Z" fill="#FFDC5D"/>
<path d="M69.1972 60.3917C68.3639 60.0528 67.6583 59.1805 67.575 57.2833C62.3195 58.0028 55.2111 59.475 49.7417 64.825C42.6417 71.7667 41.4306 79.2694 41.4889 84.2889C41.5361 88.3361 43.7445 90.2528 44.3917 84.2555C45.2056 76.6805 50.7306 61.6361 69.1972 60.3917Z" fill="#FFAC33"/>
</g>
</g>
<defs>
<clipPath id="clip0_353_52">
<rect width="100" height="100" fill="white"/>
</clipPath>
</defs>
</svg>
