<svg width="93" height="100" viewBox="0 0 93 100" fill="none" xmlns="http://www.w3.org/2000/svg">
<path d="M55.6528 51.6C49.1611 51.6 30.9056 50.1528 24.4139 53.4C17.9222 56.6472 8.18612 66.3833 8.18612 69.6278C8.18612 72.8722 7.79723 82.1333 7.79723 88.625C7.79723 96.2694 21.0917 98.7778 36.925 99.4611C52.4444 100.131 72.4694 96.6444 81.7889 92.6667C87.2778 90.3222 91.3361 86.8167 91.7361 70.75C92.0806 56.9833 85.6778 20.0805 84.8611 16.7333C81.6694 3.64999 77.7194 11.9667 77.6917 11.8833C76.275 7.63054 71.6806 5.33332 67.4278 6.75277C63.175 8.16943 60.8861 12.7639 62.2944 17.0167C62.4222 17.3972 66.7472 37.1722 69.9944 53.4C71.7806 62.1528 70.4778 66.9389 61.1611 66.6222C49.8167 66.2361 51.3167 59.1639 55.6528 51.6Z" fill="#EF9645"/>
<path d="M47.0722 63.2917C47.0722 63.2917 56.9611 71.8528 63.1056 69.9223C69.25 67.9917 78.8583 19.35 70.0722 8.68893C63.8611 1.15004 52.8694 5.84171 54.725 15.6195C55.4028 19.1945 58.2278 29.5917 61.0361 40.125C61.5306 41.9806 60.4528 49.6 60.3056 52.8C59.8694 62.375 47.0722 63.2917 47.0722 63.2917Z" fill="#EF9645"/>
<path d="M48.2111 63.7555C48.2111 63.7555 63.3889 72.3028 69.0694 69.4028C74.75 66.5028 77.7556 22.6694 71.0611 10.7889C65.5833 1.06943 54.8389 6.29999 56.7056 15.1194C57.6278 19.4861 61.275 29.7972 63.1417 39.1305C63.6361 41.6055 63.0167 47.7944 62.3806 52.4C61.0833 61.7917 48.2111 63.7555 48.2111 63.7555Z" fill="#F9CA55"/>
<path d="M51.8417 64.0084C51.8417 64.0084 61.7306 72.2528 67.875 70.1611C74.0194 68.0695 83.6833 16.2806 74.8972 4.72503C68.6861 -3.44719 58.0639 2.72781 59.9222 12.275C60.5583 15.5417 64 25.0611 66.2333 38.0167C66.8528 41.6056 65.7389 47.4223 65.0778 52.6361C63.7722 62.9445 51.8417 64.0084 51.8417 64.0084Z" fill="#EF9645"/>
<path d="M53.1472 64.5694C53.1472 64.5694 68.1611 72.7444 73.8417 69.6028C79.5222 66.4611 82.5833 19.3333 75.8889 6.45832C70.4111 -4.07501 60.0389 3.4611 61.9028 13.0167C62.8806 18.0278 66.3861 27.7528 68.3389 37.3972C68.8389 39.8611 68.0917 47.6694 67.225 53.3639C65.6806 63.5167 53.1472 64.5694 53.1472 64.5694Z" fill="#F9CA55"/>
<path d="M84.5611 12.3361C82.0222 0.497199 73.125 0.463866 69.0361 5.50553C64.6667 10.8916 68.0667 26.6444 70.1972 36.4111C74.6528 56.8305 67.35 65.2472 53.6139 65.7416C46.3611 66.0028 74.725 72.3166 81.6889 70.2666C88.65 68.2166 87.5194 39.7083 87.3472 35.3278C87.2167 32.0833 84.5611 12.3361 84.5611 12.3361Z" fill="#EF9645"/>
<path d="M84.2611 12.8278C81.0361 0.849991 73.1722 1.21388 69.8861 7.50555C67.7972 11.5028 69.3944 20.8083 71.5417 34.6833C74.8417 56.0055 72.2972 66.7472 56.1361 68.5278C48.9222 69.3222 67.8056 77.4083 74.2778 74.1278C80.7528 70.8472 90.2806 67.7305 90.6167 64.5028C91.1167 59.7139 89.6278 33.0667 88.8833 30.3444C85.9833 19.7111 84.2611 12.8278 84.2611 12.8278Z" fill="#F9CA55"/>
<path d="M56.15 50.7333C49.6583 50.7333 30.9083 50.1528 24.4167 53.4C17.925 56.6472 8.56667 66.4055 8.18889 69.6278C7.925 71.8722 8.24167 80.2667 8.91667 89.3278C9.48611 96.95 20.8472 97.4194 36.6778 98.1028C52.1972 98.7722 70.9167 95.0611 80.2361 91.0833C85.725 88.7389 90.0444 86.0889 90.4472 70.0222C90.7917 56.2555 90.1305 52.3805 89.0111 49.1222C85.5305 39 77.7222 11.9667 77.6917 11.8833C76.275 7.63054 71.6806 5.33332 67.4278 6.75277C63.175 8.16943 60.7611 13.4555 61.6555 17.8444C62.3778 21.3944 64.1306 23.7861 68.8333 37.15C69.3139 38.3861 70.1944 48.1639 70.5667 56.9528C70.825 63.0444 64.7305 65.5583 59.7167 66.3167C49.3278 67.8917 51.8111 58.2972 56.15 50.7333Z" fill="#EF9645"/>
<path d="M8.18611 69.6305C8.18611 72.875 42.9167 62.7194 48.0583 59.8C61.1278 52.3805 62.4889 26.4833 62.4889 21.425C62.4889 16.3666 60.8361 10.4916 55.8083 9.95553C51.0889 9.45275 48.2639 12.3139 47.4806 17.9583C42.8528 51.3139 8.18611 42.4444 8.18611 69.6305Z" fill="#EF9645"/>
<path d="M89.4139 48.35C88.7278 42.1361 87.525 33.4389 86.6583 31.4584C84.1667 25.7611 77.7167 11.9278 77.6944 11.8834C75.3972 7.32502 72.3889 6.15558 68.1361 7.57225C63.8833 8.98891 62.2306 14.5695 64.1972 19.7C65.5167 23.1445 70.6083 34.3584 71.2305 36.5334C71.7083 37.9695 73.2444 49.8361 73.0472 58.8695C72.9222 64.5639 65.4361 67.6556 60.9333 67.7861C48.5361 68.1472 48.7805 60.1389 53.1194 52.5778L53.9889 51.0084C60.1 40.4222 60.7139 26.25 60.7139 22.4222C60.7139 17.3611 60.3417 13.1222 55.5972 11.3667C51.1417 9.71669 48.2667 12.3111 47.4833 17.9556C42.8528 51.3139 8.18611 42.4445 8.18611 69.6306C7.92222 71.875 8.36389 76.15 9.03889 85.2084C9.60833 92.8306 21.1861 95.25 37.0194 95.9334C52.5389 96.6028 70.9167 95.0611 80.2333 91.0834C85.7222 88.7389 90.0417 86.0889 90.4444 70.0222C90.7917 56.2556 89.7917 51.775 89.4139 48.35Z" fill="#FFDC5D"/>
</svg>
