<svg width="100" height="100" viewBox="0 0 100 100" fill="none" xmlns="http://www.w3.org/2000/svg">
<path d="M23.7583 95.6972C30.6281 95.6972 36.1972 90.1282 36.1972 83.2583C36.1972 76.3885 30.6281 70.8195 23.7583 70.8195C16.8885 70.8195 11.3194 76.3885 11.3194 83.2583C11.3194 90.1282 16.8885 95.6972 23.7583 95.6972Z" fill="#66757F"/>
<path d="M29.1167 95.6972C43.8111 101.253 76.3389 98.475 84.6722 92.9194C93.0056 87.3639 100.389 81.6583 98.5611 70.6972C95.7833 54.0305 73.5611 51.2528 59.6722 54.0305C46.0528 56.7555 34.6722 65.1416 31.8944 70.6972C30.1389 74.2111 31.8944 79.0305 31.8944 84.5861C31.8944 92.9194 26.5167 94.7139 29.1167 95.6972Z" fill="#CCD6DD"/>
<path d="M84.6722 92.9194C93.0056 87.3639 100.389 81.6583 98.5611 70.6972L98.5472 70.6417C91.3 74.7889 79.5917 80.1833 64.3556 82.7806C51.5806 84.9583 39.5278 85.1722 31.8778 84.9972C31.7 92.9667 26.5639 94.7333 29.1167 95.6972C43.8111 101.253 76.3389 98.475 84.6722 92.9194Z" fill="#99AAB5"/>
<path d="M23.5806 33.9139C27.2931 33.9139 30.3028 30.9042 30.3028 27.1916C30.3028 23.4791 27.2931 20.4694 23.5806 20.4694C19.868 20.4694 16.8583 23.4791 16.8583 27.1916C16.8583 30.9042 19.868 33.9139 23.5806 33.9139Z" fill="#66757F"/>
<path d="M6.93056 86.975C-3.975 71.3944 2.91111 51.725 8.55833 39.0667C12.8889 29.3583 16.9611 26.0222 16.9611 26.0222L29.6194 31.6694C29.6194 31.6694 24.8306 44.5722 26.3083 54.55C27.8667 65.0667 29.7167 73.9278 24.6528 83.275C19.5889 92.6222 9.65556 90.8694 6.93056 86.975Z" fill="#99AAB5"/>
<path d="M22.0889 28.3111L29.6194 31.6722C29.6194 31.6722 24.8306 44.575 26.3083 54.5528C27.8667 65.0694 29.7167 73.9305 24.6528 83.2778C22.5583 87.1444 19.6306 89.1111 16.7222 89.8139C4.4 62.6305 22.0889 28.3111 22.0889 28.3111Z" fill="#CCD6DD"/>
<path d="M17.5444 22.7111C18.7139 16.0889 28.2556 0.705571 31.5667 1.2889C34.8778 1.87224 50.8444 8.10557 53.5722 12C56.3 15.8945 50.65 28.5528 47.3389 27.9695C44.0278 27.3861 45.1972 20.7639 45.1972 20.7639C45.1972 20.7639 45.7806 17.4528 41.8861 20.1806L34.0972 25.6333C30.2028 28.3611 17.5444 22.7111 17.5444 22.7111Z" fill="#99AAB5"/>
<path d="M17.5444 22.7111C14.8194 18.8167 16.5722 8.88333 17.1556 5.57499C17.7389 2.26388 24.3611 3.43333 23.1917 10.0555C22.025 16.675 25.3333 17.2611 25.3333 17.2611L17.5444 22.7111Z" fill="#99AAB5"/>
<path d="M17.5444 22.7111C18.7139 16.0889 28.2556 0.705571 31.5667 1.2889C34.8778 1.87224 50.8444 8.10557 53.5722 12C37.6028 5.76668 31.9556 18.425 30.8167 26.3722C25.5778 26.2972 17.5444 22.7111 17.5444 22.7111Z" fill="#CCD6DD"/>
</svg>
