<svg width="92" height="100" viewBox="0 0 92 100" fill="none" xmlns="http://www.w3.org/2000/svg">
<path d="M48.9445 8.23607C45.1083 8.23607 42 11.3444 42 15.1805V15.1944L35.0556 1.29163C31.2195 1.29163 28.1111 4.39996 28.1111 8.23607V11.8055L21.1667 7.54163C17.3306 7.54163 14.2222 10.65 14.2222 14.4861V24.3055L11.4445 50H49.0611L48.9445 8.23607Z" fill="#EF9645"/>
<path d="M79.1528 45.0528C75.3167 43.3556 69.8361 45.6306 65.9583 51.1306C63.4111 54.7417 62.6611 59.8833 59.3167 60.4194C58.0389 60.6222 55.8889 59.55 55.8889 56.5389V12.5C55.8889 12.5 55.8889 6.94444 50.3333 6.94444C44.7778 6.94444 44.7778 12.5 44.7778 12.5V44.8139C44.7778 44.7333 42 44.6361 42 44.5861V5.55556C42 5.55556 42 0 36.4444 0C30.8889 0 30.8889 5.55556 30.8889 5.55556V44.5917C30.8889 44.6389 28.1111 44.7056 28.1111 44.7833V11.8056C28.1111 11.8056 28.1111 6.25 22.5556 6.25C17 6.25 17 11.8056 17 11.8056V46.9111C17 47.2389 14.2222 47.6083 14.2222 48.0167V24.3056C14.2222 24.3056 14.2222 18.75 8.66667 18.75C3.11111 18.75 3.11111 24.3056 3.11111 24.3056V66.6667C3.11111 85.075 18.0361 100 36.4444 100C49.7083 100 58.8333 92.7833 63.9333 85.3C68.2583 78.9528 69.5139 72.3611 69.7778 70.3694C69.7778 70.3694 70.1195 66.2611 72.9889 62.4111C77.0695 56.9417 79.9333 53.6444 81.6694 51.6722C82.55 50.6778 83.4056 46.9333 79.1528 45.0528Z" fill="#FFDC5D"/>
<path d="M57.1083 59.6417C56.2833 58.9028 56.075 58.1083 55.95 57.3972C50.6945 58.1167 43.5695 59.5889 38.0972 64.9389C30.9972 71.8806 29.7861 79.3833 29.8445 84.4028C29.8917 88.45 32.1 90.3667 32.7472 84.3694C33.5583 76.8528 39.0083 61.9722 57.1472 60.5361C57.225 60.5305 58.2222 60.4694 58.7889 60.4389C58.7889 60.4389 57.8111 60.2722 57.1083 59.6417Z" fill="#EF9645"/>
</svg>
