<svg width="100" height="75" viewBox="0 0 100 75" fill="none" xmlns="http://www.w3.org/2000/svg">
<path d="M55.9583 75.0316C55.9583 75.0316 49.1917 74.5677 47.4361 70.0538C45.6417 65.4455 49.1639 63.6399 49.1639 63.6399C49.1639 63.6399 43.8472 63.8038 41.8806 58.2482C40.025 53.0121 44.5417 50.6093 44.5417 50.6093C44.5417 50.6093 39.3444 49.7566 37.8278 44.2427C36.55 39.601 41.0667 36.1427 41.0667 36.1427H7.15556C4.49167 36.1427 0.00278279 34.6371 5.01248e-06 29.0788C-0.00555054 23.5232 4.60834 22.2538 7.15556 22.2538H64.1C66.8778 22.2538 66.8778 19.476 64.1 19.476H56.6944C46.1611 19.476 39.6306 13.8149 37.8278 11.8343C36.0222 9.85379 35.1056 7.20379 35.7889 4.00101C36.9417 -1.43232 41.1222 -0.246213 44.6694 1.29268C53.2194 5.00657 65.4028 7.55379 71.1639 8.32879C87.4361 10.526 99.9833 24.4649 100 41.3399C100.011 59.7455 85.2833 75.0177 66.8778 75.0316H55.9583Z" fill="#FFE277"/>
</svg>
