<svg width="83" height="100" viewBox="0 0 83 100" fill="none" xmlns="http://www.w3.org/2000/svg">
<path d="M56.2278 51.425L55.1944 49.9777L42.2611 31.8583L48.5944 31.8416L50.0222 28.0472V11.6666H44L42.2556 14.9027L32.25 16.5444C30.5472 18.0027 29.8083 20.3861 30.6222 22.6194L35.4028 35.75V43.7555L30.0417 50.5583C29.8111 50.6444 28.3194 51.4277 27.8944 51.7805L27.4444 52.1611L17.4139 41.1777C15.1444 42.1889 13.5556 44.4583 13.5556 47.1027V49.7694L2.44444 61.3416L2.48889 67.4194L30.2222 97.2222C30.2222 97.2222 59.4389 54.7555 59.5083 54.8389C58.7139 53.4389 57.5944 52.2666 56.2278 51.425Z" fill="#EF9645"/>
<path d="M8.17223 69.4445C11.0167 69.4445 13.5194 67.9834 14.9778 65.7723C15.3194 66.2806 15.7306 66.7334 16.175 67.1528C19.4667 70.25 24.6028 70.0528 27.75 66.9139C28.1722 66.4917 28.5917 66.0667 28.9139 65.5584L28.9056 65.55C29.4639 65.8695 30.2222 66.6667 33 66.6667H40.0472C39.0194 67.4417 38.0806 68.3973 37.2028 69.4445C33.7917 73.5195 31.6111 79.4611 31.6111 86.1111C31.6111 86.8778 32.2333 87.5 33 87.5C33.7667 87.5 34.3889 86.8778 34.3889 86.1111C34.3889 79.0334 37.0444 72.8473 40.9917 69.4445C43.025 67.6917 45.3917 66.6667 47.9306 66.6667C49.9111 66.8861 50.2833 63.8889 48.2778 63.8889H33C29.9333 63.8889 27.4444 61.4 27.4444 58.3334C27.4444 55.2667 29.9333 52.7778 33 52.7778H55.2222C57.6056 52.7778 59.8333 54.4334 60.5361 56.7084L63.5556 66.6667C63.8417 67.5973 64.8861 71.8639 64.6972 72.7528C64.6972 86.1111 51.6528 100 35.7778 100C17.6194 100 2.87778 85.4695 2.48334 67.4056L2.52223 67.4334C3.95278 68.6695 5.78889 69.4445 7.82778 69.4445H8.17223ZM33 50C31.0472 50 30.0389 50.5611 30.0389 50.5611L35.4028 35.7528L40.5861 50H33Z" fill="#FFDC5D"/>
<path d="M7.76667 44.4444H8.23333C11.175 44.4444 13.5556 46.8277 13.5556 49.7694V61.3416C13.5556 64.2833 11.175 66.6666 8.23333 66.6666H7.76667C4.825 66.6666 2.44444 64.2833 2.44444 61.3416V49.7694C2.44444 46.8277 4.825 44.4444 7.76667 44.4444ZM26.9833 52.6666L26.8278 52.8389C25.5111 54.3083 24.6667 56.2027 24.6667 58.3333C24.6667 58.5083 24.7028 58.675 24.7167 58.8472C24.8389 60.7305 25.5722 62.4361 26.7389 63.775C26.5417 64.1333 26.2861 64.45 26.0194 64.7555C25.0028 65.9139 23.5472 66.6666 21.8889 66.6666C18.8222 66.6666 16.3333 64.1778 16.3333 61.1111V44.4444C16.3333 43.2194 16.7417 42.0972 17.4139 41.1778C18.425 39.7972 20.0444 38.8889 21.8889 38.8889C24.9556 38.8889 27.4444 41.3777 27.4444 44.4444V52.1611C27.275 52.3139 27.1417 52.5027 26.9833 52.6666ZM44.7389 10.2972C45.975 7.78886 48.9083 6.54719 51.5944 7.52497C54.4778 8.57219 55.9639 11.7611 54.9139 14.6444L50.0222 28.0361L50.0194 28.0444L44 11.6666L44.7389 10.2972ZM55.225 50L48.5917 31.8416L42.8417 16.0416C42.6917 15.6277 42.4861 15.2555 42.2556 14.9027C40.875 12.7944 38.1889 11.8222 35.7194 12.7222C33.9361 13.3722 32.6944 14.8389 32.2472 16.5444C31.9722 17.5972 31.9972 18.7416 32.4 19.8416L43.3694 50H55.225Z" fill="#FFDC5D"/>
</svg>
