<svg width="100" height="100" viewBox="0 0 100 100" fill="none" xmlns="http://www.w3.org/2000/svg">
<g clip-path="url(#clip0_353_76)">
<mask id="mask0_353_76" style="mask-type:luminance" maskUnits="userSpaceOnUse" x="0" y="0" width="100" height="100">
<path d="M100 0H0V100H100V0Z" fill="white"/>
</mask>
<g mask="url(#mask0_353_76)">
<path d="M58.8577 95.319C58.8577 95.319 65.4258 93.0583 66.2773 87.8822C67.1755 82.5357 63.0374 81.4631 63.0374 81.4631C63.0374 81.4631 68.4423 80.319 69.1225 73.8943C69.7612 67.8383 64.6521 66.3971 64.6521 66.3971C64.6521 66.3971 69.6885 64.1969 69.9273 57.9317C70.1246 52.6567 64.7612 50.077 64.7612 50.077C64.7612 50.077 90.919 43.3608 93.6084 42.7007C96.2878 42.0406 100.462 39.3179 99.1589 33.3828C97.8663 27.4422 92.9075 27.2332 90.3478 27.8658C87.783 28.4983 55.3323 36.4797 44.1381 39.2408L36.6666 41.0781C33.8629 41.7767 32.5908 40.473 34.569 38.2617C37.2066 35.3135 38.8941 32.0516 39.4808 26.6392C40.0987 20.9461 38.2762 13.9164 37.2326 11.1881C35.2907 6.12207 32.0146 2.11767 28.2295 0.742533C22.326 -1.40268 18.1308 2.50822 20.2232 9.32889C23.3593 19.5269 21.3032 27.8932 15.8982 32.9427C3.18277 44.8075 -2.73103 53.2673 1.20458 71.2981C5.50365 90.9625 23.9304 103.62 42.4922 99.0653L58.8577 95.319Z" fill="#FFE277"/>
</g>
</g>
<defs>
<clipPath id="clip0_353_76">
<rect width="100" height="100" fill="white"/>
</clipPath>
</defs>
</svg>
