<svg width="100" height="96" viewBox="0 0 100 96" fill="none" xmlns="http://www.w3.org/2000/svg">
<path d="M91.5056 31.2333C91.3917 29.5416 90.7167 27.9555 89.6333 26.6666L88.6417 20.9527C87.5972 15.3805 82.4417 11.5472 76.8028 12.1499L11.8305 22.5277C6.60277 23.0888 2.52499 27.3138 2.14999 32.5583L7.04166 63.5222C7.88888 69.5472 13.0167 74.0444 19.1 74.1138C20.9805 74.1361 22.5389 74.1611 23.1639 74.1888L49.5056 75.4749C48.4972 76.8166 47.2222 78.4749 47.2222 80.2472V80.3916C47.2222 84.7833 52.1417 88.8916 56.5361 88.8916H76.7639C78.875 88.8916 80.8972 87.7805 82.3889 86.2861L94.6778 73.8638C96.2972 72.2416 97.1417 69.9305 96.9889 67.6416L91.5056 31.2333Z" fill="#FFDC5D"/>
<path d="M22.825 73.9527C21.5083 73.9527 20.3389 73.0138 20.0944 71.6722L14.3722 40.1944C14.0972 38.6861 15.1 37.2388 16.6083 36.9638C18.125 36.6944 19.5639 37.6916 19.8389 39.1999L25.5611 70.6777C25.8361 72.1861 24.8333 73.6305 23.325 73.9055C23.1555 73.9388 22.9889 73.9527 22.825 73.9527ZM39.9944 73.9527C38.5583 73.9527 37.3417 72.8472 37.2278 71.3888L34.3667 34.1861C34.2472 32.6555 35.3944 31.3222 36.9222 31.2027C38.4472 31.0805 39.7861 32.2333 39.9055 33.7583L42.7667 70.9583C42.8861 72.4888 41.7389 73.8249 40.2111 73.9416C40.1389 73.9499 40.0639 73.9527 39.9944 73.9527ZM60.0139 77.0249C58.6028 77.0249 57.9111 77.0222 57.3722 74.0749L57.25 74.0666C57.2528 73.9138 57.2694 73.7666 57.2972 73.6194C56.8139 70.6527 56.4389 65.0944 55.7389 54.6833C55.0861 44.9888 54.3889 33.7055 54.3889 31.1138C54.3889 29.5805 55.6305 28.3361 57.1667 28.3361C58.7028 28.3361 59.9444 29.5805 59.9444 31.1138C59.9444 35.3722 62.1528 68.1249 62.6694 73.1833C62.7583 73.4527 62.8056 73.7388 62.8056 74.0388C62.8056 74.7777 62.5056 75.5861 61.9861 76.1055C61.4667 76.6249 60.7528 77.0249 60.0139 77.0249Z" fill="#EF9645"/>
<path d="M69.9389 79.6777H51.4444C49.9111 79.6777 48.6667 78.4361 48.6667 76.9C48.6667 75.3638 49.9111 74.1222 51.4444 74.1222H69.9389C73.9889 74.1222 77.2833 70.8277 77.2833 66.7777V31.1138C77.2833 29.5805 78.525 28.3361 80.0611 28.3361C81.5972 28.3361 82.8389 29.5805 82.8389 31.1138V66.7777C82.8361 73.8916 77.05 79.6777 69.9389 79.6777Z" fill="#EF9645"/>
</svg>
