<svg width="139" height="122" viewBox="0 0 139 122" fill="none" xmlns="http://www.w3.org/2000/svg">
<g clip-path="url(#clip0_353_45)">
<mask id="mask0_353_45" style="mask-type:luminance" maskUnits="userSpaceOnUse" x="0" y="0" width="139" height="139">
<path d="M138.16 53.9811L53.9811 0L-5.81741e-05 84.1786L84.1785 138.16L138.16 53.9811Z" fill="white"/>
</mask>
<g mask="url(#mask0_353_45)">
<path d="M85.7787 30.1748C89.0079 32.2456 89.9466 36.5401 87.8758 39.7693L87.8683 39.781L101.219 31.8265C104.448 33.8973 105.387 38.1917 103.316 41.4209L101.389 44.4256L109.537 44.585C112.766 46.6558 113.704 50.9503 111.634 54.1795L106.333 62.4453L94.8011 85.574L63.1359 65.2681L85.7787 30.1748Z" fill="#FFAC33"/>
<path d="M40.4757 44.8599C44.6211 45.502 48.0065 50.3755 48.3018 57.0986C48.4967 61.5134 46.3525 66.2465 48.8784 68.5031C49.8446 69.3636 52.2332 69.6216 53.8586 67.0869L77.6313 30.0156C77.6313 30.0156 80.6303 25.339 85.3069 28.3379C89.9834 31.3369 86.9845 36.0135 86.9845 36.0135L69.5411 63.2148C69.5846 63.147 71.9754 64.5647 72.0023 64.5226L93.0715 31.6672C93.0715 31.6672 96.0704 26.9906 100.747 29.9896C105.424 32.9885 102.425 37.6651 102.425 37.6651L81.3525 70.5252C81.327 70.5649 83.6293 72.1205 83.5874 72.186L101.389 44.4258C101.389 44.4258 104.388 39.7492 109.065 42.7481C113.741 45.7471 110.742 50.4237 110.742 50.4237L91.7919 79.975C91.615 80.2509 93.7539 82.0614 93.5334 82.4051L106.333 62.4455C106.333 62.4455 109.332 57.7689 114.009 60.7678C118.685 63.7668 115.686 68.4434 115.686 68.4434L92.8191 104.102C82.8821 119.598 62.2618 124.105 46.7659 114.168C35.6005 107.008 31.8149 96.0075 31.5614 86.9551C31.3469 79.2774 33.8491 73.0547 34.6998 71.2342C34.6998 71.2342 36.6299 67.5914 36.2927 62.8016C35.8102 55.9948 35.1793 51.6733 34.7825 49.0759C34.5796 47.7611 35.8807 44.1473 40.4757 44.8599Z" fill="#FFDC5D"/>
</g>
</g>
<defs>
<clipPath id="clip0_353_45">
<rect width="139" height="122" fill="white"/>
</clipPath>
</defs>
</svg>
