<svg width="89" height="100" viewBox="0 0 89 100" fill="none" xmlns="http://www.w3.org/2000/svg">
<path d="M64.4889 58.1583L59.7083 39.1028L48.7444 14.6139C47.35 11.0111 49.1417 6.95834 52.7444 5.56668C56.3444 4.16112 60.4 5.9639 61.7944 9.56668L79.025 53.3695L64.4889 58.1583Z" fill="#EF9645"/>
<path d="M87.6806 51.2472C86.325 44.0777 82.1583 33.1277 82.1583 33.1277L66.0833 3.99161C64.3444 0.541606 60.1333 -0.841727 56.6861 0.894384C53.2361 2.63327 51.8472 6.84161 53.5889 10.2916L68.3944 36.8111C68.4306 36.8722 72.3194 52.0638 72.3194 52.0638C69.325 49.2999 65.0778 45.5111 61.1667 42.0138C52.5611 34.3138 47.4556 31.4277 47.4556 31.4277C45.4833 30.1972 44.1806 30.0222 41.5333 31.2638L25.2222 38.3972C24.7861 38.6138 24.4167 38.9194 24.125 39.3111L17.7 47.8833C15.2194 50.8472 15.6111 55.2583 18.575 57.7361C21.5361 60.2166 25.9444 59.8194 28.4306 56.8638C28.5639 56.7027 33.375 49.7527 33.8083 49.5305C36.6889 48.0499 42.0444 45.5111 44.3861 45.5861C46.8778 45.6666 61.8333 62.1333 61.8333 62.1333C62.4056 62.8527 62.4722 63.8499 62 64.6388L53.9028 79.1611C53.6833 79.5249 53.3667 79.8166 52.9861 80.0027L45.5583 84.1694C45.1305 84.3777 44.6472 84.4444 44.1806 84.3555L29.5417 78.0444C28.8139 77.7305 28.2083 77.1555 27.8972 76.4249C25.7111 71.2861 25.4028 66.3722 25.4 66.3166C25.2194 62.4555 21.9444 59.4749 18.0833 59.6555C14.2306 59.8111 11.2417 63.1083 11.4222 66.9694C11.4583 67.6999 12.3972 82.6361 24.5528 92.7805C31.575 98.6361 40.2583 100.903 51.3556 99.411C64.1667 97.6916 72.1028 95.9861 83.3167 72.8611C86.4194 66.4583 88.6028 56.1277 87.6806 51.2472Z" fill="#FFDC5D"/>
</svg>
