<svg width="100" height="100" viewBox="0 0 100 100" fill="none" xmlns="http://www.w3.org/2000/svg">
<g clip-path="url(#clip0_357_175)">
<path d="M83.3333 61.1111C75 61.1111 64.7556 80.8166 63.8889 88.8889C62.7195 99.7639 69.4445 100 69.4445 100H100V72.2222C100 72.2222 90.45 61.1111 83.3333 61.1111Z" fill="#50A5E6"/>
<path d="M80.5324 81.4125C85.0182 73.6429 86.8905 66.3258 84.7143 65.0694C82.538 63.813 77.1374 69.0929 72.6516 76.8625C68.1658 84.6321 66.2936 91.9492 68.4698 93.2056C70.646 94.4621 76.0467 89.1821 80.5324 81.4125Z" fill="#1C6399"/>
<path d="M55.7945 0C59.075 0 61.7333 2.65833 61.7333 5.93889C61.7333 8.13056 63.5889 36.0056 63.5889 36.0056L49.8556 50V5.93889C49.8556 2.65833 52.5139 0 55.7945 0Z" fill="#F9CA55"/>
<path d="M52.4306 12.0083C52.4306 8.95556 54.7972 6.48334 57.7167 6.48334C60.6361 6.48334 63.0028 8.95834 63.0028 12.0083C63.0028 12.0083 64.4889 28.5139 66.3139 38.0361C68.7528 43.2194 70.1167 51.0417 69.8167 55.3917C69.9667 56.4972 85.4417 69.2972 85.4417 69.2972C84.6611 74.3333 79.1667 86.3944 72.2222 91.9611L62.4417 83.8389C54.4278 82.7167 50.0583 74.5861 50.0583 71.9944C50.0583 63.7056 52.4306 12.0083 52.4306 12.0083Z" fill="#FFDC5D"/>
<path d="M16.6667 61.1111C25 61.1111 35.2444 80.8166 36.1111 88.8889C37.2806 99.7639 30.5556 100 30.5556 100H0V72.2222C0 72.2222 9.55 61.1111 16.6667 61.1111Z" fill="#50A5E6"/>
<path d="M31.527 93.2014C33.7033 91.945 31.831 84.6279 27.3452 76.8583C22.8595 69.0887 17.4588 63.8088 15.2826 65.0652C13.1064 66.3217 14.9786 73.6387 19.4644 81.4083C23.9502 89.1779 29.3508 94.4579 31.527 93.2014Z" fill="#1C6399"/>
<path d="M44.6139 0.0305137C41.0972 -0.322264 38.1333 2.43051 38.1333 5.87218C38.1333 8.03885 37.6222 34.5361 37.6222 34.5361L49.7083 50L49.8806 6.20829C49.8806 3.13607 47.6722 0.336069 44.6139 0.0305137Z" fill="#F9CA55"/>
<path d="M47.5694 12.0083C47.5694 8.95556 45.2028 6.48334 42.2833 6.48334C39.3639 6.48334 36.9972 8.95834 36.9972 12.0083C36.9972 12.0083 35.5111 28.5139 33.6861 38.0361C31.2472 43.2194 29.8833 51.0417 30.1833 55.3917C30.0333 56.4972 14.5583 69.2972 14.5583 69.2972C15.3389 74.3333 20.8333 86.3944 27.7778 91.9611L37.5583 83.8389C45.5722 82.7167 49.9417 74.5861 49.9417 71.9944C49.9417 63.7056 47.5694 12.0083 47.5694 12.0083Z" fill="#FFDC5D"/>
<path d="M49.8833 71.7306C48.7333 71.7306 47.8 70.7972 47.8 69.6472V7.75557C47.8 6.60557 48.7333 5.67224 49.8833 5.67224C51.0333 5.67224 51.9667 6.60557 51.9667 7.75557V69.65C51.9694 70.7972 51.0361 71.7306 49.8833 71.7306Z" fill="#F9CA55"/>
</g>
<defs>
<clipPath id="clip0_357_175">
<rect width="100" height="100" fill="white"/>
</clipPath>
</defs>
</svg>
