<svg width="146" height="35" viewBox="0 0 146 35" fill="none" xmlns="http://www.w3.org/2000/svg">
<path d="M139.672 34.1111C137.978 34.1111 136.317 33.3444 135.222 31.8889C120.556 12.3278 101.55 11.9 100.744 11.8889C97.6889 11.8555 95.2222 9.35555 95.2389 6.30555C95.2555 3.24444 97.7222 0.777771 100.778 0.777771C101.8 0.777771 125.983 1.05555 144.111 25.2222C145.956 27.6778 145.456 31.1611 143 33C142 33.75 140.833 34.1111 139.672 34.1111ZM6.32777 34.1111C5.17222 34.1111 3.99999 33.75 2.99999 33C0.544438 31.1611 0.049992 27.6778 1.88888 25.2222C20.0111 1.05555 44.2 0.777771 45.2222 0.777771C48.2889 0.777771 50.7778 3.26666 50.7778 6.33333C50.7778 9.39444 48.3055 11.8778 45.2444 11.8889C44.3833 11.9 25.4222 12.3667 10.7778 31.8889C9.68888 33.3444 8.01666 34.1111 6.32777 34.1111Z" fill="#664500"/>
</svg>
