<svg width="120" height="120" viewBox="0 0 120 120" fill="none" xmlns="http://www.w3.org/2000/svg">
<g clip-path="url(#clip0_244_16)">
<path d="M111.327 78.9266C86.12 95.1766 44.4533 77.4666 50.0767 52.0533C55.0067 29.7733 81.4733 36.1766 87.4933 39.1833C93.5133 42.19 89.87 26.22 75.91 21.4266C57 14.9333 33.8533 16.31 26.5367 48.9266C21.5367 71.2166 31.33 102.467 68.9333 102.883C106.537 103.3 111.327 78.9266 111.327 78.9266Z" fill="#226699"/>
<path d="M119.96 83.9767C119.96 76.8234 110.78 76.1967 106.627 80.2467C96.6467 89.9767 81.9533 93.62 62.3 89.7834C28.1334 83.1167 27.83 43.07 51.19 31.6467C63.8267 25.4667 78.82 32.7834 84.52 37.1634C89.48 40.9734 98.9667 46.03 98.47 39.67C97.41 26.13 70.8734 -2.86665 35.3167 15.4667C-0.236641 33.8 2.55943e-05 75.1767 2.55943e-05 82.6767V106.843C2.55943e-05 114.207 6.04669 120 13.41 120H106.743C114.107 120 120 114.207 120 106.843C120 106.843 119.987 83.9967 119.96 83.9767Z" fill="#55ACEE"/>
</g>
<defs>
<clipPath id="clip0_244_16">
<rect width="120" height="120" fill="white"/>
</clipPath>
</defs>
</svg>
