<svg width="194" height="200" viewBox="0 0 194 200" fill="none" xmlns="http://www.w3.org/2000/svg">
<path d="M179.632 146.368L190.891 150.534C192.762 151.229 194 153.01 194 155C194 156.995 192.762 158.771 190.891 159.466L179.632 163.632L175.466 174.891C174.771 176.762 172.99 178 171 178C169.01 178 167.229 176.762 166.534 174.891L162.368 163.632L151.109 159.466C149.238 158.771 148 156.99 148 155C148 153.01 149.238 151.229 151.109 150.534L162.364 146.368L166.534 135.109C167.225 133.238 169.005 132 171 132C172.99 132 174.771 133.238 175.466 135.109L179.632 146.368Z" fill="#FEFA94"/>
<path d="M39.1956 160.804L53.1477 165.966C55.4662 166.828 57 169.034 57 171.5C57 173.972 55.4662 176.172 53.1477 177.034L39.1956 182.196L34.0336 196.148C33.1723 198.466 30.966 200 28.5 200C26.0341 200 23.8277 198.466 22.9664 196.148L17.8044 182.196L3.85231 177.034C1.53384 176.172 0 173.966 0 171.5C0 169.034 1.53384 166.828 3.85231 165.966L17.7985 160.804L22.9664 146.852C23.8218 144.534 26.0282 143 28.5 143C30.966 143 33.1723 144.534 34.0336 146.852L39.1956 160.804Z" fill="#FEFA94"/>
<path d="M162.946 19.0538L177.877 24.578C180.359 25.4998 182 27.861 182 30.5C182 33.1453 180.359 35.5002 177.877 36.422L162.946 41.9462L157.422 56.8774C156.5 59.3585 154.139 61 151.5 61C148.861 61 146.5 59.3585 145.578 56.8774L140.054 41.9462L125.123 36.422C122.641 35.5002 121 33.139 121 30.5C121 27.861 122.641 25.4998 125.123 24.578L140.048 19.0538L145.578 4.12264C146.493 1.64148 148.855 0 151.5 0C154.139 0 156.5 1.64148 157.422 4.12264L162.946 19.0538Z" fill="#FEFA94"/>
</svg>
