<svg width="100" height="100" viewBox="0 0 100 100" fill="none" xmlns="http://www.w3.org/2000/svg">
<path d="M10.1417 82.9222L83.1278 9.93334C84.2139 8.84723 91.15 15.7861 90.0639 16.8694L17.0778 89.8583C15.9944 90.9444 9.05555 84.0056 10.1417 82.9222Z" fill="#292F33"/>
<path d="M84.5611 11.2528L11.5167 84.2973L13.9694 86.75L87.0139 13.7056L84.5611 11.2528Z" fill="#66757F"/>
<path d="M95.9611 7.0472L94.8167 5.90275L92.9528 4.03886C92.7445 3.83053 92.4944 3.6972 92.2444 3.56942C91.2 3.03053 89.9 3.16386 89.025 4.03886L83.1861 9.87775L84.5611 11.2528L87.0139 13.7055L90.1222 16.8139L95.9611 10.975C97.0472 9.88886 97.0472 8.13053 95.9611 7.0472ZM13.9694 86.75L11.5167 84.2972L10.1417 82.9222L4.00555 89.0555C3.13055 89.9305 2.99722 91.2305 3.53611 92.275C3.66389 92.525 3.79722 92.775 4.00555 92.9833L5.86944 94.8472L7.01389 95.9916C8.1 97.0777 9.85833 97.0777 10.9417 95.9916L17.075 89.8583L13.9694 86.75Z" fill="#E1E8ED"/>
<path d="M87.0139 13.7056L94.8167 5.90279L92.9528 4.0389C92.7444 3.83057 92.4944 3.69724 92.2444 3.56946L84.5583 11.2556L87.0139 13.7056ZM11.5167 84.2972L3.53611 92.2778C3.66389 92.5278 3.79722 92.7778 4.00555 92.9861L5.86944 94.85L13.9694 86.75L11.5167 84.2972Z" fill="#F5F8FA"/>
<path d="M80.2694 41.425L84.5528 39.8389L86.2194 33.7277C86.4389 32.9222 87.1722 32.3639 88.0083 32.3639C88.8417 32.3639 89.575 32.9222 89.7944 33.7277L91.4611 39.8389L95.7444 41.425C96.4722 41.6916 96.9528 42.3861 96.9528 43.1611C96.9528 43.9361 96.4722 44.6305 95.7444 44.8972L91.4833 46.475L89.8028 53.1833C89.5972 54.0055 88.8556 54.5861 88.0083 54.5861C87.1583 54.5861 86.4167 54.0055 86.2111 53.1833L84.5306 46.475L80.2694 44.8972C79.5417 44.6305 79.0611 43.9361 79.0611 43.1611C79.0611 42.3889 79.5417 41.6944 80.2694 41.425ZM33.225 14.6805L40.475 11.9972L43.1583 4.74719C43.6028 3.54441 44.75 2.74719 46.0333 2.74719C47.3139 2.74719 48.4611 3.54441 48.9083 4.74719L51.5917 11.9972L58.8389 14.6805C60.0444 15.1277 60.8417 16.2722 60.8417 17.5555C60.8417 18.8389 60.0444 19.9833 58.8389 20.4305L51.5917 23.1139L48.9083 30.3639C48.4611 31.5666 47.3139 32.3639 46.0333 32.3639C44.75 32.3639 43.6028 31.5666 43.1583 30.3639L40.475 23.1139L33.225 20.4305C32.0222 19.9833 31.225 18.8389 31.225 17.5555C31.2278 16.2722 32.025 15.1277 33.225 14.6805ZM67.0278 57.7L70.8694 56.2778L72.2917 52.4389C72.5278 51.8028 73.1361 51.3805 73.8139 51.3805C74.4917 51.3805 75.1 51.8028 75.3361 52.4389L76.7583 56.2778L80.5972 57.7C81.2361 57.9361 81.6583 58.5444 81.6583 59.2222C81.6583 59.9027 81.2361 60.5083 80.5972 60.7444L76.7583 62.1666L75.3361 66.0055C75.1 66.6416 74.4917 67.0639 73.8139 67.0639C73.1333 67.0639 72.5278 66.6416 72.2917 66.0055L70.8694 62.1666L67.0278 60.7444C66.3917 60.5083 65.9694 59.9 65.9694 59.2222C65.9694 58.5416 66.3917 57.9361 67.0278 57.7Z" fill="#FFED8D"/>
</svg>
