<svg width="83" height="100" viewBox="0 0 83 100" fill="none" xmlns="http://www.w3.org/2000/svg">
<path d="M36.6667 70.4389C36.3528 70.4389 36.0639 70.4472 35.7778 70.4528V69.3C49.125 67.9694 59.5222 57.4555 59.5222 49.0194C59.5222 39.9944 59.5222 53.1028 32.9611 53.1028C6.4111 53.1028 6.4111 39.9944 6.4111 49.0194C6.4111 57.4722 16.8472 68.0139 30.2222 69.3111V70.4528C29.9333 70.4472 29.6472 70.4389 29.3305 70.4389C22.2389 70.4389 10.9889 64.7444 10.9889 66.7722C10.9889 68.5667 22.6194 77.9306 30.2222 80.0944V97.2222C30.2222 98.7583 31.4639 100 33 100C34.5361 100 35.7778 98.7583 35.7778 97.2222V80.0944C43.3833 77.9306 55.0111 68.5667 55.0111 66.7722C55.0111 64.7472 43.7611 70.4389 36.6667 70.4389Z" fill="#3E721D"/>
<path d="M56.6861 20.425C45.8889 8.16944 60.8695 4.08611 49.4861 4.08611C47.5056 4.08611 44.15 5.30833 40.3472 7.38889C38.4195 3.02222 35.8417 0 33 0C27.3056 0 22.65 12.0611 22.2417 22.9694C19.1639 27.2556 17.0889 31.9556 17.0889 36.7639C17.0889 53.6861 24.2861 61.2722 35.0861 61.2722C56.6861 61.275 72.9861 38.9194 56.6861 20.425Z" fill="#A0041E"/>
<path d="M48.9111 36.7639C48.9111 53.6861 41.7167 61.2722 30.9111 61.2722C9.31111 61.2722 -6.98611 38.9167 9.31111 20.4222C20.1139 8.16666 5.13055 4.08333 16.5111 4.08333C23.7139 4.08611 48.9111 19.8444 48.9111 36.7639Z" fill="#BE1931"/>
</svg>
