<svg width="84" height="100" viewBox="0 0 84 100" fill="none" xmlns="http://www.w3.org/2000/svg">
<path d="M47.2805 13.0972C47.2805 13.0972 31.4722 -6.73612 17.6805 2.82777C7.44999 9.92221 7.49443 22.9055 8.50277 29.1555C9.53332 35.5389 12.6833 50.0694 14.5972 62.2528C16.5139 74.4639 17.8694 85.3889 19.8583 98.1194C20.3611 101.339 31.1583 99.5667 30.8694 96.4167C30.3778 91.0167 25.8111 71.5139 24.6 62.9444C23.475 54.9861 20.8055 39.5528 19.2417 30.5861C17.5222 20.7361 18.4667 12.0417 25.2083 10.0583C32.95 7.78333 40.6278 20.7111 40.6278 20.7111L47.2805 13.0972Z" fill="#78B159"/>
<path d="M20.3361 45.625C20.3361 45.625 25.0861 47.4083 28.3111 50.6333C32.5778 54.9 35.175 63.2472 31.8361 72.7083C29.7833 78.5222 34.8056 86.8028 34.8056 86.8028C34.8056 86.8028 29.2139 83.8111 25.7167 79.3833C22.1639 74.8889 19.8278 68.7361 19.3361 63.6972C19.0111 60.3722 18.8528 53.7861 20.3361 45.625Z" fill="#C6E4B5"/>
<path d="M12.5444 38.825C10.3611 39.8333 4.23056 47.7083 3.53889 52.0694C0.658339 70.2638 11.5361 82.1388 11.5361 82.1388C11.5361 82.1388 13.4472 71.075 16.4278 67.0805C19.8861 62.4416 17.9417 51.3111 16.4278 47.2166C15.3417 44.2888 12.5444 38.825 12.5444 38.825Z" fill="#A6D388"/>
<path d="M52.7083 22.9389C50.525 25.9028 45.55 25.9444 41.6 23.0305C37.6472 20.1194 36.2167 15.3555 38.4028 12.3916C40.5833 9.42775 45.5583 9.38609 49.5111 12.3C53.4639 15.2111 54.8917 19.975 52.7083 22.9389Z" fill="#78B159"/>
<path d="M56.7917 14.9167C59.1389 18.475 57.0889 23.9584 52.2222 27.1667C47.3556 30.3723 41.5056 30.0889 39.1639 26.5306C36.8222 22.975 38.8695 17.4917 43.7361 14.2834C48.6056 11.075 54.4472 11.3584 56.7917 14.9167Z" fill="#78B159"/>
<path d="M41.5278 22.6223C39.1 25.8111 33.4806 26.7223 33.4806 26.7223C33.4806 26.7223 38.1889 30.2139 41.0722 28.2389C43.9556 26.2667 41.5278 22.6223 41.5278 22.6223ZM48.6139 13.5111C48.4611 11.2334 52.2583 7.13614 54.0778 8.19725C54.0778 8.19725 51.65 10.9306 53.9278 12.6C56.2028 14.2695 48.6139 13.5111 48.6139 13.5111Z" fill="#78B159"/>
<path d="M43.0278 24.075C38.0528 26.7362 33.5861 33.0528 35.9167 45.1667C37.9333 55.65 46.8 59.9473 43.8472 66.9334C41.1083 73.4195 46.1305 83.8695 52.8139 68.0223C54.9111 63.0556 60.625 42.2473 54.9528 29.5167C51.5361 21.8584 45.3555 22.8278 43.0278 24.075Z" fill="#DA2F47"/>
<path d="M48.8722 19.6666C52.5445 14.2972 57.8861 13.625 61.4861 17.0389C78.2472 32.9389 71.3306 64.1166 60.0417 70.8361C53.3667 74.8083 57.6889 50.8111 48.6833 41.0028C43.3917 35.2333 43.2417 26.3555 48.8722 19.6666Z" fill="#E75A70"/>
</svg>
