<svg width="190" height="59" viewBox="0 0 190 59" fill="none" xmlns="http://www.w3.org/2000/svg">
<path fill-rule="evenodd" clip-rule="evenodd" d="M1.88889 11.2111C3.22222 12.5389 9.87778 16.5278 11.2056 20.5167C12.5389 24.5 15.2056 47.0944 23.1944 53.7444C31.4333 60.5889 62.5111 58.0444 68.4611 55.0778C81.7778 48.4389 83.4111 29.9055 85.7667 20.5167C87.0944 15.2 95.0833 15.2 95.0833 15.2C95.0833 15.2 103.072 15.2 104.406 20.5111C106.761 29.9055 108.406 48.4389 121.711 55.0722C127.667 58.0444 158.744 60.5944 166.994 53.75C174.972 47.1 177.633 24.5055 178.967 20.5167C180.289 16.5333 186.956 12.5444 188.283 11.2167C189.622 9.88888 189.622 4.57222 188.283 3.23888C185.622 0.583328 154.206 -1.78334 120.378 1.9111C113.628 2.64999 111.061 4.56666 95.0778 4.56666C79.1055 4.56666 76.5278 2.64444 69.7833 1.9111C35.9778 -1.7889 4.55555 0.57777 1.88889 3.23333C0.561111 4.5611 0.561111 9.88332 1.88889 11.2111Z" fill="#292F33"/>
</svg>
