<svg width="77" height="80" viewBox="0 0 77 80" fill="none" xmlns="http://www.w3.org/2000/svg">
<path d="M70.8845 53.1956C69.5556 38.4889 62.2222 31.1111 62.2222 31.1111L48.8889 13.3333H31.1111L17.7778 31.1111C17.7778 31.1111 14.6245 34.2956 12.0733 40.6111C7.65335 42.0778 4.44446 46.1978 4.44446 51.1111C4.44446 54.3289 5.83335 57.2044 8.02001 59.2333C7.18446 60.7933 6.66668 62.5489 6.66668 64.4444C6.66668 68.7956 9.19112 72.5245 12.8333 74.3467C15.6845 78.6178 19.4933 80 22.2222 80H57.7778C60.8422 80 65.2733 78.2689 68.1733 72.6444C72.4645 71.1089 75.5556 67.0444 75.5556 62.2222C75.5556 58.4933 73.7022 55.2133 70.8845 53.1956ZM40 13.3333C41.2222 13.3333 42.3511 12.9822 43.3333 12.4089C44.3178 12.9822 45.4467 13.3333 46.6667 13.3333C50.3489 13.3333 55.5556 8.12444 55.5556 4.44444C55.5556 4.44444 55.5556 0 51.1111 0C49.36 0 48.8889 2.22222 46.6667 2.22222C44.4445 2.22222 44.4445 0 40 0C35.5556 0 35.5556 2.22222 33.3333 2.22222C31.1111 2.22222 30.6422 0 28.8889 0C24.4445 0 24.4445 4.44444 24.4445 4.44444C24.4445 8.12444 29.6533 13.3333 33.3333 13.3333C34.5533 13.3333 35.6822 12.9822 36.6667 12.4089C37.6511 12.9822 38.78 13.3333 40 13.3333Z" fill="#FFE4A9"/>
<path d="M53.3333 13.3333C53.3333 14.56 52.34 15.5555 51.1111 15.5555H28.8889C27.6622 15.5555 26.6667 14.56 26.6667 13.3333C26.6667 12.1066 27.6622 11.1111 28.8889 11.1111H51.1111C52.34 11.1111 53.3333 12.1066 53.3333 13.3333Z" fill="#BF6952"/>
<path d="M53.1133 54.5378C53.1133 44.5889 34.0444 45.2378 34.0444 39.2356C34.0444 36.3289 36.9355 34.9089 40.2911 34.9089C45.9311 34.9089 46.9355 38.3956 49.4889 38.3956C51.2955 38.3956 52.1667 37.3 52.1667 36.0711C52.1667 33.2178 47.6689 31.0578 43.3555 30.3111V27.5556C43.3555 25.8378 41.9111 24.4445 40.1244 24.4445C38.3355 24.4445 36.8889 25.8378 36.8889 27.5556V30.4067C32.1867 31.4356 28.14 34.5733 28.14 39.6867C28.14 49.24 47.2044 48.8533 47.2044 55.5645C47.2044 57.8911 44.5867 60.2156 40.2911 60.2156C33.8444 60.2156 31.6978 56.0178 29.08 56.0178C27.8044 56.0178 26.6644 57.0489 26.6644 58.6045C26.6644 61.0778 30.9711 64.0511 36.8933 64.88L36.8911 64.9022V68.0089C36.8911 69.7245 38.34 71.12 40.1266 71.12C41.9133 71.12 43.36 69.7245 43.36 68.0089V64.9022C43.36 64.8645 43.3422 64.8356 43.34 64.8022C48.6689 63.8467 53.1133 60.5089 53.1133 54.5378Z" fill="#67757F"/>
</svg>
