<svg width="189" height="67" viewBox="0 0 189 67" fill="none" xmlns="http://www.w3.org/2000/svg">
<path d="M187.378 9.48328C186.428 8.56106 180.339 11.0055 174.178 7.86662C161.467 1.38884 129.344 -4.86116 108.433 9.9555C106.194 11.5388 96.8389 11.8055 94.2222 11.6944C91.6056 11.8111 82.25 11.5444 80.0111 9.9555C59.1056 -4.86116 26.9833 1.38884 14.2722 7.86662C8.11112 11.0055 2.02224 8.56106 1.07224 9.48328C-0.299987 10.8111 -0.299987 16.1277 1.07779 17.4611C2.44446 18.7888 9.28335 20.3222 10.6445 24.3055C12.0167 28.2944 12.0278 51.8499 22.9389 59.9944C33.1556 67.6166 56.9889 69.9111 72.0945 61.3166C85.2722 53.8222 84.8111 38.0444 87.2278 28.6444C88.0889 25.2944 90.5167 23.6055 94.2278 23.6055C97.9389 23.6055 100.367 25.2944 101.228 28.6444C103.644 38.0388 103.178 53.8222 116.361 61.3166C131.467 69.9055 155.3 67.6111 165.511 59.9944C176.428 51.8555 176.439 28.2944 177.806 24.3055C179.167 20.3222 186.006 18.7833 187.372 17.4611C188.75 16.1277 188.756 10.8111 187.378 9.48328ZM75.1889 29.7611C74.7611 35.9 73.6667 47.6888 66.3167 51.8722C61.8111 54.4388 55.9389 55.9999 49.7945 55.9999H49.7889C42.9833 55.9999 33.55 54.0722 29.8611 51.3222C25.25 47.8833 23.4945 33.7277 22.8333 28.4333C22.4111 25.0611 21.2778 16.8222 24.9889 15.5555C30.8778 13.5499 39.0945 11.9833 47.5 11.9833C51.35 11.9833 64.2833 12.2222 70.5833 16.0999C76.1667 19.5277 75.4278 26.3833 75.1889 29.7611ZM165.622 28.3555C164.961 33.6555 163.206 47.8833 158.594 51.3222C154.906 54.0722 145.472 55.9999 138.667 55.9999H138.661C132.511 55.9999 126.644 54.4388 122.133 51.8722C114.783 47.6944 113.689 35.9777 113.261 29.8388C113.028 26.4611 112.283 19.5555 117.867 16.1277C124.172 12.2499 137.1 11.9833 140.95 11.9833C149.356 11.9833 157.567 13.5222 163.461 15.5277C167.172 16.7944 166.044 24.9833 165.622 28.3555Z" fill="#292F33"/>
</svg>
