<svg width="65" height="77" viewBox="0 0 65 77" fill="none" xmlns="http://www.w3.org/2000/svg">
<path d="M37.7778 57C34.0955 57 31.1111 54.0156 31.1111 50.3333V41.4445C31.1111 37.7622 34.0955 34.7778 37.7778 34.7778C39.1178 34.7645 51.1111 32.5556 51.1111 23.6667C51.1111 19.2222 46.6667 14.7778 40 14.7778C34.5755 14.7778 31.1111 19.2222 31.1111 21.4445C31.1111 25.1267 28.1267 28.1111 24.4444 28.1111C20.7622 28.1111 17.7778 25.1267 17.7778 21.4445C17.7778 10.6045 27.9555 1.44446 40 1.44446C57.7778 1.44446 64.4444 14.7378 64.4444 25.8889C64.4444 35.1 59.3844 42.14 50.1933 45.7111C48.1933 46.4911 46.2156 47.0156 44.4444 47.3711V50.3333C44.4444 54.0156 41.46 57 37.7778 57Z" fill="#E3111E"/>
<path d="M37.7778 74.7778C41.4596 74.7778 44.4444 71.793 44.4444 68.1111C44.4444 64.4292 41.4596 61.4445 37.7778 61.4445C34.0959 61.4445 31.1111 64.4292 31.1111 68.1111C31.1111 71.793 34.0959 74.7778 37.7778 74.7778Z" fill="#E3111E"/>
</svg>
