<svg width="100" height="100" viewBox="0 0 100 100" fill="none" xmlns="http://www.w3.org/2000/svg">
<path d="M18.5194 83.3889L19.85 82.0583C30.8778 80.575 41.9917 85.3083 48.6528 94.175V95.8722C48.6528 96.6167 49.2556 97.2222 50.0028 97.2222C50.7472 97.2222 51.3528 96.6194 51.3528 95.8722V94.1028C58.0111 85.1972 69.0639 80.5305 80.1167 82.0167L81.4472 83.3472C81.6111 83.5111 81.8083 83.6056 82.0167 83.6667L82.0972 83.6833C82.5361 83.7861 83.0139 83.6889 83.3556 83.3472C83.6972 83.0055 83.7944 82.5278 83.6917 82.0889L83.675 82.0083C83.6139 81.8 83.5194 81.6028 83.3556 81.4389L82.025 80.1083C80.5389 69.0556 85.2056 58.0028 94.1111 51.3444H95.8778C96.6222 51.3444 97.2278 50.7417 97.2278 49.9944C97.2278 49.25 96.625 48.6444 95.8778 48.6444H94.1833C85.3139 41.9805 80.5833 30.8694 82.0667 19.8417L83.3972 18.5111C83.925 17.9833 83.925 17.1305 83.3972 16.6028C83.2139 16.4194 82.9889 16.325 82.7556 16.2694C82.3139 16.1639 81.8333 16.2583 81.4889 16.6028L80.1583 17.9333C69.1306 19.4167 58.0167 14.6833 51.3556 5.81666V4.12222C51.3556 3.37777 50.7528 2.77222 50.0056 2.77222C49.2611 2.77222 48.6556 3.37499 48.6556 4.12222V5.89166C41.9944 14.8 30.9417 19.4639 19.8889 17.9778L18.5583 16.6472C18.3944 16.4833 18.1972 16.3889 17.9889 16.3278L17.9083 16.3111C17.4694 16.2083 16.9944 16.3055 16.65 16.6472C16.3083 16.9889 16.2111 17.4667 16.3139 17.9055L16.3306 17.9861C16.3917 18.1944 16.4861 18.3917 16.65 18.5555L17.9806 19.8861C19.4667 30.9389 14.8 41.9917 5.89445 48.65H4.12778C3.38056 48.65 2.77778 49.2528 2.77778 49.9972C2.77778 50.7417 3.38056 51.3472 4.12778 51.3472H5.825C14.6944 58.0111 19.425 69.1222 17.9417 80.15L16.6111 81.4805C16.2667 81.825 16.1694 82.3055 16.2778 82.7472C16.3333 82.9805 16.4306 83.2056 16.6111 83.3889C17.1389 83.9167 17.9917 83.9167 18.5194 83.3889ZM20.9083 22.8139L27.0361 28.9417C27.3222 32.7333 26.7222 36.5639 25.2028 40.1667C23.8333 43.4167 21.725 46.325 19.2056 48.6472H10.0361C10.3722 48.3417 10.7889 47.9889 11.1028 47.675C17.6361 41.1417 21.2167 32.1028 20.9083 22.8139ZM54.5139 45.5111C54.6667 47.1472 55.2333 48.7056 56.1722 50.0556C55.7389 50.6889 55.3556 51.3583 55.0806 52.0972C54.7833 52.8972 54.6389 53.7194 54.5611 54.5472C53.7389 54.625 52.9222 54.7694 52.1278 55.0639C51.3972 55.3361 50.7333 55.7167 50.1056 56.1444C49.4417 55.6778 48.7361 55.2667 47.9583 54.9778C47.1611 54.6805 46.3417 54.5361 45.5167 54.4583C45.3667 52.8472 44.8139 51.3 43.8972 49.9667C44.3306 49.3333 44.7167 48.6639 44.9889 47.925C45.2833 47.1306 45.4306 46.3139 45.5056 45.4917C46.3333 45.4167 47.1556 45.2694 47.9556 44.9722C48.6917 44.7 49.3611 44.3167 49.9944 43.8833C51.3389 44.8055 52.8889 45.3611 54.5139 45.5111ZM41.5333 51.3472C41.6917 51.5639 41.8639 51.7722 41.9944 52.0083C42.4417 52.8028 42.7167 53.6778 42.8167 54.5861C42.8417 54.8139 42.8167 55.0472 42.8167 55.2778L38.5278 59.5667C38.2667 58.3222 37.9417 57.0833 37.4917 55.8694C36.8972 54.2722 36.1417 52.7694 35.2639 51.35L41.5333 51.3472ZM44.7667 57.1417C44.9694 57.1444 45.1722 57.1167 45.3778 57.1417C45.9306 57.2028 46.4806 57.3055 47.0167 57.5055C47.3917 57.6444 47.7417 57.825 48.0778 58.0222C48.2833 58.1417 48.4611 58.3 48.6528 58.4389V64.7361C47.2361 63.8611 45.7306 63.1028 44.1333 62.5083C42.9194 62.0583 41.6806 61.7333 40.4361 61.4722L44.7667 57.1417ZM51.35 64.8361V58.5917C51.6 58.4028 51.8444 58.2083 52.1167 58.0583C52.9083 57.6139 53.7833 57.3389 54.6889 57.2361C54.9 57.2111 55.1167 57.2389 55.3306 57.2361L59.6056 61.5111C58.3611 61.7722 57.1222 62.0972 55.9083 62.5472C54.3361 63.1306 52.7528 63.975 51.35 64.8361ZM57.2472 55.3361C57.25 55.1139 57.2222 54.8944 57.2472 54.6722C57.3083 54.1194 57.4139 53.5694 57.6111 53.0333C57.7361 52.7 57.9028 52.3917 58.0722 52.0861C58.2194 51.8222 58.4083 51.5861 58.5861 51.3472H64.8389C63.9778 52.75 63.1333 54.3333 62.5472 55.9055C62.0972 57.1194 61.7722 58.3583 61.5111 59.6028L57.2472 55.3361ZM58.4889 48.65C58.3389 48.4444 58.175 48.25 58.0472 48.0306C57.5806 47.2194 57.2972 46.3222 57.1917 45.3917C57.1667 45.1694 57.1917 44.9417 57.1917 44.7167L61.4722 40.4361C61.7333 41.6805 62.0583 42.9194 62.5083 44.1333C63.1028 45.7305 63.8583 47.2333 64.7361 48.6528L58.4889 48.65ZM55.2639 42.8305C55.0528 42.8278 54.8417 42.8528 54.6333 42.8305C53.7139 42.7305 52.8306 42.4528 52.0278 42C51.7889 41.8667 51.575 41.6917 51.3528 41.5278V35.2639C52.7694 36.1389 54.275 36.8972 55.8722 37.4917C57.0861 37.9417 58.325 38.2667 59.5694 38.5278L55.2639 42.8305ZM48.6528 35.1583V41.4972C48.4222 41.6667 48.2 41.8444 47.95 41.9833C47.65 42.15 47.3472 42.3139 47.0194 42.4361C46.4833 42.6361 45.9333 42.7389 45.3806 42.8C45.1583 42.825 44.9389 42.7972 44.7167 42.8L40.3972 38.4805C41.6417 38.2194 42.8806 37.8944 44.0944 37.4444C45.6667 36.8639 47.25 36.0222 48.6528 35.1583ZM42.8167 44.7194C42.8139 44.9333 42.8389 45.1472 42.8167 45.3611C42.7139 46.2694 42.4389 47.1472 41.9917 47.9417C41.85 48.1917 41.6694 48.4167 41.4972 48.65H35.1639C36.025 47.2472 36.8694 45.6639 37.4556 44.0917C37.9056 42.8778 38.2306 41.6389 38.4917 40.3944L42.8167 44.7194ZM34.9639 56.8056C35.5833 58.4722 35.975 60.1806 36.1917 61.9L34.4694 63.6222L29.8194 68.2722C29.7056 65.0361 29.0278 61.8139 27.7333 58.7417C26.575 55.9917 24.9833 53.5194 23.0639 51.3472H32.0194C33.225 53.0056 34.2278 54.8306 34.9639 56.8056ZM36.3778 65.5305L38.1 63.8083C39.8194 64.025 41.5306 64.4167 43.1944 65.0361C45.1694 65.7694 46.9944 66.7722 48.6528 67.9805V76.9361C46.4806 75.0167 44.0056 73.4222 41.2583 72.2667C38.1861 70.9722 34.9639 70.2944 31.7278 70.1805L36.3778 65.5305ZM51.35 77.0306V68.0889C52.9917 66.9 54.9028 65.7972 56.8472 65.075C58.5139 64.4556 60.2222 64.0639 61.9417 63.8472L68.3139 70.2194C65.0778 70.3333 61.8556 71.0111 58.7833 72.3056C56.0667 73.4528 53.5083 75.1389 51.35 77.0306ZM65.575 63.6639L63.8528 61.9417C64.0694 60.2222 64.4611 58.5111 65.0806 56.8472C65.8028 54.9028 66.9056 52.9917 68.0944 51.35H77.0361C75.1417 53.5083 73.4556 56.0667 72.3111 58.7861C71.0167 61.8583 70.3389 65.0805 70.225 68.3167L65.575 63.6639ZM67.9861 48.65C66.7778 46.9917 65.775 45.1667 65.0417 43.1917C64.4222 41.525 64.0306 39.8167 63.8139 38.0972L65.5361 36.375L70.1861 31.725C70.3 34.9611 70.9778 38.1833 72.2722 41.2555C73.4306 44.0055 75.0222 46.4778 76.9417 48.65H67.9861ZM63.625 34.4667L61.9028 36.1889C60.1833 35.9722 58.4722 35.5805 56.8083 34.9611C54.8333 34.2278 53.0083 33.225 51.35 32.0167V23.0583C53.5222 24.9778 55.9972 26.5722 58.7444 27.7278C61.8167 29.0222 65.0389 29.7 68.275 29.8139L63.625 34.4667ZM48.6528 22.9639V31.9055C47.0111 33.0944 45.1 34.1972 43.1556 34.9194C41.4889 35.5389 39.7806 35.9305 38.0611 36.1472L36.3389 34.425L31.6889 29.775C34.925 29.6611 38.1472 28.9833 41.2194 27.6889C43.9361 26.5444 46.4944 24.8583 48.6528 22.9639ZM36.1528 38.0555C35.9361 39.775 35.5444 41.4861 34.925 43.15C34.2028 45.0944 33.1 47.0056 31.9111 48.6472H22.9694C24.8639 46.4889 26.55 43.9305 27.6944 41.2111C28.9889 38.1389 29.6667 34.9167 29.7806 31.6805L36.1528 38.0555ZM11.1417 52.2805C10.8139 51.9528 10.45 51.6611 10.1111 51.3472H19.2889C21.825 53.6778 23.8694 56.5222 25.2472 59.7889C26.7639 63.3917 27.3639 67.2222 27.0806 71.0139L24.3611 73.7305L20.9472 77.1444C21.2556 67.8528 17.6778 58.8139 11.1417 52.2805ZM47.7194 88.8583C41.1861 82.325 32.1444 78.7444 22.8556 79.0528L26.2694 75.6389L28.9833 72.925C32.775 72.6389 36.6056 73.2389 40.2083 74.7583C43.4722 76.1361 46.3194 78.1778 48.65 80.7167V89.8944C48.3389 89.5472 48.0472 89.1833 47.7194 88.8583ZM52.3222 88.8972C52.0083 89.2111 51.6556 89.6306 51.35 89.9639V80.7944C53.675 78.2722 56.5806 76.1667 59.8306 74.7972C63.4333 73.2805 67.2639 72.6806 71.0556 72.9639L77.1833 79.0917C67.8972 78.7833 58.8583 82.3639 52.3222 88.8972ZM79.0944 77.1833L75.6806 73.7694L72.9667 71.0555C72.6806 67.2639 73.2806 63.4333 74.8 59.8305C76.1694 56.5805 78.2778 53.6722 80.7972 51.35H89.9667C89.6306 51.6556 89.2139 52.0083 88.9 52.3222C82.3667 58.8556 78.7861 67.8944 79.0944 77.1833ZM88.8611 47.7167C89.1889 48.0444 89.5528 48.3361 89.8917 48.65H80.7139C78.1778 46.3194 76.1333 43.475 74.7556 40.2083C73.2389 36.6055 72.6389 32.775 72.9222 28.9833L75.6361 26.2694L79.05 22.8555C78.7472 32.1417 82.3278 41.1833 88.8611 47.7167ZM52.2833 11.1389C58.8167 17.6722 67.8583 21.2528 77.1472 20.9444L73.7333 24.3583L71.0194 27.0722C67.2278 27.3583 63.3972 26.7583 59.7944 25.2389C56.5306 23.8611 53.6833 21.8194 51.3528 19.2805V10.1083C51.6639 10.4472 51.9556 10.8139 52.2833 11.1389ZM47.6806 11.1C47.9944 10.7861 48.3472 10.3667 48.6528 10.0333V19.2028C46.3278 21.725 43.4222 23.8305 40.1722 25.2C36.5694 26.7167 32.7389 27.3167 28.9472 27.0333L26.2306 24.3194L22.8167 20.9055C32.1056 21.2139 41.1444 17.6333 47.6806 11.1Z" fill="#66757F"/>
</svg>
