<svg width="80" height="80" viewBox="0 0 80 80" fill="none" xmlns="http://www.w3.org/2000/svg">
<g clip-path="url(#clip0_246_144)">
<path d="M40 0C17.9089 0 0 17.9089 0 40C0 62.0911 17.9089 80 40 80C62.0911 80 80 62.0911 80 40C80 17.9089 62.0911 0 40 0ZM68.8889 40C68.8889 45.7 67.2156 51 64.3667 55.4778L24.5244 15.6356C29 12.7844 34.3 11.1111 40 11.1111C55.9556 11.1111 68.8889 24.0467 68.8889 40ZM11.1111 40C11.1111 34.3 12.7844 29 15.6356 24.5244L55.4778 64.3667C51 67.2156 45.7 68.8889 40 68.8889C24.0467 68.8889 11.1111 55.9556 11.1111 40Z" fill="#DD2E44"/>
</g>
<defs>
<clipPath id="clip0_246_144">
<rect width="80" height="80" fill="white"/>
</clipPath>
</defs>
</svg>
