<svg width="80" height="80" viewBox="0 0 80 80" fill="none" xmlns="http://www.w3.org/2000/svg">
<g clip-path="url(#clip0_246_152)">
<path d="M80 40C80 62.0889 62.0911 80 40 80C17.9089 80 0 62.0889 0 40C0 17.9089 17.9089 0 40 0C62.0911 0 80 17.9089 80 40Z" fill="#DD2E44"/>
<path d="M21.3956 50.5245C21.3956 47.7645 21.5156 45.1245 21.7556 42.5467C19.6556 44.7067 17.3778 46.8645 14.9178 48.7845C14.4978 49.0867 14.0178 49.2667 13.5378 49.2667C12.8178 49.2667 12.0978 48.9067 11.6178 48.1867C11.32 47.7645 11.2 47.2867 11.2 46.8667C11.2 46.1467 11.56 45.4267 12.16 45.0067C18.1578 40.8689 25.4156 33.1911 28.2956 27.4311C28.4756 27.1311 28.5356 26.8911 28.5356 26.6511C28.5356 26.2311 28.1756 25.9911 27.4556 25.9911H14.44C13.36 25.9911 12.76 25.1511 12.76 23.9534C12.76 22.7534 13.36 21.8534 14.44 21.8534H21.3378V13.3356C21.3378 12.2556 22.2978 11.6556 23.6178 11.6556C24.9978 11.6556 25.9578 12.2556 25.9578 13.3356V21.8534H29.8556C32.1956 21.8534 33.6933 23.1734 33.6933 25.2111C33.6933 25.9911 33.4533 26.8911 33.0333 27.8511C31.5333 30.7911 29.1956 34.2089 26.7956 37.1489C29.6733 40.0889 32.3133 42.1289 34.4133 43.5067C35.1933 43.9867 35.5533 44.5867 35.5533 45.3089C35.5533 45.7867 35.3733 46.2067 35.0733 46.6867C34.6533 47.3467 33.9933 47.6489 33.3933 47.6489C32.9733 47.6489 32.4933 47.5267 32.1333 47.2289C29.9733 45.6089 27.8156 43.5089 25.5356 41.0511C25.7756 44.0511 25.8956 46.4489 25.8956 49.3289V65.7645C25.8956 66.8422 24.9956 67.4445 23.6156 67.4445C22.2956 67.4445 21.3956 66.7845 21.3956 65.7645V50.5245ZM47.0089 38.5889C46.7711 52.5667 42.6289 61.2022 32.9733 66.6022C32.4933 66.9022 32.0133 67.0822 31.5933 67.0822C30.8733 67.0822 30.1533 66.7222 29.6733 65.9422C29.3733 65.5222 29.2533 65.0422 29.2533 64.5622C29.2533 63.8422 29.6133 63.2422 30.3333 62.7645C38.9111 57.9667 42.3911 51.3667 42.6289 38.5911H40.8311C37.2311 38.5911 35.6711 37.2111 35.6711 33.8534V19.5734C35.6711 16.1534 37.2311 14.7134 40.8311 14.7134H59.7867C63.3267 14.7134 64.9445 16.1534 64.9445 19.5734V33.8489C64.9445 37.2089 63.3267 38.5867 59.7867 38.5867H56.4889V60.36C56.4889 61.74 56.9667 61.98 59.8489 61.98C62.3667 61.98 63.2067 61.5622 63.6267 60.2422C63.9867 58.8 64.2267 55.9822 64.2867 53.5845C64.2867 52.5045 65.0667 51.8445 66.2045 51.8445H66.3845C67.7045 51.9045 68.4245 52.5045 68.4245 53.6445V53.7667C68.3645 57.4245 67.9445 60.9045 66.9867 63.1245C66.6267 63.9645 66.0245 64.6245 65.2467 65.1045C64.1067 65.7645 62.1867 66.1822 59.6089 66.1822H58.5889C53.1311 66.1245 52.0511 64.8622 52.0511 61.8045V38.5889H47.0089ZM58.6467 34.4489C59.7889 34.4489 60.4489 34.0289 60.4489 32.7089V20.7134C60.4489 19.3334 59.7889 19.0356 58.6467 19.0356H41.9733C40.7733 19.0356 40.1733 19.3356 40.1733 20.7134V32.7111C40.1733 34.0311 40.7733 34.4511 41.9733 34.4511H58.6467V34.4489Z" fill="white"/>
</g>
<defs>
<clipPath id="clip0_246_152">
<rect width="80" height="80" fill="white"/>
</clipPath>
</defs>
</svg>
