<svg width="68" height="80" viewBox="0 0 68 80" fill="none" xmlns="http://www.w3.org/2000/svg">
<path d="M64.4444 24.5778C64.4444 38.8867 53.3333 41.1089 53.3333 54.4444C53.3333 61.3289 46.3933 61.9089 41.1111 61.9089C36.5489 61.9089 26.4755 60.1778 26.4755 54.44C26.4755 41.1111 15.5555 38.8889 15.5555 24.5778C15.5555 11.1755 27.3 0.311096 40.1844 0.311096C53.0733 0.311096 64.4444 11.1755 64.4444 24.5778Z" fill="#FFEFCC"/>
<path d="M49.26 72.2222C49.26 74.0622 44.2955 77.7778 40 77.7778C35.7044 77.7778 30.74 74.0622 30.74 72.2222C30.74 70.3822 35.7022 71.1111 40 71.1111C44.2955 71.1111 49.26 70.3822 49.26 72.2222Z" fill="#CCD6DD"/>
<path d="M50.46 22.8733C49.5911 22.0045 48.1866 22.0045 47.3177 22.8733L40 30.1911L32.6822 22.8733C31.8133 22.0045 30.4089 22.0045 29.54 22.8733C28.6711 23.7422 28.6711 25.1467 29.54 26.0156L37.7778 34.2533V57.7778C37.7778 59.0067 38.7733 60 40 60C41.2266 60 42.2222 59.0067 42.2222 57.7778V34.2533L50.46 26.0156C51.3289 25.1467 51.3289 23.7422 50.46 22.8733Z" fill="#FFCC4D"/>
<path d="M53.3333 68.8889C53.3333 71.3422 51.3422 73.3333 48.8888 73.3333H31.1111C28.6577 73.3333 26.6666 71.3422 26.6666 68.8889V55.5555H53.3333V68.8889Z" fill="#99AAB5"/>
<path d="M26.6644 71.1111C25.5978 71.1111 24.6555 70.34 24.4755 69.2533C24.2733 68.0444 25.0911 66.8978 26.3022 66.6978L52.9689 62.2533C54.1778 62.0356 55.3244 62.8689 55.5244 64.08C55.7266 65.2889 54.9089 66.4356 53.6978 66.6356L27.0311 71.08C26.9089 71.1022 26.7844 71.1111 26.6644 71.1111ZM26.6644 62.2222C25.5978 62.2222 24.6555 61.4511 24.4755 60.3644C24.2733 59.1556 25.0911 58.0089 26.3022 57.8089L52.9689 53.3644C54.1778 53.1489 55.3244 53.98 55.5244 55.1911C55.7266 56.4 54.9089 57.5467 53.6978 57.7467L27.0311 62.1911C26.9089 62.2133 26.7844 62.2222 26.6644 62.2222Z" fill="#CCD6DD"/>
</svg>
