<svg width="67" height="80" viewBox="0 0 67 80" fill="none" xmlns="http://www.w3.org/2000/svg">
<g clip-path="url(#clip0_244_53)">
<path d="M42.5556 48.8889H41.9933C42.3489 47.1156 42.5556 45.26 42.5556 43.3333C42.5556 31.6733 35.5911 22.2222 27 22.2222C18.4089 22.2222 11.4444 31.6733 11.4444 43.3333C11.4444 45.26 11.6511 47.1156 12.0067 48.8889H11.4444C7 55.5556 8.10666 66.7911 11.7156 68.8889C27 77.7778 18.1111 64.4444 27 64.4444C35.8889 64.4444 27 77.7778 42.2844 68.8889C45.8933 66.7911 47 55.5556 42.5556 48.8889Z" fill="#C1694F"/>
<path d="M39.5933 45.4622C39.2 42.0311 40.2978 37.5466 40.16 33.7955C37.0778 36.2044 31.3267 37.7778 27 37.7778C22.6733 37.7778 16.9778 36.2044 13.8955 33.7955C13.7578 37.5466 14.8 42.0311 14.4067 45.4622C13.3889 54.3511 19.6355 61.4266 27 61.4266C34.3644 61.4266 40.6111 54.3511 39.5933 45.4622Z" fill="#C1694F"/>
<path d="M14.4956 31.1111C14.4956 31.1111 3.38444 33.3333 1.16222 46.6666C-1.06 60 8.76 61.2911 12.2733 57.7777C16.7178 53.3333 12.2733 48.8889 12.2733 48.8889C12.2733 48.8889 14.4956 37.7778 14.4956 31.1111ZM39.5044 31.1111C39.5044 31.1111 50.6156 33.3333 52.8378 46.6666C55.06 60 45.24 61.2911 41.7267 57.7777C37.2822 53.3333 41.7267 48.8889 41.7267 48.8889C41.7267 48.8889 39.5044 37.7778 39.5044 31.1111Z" fill="#C1694F"/>
<path d="M15.8889 28.8889C11.4444 28.8889 13.6667 31.1111 13.6667 33.3334C13.6667 35.5556 15.8889 40 20.3333 37.7778C20.3333 37.7778 18.1111 42.2222 18.1111 48.8889C18.1111 48.8889 22.5556 48.8889 24.7778 53.3334C24.7778 53.3334 27 37.7778 27 33.3334C27 28.8889 18.1111 28.8889 15.8889 28.8889ZM38.1111 28.8889C42.5556 28.8889 40.3333 31.1111 40.3333 33.3334C40.3333 35.5556 38.1111 40 33.6667 37.7778C33.6667 37.7778 35.8889 42.2222 35.8889 48.8889C35.8889 48.8889 31.4444 48.8889 29.2222 53.3334C29.2222 53.3334 27 37.7778 27 33.3334C27 28.8889 35.8889 28.8889 38.1111 28.8889Z" fill="#A0041E"/>
<path d="M11.4444 17.7778C16.3536 17.7778 20.3333 13.7981 20.3333 8.88889C20.3333 3.97969 16.3536 0 11.4444 0C6.53525 0 2.55556 3.97969 2.55556 8.88889C2.55556 13.7981 6.53525 17.7778 11.4444 17.7778Z" fill="#C1694F"/>
<path d="M11.4444 13.3333C13.899 13.3333 15.8889 11.3435 15.8889 8.8889C15.8889 6.4343 13.899 4.44446 11.4444 4.44446C8.98985 4.44446 7 6.4343 7 8.8889C7 11.3435 8.98985 13.3333 11.4444 13.3333Z" fill="#662113"/>
<path d="M42.5556 17.7778C47.4648 17.7778 51.4445 13.7981 51.4445 8.88889C51.4445 3.97969 47.4648 0 42.5556 0C37.6464 0 33.6667 3.97969 33.6667 8.88889C33.6667 13.7981 37.6464 17.7778 42.5556 17.7778Z" fill="#C1694F"/>
<path d="M42.5556 13.3333C45.0102 13.3333 47 11.3435 47 8.8889C47 6.4343 45.0102 4.44446 42.5556 4.44446C40.101 4.44446 38.1111 6.4343 38.1111 8.8889C38.1111 11.3435 40.101 13.3333 42.5556 13.3333Z" fill="#662113"/>
<path d="M27 35.5556C36.8184 35.5556 44.7778 28.0936 44.7778 18.8889C44.7778 9.68415 36.8184 2.22223 27 2.22223C17.1816 2.22223 9.22223 9.68415 9.22223 18.8889C9.22223 28.0936 17.1816 35.5556 27 35.5556Z" fill="#C1694F"/>
<path d="M20.3333 20C21.5606 20 22.5556 19.0051 22.5556 17.7778C22.5556 16.5505 21.5606 15.5555 20.3333 15.5555C19.106 15.5555 18.1111 16.5505 18.1111 17.7778C18.1111 19.0051 19.106 20 20.3333 20Z" fill="#292F33"/>
<path d="M33.6667 20C34.894 20 35.8889 19.0051 35.8889 17.7778C35.8889 16.5505 34.894 15.5555 33.6667 15.5555C32.4394 15.5555 31.4444 16.5505 31.4444 17.7778C31.4444 19.0051 32.4394 20 33.6667 20Z" fill="#292F33"/>
<path d="M27.1289 21.2511C12 21.2511 16.88 33.6111 26.8022 33.6111C36.7222 33.6111 42.2578 21.2511 27.1289 21.2511Z" fill="#D99E82"/>
<path d="M24.1933 24.5889L25.3622 26.6133C26.0911 27.8733 27.9111 27.8733 28.6378 26.6133L29.8067 24.5889C30.5355 23.3289 29.6244 21.7511 28.1689 21.7511H25.8311C24.3755 21.7511 23.4667 23.3267 24.1933 24.5889Z" fill="#292F33"/>
<path d="M12.0333 60.0044C11.6645 60.0044 11.3067 59.8222 11.0956 59.4911C10.7667 58.9733 10.9178 58.2867 11.4356 57.9578C11.5245 57.9022 13.7178 56.4289 13.6511 53.4644C13.6 51.2622 11.5778 49.8178 11.5578 49.8067C11.2889 49.6178 11.1133 49.3155 11.0845 48.9889C10.6289 43.7444 12.5289 38.5244 12.6111 38.3022C12.8244 37.7289 13.4578 37.4333 14.0378 37.6444C14.6133 37.8578 14.9089 38.4955 14.6956 39.0711C14.6778 39.1178 13.0045 43.7355 13.2645 48.3267C14.0978 49.0422 15.8111 50.8244 15.8733 53.4133C15.9711 57.6578 12.7667 59.7489 12.6311 59.8355C12.4422 59.9489 12.2356 60.0044 12.0333 60.0044ZM41.9689 60.0044C41.7645 60.0044 41.5556 59.9489 41.3711 59.8311C41.2333 59.7444 38.0289 57.6555 38.1267 53.4089C38.1867 50.82 39.9022 49.0378 40.7356 48.3222C40.9978 43.7178 39.3222 39.1155 39.3045 39.0689C39.0911 38.4933 39.3845 37.8533 39.9622 37.64C40.5333 37.4289 41.1756 37.7222 41.3889 38.2978C41.4711 38.5178 43.3733 43.7378 42.9178 48.9844C42.8889 49.3155 42.7133 49.6155 42.44 49.8044C42.4222 49.8155 40.4 51.2578 40.3511 53.4622C40.2822 56.4689 42.5422 57.9422 42.5667 57.9555C43.0822 58.2844 43.2378 58.9711 42.9067 59.4889C42.6933 59.8222 42.3356 60.0044 41.9689 60.0044Z" fill="#934035"/>
<path d="M19.5718 75.6328C23.477 71.7275 23.1251 65.0441 18.7858 60.705C14.4466 56.3659 7.7632 56.0143 3.85802 59.9196C-0.0471523 63.8249 0.304724 70.5083 4.64396 74.8474C8.98319 79.1865 15.6666 79.5381 19.5718 75.6328Z" fill="#C1694F"/>
<path d="M16.6645 73.8378C14.3222 76.18 10.2067 75.8645 7.47112 73.1311C4.73779 70.3978 4.42001 66.2822 6.76445 63.9378C9.10668 61.5956 13.2222 61.9111 15.9578 64.6445C18.6911 67.38 19.0067 71.4956 16.6645 73.8378Z" fill="#D99E82"/>
<path d="M15.6422 72.8178C13.9067 74.5533 10.74 74.2022 8.57111 72.0311C6.40222 69.8622 6.04889 66.6955 7.78444 64.96C9.52 63.2244 12.6867 63.5755 14.8556 65.7467C17.0244 67.9178 17.3778 71.0822 15.6422 72.8178Z" fill="#D99E82"/>
<path d="M49.3556 74.8487C53.6947 70.5095 54.0464 63.8261 50.141 59.9209C46.2357 56.0157 39.5523 56.3676 35.2132 60.7068C30.8742 65.0461 30.5225 71.7295 34.4278 75.6347C38.3331 79.5398 45.0165 79.188 49.3556 74.8487Z" fill="#C1694F"/>
<path d="M37.3356 73.8378C39.6778 76.18 43.7933 75.8645 46.5289 73.1311C49.2622 70.3978 49.58 66.2822 47.2356 63.9378C44.8933 61.5956 40.7778 61.9111 38.0422 64.6445C35.3089 67.38 34.9933 71.4956 37.3356 73.8378Z" fill="#D99E82"/>
<path d="M45.4272 72.0315C47.5967 69.8619 47.9484 66.6961 46.2128 64.9604C44.4771 63.2248 41.3112 63.5766 39.1417 65.7462C36.9722 67.9159 36.6205 71.0817 38.3561 72.8173C40.0918 74.553 43.2577 74.2011 45.4272 72.0315Z" fill="#D99E82"/>
<path d="M27.1933 31.4178C24.3489 31.4178 22.1956 29.3133 22.1622 29.2822C21.9444 29.0644 21.9444 28.7155 22.1622 28.4978C22.38 28.28 22.7289 28.28 22.9467 28.4955C23.1133 28.66 27.0556 32.4889 31.0511 28.4955C31.2689 28.2778 31.62 28.2778 31.8378 28.4955C32.0556 28.7133 32.0556 29.0644 31.8378 29.2822C30.2356 30.8844 28.6267 31.4178 27.1933 31.4178Z" fill="#292F33"/>
<path d="M22.4444 66.06C22.0333 66.06 21.64 65.8311 21.4467 65.4378C16.3933 55.1377 6.34666 58.4377 5.92222 58.58C5.34 58.7822 4.71111 58.4711 4.51111 57.8889C4.31111 57.3089 4.61777 56.68 5.19777 56.4778C5.31999 56.4333 17.5156 52.3777 23.4422 64.46C23.7133 65.0089 23.4867 65.6755 22.9333 65.9466C22.7756 66.0222 22.6067 66.06 22.4444 66.06ZM31.5578 66.06C31.4133 66.06 31.2644 66.0311 31.1244 65.9711C30.5578 65.7311 30.2955 65.08 30.5355 64.5155C35.5467 52.7355 48.6267 56.4244 48.7533 56.4644C49.3422 56.6355 49.6778 57.2511 49.5067 57.84C49.3356 58.4333 48.7022 58.76 48.1311 58.5977C47.6711 58.4622 36.8067 55.4422 32.58 65.3844C32.4 65.8044 31.9889 66.06 31.5578 66.06Z" fill="#934035"/>
</g>
<defs>
<clipPath id="clip0_244_53">
<rect width="80" height="80" fill="white" transform="translate(-13)"/>
</clipPath>
</defs>
</svg>
