<svg width="118" height="81" viewBox="0 0 118 81" fill="none" xmlns="http://www.w3.org/2000/svg">
<path d="M115.078 6.38334C110.472 0.250007 101.761 -0.994438 95.6278 3.60556L0.0388794 75.3167C3.62777 73.9722 8.42777 72.85 14.5667 72.4167C15.9889 72.3167 29.3444 68.9333 29.3444 68.9333L36.5278 74.6889C36.5278 74.6889 41.5889 76.7278 43.1778 77.6833L112.311 25.8222C118.439 21.2278 119.678 12.5167 115.078 6.38334Z" fill="#CCD6DD"/>
<path d="M77.3667 34.9445C74.8778 31.6334 72.9944 28.5834 69.6833 31.0667L14.5611 72.4167C15.9833 72.3167 17.3389 72.1833 18.9111 72.1722C26.4666 72.1222 32.2444 73.2556 36.5222 74.6834L78.6778 43.0611C81.9889 40.5778 79.85 38.2611 77.3667 34.9445Z" fill="#DA2F47"/>
<path d="M21.3278 59.1555L28.1833 68.0333L32.3 64.7278L25.65 55.9111L21.3278 59.1555ZM33.6778 49.9278L40.5389 58.8055L44.6556 55.5L38.0056 46.6833L33.6778 49.9278ZM45.8111 40.9333L52.6667 49.8111L56.7833 46.5055L50.1333 37.6889L45.8111 40.9333ZM57.9278 31.7111L64.7889 40.5833L68.9056 37.2833L62.2556 28.4666L57.9278 31.7111ZM70.3611 22.5944L77.2222 31.4722L81.3333 28.1666L74.6889 19.35L70.3611 22.5944ZM82.25 13.6055L89.1111 22.4833L93.2222 19.1778L86.5778 10.3611L82.25 13.6055Z" fill="#67757F"/>
<path d="M43.1722 77.6834L47.6445 80.5834C47.6445 80.5834 46.55 78.5723 44.7222 76.55L43.1722 77.6834Z" fill="#452E04"/>
</svg>
