<svg width="80" height="80" viewBox="0 0 80 80" fill="none" xmlns="http://www.w3.org/2000/svg">
<path d="M28.8889 66.6667H4.44444C4.44444 66.6667 0 66.6667 0 62.2222V51.1111C0 46.6667 4.44444 46.6667 4.44444 46.6667H28.8889V66.6667Z" fill="#D99E82"/>
<path d="M26.6667 46.6667H57.7778V66.6667H26.6667V46.6667Z" fill="#E1E8ED"/>
<path d="M68.8889 46.6667H55.5556V66.6667H68.8889C68.8889 66.6667 73.3333 66.6667 73.3333 62.2222V51.1111C73.3333 46.6667 68.8889 46.6667 68.8889 46.6667Z" fill="#66757F"/>
<path d="M61.7556 44.4444C60.6711 44.4444 59.72 43.6489 59.56 42.5444C59.4956 42.1 58.1067 31.6022 69.5044 24.7622C75.0556 21.4311 76.3111 15.3267 75.1311 11.0644C74.58 9.07333 72.6067 4.44444 66.2022 4.44444C59.22 4.44444 57.3956 8.37778 56.98 10.1378C56.3533 12.7978 56.98 14.8956 58.3689 15.9022C59.8111 16.9467 61.5311 16.64 62.6622 15.94C63.5267 15.4067 63.9822 14.5044 63.9822 13.3333C63.9822 12.1067 64.9756 11.1111 66.2044 11.1111C67.4333 11.1111 68.4267 12.1067 68.4267 13.3333C68.4267 16.0467 67.1778 18.3756 65 19.72C62.5422 21.2378 58.7356 20.9156 56.2911 19.5489C53.2889 17.8689 51.7111 13.72 52.76 9.28444C54.1289 3.47111 59.1556 0 66.2022 0C72.6644 0 77.7267 3.78444 79.4133 9.87778C81.3889 17.0067 78.2533 24.6933 71.7889 28.5711C62.9 33.9044 63.9444 41.82 63.9556 41.9C64.1333 43.1156 63.2911 44.2444 62.0778 44.42C61.9711 44.4378 61.8622 44.4444 61.7556 44.4444Z" fill="#CCD6DD"/>
</svg>
