<svg width="97" height="100" viewBox="0 0 97 100" fill="none" xmlns="http://www.w3.org/2000/svg">
<path d="M58.1028 62.5056C50.5861 61.5862 47.2833 57.3612 40.6778 48.925C49.1194 42.325 53.3417 39.0223 60.8611 39.9389C68.3889 40.8612 75.4444 45.5389 78.2861 53.5195C73.6111 60.5834 65.6278 63.4167 58.1028 62.5056ZM41.55 86.9889C34.4694 86.4695 31.1806 82.675 24.6111 75.0778C32.2083 68.5112 36.0056 65.225 43.0889 65.7334C50.175 66.2473 57.0028 70.3 60.0278 77.6417C55.975 84.4695 48.6389 87.4973 41.55 86.9889ZM24.2722 43.3584C27.9889 47.8889 27.5806 52.0167 26.7667 60.2695C18.5167 59.4528 14.3889 59.0473 10.6694 54.5167C6.95 49.9778 5.5 43.5862 8.175 37.6056C14.5667 36.15 20.5528 38.825 24.2722 43.3584ZM82.9278 28.225C76.1639 31.0584 71.3722 29.0973 61.7806 25.1778C65.7 15.5862 67.6639 10.7889 74.4167 7.94727C81.1778 5.11116 89.3556 5.65282 95.5611 10.9917C95.0222 19.1695 89.6806 25.3834 82.9278 28.225ZM47.5083 18.3556C49.9361 26.325 47.1639 31.5278 41.6222 41.9334C31.2194 36.3889 26.0139 33.6167 23.5833 25.6445C21.15 17.6667 22.7083 8.47782 29.4667 2.06116C38.6556 3.61949 45.075 10.375 47.5083 18.3556Z" fill="#77B255"/>
<path d="M23.5833 25.6445C25.9778 33.5 31.0889 36.3195 41.1889 41.7028V41.6889C40.9944 34.6861 33.5972 11.4778 29.3361 2.20557C22.7 8.61668 21.1667 17.725 23.5833 25.6445ZM8.05 37.9472C5.57778 43.8306 7.01944 50.0639 10.6694 54.5167C14.3917 59.05 18.5194 59.4528 26.7667 60.2695C23.9972 54.8889 13.125 42.525 8.05 37.9472Z" fill="#A6D388"/>
<path d="M60.8611 39.9389C53.7417 39.0722 49.5361 42.0222 41.95 47.9361C46.8 48.2278 66.3556 50.0056 78.2278 53.5945C78.2444 53.5667 78.2694 53.5472 78.2861 53.5195C75.4444 45.5389 68.3889 40.8611 60.8611 39.9389ZM60.0167 77.6195C56.9861 70.2945 50.1694 66.2472 43.0889 65.7334C36.1444 65.2361 32.3389 68.4028 25.0389 74.7111C32.725 73.8639 46.9972 72.2945 60.0167 77.6195Z" fill="#5C913B"/>
<path d="M62.2806 25.3806C71.5222 29.1556 76.2889 31.0028 82.925 28.225C89.6444 25.3972 94.9583 19.2278 95.5417 11.1139C84.6472 13.2278 66.6778 22.6417 62.2806 25.3806Z" fill="#A6D388"/>
<path d="M13.1972 97.3917C11.575 97.1389 9.41111 95.0834 9.66111 93.4584C11.1778 83.5639 17.6 59.6584 60.4889 24.6945C61.7611 23.6528 63.2 22.8639 64.2778 24.1056C65.3639 25.3473 64.1333 26.7445 62.8944 27.825C25.9833 59.9639 19.8 85.4195 18.3861 94.6723C18.1333 96.2973 14.8222 97.6361 13.1972 97.3917Z" fill="#A06253"/>
</svg>
