<svg width="48" height="48" viewBox="0 0 48 48" fill="none" xmlns="http://www.w3.org/2000/svg">
<path d="M2.64393 31.802L0.406944 27.5345L2.54068 26.4167C5.83489 24.6891 9.39892 22.5925 9.99224 19.5585C10.4534 17.199 9.15113 14.1856 6.12123 10.6023L4.56566 8.76313L8.24395 5.652L9.79951 7.49115C13.8756 12.312 15.4863 16.5616 14.7195 20.4822C13.6347 26.0395 7.87089 29.0598 4.77628 30.6828L2.64393 31.802ZM27.8248 47.1181L26.707 44.9843C24.9793 41.6887 22.8828 38.1261 19.8487 37.5328C17.4906 37.0702 14.4758 38.3739 10.8925 41.4038L9.05339 42.9593L5.94227 39.2811L7.78141 37.7255C12.6009 33.648 16.8463 32.0346 20.7724 32.8055C26.3298 33.8903 29.35 39.6527 30.9731 42.7487L32.0909 44.8825L27.8248 47.1181ZM39.5686 41.5814L38.013 39.7422C33.9355 34.9214 32.3263 30.6718 33.093 26.7498C34.1778 21.1939 39.9402 18.1736 43.0362 16.5506L45.17 15.4328L47.4069 19.7002L45.2732 20.818C41.9776 22.5457 38.415 24.6423 37.8217 27.6749C37.3605 30.0358 38.6628 33.0478 41.6913 36.6311L43.2469 38.4702L39.5686 41.5814ZM28.9577 14.6164C28.3093 14.6164 27.672 14.5545 27.0415 14.432C21.4841 13.3472 18.4639 7.58338 16.8408 4.48877L15.723 2.35504L19.9905 0.118057L21.1097 2.25179C22.8373 5.54601 24.9339 9.11003 27.9666 9.70335C30.3219 10.1631 33.3381 8.86362 36.9227 5.83234L38.7619 4.27678L41.873 7.95506L40.0339 9.51062C35.9853 12.9329 32.3414 14.6164 28.9577 14.6164Z" fill="#BE1931"/>
</svg>
