<svg width="100" height="179" viewBox="0 0 100 179" fill="none" xmlns="http://www.w3.org/2000/svg">
<path d="M20.9245 156.561C29.069 171.944 43.2134 178.972 55.1301 178.972C60.9745 178.972 66.2801 177.283 70.0745 174.061C80.769 164.989 93.719 139.139 95.5412 129.989C98.1412 116.933 97.9634 108.722 95.5412 101.672C93.119 101.556 90.719 101.5 88.3523 101.5C40.2134 101.5 4.24674 125.056 20.9245 156.561Z" fill="#1C6399"/>
<path d="M12.4468 0C3.73012 0 0.302343 6.86667 0.0578988 13.3889C-0.842101 37.1389 8.89123 83.3944 19.4357 91.6056C28.9635 99.0278 62.2468 102.944 82.9023 102.944C92.869 102.944 99.8912 102.033 99.8912 100.167C99.8912 94.4278 95.5079 65.7556 95.5079 65.7556C67.8079 28.8444 33.8023 3.70556 16.1301 0.366667C14.8079 0.116667 13.5801 0 12.4468 0Z" fill="#1C6399"/>
<path d="M48.9301 66.4611L12.1079 64.0389C12.1079 64.0389 17.969 84.1444 29.3412 89.9056C40.7134 95.6667 72.2245 98.2389 72.2245 98.2389C72.2245 98.2389 59.2801 74.5667 53.969 68.85C52.6523 67.4278 50.8634 66.5833 48.9301 66.4611ZM46.0468 55.6167L4.23566 10.3333C4.23566 10.3333 4.22455 40.1389 10.9357 58.3056C10.9357 58.3056 40.8412 60.4111 43.7912 60.4778C47.6968 60.5667 49.1745 59.0056 46.0468 55.6167ZM79.7579 98.2389L49.2023 50.7556C48.1579 49.5333 47.7968 47.8667 48.2523 46.3222L53.6301 28.3611L90.9745 65.0778L95.6634 98.5833L79.7579 98.2389ZM44.6857 38.3722C43.7301 40.6278 41.819 41.15 39.4745 39.0667C37.1301 36.9833 5.7301 5.21111 6.14121 4.52222C6.14121 4.52222 21.8746 -2.11112 49.4746 23.7611C49.4801 23.7611 45.6412 36.1167 44.6857 38.3722ZM94.2745 105.589L64.4246 134.633C63.2968 135.622 63.0079 137.261 63.7301 138.572L76.9246 162.644C76.919 162.65 100.186 132.211 94.2745 105.589ZM53.8134 140.594L22.9857 144.711C22.9857 144.711 28.8634 166.072 41.8412 171.678C63.5412 181.056 71.3523 168.206 71.3523 168.206L58.2857 142.861C57.4523 141.206 55.6412 140.289 53.8134 140.594ZM86.8745 104.894L57.0134 132.439C56.5857 132.806 56.0745 133.05 55.519 133.156L21.5245 138.172C21.5245 138.172 28.2968 121.333 46.1301 113C66.7357 103.372 86.8745 104.894 86.8745 104.894Z" fill="#6BBDFC"/>
<path d="M20.9245 156.561C29.069 171.944 43.2134 178.972 55.1301 178.972C60.9745 178.972 66.2801 177.283 70.0745 174.061C80.769 164.989 93.719 139.139 95.5412 129.989C98.1412 116.933 97.9634 108.722 95.5412 101.672C93.119 101.556 90.719 101.5 88.3523 101.5C40.2134 101.5 4.24674 125.056 20.9245 156.561ZM29.3579 131.233C37.5634 117.6 60.2356 106.167 88.9467 106.167L92.6523 106.283C92.6523 106.283 93.269 120.228 90.6856 128.628C86.169 143.317 76.4912 160.767 67.0745 168.761C64.5967 170.867 59.3912 172.6 55.1301 172.6C46.7523 172.6 37.119 167.122 29.8079 153.306C25.5412 145.256 25.3912 137.828 29.3579 131.233Z" fill="#292F33"/>
<path d="M12.4468 6.94444C13.1746 6.94444 13.9801 7.02778 14.8412 7.18889C34.9468 10.9833 67.969 41.1 88.9023 68.5444C90.169 76.95 92.1579 89.9111 92.8857 96.6778C90.8801 96.9 87.5135 96.7945 82.919 96.7945C70.4246 96.7945 58.3301 94.1389 47.0523 92.1667C36.7412 90.3611 29.5023 85.9056 26.3912 83.4833C23.569 81.2833 17.7635 73.5611 14.7579 63C10.2968 47.3278 6.43012 28.55 6.99679 13.6556C7.25234 6.94445 11.1579 6.94444 12.4468 6.94444ZM12.4468 0C3.73012 0 0.302343 6.86667 0.0578988 13.3889C-0.842101 37.1389 8.89123 83.3944 19.4357 91.6056C28.9635 99.0278 62.2468 102.944 82.9023 102.944C92.869 102.944 99.8912 102.033 99.8912 100.167C99.8912 94.4278 95.5079 65.7556 95.5079 65.7556C67.8079 28.8444 33.8023 3.70556 16.1301 0.366667C14.8079 0.116667 13.5801 0 12.4468 0Z" fill="#292F33"/>
</svg>
