<svg width="50" height="50" viewBox="0 0 50 50" fill="none" xmlns="http://www.w3.org/2000/svg">
<g clip-path="url(#clip0_246_158)">
<path d="M50 44.4444C50 47.5125 47.5125 50 44.4444 50H5.55556C2.4875 50 0 47.5125 0 44.4444V5.55556C0 2.4875 2.4875 0 5.55556 0H44.4444C47.5125 0 50 2.4875 50 5.55556V44.4444Z" fill="#3B88C3"/>
<path d="M13.5903 24.9472C13.5903 17.9278 16.3042 9.09998 25.0014 9.09998C33.7014 9.09998 36.4139 17.9278 36.4139 24.9472C36.4139 31.9666 33.7014 40.7944 25.0014 40.7944C16.3042 40.7944 13.5903 31.9666 13.5903 24.9472ZM29.6958 24.9472C29.6958 21.675 29.3944 14.9569 25.0028 14.9569C20.6111 14.9569 20.3097 21.675 20.3097 24.9472C20.3097 28.0041 20.6111 34.9375 25.0028 34.9375C29.3944 34.9375 29.6958 28.0041 29.6958 24.9472Z" fill="white"/>
</g>
<defs>
<clipPath id="clip0_246_158">
<rect width="50" height="50" fill="white"/>
</clipPath>
</defs>
</svg>
