<svg width="50" height="50" viewBox="0 0 50 50" fill="none" xmlns="http://www.w3.org/2000/svg">
<path d="M3.68472 48.6111C1.12638 48.6111 -0.00139478 46.7528 1.17638 44.4819L22.8555 2.73889C24.0347 0.468058 25.9639 0.468058 27.143 2.73889L48.8222 44.4833C50.0028 46.7528 48.8736 48.6111 46.3153 48.6111H3.68472Z" fill="#FFEC44"/>
<path d="M21.6431 40.2125C21.6431 38.3611 23.15 36.8542 25.0028 36.8542C26.8542 36.8542 28.3611 38.3611 28.3611 40.2125C28.3611 42.0653 26.8528 43.5723 25.0028 43.5723C23.15 43.5723 21.6431 42.0653 21.6431 40.2125ZM21.9014 14.8056C21.9014 12.9973 23.2361 11.8778 25.0014 11.8778C26.725 11.8778 28.1028 13.0403 28.1028 14.8056V31.3861C28.1028 33.1514 26.725 34.3139 25.0014 34.3139C23.2361 34.3139 21.9014 33.1931 21.9014 31.3861V14.8056Z" fill="#231F20"/>
</svg>
