<svg width="200" height="89" viewBox="0 0 200 89" fill="none" xmlns="http://www.w3.org/2000/svg">
<path d="M150 33.7277L200 11C200 7.3333 199.772 3.72774 199.394 0.166626L150 22.6166V16.5555C150 10.4222 145.022 5.44441 138.889 5.44441H61.1111C54.9778 5.44441 50 10.4222 50 16.5555V22.6166L0.611111 0.166626C0.227778 3.72774 0 7.3333 0 11L50 33.7277V58.9833L8.59444 51.4555C10.4889 55.7333 12.7111 59.8277 15.1667 63.7611L50 70.0944V77.6666C50 83.8 54.9778 88.7777 61.1111 88.7777H138.889C145.022 88.7777 150 83.8 150 77.6666V70.0944L184.839 63.7555C187.289 59.8222 189.511 55.7277 191.406 51.45L150 58.9833V33.7277Z" fill="#F5F8FA"/>
</svg>
