<svg width="88" height="100" viewBox="0 0 88 100" fill="none" xmlns="http://www.w3.org/2000/svg">
<path d="M38 8.33334C22.6583 8.33334 10.2222 20.7695 10.2222 36.1111V63.8889H21.3333V36.1111C21.3333 26.9083 28.7945 19.4445 38 19.4445C47.2056 19.4445 54.6667 26.9083 54.6667 36.1111V63.8889H65.7778V36.1111C65.7778 20.7695 53.3417 8.33334 38 8.33334Z" fill="#AAB8C2"/>
<path d="M74.1111 88.8889C74.1111 95.025 69.1361 100 63 100H13C6.86392 100 1.88892 95.025 1.88892 88.8889V55.5556C1.88892 49.4195 6.86392 44.4445 13 44.4445H63C69.1361 44.4445 74.1111 49.4195 74.1111 55.5556V88.8889Z" fill="#FFAC33"/>
</svg>
