<svg width="101" height="165" viewBox="0 0 101 165" fill="none" xmlns="http://www.w3.org/2000/svg">
<path d="M88.3556 165C85.1056 165 82.4722 162.367 82.4722 159.117V47.3555C82.4722 44.1055 85.1056 41.4722 88.3556 41.4722C91.6056 41.4722 94.2389 44.1055 94.2389 47.3555V159.122C94.2333 162.367 91.6056 165 88.3556 165Z" fill="#292F33"/>
<path d="M88.3556 35.5889C88.0556 35.5889 87.7722 35.6555 87.4778 35.6778C83.4111 15.5222 65.5722 0.294434 44.2333 0.294434C19.9056 0.294434 0.116669 20.0833 0.116669 44.4111C0.116669 68.7389 19.9056 88.5278 44.2333 88.5278C63.5 88.5278 79.8778 76.0944 85.8778 58.8444C86.6778 59.0167 87.5 59.1166 88.35 59.1166C94.85 59.1166 100.117 53.85 100.117 47.35C100.117 40.8555 94.85 35.5889 88.3556 35.5889ZM44.2333 76.7666C26.3944 76.7666 11.8833 62.2555 11.8833 44.4111C11.8833 26.5667 26.4 12.0555 44.2333 12.0555C62.0722 12.0555 76.5889 26.5667 76.5889 44.4111C76.5889 62.2555 62.0722 76.7666 44.2333 76.7666Z" fill="#67757F"/>
<path d="M61.8278 17.2834C56.7611 13.9889 50.7278 12.0612 44.2333 12.0612C26.3667 12.0612 11.8778 26.5445 11.8778 44.4167C11.8778 50.9112 13.8111 56.9445 17.1 62.0112L61.8278 17.2834ZM30.4278 73.6389C34.6222 75.6223 39.2889 76.7667 44.2333 76.7667C62.1 76.7667 76.5889 62.2834 76.5889 44.4112C76.5889 39.4667 75.4444 34.7945 73.4611 30.6056L30.4278 73.6389Z" fill="#BDDDF4"/>
</svg>
