<svg width="80" height="80" viewBox="0 0 80 80" fill="none" xmlns="http://www.w3.org/2000/svg">
<path d="M77.7778 40C77.7778 53.5 66.8333 64.4444 53.3333 64.4444H26.6667C13.1667 64.4444 2.22222 53.5 2.22222 40C2.22222 26.5 13.1667 15.5555 26.6667 15.5555H53.3333C66.8333 15.5555 77.7778 26.5 77.7778 40Z" fill="#E6AAAA"/>
<path d="M22.2222 53.3333C27.1314 53.3333 31.1111 47.3638 31.1111 40C31.1111 32.6362 27.1314 26.6667 22.2222 26.6667C17.313 26.6667 13.3333 32.6362 13.3333 40C13.3333 47.3638 17.313 53.3333 22.2222 53.3333Z" fill="#662113"/>
<path d="M57.7778 53.3333C62.687 53.3333 66.6667 47.3638 66.6667 40C66.6667 32.6362 62.687 26.6667 57.7778 26.6667C52.8686 26.6667 48.8889 32.6362 48.8889 40C48.8889 47.3638 52.8686 53.3333 57.7778 53.3333Z" fill="#662113"/>
</svg>
