<svg width="80" height="80" viewBox="0 0 80 80" fill="none" xmlns="http://www.w3.org/2000/svg">
<path d="M66.3978 75.2867C68.9889 77.8778 73.1111 78 75.5556 75.5556C78 73.1111 77.8778 68.9889 75.2867 66.3978L26.9356 18.0467C24.3444 15.4556 20.2222 15.3333 17.7778 17.7778C15.3333 20.2222 15.4556 24.3445 18.0467 26.9356L66.3978 75.2867Z" fill="#F4900C"/>
<path d="M48.8889 6.66664C48.8889 6.66664 35.5556 -2.94693e-05 24.4444 11.1111L8.88889 26.6666C8.88889 26.6666 6.66666 24.4444 4.44444 26.6666L2.22222 28.8889C2.22222 28.8889 -2.21788e-06 31.1111 2.22222 33.3333L11.1111 42.2222C11.1111 42.2222 13.3333 44.4444 15.5556 42.2222L17.7778 40C17.7778 40 20 37.7778 17.7778 35.5555L17.6044 35.3822C19.3156 33.7311 21.8778 32.0489 24.4444 33.3333L33.3333 24.4444C33.3333 24.4444 31.1111 17.7777 35.5556 13.3333C40 8.88886 42.2222 8.88886 46.6667 8.88886C51.1111 8.88886 48.8889 6.66664 48.8889 6.66664Z" fill="#66757F"/>
</svg>
