<svg width="130" height="86" viewBox="0 0 130 86" fill="none" xmlns="http://www.w3.org/2000/svg">
<path d="M128.689 30.0666C133.017 50.2666 120.15 70.1555 99.95 74.4833C79.75 78.8111 59.8611 65.9444 55.5278 45.7444C51.2 25.5444 64.0667 5.65554 84.2667 1.32776C104.467 -3.00002 124.361 9.86109 128.689 30.0666Z" fill="#F4F7F9"/>
<path d="M89.9222 42.9333C96.1722 42.9333 101.239 37.8667 101.239 31.6167C101.239 25.3666 96.1722 20.3 89.9222 20.3C83.6722 20.3 78.6055 25.3666 78.6055 31.6167C78.6055 37.8667 83.6722 42.9333 89.9222 42.9333Z" fill="#292F33"/>
<path d="M44.2667 59.3444C46.8 71.1556 39.2722 82.7833 27.4611 85.3167C15.65 87.85 4.02224 80.3222 1.4889 68.5111C-1.04443 56.7 6.48335 45.0722 18.2945 42.5389C30.1056 40.0056 41.7333 47.5333 44.2667 59.3444Z" fill="#F4F7F9"/>
<path d="M25.1428 78.641C30.9691 77.3925 34.6801 71.6573 33.4316 65.831C32.1831 60.0047 26.4478 56.2937 20.6215 57.5422C14.7953 58.7907 11.0843 64.526 12.3328 70.3523C13.5813 76.1785 19.3165 79.8895 25.1428 78.641Z" fill="#292F33"/>
</svg>
