<svg width="118" height="23" viewBox="0 0 118 23" fill="none" xmlns="http://www.w3.org/2000/svg">
<path d="M117.094 18.8722C116.761 18.1222 108.767 0.555557 92.3333 0.555557C75.9056 0.555557 67.9055 18.1222 67.5722 18.8722C67.0611 20.0222 67.3944 21.3667 68.3778 22.1556C69.35 22.9444 70.7444 22.9722 71.7667 22.2333C71.8333 22.1833 78.7778 17.2222 92.3333 17.2222C105.811 17.2222 112.744 22.1167 112.9 22.2278C113.389 22.5944 113.978 22.7778 114.556 22.7778C115.167 22.7778 115.783 22.5722 116.289 22.1722C117.272 21.3833 117.611 20.0278 117.094 18.8722ZM117.094 18.8722C116.761 18.1222 108.767 0.555557 92.3333 0.555557C75.9056 0.555557 67.9055 18.1222 67.5722 18.8722C67.0611 20.0222 67.3944 21.3667 68.3778 22.1556C69.35 22.9444 70.7444 22.9722 71.7667 22.2333C71.8333 22.1833 78.7778 17.2222 92.3333 17.2222C105.811 17.2222 112.744 22.1167 112.9 22.2278C113.389 22.5944 113.978 22.7778 114.556 22.7778C115.167 22.7778 115.783 22.5722 116.289 22.1722C117.272 21.3833 117.611 20.0278 117.094 18.8722ZM117.094 18.8722C116.761 18.1222 108.767 0.555557 92.3333 0.555557C75.9056 0.555557 67.9055 18.1222 67.5722 18.8722C67.0611 20.0222 67.3944 21.3667 68.3778 22.1556C69.35 22.9444 70.7444 22.9722 71.7667 22.2333C71.8333 22.1833 78.7778 17.2222 92.3333 17.2222C105.811 17.2222 112.744 22.1167 112.9 22.2278" fill="#664500"/>
<path d="M25.6667 0.555557C42.1 0.555557 50.0944 18.1222 50.4278 18.8722C50.9389 20.0278 50.6111 21.3833 49.6222 22.1722C49.1167 22.5722 48.5 22.7778 47.8889 22.7778C47.3111 22.7778 46.7222 22.5944 46.2333 22.2278C46.0778 22.1167 39.1444 17.2222 25.6667 17.2222C12.1055 17.2222 5.16666 22.1833 5.09443 22.2333C4.07777 22.9722 2.68332 22.9444 1.70554 22.1556C0.727766 21.3667 0.394435 20.0222 0.905546 18.8722C1.23888 18.1222 9.23888 0.555557 25.6667 0.555557Z" fill="#664500"/>
</svg>
