<svg width="196" height="89" viewBox="0 0 196 89" fill="none" xmlns="http://www.w3.org/2000/svg">
<path d="M90.5 18.2278C85.7278 4.72223 70.9222 -2.36666 57.4111 2.39446C49.2111 5.28335 43.4056 11.9 41.1444 19.6389C34.5278 15.0333 25.8611 13.5278 17.6722 16.4167C4.17222 21.1833 -2.92778 36 1.84445 49.5056C2.52222 51.4167 3.42222 53.1889 4.46667 54.8278C15.3056 74.7278 46.6222 88.7167 65.5833 88.8889C80.2333 76.85 95.8389 46.3056 91.7944 24.0167C91.5833 22.0833 91.1667 20.1389 90.5 18.2278ZM105.5 18.2278C110.272 4.72223 125.083 -2.36666 138.589 2.39446C146.789 5.28335 152.594 11.9 154.861 19.6389C161.478 15.0333 170.144 13.5278 178.333 16.4167C191.833 21.1833 198.928 36 194.167 49.5056C193.483 51.4167 192.589 53.1889 191.539 54.8278C180.7 74.7278 149.383 88.7167 130.417 88.8889C115.767 76.85 100.167 46.3056 104.211 24.0167C104.417 22.0833 104.833 20.1389 105.5 18.2278Z" fill="#DD2E44"/>
</svg>
