<svg width="146" height="46" viewBox="0 0 146 46" fill="none" xmlns="http://www.w3.org/2000/svg">
<path d="M6.33892 45.1111C4.65003 45.1111 2.98336 44.3444 1.88892 42.8889C0.0444715 40.4389 0.544473 36.9555 3.00003 35.1167C3.79447 34.5222 19.3945 22.9889 41.0889 18.8222C27.3389 11.9278 12.0778 11.7778 11.8834 11.7778C8.81669 11.7667 6.33336 9.27777 6.33892 6.2111C6.33892 3.14999 8.82225 0.666656 11.8889 0.666656C13.1167 0.666656 42.1778 0.877768 60.2611 18.9611C61.85 20.55 62.3278 22.9389 61.4667 25.0167C60.6056 27.0944 58.5778 28.4444 56.3334 28.4444C30.7056 28.4444 9.87225 43.8444 9.66669 44C8.66669 44.75 7.49447 45.1111 6.33892 45.1111ZM139.661 45.1055C138.506 45.1055 137.339 44.75 136.339 44.0055C136.128 43.8444 115.167 28.4444 89.6667 28.4444C87.4222 28.4444 85.3889 27.0944 84.5334 25.0167C83.6722 22.9389 84.15 20.55 85.7389 18.9611C103.828 0.877768 132.883 0.666656 134.111 0.666656C137.178 0.666656 139.656 3.14999 139.661 6.2111C139.667 9.27777 137.183 11.7667 134.122 11.7778C133.922 11.7778 118.661 11.9278 104.911 18.8222C126.606 22.9889 142.206 34.5167 142.994 35.1167C145.444 36.9555 145.944 40.4278 144.111 42.8833C143.022 44.3333 141.356 45.1055 139.661 45.1055Z" fill="#664500"/>
</svg>
