<svg width="137" height="74" viewBox="0 0 137 74" fill="none" xmlns="http://www.w3.org/2000/svg">
<path d="M49.8722 49.8611C49.5388 49.1111 41.5444 31.5444 25.1111 31.5444C8.68328 31.5444 0.683277 49.1111 0.349943 49.8611C-0.161168 51.0111 0.172163 52.3556 1.14994 53.1444C2.13327 53.9389 3.52216 53.9611 4.53883 53.2222C4.61105 53.1722 11.5499 48.2111 25.1111 48.2111C38.5888 48.2111 45.5222 53.1056 45.6777 53.2167C46.1666 53.5833 46.7499 53.7667 47.3333 53.7667C47.9444 53.7667 48.5611 53.5611 49.0611 53.1611C50.0555 52.3722 50.3833 51.0167 49.8722 49.8611Z" fill="#66471B"/>
<path d="M136.222 37C136.222 56.9444 120.056 73.1111 100.111 73.1111C80.1667 73.1111 64 56.9444 64 37C64 17.0556 80.1667 0.888885 100.111 0.888885C120.056 0.888885 136.222 17.0556 136.222 37Z" fill="#F5F8FA"/>
<path d="M100.111 50.8889C107.782 50.8889 114 44.6706 114 37C114 29.3294 107.782 23.1111 100.111 23.1111C92.4404 23.1111 86.2222 29.3294 86.2222 37C86.2222 44.6706 92.4404 50.8889 100.111 50.8889Z" fill="#292F33"/>
</svg>
