<svg width="118" height="40" viewBox="0 0 118 40" fill="none" xmlns="http://www.w3.org/2000/svg">
<path d="M6.06111 39.7944C5.05 39.7944 4.02222 39.5167 3.10555 38.9389C0.51111 37.3055 -0.266669 33.8778 1.36666 31.2778C6.45555 23.2055 21.9278 9.39999 44.0889 14.8222C47.0667 15.55 48.8889 18.5611 48.1611 21.5389C47.4278 24.5167 44.4056 26.3278 41.4444 25.6111C21.4222 20.7111 10.8778 37.0333 10.7722 37.2C9.71111 38.8778 7.90555 39.7944 6.06111 39.7944ZM72.5778 19.0055C70.9667 19.0055 69.3778 18.3111 68.2778 16.9722C66.3333 14.6 66.6778 11.0944 69.0556 9.14999C86.7 -5.31668 106.622 0.472208 114.694 5.5611C117.289 7.19443 118.067 10.6278 116.428 13.2222C114.8 15.8055 111.383 16.5944 108.783 14.9722C108.017 14.5055 91.8278 4.84443 76.0944 17.7444C75.0611 18.5944 73.8167 19.0055 72.5778 19.0055Z" fill="#664500"/>
</svg>
