<svg width="148" height="69" viewBox="0 0 148 69" fill="none" xmlns="http://www.w3.org/2000/svg">
<path d="M140.083 22.6556C127.939 3.62222 106.228 -2.54444 94.7667 2.32778C88.4334 5.01111 85.2611 13.5611 85.1167 28.1444C85.0834 31.5667 85.2167 35.3333 85.5167 39.4333C85.6945 41.85 85.8889 44.3 86.1778 46.95C86.9222 53.7222 90.4945 59.0667 96.5056 62.3889C100.506 64.6055 105.289 65.7444 110.233 66.0611C118.694 66.5944 127.661 64.6944 134.017 61.6222C140.739 58.3778 145.106 52.5333 146.006 45.5889C146.906 38.6833 144.967 30.3167 140.083 22.6556Z" fill="white"/>
<path d="M146.011 45.5889C146.906 38.6833 144.967 30.3111 140.083 22.6556C137.569 18.7685 134.519 15.2561 131.022 12.2222C126.284 9.74082 121.015 8.44457 115.667 8.44444C109.179 8.45199 102.834 10.3511 97.4089 13.9092C91.9839 17.4674 87.7141 22.5302 85.1222 28.4778C85.1 31.8167 85.2222 35.4611 85.5166 39.4389C85.6944 41.8556 85.8888 44.3055 86.1833 46.9555C86.9277 53.7278 90.5 59.0722 96.5111 62.3944C100.511 64.6111 105.294 65.75 110.239 66.0667C118.7 66.6 127.667 64.7 134.022 61.6278C140.744 58.3778 145.111 52.5389 146.011 45.5889Z" fill="#F4900C"/>
<path d="M115.667 61.2222C127.94 61.2222 137.889 51.273 137.889 39C137.889 26.727 127.94 16.7778 115.667 16.7778C103.394 16.7778 93.4445 26.727 93.4445 39C93.4445 51.273 103.394 61.2222 115.667 61.2222Z" fill="#65471B"/>
<path d="M115.233 27.44C118.863 23.8064 119.513 18.5701 116.685 15.7445C113.856 12.919 108.621 13.574 104.991 17.2077C101.361 20.8413 100.711 26.0776 103.539 28.9031C106.367 31.7287 111.603 31.0737 115.233 27.44Z" fill="white"/>
<path d="M95.1666 64.8222C99.3166 67.1222 104.328 68.4722 110.067 68.8333C111.078 68.8944 112.094 68.9278 113.117 68.9278C120.85 68.9278 128.911 67.1778 135.233 64.1278C140.639 61.5167 144.667 57.3833 146.911 52.3667C147.246 51.6198 147.286 50.7741 147.025 49.9986C146.763 49.2231 146.219 48.5748 145.5 48.1833C137.606 43.9 129.272 55.75 118.433 55.75C107.589 55.75 95.8 50.55 89.2333 55.75C88.937 55.987 88.6918 56.2815 88.5124 56.6158C88.333 56.9501 88.2231 57.3172 88.1894 57.6951C88.1556 58.073 88.1987 58.4538 88.3161 58.8146C88.4334 59.1754 88.6226 59.5087 88.8722 59.7944C90.5888 61.7556 92.6833 63.45 95.1666 64.8222Z" fill="#5DADEC"/>
<path d="M7.91668 22.6556C20.0611 3.62222 41.7722 -2.54444 53.2333 2.32778C59.5667 5.01111 62.7389 13.5611 62.8833 28.1444C62.9167 31.5667 62.7833 35.3333 62.4833 39.4333C62.3056 41.85 62.1111 44.3 61.8222 46.95C61.0778 53.7222 57.5056 59.0667 51.4945 62.3889C47.4945 64.6055 42.7111 65.7444 37.7667 66.0611C29.3056 66.5944 20.3389 64.6944 13.9833 61.6222C7.26112 58.3778 2.89446 52.5333 1.99446 45.5889C1.09446 38.6833 3.03335 30.3167 7.91668 22.6556Z" fill="white"/>
<path d="M61.8222 46.9556C61.0777 53.7278 57.5055 59.0722 51.4944 62.3944C47.4944 64.6111 42.7111 65.75 37.7666 66.0667C29.3055 66.6 20.3389 64.7 13.9833 61.6278C7.26109 58.3833 2.89442 52.5389 1.99442 45.5944C1.09997 38.6889 3.03886 30.3167 7.9222 22.6611C10.4363 18.7741 13.4868 15.2616 16.9833 12.2278C21.7214 9.74638 26.9903 8.45013 32.3389 8.45C38.8267 8.45755 45.1715 10.3566 50.5965 13.9148C56.0216 17.473 60.2914 22.5358 62.8833 28.4833C62.9055 31.8222 62.7833 35.4667 62.4889 39.4444C62.308 41.9517 62.0858 44.4557 61.8222 46.9556Z" fill="#F4900C"/>
<path d="M32.3333 61.2222C44.6063 61.2222 54.5555 51.273 54.5555 39C54.5555 26.727 44.6063 16.7778 32.3333 16.7778C20.0603 16.7778 10.1111 26.727 10.1111 39C10.1111 51.273 20.0603 61.2222 32.3333 61.2222Z" fill="#65471B"/>
<path d="M34.8555 22.3333C33.7278 26.9333 29.1944 30.6667 24.7333 30.6667C20.2722 30.6667 17.5722 26.9333 18.7 22.3333C19.8277 17.7333 24.3611 14 28.8222 14C33.2833 14 35.9833 17.7333 34.8555 22.3333Z" fill="white"/>
<path d="M52.8333 64.8222C48.6833 67.1222 43.6722 68.4722 37.9333 68.8333C36.9178 68.8955 35.9007 68.927 34.8833 68.9278C27.15 68.9278 19.0888 67.1778 12.7666 64.1278C7.36106 61.5167 3.33328 57.3833 1.08884 52.3667C0.754087 51.6198 0.713451 50.7741 0.975047 49.9986C1.23664 49.2231 1.78121 48.5748 2.49995 48.1833C10.3944 43.9 18.7277 55.75 29.5666 55.75C40.4111 55.75 52.2 50.55 58.7666 55.75C59.0629 55.987 59.3081 56.2815 59.4875 56.6158C59.6669 56.9501 59.7768 57.3172 59.8105 57.6951C59.8443 58.073 59.8012 58.4538 59.6838 58.8146C59.5665 59.1754 59.3773 59.5087 59.1277 59.7944C57.3387 61.8244 55.2085 63.526 52.8333 64.8222Z" fill="#5DADEC"/>
</svg>
