<svg width="124" height="17" viewBox="0 0 124 17" fill="none" xmlns="http://www.w3.org/2000/svg">
<path d="M123.111 5.8889C123.111 2.82223 120.628 0.333344 117.556 0.333344H78.6667C75.5945 0.333344 73.1111 2.82223 73.1111 5.8889C73.1111 8.95556 75.5945 11.4445 78.6667 11.4445H106.956C108.106 14.6722 111.156 17 114.778 17C119.378 17 123.111 13.2722 123.111 8.66668C123.111 8.05557 123.033 7.46113 122.911 6.88335C122.978 6.55001 123.111 6.2389 123.111 5.8889ZM50.8889 5.8889C50.8889 2.82223 48.4 0.333344 45.3334 0.333344H6.44447C3.3778 0.333344 0.888916 2.82223 0.888916 5.8889C0.888916 8.95556 3.3778 11.4445 6.44447 11.4445H34.7334C35.8834 14.6722 38.9334 17 42.5556 17C47.1556 17 50.8889 13.2722 50.8889 8.66668C50.8889 8.05557 50.8111 7.46113 50.6889 6.88335C50.75 6.55001 50.8889 6.2389 50.8889 5.8889Z" fill="#664500"/>
</svg>
