<svg width="134" height="62" viewBox="0 0 134 62" fill="none" xmlns="http://www.w3.org/2000/svg">
<path d="M103.111 61.2222C119.986 61.2222 133.667 47.542 133.667 30.6667C133.667 13.7913 119.986 0.111115 103.111 0.111115C86.2357 0.111115 72.5555 13.7913 72.5555 30.6667C72.5555 47.542 86.2357 61.2222 103.111 61.2222Z" fill="#F5F8FA"/>
<path d="M30.8889 61.2222C47.7643 61.2222 61.4445 47.542 61.4445 30.6667C61.4445 13.7913 47.7643 0.111115 30.8889 0.111115C14.0135 0.111115 0.333344 13.7913 0.333344 30.6667C0.333344 47.542 14.0135 61.2222 30.8889 61.2222Z" fill="#F5F8FA"/>
<path d="M30.8889 44.5556C38.5595 44.5556 44.7778 38.3373 44.7778 30.6667C44.7778 22.996 38.5595 16.7778 30.8889 16.7778C23.2183 16.7778 17 22.996 17 30.6667C17 38.3373 23.2183 44.5556 30.8889 44.5556Z" fill="#292F33"/>
<path d="M103.111 44.5556C110.782 44.5556 117 38.3373 117 30.6667C117 22.996 110.782 16.7778 103.111 16.7778C95.4405 16.7778 89.2222 22.996 89.2222 30.6667C89.2222 38.3373 95.4405 44.5556 103.111 44.5556Z" fill="#292F33"/>
</svg>
