<svg width="137" height="53" viewBox="0 0 137 53" fill="none" xmlns="http://www.w3.org/2000/svg">
<path d="M2.45556 46.7723C3.8389 47.75 5.64445 48.0834 7.37223 47.5223C30.6333 39.9945 46.4111 50.6 47.0722 51.0556C49.5889 52.7889 53.0445 52.1723 54.7945 49.6667C56.5445 47.1612 55.95 43.7167 53.4556 41.9556C52.6222 41.3667 32.7 27.6501 3.95556 36.9501C1.03334 37.8945 -0.566661 41.0278 0.383339 43.9445C0.761117 45.1334 1.51112 46.1 2.45556 46.7723ZM129.672 34.8223C127.628 34.8223 125.611 33.9278 124.233 32.2056C116.483 22.4778 100.35 13.9445 94.7111 13.9445C91.1444 13.9445 84.0167 19.0056 80.2445 22.6556C77.4889 25.3334 73.0889 25.25 70.4278 22.5C67.7611 19.75 67.8222 15.3612 70.5611 12.6889C72.7333 10.5778 84.0944 0.0500488 94.7111 0.0500488C105.85 0.0500488 125.478 11.4723 135.1 23.5445C137.494 26.5445 136.994 30.9112 134 33.3C132.717 34.3278 131.183 34.8223 129.672 34.8223Z" fill="#664500"/>
</svg>
