<svg width="112" height="46" viewBox="0 0 112 46" fill="none" xmlns="http://www.w3.org/2000/svg">
<path d="M67.1167 45.2222C66.8111 45.2222 66.5111 45.2 66.2 45.1444C63.1722 44.6389 61.1278 41.7778 61.6333 38.75C63.8167 25.6167 75.9111 0.777771 106 0.777771C109.072 0.777771 111.556 3.26666 111.556 6.33333C111.556 9.39999 109.072 11.8889 106 11.8889C77.6945 11.8889 72.7833 39.4111 72.5889 40.5833C72.1389 43.2944 69.7833 45.2222 67.1167 45.2222ZM44.8833 45.2222C42.2222 45.2222 39.8722 43.3056 39.4111 40.5944C39.2056 39.4278 34.1056 11.8889 6.00001 11.8889C2.93335 11.8889 0.444458 9.39999 0.444458 6.33333C0.444458 3.26666 2.93335 0.777771 6.00001 0.777771C36.0889 0.777771 48.1778 25.6167 50.3667 38.75C50.8722 41.7778 48.8278 44.6389 45.8 45.1444C45.4945 45.2 45.1833 45.2222 44.8833 45.2222Z" fill="#664500"/>
</svg>
