<svg width="124" height="23" viewBox="0 0 124 23" fill="none" xmlns="http://www.w3.org/2000/svg">
<path d="M123.078 17.5056C123.087 16.0399 122.519 14.6295 121.498 13.5787C120.476 12.5279 119.082 11.921 117.617 11.8889C117.244 11.8833 108.433 11.5778 99.2612 2.40556C98.7454 1.88976 98.133 1.4806 97.4591 1.20145C96.7851 0.922302 96.0628 0.778625 95.3334 0.778625C93.8602 0.778625 92.4473 1.36385 91.4056 2.40556C90.3639 3.44728 89.7787 4.86014 89.7787 6.33334C89.7787 7.80654 90.3639 9.21941 91.4056 10.2611C104 22.8556 117.006 23 117.556 23C119.015 22.9986 120.414 22.4201 121.449 21.3908C122.484 20.3615 123.069 18.9649 123.078 17.5056ZM32.5945 10.2611C33.1103 9.74531 33.5194 9.13297 33.7986 8.45904C34.0777 7.78511 34.2214 7.0628 34.2214 6.33334C34.2214 5.60389 34.0777 4.88157 33.7986 4.20764C33.5194 3.53371 33.1103 2.92137 32.5945 2.40556C32.0787 1.88976 31.4663 1.4806 30.7924 1.20145C30.1185 0.922302 29.3962 0.778625 28.6667 0.778625C27.9373 0.778625 27.2149 0.922302 26.541 1.20145C25.8671 1.4806 25.2547 1.88976 24.7389 2.40556C15.6223 11.5222 6.86115 11.8778 6.38893 11.8889C4.91551 11.8963 3.50536 12.4886 2.4687 13.5357C1.43204 14.5828 0.853786 15.9988 0.861154 17.4722C0.868521 18.9457 1.4609 20.3558 2.50798 21.3925C3.55506 22.4291 4.97106 23.0074 6.44449 23C6.99449 23 20 22.8556 32.5945 10.2611Z" fill="#65471B"/>
</svg>
