<svg width="146" height="55" viewBox="0 0 146 55" fill="none" xmlns="http://www.w3.org/2000/svg">
<path d="M6.33888 34.1111C3.27221 34.1111 0.783325 31.6222 0.783325 28.5555C0.783325 25.4944 3.25555 23.0111 6.31666 23C7.18333 22.9889 26.1444 22.5222 40.7889 2.99999C42.6278 0.555548 46.1055 0.0444351 48.5667 1.88888C51.0222 3.72777 51.5167 7.2111 49.6778 9.66666C31.55 33.8333 7.3611 34.1111 6.33888 34.1111ZM145.15 47.4055C145.861 50.3889 144.017 53.3889 141.033 54.1C138.056 54.8111 135.067 52.9778 134.344 50.0056C134.133 49.1667 129.283 30.8278 106.894 21.1111C104.089 19.8889 102.789 16.6222 104.011 13.8055C105.233 10.9889 108.506 9.69999 111.317 10.9222C139.033 22.95 144.911 46.4111 145.15 47.4055Z" fill="#65471B"/>
</svg>
