<svg width="200" height="200" viewBox="0 0 200 200" fill="none" xmlns="http://www.w3.org/2000/svg">
<path d="M180 200V192.857C180 169.186 160.681 150 136.844 150H54.9632C35.1043 150 19 165.993 19 185.714V200H180Z" fill="#DD2E44"/>
<path d="M77 151.57L98.4968 161L120 151.57V130H77V151.57Z" fill="#FFDC5D"/>
<path d="M77 142.087C83.5359 147.615 89.6626 149 98.478 149C107.287 149 113.458 147.61 120 142.087V126H77V142.087Z" fill="#F9CA55"/>
<path d="M63.0892 159.819L31.9179 164.957C30.1008 165.257 28.377 163.953 28.0897 162.057L27.0411 155.169C26.7538 153.273 28.0035 151.481 29.8278 151.181L60.9991 146.043C62.8163 145.743 64.54 147.047 64.8345 148.943L65.8831 155.831C66.1632 157.72 64.9135 159.519 63.0892 159.819ZM135.904 159.819L167.075 164.957C168.892 165.257 170.616 163.953 170.91 162.057L171.959 155.169C172.246 153.273 170.996 151.481 169.172 151.181L138.001 146.043C136.184 145.743 134.46 147.047 134.165 148.943L133.117 155.831C132.83 157.72 134.086 159.519 135.904 159.819Z" fill="#292F33"/>
<path d="M96 164H103V200H96V164Z" fill="#F5F8FA"/>
<path d="M123.582 141.024C123.582 152.308 107.651 156.671 99.5 156.671C91.349 156.671 75.4175 152.308 75.4175 141.024C75.4175 141.024 71 140.114 71 149.507C71 158.899 84.452 171 99.5 171C114.548 171 128 158.899 128 149.507C128 140.114 123.582 141.024 123.582 141.024Z" fill="#292F33"/>
</svg>
