<svg width="200" height="200" viewBox="0 0 200 200" fill="none" xmlns="http://www.w3.org/2000/svg">
<path d="M134.55 41.6667C124.656 41.6667 121.006 49.1334 120.317 51.0445C119.622 52.9556 112.85 64.4111 112.328 67.0167C111.806 69.6222 109.206 68.4056 106.944 68.0611C104.689 67.7167 93.75 67.1945 89.7556 67.0167C89.7556 67.0167 87.0611 62.8889 83.3333 63.1945C79.1667 63.5389 76.2167 64.7556 75.5222 68.9222C74.8278 73.0889 81.25 77.6 84.2 77.6C87.15 77.6 89.7556 76.0389 90.8 76.0389C91.8444 76.0389 107.989 79.6834 110.939 80.0334C113.889 80.3778 119.1 80.2056 120.489 77.95C121.878 75.6945 132.122 61.8056 133.511 59.0278C134.9 56.25 134.55 41.6667 134.55 41.6667ZM126.044 89.4111C126.044 89.4111 106.583 132.456 104.978 134.878C103.372 137.294 103.122 141.728 103.822 145.489C104.522 149.25 114.95 181.522 114.083 188.117C113.661 191.317 128.461 195.783 125.678 188.333C123.072 181.344 123.739 167.733 122.917 156.772C122.333 149.017 120.139 141.144 120.139 141.144L139.928 110.244C139.928 110.244 150.578 137.517 151.039 142.361C151.211 144.156 149.883 149.106 149.994 155.383C150.183 166.061 151.711 179.917 151.383 183.856C150.883 189.828 160.256 194.017 160.894 184.25C161.589 173.639 168.411 152.894 166.317 139.061C162.778 115.7 157.983 92.0111 157.983 92.0111L126.044 89.4111Z" fill="#CCD6DD"/>
<path d="M172.817 194.583H150.15C146.917 194.583 149.228 187.433 149.456 184.433C149.689 181.433 151.072 183.05 152.222 183.972C153.378 184.894 156.2 183.739 158.739 182.356C161.278 180.972 164.706 179.767 165.794 181.422C169.789 187.5 173.294 186.422 176.211 188.711C178.644 190.622 179.861 194.583 172.817 194.583ZM103.822 194.583H125.2C128.428 194.583 126.122 187.433 125.894 184.433C125.661 181.433 124.278 183.05 123.128 183.972C121.972 184.894 114.478 186.05 113.722 182.467C113.128 179.639 108.4 180.989 107.3 182.639C103.828 187.839 94.9777 185.778 92.7166 188.717C90.7222 191.3 90.3499 194.583 103.822 194.583ZM140.278 41.4944H155.556C160.939 41.4944 163.889 45.4889 164.583 48.4389C165.278 51.3889 165.45 58.6833 162.85 63.0222C160.244 67.3611 155.317 76.7389 155.317 81.6C155.317 86.4611 160.594 97.9166 161.289 101.044C161.983 104.172 155.817 103.594 151.394 106.6C147.055 109.55 142.539 114.589 142.194 116.15C141.85 117.711 136.467 119.794 135.422 116.494C134.378 113.194 130.794 108.994 126.044 105.039C122.922 102.433 120.317 101.567 120.489 99.8278C120.661 98.0944 124.094 89.3444 124.394 86.3278C125.783 72.2666 117.455 71.9055 119.794 62.3278C121.172 56.6889 126.044 44.7944 130.211 42.7111C134.378 40.6278 135.767 41.4944 140.278 41.4944Z" fill="#99AAB5"/>
<path d="M160.417 42.8834C165.45 42.5389 167.017 45.1389 169.272 46.1834C171.528 47.2278 177.606 49.4834 178.994 50.0056C180.383 50.5278 182.817 53.4778 182.817 48.7889C182.817 46.35 184.033 40.2834 184.55 37.5056C185.289 33.5667 185.939 29.8667 185.939 29.8667C185.939 29.8667 181.944 24.1389 182.117 22.4C182.289 20.6667 184.2 16.15 186.456 15.1111C188.711 14.0667 195.133 17.7167 197.222 19.1056C199.311 20.4945 198.439 23.9667 196.878 26.2222C195.317 28.4778 193.756 32.4167 193.756 36.0778C193.756 40.7667 193.861 54.2111 192.644 63.4167C192.233 66.5334 187.956 66.5389 184.833 66.1945C181.711 65.85 167.883 63.55 159.378 61.6389C150.867 59.7222 155.383 43.2278 160.417 42.8834ZM138.061 7.53891C145.861 5.8778 152.639 10.0556 155.311 14.5389C159.9 22.2222 153.467 33.75 156.078 38.5389C158.5 42.9834 156.778 44.0167 153.3 46.35C149.9 48.6334 146.283 51.5278 139.239 51.3834C131.1 51.2222 129.928 46.6111 130.906 42.7056C131.383 40.8056 131.389 38.95 131.061 37.1611C131.061 37.1611 127.806 34.5556 127.644 25.9334C127.517 19.2611 125.85 10.1445 138.061 7.53891Z" fill="#CCD6DD"/>
<g filter="url(#filter0_d_282_540)">
<path d="M154.167 23.3778C153.167 32.3945 149.217 40 141.839 40C134.461 40 129.339 33.85 128.5 25C127.625 15.7684 134.156 8.50004 141.839 9.00004C149.2 9.48893 155.144 14.5834 154.167 23.3778Z" fill="#F5F8FA"/>
</g>
<path d="M78.2722 65.2333L74.5834 64.4555C34.05 56.0055 0.933355 50.4055 0.611133 51.9555C0.288911 53.5055 32.8834 61.6166 73.4111 70.0666L77.1056 70.8277L78.2722 65.2333Z" fill="#66757F"/>
<path d="M84.4889 69.45C83.4723 74.3278 80.1334 77.7667 77.0389 77.1167C73.9445 76.4722 70.8945 71.7056 71.9167 66.8278C72.9334 61.9445 77.6334 58.7945 80.7278 59.4445C83.8223 60.0889 85.5056 64.5723 84.4889 69.45Z" fill="#66757F"/>
<defs>
<filter id="filter0_d_282_540" x="124.421" y="8.97571" width="33.8512" height="39.0243" filterUnits="userSpaceOnUse" color-interpolation-filters="sRGB">
<feFlood flood-opacity="0" result="BackgroundImageFix"/>
<feColorMatrix in="SourceAlpha" type="matrix" values="0 0 0 0 0 0 0 0 0 0 0 0 0 0 0 0 0 0 127 0" result="hardAlpha"/>
<feOffset dy="4"/>
<feGaussianBlur stdDeviation="2"/>
<feComposite in2="hardAlpha" operator="out"/>
<feColorMatrix type="matrix" values="0 0 0 0 0 0 0 0 0 0 0 0 0 0 0 0 0 0 0.25 0"/>
<feBlend mode="normal" in2="BackgroundImageFix" result="effect1_dropShadow_282_540"/>
<feBlend mode="normal" in="SourceGraphic" in2="effect1_dropShadow_282_540" result="shape"/>
</filter>
</defs>
</svg>
