<svg width="200" height="200" viewBox="0 0 200 200" fill="none" xmlns="http://www.w3.org/2000/svg">
<path d="M94.7421 187.117C95.4698 191.489 83.1254 195.195 81.5421 194.484C79.8476 193.722 87.031 189.995 86.9143 187.672C86.3254 175.895 81.8921 176.778 82.3699 164.45C77.9143 151.25 80.3976 138.778 81.8476 134.339C84.3865 126.556 99.2143 138.539 98.531 143.511C97.3976 151.778 94.131 157.828 94.0032 164.384C96.3365 174.845 93.031 176.85 94.7421 187.117ZM134.675 182.272C136.637 186.245 138.709 193.222 136.987 193C135.148 192.761 129.231 190.195 127.342 185.072C123.264 174.011 117.637 177.017 114.525 165.072C108.709 156.3 101.181 143.506 99.9643 140.195C97.1365 132.506 118.803 130.545 120.07 135.4C122.848 146.034 122.898 154.061 124.675 160.378C129.942 169.711 130.064 172.939 134.675 182.272Z" fill="#FFDC5D"/>
<path d="M79.8144 142.522C78.9366 143.372 76.7033 143.834 76.1422 143.695C74.8366 143.361 71.8977 141.322 70.2477 139.328C67.2422 135.706 55.4644 131.922 52.3422 124.217C51.8144 122.917 51.8477 121.328 52.7922 119.417C53.3699 118.25 61.2922 105.217 68.5199 98.2836C70.8922 96.0058 73.7977 93.4391 77.2366 93.1225C80.2033 92.8502 83.0977 99.6891 81.8255 102.306C77.681 110.806 65.131 116.789 61.5699 121.684C67.181 126.15 66.6199 128.989 74.2755 133.478C75.1199 132.95 76.7755 132.495 77.2255 132.595C77.6755 132.695 78.7255 133.389 78.5644 134.745C78.7033 134.845 79.8644 135.778 80.1366 136.267C80.8866 137.595 80.9477 141.422 79.8144 142.522ZM121.942 143.222C122.903 143.978 125.176 144.211 125.714 144.011C126.976 143.55 129.692 141.217 131.131 139.067C133.753 135.156 145.075 130.189 147.398 122.206C147.787 120.856 147.598 119.278 146.459 117.478C145.764 116.378 137.331 104.834 129.892 98.1225C127.914 96.3391 123.47 91.8058 121.198 93.7447C118.931 95.678 113.62 101.056 115.159 103.528C120.153 111.561 133.914 116.122 137.959 120.628C132.837 125.645 133.681 128.411 126.526 133.661C125.631 133.228 123.937 132.939 123.498 133.084C123.059 133.234 122.087 134.028 122.387 135.356C122.259 135.472 121.198 136.517 120.975 137.028C120.37 138.434 120.703 142.25 121.942 143.222Z" fill="#FFDC5D"/>
<path d="M125.353 94.1836C121.375 91.9669 118.07 90.2558 111.937 90.2558H98.9643H85.9921C82.2254 90.2558 77.4976 91.8947 72.9143 94.1836C73.9588 97.6113 75.2921 105.884 76.7476 110.828C78.1421 115.567 82.5476 122.795 81.1754 128.372C80.431 131.4 78.4532 148.789 79.3643 154.484C84.3976 154.895 90.9143 155.472 95.781 156.384C97.081 152.311 98.2421 147.967 98.1643 148.161C99.4865 148.211 101.425 148.067 102.625 147.8C103.892 150.039 107.909 155.972 107.909 155.972C107.909 155.972 116.987 154.406 123.42 152.839C122.953 146.317 119.742 132.772 118.325 128.306C116.725 123.261 120.292 114.05 121.187 110.839C122.009 107.867 125.353 94.1836 125.353 94.1836Z" fill="#292F33"/>
<path d="M110 92.4944C110 90.6688 109.518 89.5902 107.233 89.5902V77H90.7675V89.5902C88.4818 89.5902 88 90.6688 88 92.4944C88 93.4974 88 101.996 98.9959 102H99.0082C110 101.996 110 93.4974 110 92.4944Z" fill="#FFDC5D"/>
<path d="M91 87.8594C93.432 91.9707 95.712 93 98.992 93C102.268 93 104.568 91.9647 107 87.8594V83H91V87.8594Z" fill="#F9CA55"/>
</svg>
