<svg width="200" height="200" viewBox="0 0 200 200" fill="none" xmlns="http://www.w3.org/2000/svg">
<path d="M145.317 195.889C145.289 195.7 145.011 194.7 145.011 194.7L144.694 194.85L144.717 194.106C144.6 190.883 141.339 191.272 140.95 191.239C140.561 191.206 139.256 191.272 137.639 191.067C136.028 190.861 134.472 190.467 133.106 189.639C131.511 188.672 129.339 187.044 127.472 185.956C125.606 184.867 123.261 183.528 123.261 183.528C123.261 183.528 121.222 187.317 117 187.161C114.728 187.078 111.167 185.289 110.706 185.161C110.094 184.989 109.822 185.333 109.567 185.806C109.311 186.283 108.394 189.606 108.394 191.389C108.394 192.522 108.533 193.239 108.639 193.639L108.333 193.544C108.194 193.506 108.061 193.611 108.061 193.761V197.578C108.061 197.828 108.267 198.394 108.922 198.528C109.578 198.661 118.694 199.444 119.039 199.139C119.383 198.833 119.761 197.85 120.056 197.711C120.35 197.578 123.406 198.233 124.828 198.572C126.25 198.911 128.706 199.489 131.594 199.489C134.483 199.489 138.211 198.639 140.522 198.061C142.828 197.483 144.639 196.711 145.05 196.456C145.461 196.2 145.344 196.083 145.317 195.889Z" fill="#292F33"/>
<path d="M117.722 196.694L115.444 195.1C115.489 195.028 120.05 188.728 128.994 191.4C129.506 190.7 130.272 189.6 131.011 188.378L133.389 189.822C132.056 192.022 130.661 193.811 130.606 193.883L129.989 194.672L129.044 194.333C121.383 191.606 117.761 196.639 117.722 196.694Z" fill="#4B545D"/>
<path d="M79.2667 195.889C79.2389 195.7 78.9611 194.7 78.9611 194.7L78.6444 194.85L78.6667 194.106C78.55 190.883 75.2889 191.272 74.9 191.239C74.5111 191.206 73.2056 191.272 71.5889 191.067C69.9722 190.861 68.4222 190.467 67.0556 189.639C65.4611 188.672 63.2889 187.044 61.4222 185.956C59.5556 184.867 57.2111 183.528 57.2111 183.528C57.2111 183.528 55.1722 187.317 50.95 187.161C48.6778 187.078 45.1167 185.289 44.6556 185.161C44.0444 184.989 43.7722 185.333 43.5167 185.806C43.2611 186.283 42.3444 189.606 42.3444 191.389C42.3444 192.522 42.4833 193.239 42.5889 193.639L42.2833 193.544C42.1444 193.506 42.0111 193.611 42.0111 193.761V197.578C42.0111 197.828 42.2167 198.394 42.8722 198.528C43.5278 198.661 52.6444 199.444 52.9889 199.139C53.3333 198.833 53.7111 197.85 54.0056 197.711C54.3 197.578 57.3556 198.233 58.7778 198.572C60.2 198.911 62.6556 199.489 65.5444 199.489C68.4333 199.489 72.1611 198.639 74.4722 198.061C76.7778 197.483 78.5889 196.711 79 196.456C79.4056 196.2 79.2944 196.083 79.2667 195.889Z" fill="#292F33"/>
<path d="M51.6666 196.7L49.3944 195.1C49.4389 195.033 53.9666 188.717 62.9444 191.4C63.45 190.7 64.2222 189.6 64.9611 188.378L67.3389 189.822C66.0055 192.022 64.6111 193.811 64.5555 193.883L63.9389 194.672L62.9944 194.333C55.4055 191.622 51.8166 196.489 51.6666 196.7Z" fill="#4B545D"/>
<path d="M159.211 10.0889C158.156 9.59446 157.661 10.6556 157.661 10.6556L155.561 15.1667C155.6 15.0889 155.1 14.7722 155.133 14.7111L158.244 8.0389C158.244 8.0389 158.739 6.98335 157.678 6.4889C156.617 5.99446 156.128 7.05557 156.128 7.05557L155.828 7.69446L153.206 13.3222C153.211 13.3056 152.689 13.05 152.694 13.0389L156.15 5.61668C156.15 5.61668 156.644 4.56113 155.583 4.06668C154.528 3.57224 154.033 4.63335 154.033 4.63335L150.578 12.0556C150.572 12.0667 150.039 11.8389 150.028 11.8556L152.889 5.71113C152.889 5.71113 153.383 4.65557 152.322 4.16113C151.267 3.66668 150.772 4.72779 150.772 4.72779L146.872 13.1C146.606 13.6722 146.1 13.6833 145.878 13.5333C145.289 13.1333 145.6 12.0889 145.439 11.1778C145.189 9.7889 144.35 8.87224 143.467 8.85557C142.489 8.8389 142.322 9.62224 142.4 9.89446C142.556 10.4222 142.806 11.3056 143.1 12.7056C143.306 13.6889 143.006 14.5056 143.006 14.5056C142.878 14.9056 142.533 16.2722 142.794 17.8611C142.95 18.8 143.306 19.8167 143.933 20.75L142.089 24.7167L150.461 28.3778L152.494 23.0667C153.978 22.4056 155.272 21.2945 156.011 19.7111L156.256 19.1833L159.761 11.6556C159.778 11.6333 160.267 10.5778 159.211 10.0889Z" fill="#FFDC5D"/>
<path d="M146.378 13.5722C146.6 13.5056 146.711 13.3722 146.795 13.25C147.728 13.85 148.956 14.7611 149.522 16.2667C150.256 18.2167 149.822 19.75 149.367 20.7C149 21.4667 148.411 21.6333 148.817 20.4389C149.328 18.9389 149.611 15.6278 146.289 13.7444L145.983 13.5778C145.989 13.5778 146.189 13.6278 146.378 13.5722Z" fill="#EF9645"/>
<path d="M63.3166 113.183C62.8944 112.828 62.1944 112.233 61.1777 111.228C60.4611 110.517 60.2611 109.678 60.2611 109.678C60.1444 109.272 59.6777 107.944 58.5777 106.767C57.9277 106.067 57.0722 105.417 56.0277 104.994L55.3833 100.667L46.3833 102.244L47.6277 107.794C46.7611 109.167 46.2944 110.806 46.5555 112.539L46.6444 113.117L47.8889 121.328C47.8889 121.328 48.0611 122.478 49.2166 122.306C50.3722 122.133 50.1944 120.978 50.1944 120.978L49.4444 116.056C49.4555 116.139 50.0444 116.128 50.0555 116.2L51.1555 123.478C51.1555 123.478 51.3277 124.628 52.4833 124.456C53.6333 124.283 53.4611 123.128 53.4611 123.128L53.3555 122.428L52.4277 116.289C52.4277 116.306 53.0055 116.233 53.0111 116.239L54.2389 124.333C54.2389 124.333 54.4111 125.483 55.5666 125.311C56.7166 125.139 56.5444 123.983 56.5444 123.983L55.3222 115.889C55.3222 115.878 55.8944 115.772 55.8889 115.756L56.9 122.456C56.9 122.456 57.0722 123.606 58.2277 123.433C59.3777 123.261 59.2055 122.106 59.2055 122.106L57.8222 112.972C57.7277 112.35 58.1389 112.056 58.4111 112.061C59.1222 112.067 59.4389 113.111 60.0777 113.778C61.0555 114.794 62.2611 115.094 63.0055 114.622C63.8277 114.111 63.5333 113.361 63.3166 113.183Z" fill="#FFDC5D"/>
<path d="M143.411 20.7167C143.411 20.7167 131.972 44.7222 130.622 45.5C129.406 46.2 121.072 45.2667 110.072 47.4667C99.0778 49.6667 94.8278 46.6056 83.5778 47.05C77.0445 47.3056 70.1723 49.5611 65.65 50.65C58.7778 52.3111 47.45 68.6333 44.2723 74.3167C41.8112 78.7111 41.9334 83.65 42.4556 87.4944C42.8889 90.7056 42.7778 95.75 47.0112 106.439L56.5612 104.878C56.5612 104.878 54.9556 83.8611 56.3223 81.5889C56.8889 80.65 63.6723 69.8167 69.1167 67.85L114.606 65.7111C114.606 65.7111 133.356 63.0167 138.506 59.2278C142.439 56.3333 152.378 24.5 152.378 24.5L143.411 20.7167Z" fill="#292F33"/>
<path d="M87.3742 35.7556C88.8742 35.7556 89.3743 35.7556 90.8742 35.7556C94.3742 35.7556 93.3742 35.7556 96.825 35.7556L98.5972 53.2722C98.9361 56.6667 96.4639 59.7167 93.0583 60.0556C89.6416 60.4056 86.6083 57.9222 86.2694 54.5167L84.3743 35.7556C86.3743 35.7555 85.8742 35.7556 87.3742 35.7556Z" fill="#FFDC5D"/>
<path d="M68.9277 52.6333V104.039L108.278 103.906C108.278 103.906 111.75 88.8889 114.022 78.6333C116.656 66.7722 108.028 48.6778 108.028 48.6778L102.017 48.0778L100.839 42.4611L94.9722 44.6833L94.1333 54.4111L91.6 45.1556L83 44.4056L81.9777 50.3333L68.9277 52.6333Z" fill="#DD2E44"/>
<path d="M65.45 53.2944C65.45 53.2944 69.2723 66.8666 67.5889 94.9611C79.9667 94.75 89.6056 90.8944 89.6056 90.8944C89.6056 90.8944 90.4167 80.2333 88.3389 70.8111C85.3056 57.0944 82.2 49.0277 82.2 49.0277L65.45 53.2944ZM101.65 46.3722C101.65 46.3722 105.111 64.5444 104.339 75.3944C103.561 86.2444 103.033 90.3611 103.033 90.3611C103.033 90.3611 105.483 93.0611 111.756 92.95C114.35 86.1611 115.933 72.5111 115.617 64.1555C115.289 55.35 110.05 46.7833 110.05 46.7833L101.65 46.3722ZM68.9278 104.039C68.9278 104.039 65.5556 142.9 63.4723 150.189C61.6167 156.678 42.3667 187.644 42.3667 187.644C42.3667 187.644 51.5111 189.9 60.3056 188.167C60.3056 188.167 77.8778 166.856 82.4723 156.567C83.8056 153.572 92.6667 125.894 92.6667 125.894C92.6667 125.894 102.178 136.494 108.572 145.889C112.617 157.017 109.072 187.233 109.072 187.233C109.072 187.233 117.311 188.967 125.178 187.467C125.178 187.467 129.95 157.483 128.794 144.756C128.611 142.717 128.222 138.922 127.433 137.483C123.994 131.244 116.528 119.533 111.756 114.306C107.456 109.6 108.283 103.9 108.283 103.9L68.9278 104.039Z" fill="#292F33"/>
</svg>
