<svg width="200" height="200" viewBox="0 0 200 200" fill="none" xmlns="http://www.w3.org/2000/svg">
<g clip-path="url(#clip0_280_343)">
<path d="M144.444 145.35L144.539 149.994H33.3334V200H166.667V145.361L144.444 145.35Z" fill="#FA743E"/>
<path d="M85 149.792C85 149.792 88.5214 160 99.7071 160C110.893 160 114 149.792 114 149.792L113.901 130.495L85 130V149.792Z" fill="#FFDC5D"/>
<path d="M85 140.488C89.4071 146.493 93.535 148 99.4833 148C105.423 148 109.589 146.488 114 140.488V123H85.0042V140.488H85Z" fill="#F9CA55"/>
<path d="M181.367 130.489C180.75 127.5 177.844 125.578 174.872 126.189L163.444 128.583H153.394C148.672 128.583 144.85 132.444 144.85 137.222V145.844H166.222C170.833 145.844 174.572 142.144 174.733 137.533L176.25 137.217H179.044C179.044 136.889 178.922 136.589 178.85 136.278C180.75 135.083 181.833 132.828 181.367 130.489Z" fill="#F9CA55"/>
<path d="M200.417 132.894C200.417 130.511 198.506 128.583 196.139 128.583L170.494 132.894H149.122C146.756 132.894 144.844 134.833 144.844 137.217L144.444 145.833L153.394 145.844H170.494L196.139 137.217C196.139 137.217 200.417 135.283 200.417 132.894Z" fill="#FFDC5D"/>
<path d="M19.0555 151.311C19.6667 148.322 22.5722 146.4 25.5444 147.011L36.9778 149.406H47.0222C51.7444 149.406 55.5722 153.267 55.5722 158.044V166.667H34.1944C29.5833 166.667 25.8444 162.967 25.6833 158.356L24.1667 158.039H21.3722C21.3722 157.711 21.4944 157.411 21.5722 157.1C19.6667 155.906 18.5833 153.65 19.0555 151.311Z" fill="#F9CA55"/>
<path d="M0 153.717C0 151.333 1.91111 149.406 4.27222 149.406L29.9222 153.717H51.2944C53.6556 153.717 55.5667 155.656 55.5667 158.039V166.667H29.9222L4.27222 158.039C4.27222 158.039 0 156.106 0 153.717Z" fill="#FFDC5D"/>
<path d="M55.5555 166.667H61.1111V200H55.5555V166.667ZM138.889 150H144.444V200H138.889V150Z" fill="#DD551F"/>
</g>
<defs>
<clipPath id="clip0_280_343">
<rect width="200" height="200" fill="white"/>
</clipPath>
</defs>
</svg>
