<svg width="200" height="200" viewBox="0 0 200 200" fill="none" xmlns="http://www.w3.org/2000/svg">
<path d="M162.544 183.422L160.95 145.711C161.594 127.311 147.2 111.878 128.8 111.233L73.2778 109.294C54.8778 108.65 44.8612 121.344 38.8 141.444L35.0834 176.422L162.544 183.422Z" fill="#FA743E"/>
<path d="M81.1111 112.261C81.1111 116.106 91.3389 120.833 100 120.833C108.667 120.833 118.889 116.106 118.889 112.261V95.8333H81.1111V112.261Z" fill="#FFDC5D"/>
<path d="M81.1111 103.094C86.3722 108.972 92.9 110.561 100 110.561C107.094 110.561 113.622 108.967 118.889 103.094V88.1611H81.1111V103.094Z" fill="#F9CA55"/>
<path d="M158.478 171.1C161.533 179.45 152.25 175.683 144.989 178.4C140.278 180.161 132.311 183.044 131.083 179.15C128.65 171.461 124.333 158.522 122.561 150.772C122.678 150.728 122.967 150.611 123.072 150.561C122.572 149.817 122.494 147.494 122.411 146.544C121.661 138.172 127.478 129.572 127.478 129.572C127.478 129.572 138.889 128.028 141.772 126.533C143.139 135.45 144.372 141.206 144.372 141.206C144.372 141.206 154.828 161.128 158.478 171.1Z" fill="#DD2E44"/>
<path d="M130.661 116.844L132.917 123.711C134.344 128.067 131.956 132.8 127.6 134.228L102.567 142.45C98.2111 143.878 93.4778 141.489 92.05 137.133L89.7945 130.267C88.3667 125.911 90.7556 121.178 95.1111 119.75L120.144 111.528C124.5 110.094 129.233 112.489 130.661 116.844Z" fill="#E1E8ED"/>
<path d="M82.1945 128.178C83.4389 131.961 71.5167 135.878 72.7611 139.661C74.0056 143.444 85.9222 139.533 87.1667 143.317C88.4111 147.1 92.3834 145.794 92.3834 145.794L88.6556 134.444L84.9278 123.094C84.9278 123.089 80.9556 124.394 82.1945 128.178Z" fill="#88C9F9"/>
<path d="M92.2333 122.356L98.7 142.05C99.1778 143.5 98.3778 145.078 96.9278 145.556L93.1222 146.806C91.6722 147.283 90.0944 146.483 89.6167 145.033L83.15 125.339C82.6722 123.889 83.4722 122.311 84.9222 121.833L88.7278 120.583C90.1778 120.111 91.7555 120.906 92.2333 122.356Z" fill="#55ACEE"/>
<path d="M122.161 195.25C128.083 195.289 137.361 182.417 128.211 174.956C119.056 167.494 103.217 157.739 95.1055 153.811C84.7222 148.789 65.2944 132.039 61.4389 128.017C57.5833 123.994 48.3778 124.667 43.5389 131.7C40.1 136.7 35.5056 154.994 43.5167 169.722C52.8833 186.933 68.8555 197.956 90.1611 197.956C95.7889 197.956 101.917 198.328 105.394 197.544C108.872 196.761 115.039 195.206 122.161 195.25Z" fill="#A6D388"/>
<path d="M136.867 156.722C143.994 156 144.117 146.172 143.128 140.161C141.239 128.683 143.417 118.606 134.428 114.472C126.561 110.856 130.578 122.217 126.294 131.128C120.144 143.911 124.317 149.939 124.317 149.939C124.317 149.939 130.628 157.239 136.867 156.722Z" fill="#FFDC5D"/>
<path d="M161.811 179.633C165.967 191.622 151.889 199.561 142.733 196.261C137.983 194.55 135.178 187.711 131.772 175.939C127.117 159.872 124.494 151.022 124.494 151.022C124.494 151.022 129.394 149.772 135.239 147.217C141.028 144.683 144 142.133 144 142.133C144 142.133 158.383 169.733 161.811 179.633Z" fill="#FA743E"/>
<path d="M96.0167 199.344H110.267C121.9 199.344 133.928 191.689 134.533 181.811C135.067 173.167 125.417 180.261 115.689 178.489C106.844 176.872 99.1889 178.9 99.1889 178.9C99.1889 178.9 99.8112 192.806 96.0167 199.344Z" fill="#FFDC5D"/>
<path d="M36.2001 172.089C39.8278 163.883 55.2612 166.767 68.6667 170.067C80.4334 172.961 92.5112 176.667 101.461 178.25C101.461 178.25 103.317 182.444 102.411 189.95C101.906 194.128 99.6001 199.2 99.6001 199.2C99.6001 199.2 81.5556 199.706 69.5723 198.117C51.5834 195.739 29.6389 186.939 36.2001 172.089Z" fill="#FA743E"/>
</svg>
