<svg width="200" height="200" viewBox="0 0 200 200" fill="none" xmlns="http://www.w3.org/2000/svg">
<g clip-path="url(#clip0_277_93)">
<path d="M150 122.222H50C50 122.222 0 122.222 0 161.111C0 178.644 22.2222 200 22.2222 200H177.778C177.778 200 200 178.644 200 161.111C200 122.222 150 122.222 150 122.222Z" fill="#FA743E"/>
<path d="M100 172.222C109.205 172.222 116.667 164.76 116.667 155.556C116.667 146.351 109.205 138.889 100 138.889C90.7953 138.889 83.3334 146.351 83.3334 155.556C83.3334 164.76 90.7953 172.222 100 172.222Z" fill="#F9CA55"/>
<path d="M94.4445 188.889L66.6667 183.333L55.5556 177.778H38.8889L33.3334 200H94.4445C100 200 100 194.444 100 194.444C100 191.372 94.4445 188.889 94.4445 188.889ZM144.444 177.778L133.333 183.333L105.556 188.889C105.556 188.889 100 191.372 100 194.444C100 194.444 100 200 105.556 200H166.667L161.111 177.778H144.444Z" fill="#FFDC5D"/>
</g>
<defs>
<clipPath id="clip0_277_93">
<rect width="200" height="200" fill="white"/>
</clipPath>
</defs>
</svg>
