<svg width="200" height="200" viewBox="0 0 200 200" fill="none" xmlns="http://www.w3.org/2000/svg">
<path d="M93.9334 178.767C94.2112 175.417 92.2723 173.111 89.7389 173.078H88.6945C86.1612 173.111 84.2223 175.417 84.5 178.767C84.9167 183.794 84.4056 186.544 84.2112 191.644C84.0723 195.389 85.8556 199.967 89.2167 199.928C92.5778 199.967 94.3612 195.389 94.2223 191.644C94.0278 186.544 93.5167 183.794 93.9334 178.767Z" fill="#DD2E44"/>
<path d="M94.5611 152.617C94.5666 151.128 91.8611 150.406 89.2166 150.428C86.5722 150.406 83.8666 151.128 83.8722 152.617C83.8722 152.617 86.1444 171.772 85.7111 189.789C85.6722 191.378 87.45 192.233 89.2166 192.25C90.9833 192.233 92.7611 191.383 92.7222 189.789C92.2889 171.772 94.5611 152.617 94.5611 152.617Z" fill="#FFDC5D"/>
<path d="M85.4722 178.228H93.0555V181.839H85.4722V178.228Z" fill="#DD2E44"/>
<path d="M134.611 115.661C134.611 115.661 152.178 102.983 154.6 102.833C155.972 102.744 165.061 102.111 166.989 101.928C173.983 101.233 188.4 98.2056 189.661 97.9334C190.928 97.6556 191.45 98.1056 194.322 93.4556C197.194 88.8 194.078 89.9 194.078 89.9C194.078 89.9 192.111 91.5278 191.039 92.0056C189.967 92.4834 187.917 92.9667 185.989 92.9278C179.961 92.8 146.128 91.3667 146.128 91.3667C141.417 91.6389 138.972 91.5889 137.156 95.1056C133.967 101.239 134.417 112.539 134.611 115.661Z" fill="#FFDC5D"/>
<path d="M103.333 51.85C97.8889 49.9944 94 50.2 87.35 50.1111L85.6333 40.9056C82.5 40.9056 83.5 41 80.5 41C77.5 41 78 41 74.5 41L76.1667 50.0778L65.3889 50.3333L65.5111 61.1834C65.5611 62.6389 65.9889 64.45 66.9056 66.7389C72.4611 80.6278 100.239 83.3223 100.239 69.5167C100.239 66.1612 99.9722 63.6278 99.4056 61.7C106.1 62.1889 118.106 56.8833 103.333 51.85Z" fill="#FFDC5D"/>
<path d="M72.4611 88.9611C72.4611 100.072 72.4611 105.628 61.35 122.294C50.2388 138.961 39.1277 138.961 33.5722 150.072C28.0166 161.183 33.5722 161.183 44.6833 155.628C55.7944 150.072 50.2388 177.85 66.9055 177.85C83.5722 177.85 78.0166 161.183 89.1277 161.183C100.239 161.183 105.794 177.85 116.906 177.85C128.017 177.85 131.244 164.411 122.461 155.628C116.906 150.072 133.572 138.961 139.128 144.517C147.911 153.3 157.106 140.272 144.683 127.85C139.128 122.294 134.744 116.156 144.683 111.183C155.794 105.628 158.572 83.4056 144.683 88.9611C126.106 96.3945 100.239 106.522 100.239 88.9611V66.7389C100.239 66.7389 92.6888 64.7167 90.2888 50.1667L89.2444 50.1334C89.2444 50.1334 86.1277 69.5445 73.5722 50.1778L72.3944 50.1889C72.3944 50.1889 77.1722 64.7222 68.7833 71.1334C68.2222 71.5556 72.4611 77.85 72.4611 88.9611Z" fill="#DD2E44"/>
<path d="M144.683 104.933C138.45 108.05 137.85 111.628 139.639 115.233C140.522 113.828 142.117 112.467 144.683 111.183C151.633 107.711 155.322 97.7166 153.711 92.0778C152.672 97.0889 149.456 102.55 144.683 104.933ZM116.906 171.6C105.794 171.6 100.239 154.933 89.1277 154.933C78.0166 154.933 83.5722 171.6 66.9055 171.6C50.2389 171.6 55.7944 143.822 44.6833 149.378C38.6833 152.378 34.3889 153.672 32.5055 152.556C29.1111 161.033 34.5166 160.711 44.6833 155.628C55.7944 150.072 50.2389 177.85 66.9055 177.85C83.5722 177.85 78.0166 161.183 89.1277 161.183C100.239 161.183 105.794 177.85 116.906 177.85C124.8 177.85 128.606 171.061 127.061 163.983C125.9 168.333 122.372 171.6 116.906 171.6ZM139.128 138.267C133.572 132.711 116.906 143.822 122.461 149.378C122.539 149.456 122.578 149.544 122.65 149.622C126.056 144.844 135.267 140.656 139.128 144.517C145.744 151.133 152.583 145.372 150.256 136.822C148.778 141.344 143.906 143.044 139.128 138.267Z" fill="#A0041E"/>
<path d="M199.167 87.1667C199.167 87.1667 196.817 86 194.806 88.9389C194.406 89.5334 194.072 89.8945 194.072 89.8945C194.3 90.2945 194.222 90.7278 194.1 91.1C193.378 93.3111 191.478 94.9667 187.844 95.4889C186.333 95.7056 185.122 95.9722 184.044 96.2556L184.15 92.8945L180.539 92.7778L180.383 97.6333C178.739 98.5778 178.217 99.5667 177.972 100.306C177.439 101.928 181.061 103.844 183.322 104.589C185.367 105.261 187.144 105.561 188.378 105.6C189.739 105.639 194.689 106.85 194.689 106.85L195.178 105.356C195.178 105.356 191.178 103.494 189.811 102.878C188.711 102.378 189.372 99.6445 191.056 99.35C195.528 98.5667 196.594 98.9278 197.278 96.8278L199.767 89.1889C200.228 87.8111 199.167 87.1667 199.167 87.1667Z" fill="#DD2E44"/>
<path d="M68.8111 51.4111C68.25 50.9778 67.6111 50.6778 66.9222 50.5167C65.9944 50.2945 64.9722 50.3222 63.8833 50.5889C61.7167 51.1278 58.5278 51.7333 55.15 52.3778C50.5389 53.2556 44.4222 55.0222 42.7667 55.0222C41.1111 55.0222 34.35 52.85 28.1333 52.0389C26.0778 51.7722 19.5111 51.1222 18.1111 50.9667C16.2111 50.7556 13.9111 50.5222 12.15 50.1333C11.3389 49.9556 8.18889 49.1111 6.91112 48.8833C4.48889 48.45 0.461118 48.2445 0.23334 48.7167C-0.744438 50.7611 4.47223 50.0111 8.77778 53.7889C11.3 56 13.8667 55.9056 16.3056 55.7278C18.2333 55.5889 24.3445 58.9111 29.2278 60.4C32.7556 61.4778 40.65 63.3611 41.7833 63.5222C42.9167 63.6833 48.9833 63.2333 53.0222 62.9111C57.1056 62.5945 60.6389 62.3167 63.4611 62.4944C66.1556 62.6667 68.1778 62.0556 69.4778 60.6833C71.1 58.9667 71.0667 56.5611 71.0222 55.8667C70.8889 53.9833 70.1056 52.4 68.8111 51.4111ZM131.022 58.8278C130.089 57.5556 127.883 55.6889 123.178 54.3833C119.528 53.3667 100.989 50.8889 97.35 50.4556C94.5278 50.1167 96.2556 60.5056 97.6833 61.3778C98.6 61.9389 99.7111 61.9889 101.389 62.1611C108.183 62.8611 118.4 62.3167 120.233 62.1333C121.028 62.0556 121.394 62.3444 121.444 62.85C121.094 64.4611 119.85 66.5667 118.794 68.9833C117.028 73.0222 115.15 78.5056 114.472 79.1333L113.856 79.6944C112.461 79.95 110.806 80.6611 109.328 81.8667C108.8 82.2944 108.306 82.8222 107.928 83.8889C107.406 85.3778 108.872 85.55 109.228 84.6556C109.378 84.2833 109.733 83.6389 110.556 83.4278C110.528 83.6 110.472 83.7444 110.467 83.9444C110.456 84.2667 110.372 84.5333 110.317 84.8222C109.05 87.0167 106.528 87.8944 106.7 88.7444C106.739 88.9278 106.967 88.9389 107.144 88.9889C106.289 89.5667 105.622 89.9667 105.678 90.4111C105.722 90.7722 106.122 90.8556 106.667 90.8056C106.272 91.1 106.017 91.3611 106.05 91.6333C106.194 92.7944 109.139 90.9889 110.55 90.4167C112.956 89.4389 114.361 88.4167 116.028 86.8833C117.967 85.0944 118.906 82.5111 119.744 81.0778C120.361 80.0222 127.75 71.0389 129.389 68.0333C131.806 63.6 131.956 60.1 131.022 58.8278Z" fill="#FFDC5D"/>
</svg>
