<svg width="200" height="200" viewBox="0 0 200 200" fill="none" xmlns="http://www.w3.org/2000/svg">
<path d="M194.444 200V172.222C194.444 153.811 179.522 138.889 161.111 138.889H72.2223C53.8167 138.889 38.8889 153.811 38.8889 172.222V200H194.444Z" fill="#FA743E"/>
<path d="M94.0052 143.05C94.0052 147.514 106.184 153 116.505 153C126.826 153 139 147.514 139 143.055V124H94L94.0052 143.05Z" fill="#FFDC5D"/>
<path d="M183.333 194.444C183.333 197.517 180.85 200 177.778 200H122.222C119.15 200 116.667 197.517 116.667 194.444C116.667 191.372 119.15 188.889 122.222 188.889H177.778C180.85 188.889 183.333 191.372 183.333 194.444Z" fill="#E1E8ED"/>
<path d="M112.444 122.222H20.8833C12.4167 122.222 1.56113 126.506 7.11668 141.839L24.1833 188.922C24.1889 188.922 26.3889 200 38.8889 200H150L127.778 137.556C125.344 130.211 120.917 122.222 112.444 122.222Z" fill="#E1E8ED"/>
<path d="M106.889 122.222H15.3278C6.86114 122.222 -3.99442 126.506 1.56114 141.839L18.6278 188.922C18.6334 188.922 20.8334 200 33.3334 200H144.444L122.222 137.556C119.789 130.211 115.361 122.222 106.889 122.222Z" fill="#99AAB5"/>
<path d="M77.8833 162.683C80.7944 171.417 78.4333 180.072 72.6111 182.011C66.7889 183.956 59.7111 178.45 56.8 169.717C53.8889 160.983 56.25 152.328 62.0722 150.389C67.8944 148.45 74.9778 153.95 77.8833 162.683ZM105.556 137.5H16.6667C14.3667 137.5 12.5 135.633 12.5 133.333C12.5 131.033 14.3667 129.167 16.6667 129.167H105.556C107.856 129.167 109.722 131.033 109.722 133.333C109.722 135.633 107.856 137.5 105.556 137.5Z" fill="#E1E8ED"/>
</svg>
