<svg width="200" height="200" viewBox="0 0 200 200" fill="none" xmlns="http://www.w3.org/2000/svg">
<path d="M72.5111 125.383C71.2 126.278 69.6666 125.272 68.9222 124.656C66.8166 122.917 64.6833 118.3 65.5277 112.756C66.3833 107.156 66.6333 100.617 69.2666 89.7722C69.5722 88.5056 68.8833 74.35 70.4444 64.6167C70.8666 61.9889 75.7666 58.6945 78.75 58.7445C81.7278 58.7889 80.2111 63.9889 80.2722 64.8611C80.9389 74.2056 78.3389 88.6333 78.0611 90.5945C76.5222 101.461 72.3222 106.344 73.75 113.539C74.5 117.311 74.6055 120.722 72.4055 121.011C72.4333 123.044 72.9944 125.056 72.5111 125.383ZM127.489 125.383C128.8 126.278 130.333 125.272 131.078 124.656C133.183 122.917 135.317 118.3 134.472 112.756C133.617 107.156 133.367 100.617 130.733 89.7722C130.428 88.5056 131.117 74.35 129.556 64.6167C129.133 61.9889 124.233 58.6945 121.25 58.7445C118.272 58.7889 119.789 63.9889 119.728 64.8611C119.061 74.2056 121.661 88.6333 121.939 90.5945C123.478 101.461 127.678 106.344 126.25 113.539C125.5 117.311 125.394 120.722 127.594 121.011C127.567 123.044 127.006 125.056 127.489 125.383Z" fill="#FFDC5D"/>
<path d="M119.833 148.517C119.944 131.5 119.911 112.406 119.911 112.406H79.9277C79.9277 112.406 80.1111 133.222 80.5888 148.294C80.9611 160.183 82.7111 182.7 81.1222 194.678C80.7666 197.339 96.5777 199.883 96.3555 193.983C95.9388 183.044 97.7722 158.861 98.1111 153.378C98.3 150.339 99.45 140.456 99.95 133.05C100.011 132.95 101.528 132.95 101.589 133.05C102.089 140.456 103.239 150.339 103.428 153.378C103.772 158.861 105.606 183.044 105.183 193.983C104.956 199.883 120.767 197.339 120.417 194.678C118.828 182.694 119.822 150.456 119.833 148.517Z" fill="#4289C1"/>
<path d="M124.256 52.6222C120.339 47.9055 100 44.5722 100 44.5722C100 44.5722 79.4834 47.9055 75.5667 52.6222C70.8112 58.35 68.3334 68.0278 68.3334 68.0278L78.2389 69.7944C78.2389 69.7944 80.7334 78.75 80.7334 87.2833C80.7334 95.8167 78.5223 116.767 78.5223 116.767H121.489C121.489 116.767 119.1 95.4333 119.1 87.2889C119.1 79.1444 121.772 69.7944 121.772 69.7944L131.5 68.0278C131.489 68.0278 129.006 58.3444 124.256 52.6222Z" fill="#FA743E"/>
<path d="M94.4944 38.2944V48.0389C94.4944 50.7278 97.2055 52.9111 100.555 52.9111C103.905 52.9111 106.617 50.7278 106.617 48.0389V38.2944H94.4944Z" fill="#FFDC5D"/>
<path d="M94.4944 44.3389C96.6944 45.7333 101.167 47.4333 106.617 44.1722V38.2944H94.4944V44.3389Z" fill="#F9CA55"/>
<path d="M77.1333 199.483C74.1 199.2 76.0945 195.683 77.4722 194.5C79.0056 193.178 81.4611 192.05 82.6945 189.767C84.0611 187.239 90.6556 187.572 92.0445 189.639C94.5278 193.328 95.6278 190.633 96.35 192.35C97.5 195.094 96.6222 199.483 96.6222 199.483H77.1333ZM124.222 199.483C127.256 199.2 125.261 195.683 123.883 194.5C122.35 193.178 119.894 192.05 118.661 189.767C117.294 187.239 110.7 187.572 109.311 189.639C106.828 193.328 105.728 190.633 105.006 192.35C103.856 195.094 104.733 199.483 104.733 199.483H124.222Z" fill="#292F33"/>
</svg>
