<svg width="200" height="200" viewBox="0 0 200 200" fill="none" xmlns="http://www.w3.org/2000/svg">
<path d="M122.222 150H22.2222C9.95 150 0 159.95 0 172.222V200H144.444V172.222C144.444 159.95 134.494 150 122.222 150Z" fill="#FA743E"/>
<path d="M116.667 177.778H122.222V200H116.667V177.778ZM22.2222 177.778H27.7777V200H22.2222V177.778Z" fill="#DD551F"/>
<path d="M55.5557 122.222V155.556C55.5557 164.761 63.0168 172.222 72.2223 172.222C81.4279 172.222 88.889 164.761 88.889 155.556V122.222H55.5557Z" fill="#FFDC5D"/>
<path d="M161.111 200H122.222L127.778 105.556H161.111V200Z" fill="#FA743E"/>
<path d="M175.228 85.7944C174.428 81.9444 170.661 79.4667 166.8 80.2555L151.945 83.3333H138.889C132.756 83.3333 127.778 88.3111 127.778 94.4444V105.556H155.556C161.55 105.556 166.406 100.794 166.622 94.85L168.595 94.4444H172.222C172.222 94.0333 172.067 93.6444 171.972 93.2444C174.439 91.7111 175.85 88.8055 175.228 85.7944Z" fill="#F9CA55"/>
<path d="M200 88.8889C200 85.8222 197.517 83.3333 194.444 83.3333L161.111 88.8889H133.333C130.261 88.8889 127.778 91.3778 127.778 94.4445V105.556H161.111L194.444 94.4445C194.444 94.4445 200 91.9611 200 88.8889Z" fill="#FFDC5D"/>
</svg>
