<svg width="200" height="200" viewBox="0 0 200 200" fill="none" xmlns="http://www.w3.org/2000/svg">
<path d="M100.061 194.306L99.7722 194.394C99.8722 194.017 100.006 193.339 100.006 192.267C100.006 190.583 99.1388 187.439 98.9 186.989C98.6611 186.539 98.3999 186.217 97.8222 186.378C97.3833 186.5 94.0166 188.189 91.8666 188.272C87.8722 188.422 85.9444 184.839 85.9444 184.839C85.9444 184.839 83.7277 186.106 81.9666 187.133C80.1999 188.161 78.15 189.7 76.6388 190.617C75.35 191.4 73.8777 191.772 72.3555 191.967C70.8333 192.161 69.5944 192.094 69.2277 192.128C68.8611 192.161 65.7777 191.789 65.6666 194.839L65.6833 195.544L65.3833 195.4C65.3833 195.4 65.1166 196.344 65.0944 196.522C65.0722 196.706 64.9611 196.811 65.3499 197.056C65.7388 197.3 67.4499 198.033 69.6277 198.578C71.8055 199.122 75.3388 199.928 78.0666 199.928C80.7944 199.928 83.1166 199.383 84.4611 199.061C85.8111 198.739 88.7 198.122 88.9777 198.25C89.2555 198.378 89.6222 199.311 89.9388 199.6C90.2611 199.889 98.8833 199.15 99.4999 199.022C100.122 198.894 100.311 198.361 100.311 198.122V194.517C100.322 194.367 100.194 194.267 100.061 194.306ZM160.878 173.461L158.078 171.078C157.972 170.989 157.811 171.017 157.75 171.144L157.628 171.428C157.4 171.1 156.961 170.55 156.133 169.844C154.828 168.733 151.817 167.322 151.311 167.217C150.806 167.106 150.383 167.094 150.128 167.644C149.933 168.067 149.022 171.789 147.661 173.511C145.139 176.706 141.083 175.833 141.083 175.833L140.233 180.433C139.861 182.478 139.7 185.089 139.411 186.867C139.167 188.383 138.483 189.772 137.622 191.078C136.767 192.389 135.9 193.3 135.678 193.611C135.461 193.917 133.139 196.061 135.428 198.167L135.989 198.617L135.683 198.756C135.683 198.756 136.239 199.583 136.361 199.722C136.483 199.861 136.5 200.017 136.939 199.878C137.378 199.739 139.083 198.894 140.944 197.567C142.811 196.233 145.767 194.028 147.567 191.911C149.372 189.794 150.478 187.633 151.122 186.378C151.767 185.122 153.194 182.472 153.478 182.339C153.761 182.206 154.722 182.539 155.161 182.483C155.594 182.428 160.722 175.25 161.033 174.689C161.344 174.128 161.061 173.617 160.878 173.461Z" fill="#292F33"/>
<path d="M107.222 68.0167C112.372 73.35 124.233 84.0722 124.494 85.3556C125.889 92.15 127.906 99.8334 127.383 104.544C127.006 107.961 129.472 111.756 130.444 113.339C131.656 115.306 134.783 118.328 136.783 118.117C138.028 117.989 139.933 115.728 138.917 114.583C136.933 112.361 137.261 108.978 136.017 105.922C133.522 99.7834 135.767 88.1778 132.344 80.5722C130.922 77.4222 128.272 71.1667 116.656 60.4278C113.817 62.9945 107.222 68.0167 107.222 68.0167Z" fill="#F9CA55"/>
<path d="M89.2334 190.017C82.2001 190.622 78.9389 188.722 79.6723 187.706C80.5889 186.439 80.3834 185.5 80.3945 184.728C80.5501 171.167 77.7778 151.444 77.7778 151.444C77.7778 149.511 77.7945 146.928 79.5112 142.767C83.8334 132.306 101.461 100.044 101.461 100.044C104.506 94.7222 111.3 92.8611 116.622 95.9111C121.95 98.9556 122.856 103.717 120.756 111.072C116.783 125.006 104.283 142.194 99.0723 152.611C100.317 164.394 98.1056 174.017 99.2667 185.15C99.4334 186.75 96.2667 189.411 89.2334 190.017Z" fill="#2A6797"/>
<path d="M148.872 177.394C146.85 180.467 143.483 182.628 139.994 182.05C132.944 171.361 112.467 152.489 112.467 152.489C111.128 151.1 109.344 149.228 107.689 145.039C103.533 134.511 93.8111 99.0556 93.8111 99.0556C92.3 93.1111 95.9 87.0556 101.844 85.5556C107.789 84.0444 111.75 86.8445 115.344 93.5889C122.161 106.372 125.106 127.422 128.589 138.533C138.978 147.244 141.828 158.55 152.339 167.15C151.978 171.911 150.894 174.322 148.872 177.394Z" fill="#4289C1"/>
<path d="M109.5 36C103.472 38.2333 109.5 36 100.233 40C100.233 40 99.8944 41.5111 100.461 45.85L100.467 45.8889C100.605 46.9944 100.6 48.3222 100.233 50.1278C98.4055 59.0722 110.578 63.4167 112.4 54.4556C113.122 50.9111 112.467 47.9 111.711 45.1389L111.639 44.8889C110.5 40.7778 110.5 40 109.5 36Z" fill="#FFDC5D"/>
<path d="M127.778 111.111C127.778 111.111 127.778 116.667 116.667 116.667H89.4556C95.0111 91.2333 88.9334 84.2222 90.7945 68.9944C92.8 52.5833 103.5 42.4889 110.1 44.8833C120.222 48.5556 125.061 59.5556 126.389 77.4278C127.717 95.3 127.778 111.111 127.778 111.111Z" fill="#FA743E"/>
<path d="M98.6112 65.5111C97.6834 73.2833 96.8223 90.1389 95.9501 91.2056C91.3223 96.8778 86.3834 103.65 82.1778 106.367C79.1278 108.333 77.6723 112.889 77.0278 114.739C76.2278 117.039 75.8445 121.617 77.3445 123.111C78.2834 124.044 81.4001 124.094 81.6556 122.5C82.1556 119.394 85.1334 117.406 86.8056 114.35C90.1612 108.217 101.156 102.311 105.095 94.4389C106.728 91.1722 110.072 84.8333 111.111 68.1667C107.111 67.5556 98.6112 65.5111 98.6112 65.5111Z" fill="#FFDC5D"/>
</svg>
