<svg width="200" height="200" viewBox="0 0 200 200" fill="none" xmlns="http://www.w3.org/2000/svg">
<path d="M150 150H55.5555V200H172.222V172.222C172.222 159.95 162.272 150 150 150Z" fill="#FA743E"/>
<path d="M83.3334 122.222V155.556C83.3334 164.761 90.7945 172.222 100 172.222C109.206 172.222 116.667 164.761 116.667 155.556V122.222H83.3334Z" fill="#FFDC5D"/>
<path d="M144.444 177.778H150V200H144.444V177.778Z" fill="#DD551F"/>
<path d="M69.0055 16.3056C65.7222 14.1444 61.3 15.0611 59.1389 18.3444L53.5 23.8V11.1111C53.5 4.97222 50.5777 0 44.4444 0H22.2222C16.0889 0 11.1111 4.97778 11.1111 11.1111V55.5556C11.1111 55.5556 11.1111 61.1111 16.6666 61.1111L44.4444 61.1111L50 55.5556V49.7611L67.5 25.5C69.6611 22.2111 72.3 18.4667 69.0055 16.3056Z" fill="#FFDC5D"/>
<path d="M22.2222 0H27.7777V27.7778H22.2222V0ZM38.8888 0H44.4444V27.7778H38.8888V0Z" fill="#EF9645"/>
<path d="M50 150H66.6666L55.5555 200C11.1111 200 11.1111 150 11.1111 150V55.5555H50V150Z" fill="#FA743E"/>
</svg>
