<svg width="200" height="200" viewBox="0 0 200 200" fill="none" xmlns="http://www.w3.org/2000/svg">
<g clip-path="url(#clip0_279_109)">
<path d="M155.556 161.111C138.894 160.772 61.1056 160.772 44.4445 161.111C8.82227 161.839 16.6667 200 16.6667 200H183.333C183.333 200 191.178 161.839 155.556 161.111Z" fill="#292F33"/>
<path d="M104.444 193.333L111.111 183.333L100 177.778L88.8889 183.333L95.5555 193.333L55.5555 183.333L66.6667 200H133.333L144.444 183.333L104.444 193.333Z" fill="#99AAB5"/>
<path d="M81 166.535C88.398 172.464 95.9574 171.991 99.5303 171.991C103.103 171.991 110.602 172.464 118 166.535V135H81V166.535Z" fill="#FFDC5D"/>
<path d="M81 143C86.1532 149.294 92.5467 151 99.495 151C106.448 151 112.842 149.3 118 143V127H81V143Z" fill="#F9CA55"/>
<path d="M175.817 158.333C171.439 151.117 148.639 150 132.428 150C127.022 150 116.211 160.283 100 160.283C83.7889 160.283 72.9778 150 67.5722 150C51.3556 150 28.5611 151.117 24.1833 158.333C16.0889 171.667 34.9889 177.778 45.7944 177.778C56.6056 177.778 77.15 172.222 100 172.222C122.85 172.222 143.394 177.778 154.206 177.778C165.011 177.778 183.911 171.667 175.817 158.333Z" fill="#BE1931"/>
<path d="M52.1388 145.711C54.15 145.389 59.7388 153.617 59.6055 155.233C59.4722 156.85 47.4055 157.889 46.6555 156.611C45.9 155.333 50.1277 146.033 52.1388 145.711ZM26.9277 164.061C28.1166 165.906 45.8833 163.628 45.9833 161.228C46.0833 158.833 36.6555 147.506 33.7055 148.106C30.7611 148.711 25.7444 162.217 26.9277 164.061ZM153.294 156.611C152.544 157.889 140.478 156.85 140.344 155.233C140.211 153.617 145.8 145.389 147.811 145.711C149.817 146.033 154.05 155.333 153.294 156.611ZM166.239 148.111C163.289 147.511 153.861 158.833 153.961 161.233C154.061 163.628 171.833 165.911 173.017 164.067C174.205 162.217 169.183 148.711 166.239 148.111Z" fill="#99AAB5"/>
</g>
<defs>
<clipPath id="clip0_279_109">
<rect width="200" height="200" fill="white"/>
</clipPath>
</defs>
</svg>
