<svg width="200" height="200" viewBox="0 0 200 200" fill="none" xmlns="http://www.w3.org/2000/svg">
<path d="M200 200V188.889C200 170.478 185.078 155.556 166.667 155.556H77.7778C59.3722 155.556 44.4445 170.478 44.4445 188.889V200H200Z" fill="#77B255"/>
<path d="M122.222 188.889C126.483 188.889 150 172.222 150 155.556H94.4445C94.4445 172.222 117.961 188.889 122.222 188.889Z" fill="#3E721D"/>
<path d="M98 155.767C98 171.578 146.444 172.222 146.444 155.767V134.939H98V155.767Z" fill="#FFDC5D"/>
<path d="M97.9556 144.294C104.711 151.928 113.089 153.994 122.2 153.994C131.306 153.994 139.683 151.928 146.444 144.294V124.9H97.9556V144.294Z" fill="#F9CA55"/>
<path d="M72.2222 155.556H88.8888V200H72.2222V155.556ZM155.555 155.556H172.222V200H155.555V155.556Z" fill="#3B88C3"/>
<path d="M72.9166 194.444H172.222V200H72.9166V194.444Z" fill="#3B88C3"/>
<path d="M38.8889 176.389C38.8889 172.556 35.7778 169.444 31.9444 169.444C28.1111 169.444 25 172.556 25 176.389V200H38.8889V176.389Z" fill="#C1694F"/>
<path d="M55.5722 126.389C55.5722 139.444 44.9944 150.017 31.9444 150.017C18.8944 150.017 8.31667 139.444 8.31667 126.389C8.31667 125.911 0 125.922 0 126.389C0 144.033 14.3056 158.333 31.9444 158.333C49.5833 158.333 63.8889 144.033 63.8889 126.389C63.8889 125.922 55.5722 125.911 55.5722 126.389Z" fill="#66757F"/>
<path d="M8.33333 126.389C8.33333 128.689 6.46667 130.556 4.16667 130.556C1.86667 130.556 0 128.689 0 126.389V79.1667C0 76.8667 1.86667 75 4.16667 75C6.46667 75 8.33333 76.8667 8.33333 79.1667V126.389ZM63.8889 126.389C63.8889 128.689 62.0222 130.556 59.7222 130.556C57.4222 130.556 55.5556 128.689 55.5556 126.389V79.1667C55.5556 76.8667 57.4222 75 59.7222 75C62.0222 75 63.8889 76.8667 63.8889 79.1667V126.389ZM36.1111 172.222C36.1111 174.522 34.2444 176.389 31.9444 176.389C29.6444 176.389 27.7778 174.522 27.7778 172.222V79.1667C27.7778 76.8667 29.6444 75 31.9444 75C34.2444 75 36.1111 76.8667 36.1111 79.1667V172.222Z" fill="#66757F"/>
</svg>
