<svg width="200" height="200" viewBox="0 0 200 200" fill="none" xmlns="http://www.w3.org/2000/svg">
<g clip-path="url(#clip0_280_457)">
<path d="M200 27.7778V177.778C200 177.778 200 200 177.778 200H22.2222C0 200 0 177.778 0 177.778V150C0 150 138.889 138.889 200 27.7778Z" fill="#4289C1"/>
<path d="M176.911 129.128C176.911 129.128 191.161 120.044 189.456 116.417C187.739 112.783 124.022 121.917 92.0778 132.828C44.15 149.2 19.0556 174.617 22.4889 181.872C25.9167 189.128 64.7222 192.722 112.644 176.356C144.6 165.444 198.022 134.556 196.311 130.928C194.594 127.3 176.911 129.128 176.911 129.128Z" fill="#1C6399"/>
<path d="M174.856 126.372C174.856 126.372 189.578 117.378 187.906 113.644C186.222 109.906 121.006 117.989 88.1889 128.506C38.9444 144.289 12.8389 169.75 16.2 177.222C19.5611 184.694 59.1055 189.117 108.339 173.339C141.172 162.822 196.3 132.322 194.628 128.589C192.944 124.85 174.856 126.372 174.856 126.372Z" fill="#A6D388"/>
<path d="M174.856 126.372C174.856 126.372 188.783 117.85 187.956 113.956L20.8667 166.544C16.8555 171.194 15.2055 175.006 16.2 177.222C17.0667 179.156 20.3944 180.872 25.6444 182.1L194.506 128.956C194.522 128.844 194.667 128.672 194.628 128.589C192.944 124.85 174.856 126.372 174.856 126.372Z" fill="#F5F8FA"/>
<path d="M85.5 35C79 35.0044 80.5 35 80.5 35C75.0389 35.0167 80.5 35 74.5 35C74.5 35 75.8778 38.3889 75.9223 42.5222V42.5611C75.9278 43.6111 75.7778 44.8556 75.2334 46.5056C72.5167 54.6833 83.4389 60.1111 86.15 51.9222C87.2223 48.6778 86.9445 45.7889 86.5445 43.1111L86.5056 42.8722C86.15 39 86.15 39.5 85.5 35Z" fill="#FFDC5D"/>
<path d="M90.3389 157.956C88.2389 157.4 84.9444 154.733 83.9277 152.889C80.2555 146.239 84.8777 133.578 84.9833 126.35C85.0111 124.294 72.6888 115.383 69.0944 120.706C65.5 126.028 74.6 146.922 73.6055 155.111C73.3833 156.922 72.3444 159.633 72.9055 160.75C73.4666 161.867 77.4444 164.861 80.1333 165.411C87.0055 166.828 93.9722 163.511 94.8222 162.539C96.0555 161.128 92.4444 158.511 90.3389 157.956ZM132.061 140.056C130.206 139.694 127.339 137.45 126.417 135.872C124.806 133.106 127.289 115.639 127.122 108.394C125.178 107.094 113.828 113.539 113.828 113.539C111.4 123.622 118.367 129.444 117.489 137.217C117.311 138.794 116.544 142.572 117.094 143.506C117.644 144.444 121.272 146.806 123.639 147.128C129.683 147.95 135.533 144.667 136.217 143.772C137.206 142.472 133.917 140.417 132.061 140.056ZM154.194 67.9611C150.922 66.6556 146.706 66.4278 142.506 65.8167C135.85 64.8445 126.661 61.5667 122.9 59.7833C118.317 57.0333 108.583 50.5556 106.167 48.9611C103.75 47.3667 100.517 45.1556 96.5277 44.4445H95.6611C97.8 47.4556 99.0444 50.8833 99.8166 60.2278C99.8166 60.2278 118.256 69.4556 119.789 69.9667C126.039 72.05 137.467 72 143.922 72.8111C147.267 73.2333 149.594 72.7333 152.25 72.55C156.261 72.2778 159.917 72.2445 160.15 70.4889C160.428 68.45 156.844 69.0167 154.194 67.9611ZM61.1055 46.6778C51.85 52.1945 42.3944 63.6167 38.9944 68.4222C36.9944 69.9945 35.1833 71.8333 34.0111 72.5111C31.85 73.75 22.0444 80.4667 15.4888 83.65C13.5222 84.5722 7.38884 86.0833 4.42218 87.9889C2.02218 89.5333 -0.272267 89.4445 0.383288 91.3889C0.949955 93.0667 3.20551 92.5889 7.19996 92.1222C11.1944 91.6556 17.9166 90.5167 20.1166 88.9778C24.5611 86.0278 38.7111 82.5556 45.6555 77.6945C46.8833 76.8333 58.9055 65.6778 61.1055 62.4667C64.1222 54.05 62.6722 48.2667 61.1055 46.6778Z" fill="#FFDC5D"/>
<path d="M128.011 107.872C126.739 102.422 119.678 96.5 113.139 91.4945C106.6 86.4889 99.9444 83.5056 99.9444 83.5056C100.133 80.8 98.9889 76.3111 99.45 72.3056C100 67.5667 100.894 62.9222 100.894 62.9222C100.894 62.9222 109.967 66.9611 119.794 69.9611C121.472 67.9445 123.228 62.2111 122.9 59.7778C117.883 55.1056 109.106 50.0333 106.683 48.4333C104.261 46.8333 102.033 44.8945 96.5278 44.4445H87.4222C87.4222 44.4445 86.8722 49.2 83.2611 49.5445C79.65 49.8889 75.3333 44.4445 75.3333 44.4445L65.6222 45.3722C53.4111 47.25 43.4 62.1722 38.9889 68.4333C36.9889 70.0056 36.9889 70.0056 36.0667 70.9167C41.2167 74.2611 47.8889 76.6667 47.8889 76.6667C54.4889 70.9778 59.4333 68.1389 61.6333 64.9278C61.6333 64.9278 65.2944 72.4611 66.7 78.1945C68.1055 83.9278 67.8222 94.4445 67.8222 94.4445C67.8222 94.4445 67.7944 103.744 68.1444 105.222C68.6333 107.289 70.1055 113.272 70.1055 115.689C70.1055 115.689 66.7389 123.106 68.4278 129.489C70.6667 137.983 73.3444 148.756 73.5778 151.756C81.4222 151.756 82.8389 149.761 82.8389 149.761C82.8389 149.761 82.95 145.1 83.5833 139.883C83.9666 136.706 85.0778 131.306 85.0778 126.589C85.0778 121.872 86.2833 118.678 86.9833 116.722C87.6833 114.767 90.3222 108.656 90.7444 105.322C90.8555 104.422 90.7889 103.244 90.6222 101.989C93.5889 103.611 98.9166 106.389 102.2 107.289C106.917 108.578 110.5 110.594 111.744 111.678C112.989 112.761 113.833 113.539 113.833 113.539C113.833 113.539 112.717 116.633 113.05 121.961C113.356 126.833 116.9 131.172 117.494 136.978C122.456 136.239 125.994 134.206 125.994 134.206C125.994 134.206 126.433 126.783 126.539 123.561C126.667 119.639 128.828 111.378 128.011 107.872Z" fill="#292F33"/>
<path d="M39.9555 73.1556C44.3722 66.9 56.9944 49.05 70.5555 47.8778C70.5555 47.8778 76.7667 55.9833 84.8055 54.7389C92.8444 53.4945 93.0389 47.4167 93.0389 47.4167L102.633 48.2445C105.378 48.4667 107.306 49.0667 108.856 49.8056C107.95 49.2445 107.167 48.7556 106.683 48.4389C104.267 46.8445 102.033 44.8945 96.5278 44.4445H87.4222C87.4222 44.4445 85.7055 48.3278 83.25 48.7C80.7944 49.0722 75.3333 44.4445 75.3333 44.4445L65.6222 45.3722C50.7444 47.7111 40.2555 67.2667 36.0667 70.9167C36.6555 71.4945 38.6 72.4889 39.9555 73.1556Z" fill="#67757F"/>
<path d="M76.4555 151.65C74.2222 144.094 69.3277 126.667 73.9555 118.006C74.3722 115.961 72.6777 110.467 72.1889 108.4C71.8389 106.922 71.6166 94.8556 71.7889 93.3056C93.2277 92.6222 99.9444 83.5111 99.9444 83.5111C99.9444 83.5111 88.0611 90.1278 70.2 86.6778C71.1666 77.1278 63.9 62.5833 63.9 62.5833C62.7166 62.4445 62.4277 63.5167 61.6333 64.9389C61.6333 64.9389 65.9333 75.3 66.7 80.0389C67.4611 84.7722 67.8222 94.4445 67.8222 94.4445C67.8222 94.4445 67.7944 103.744 68.1444 105.222C68.6333 107.289 70.1055 113.272 70.1055 115.689C64.8166 125.594 69.5555 132.244 73.5777 151.756C74.5166 151.8 75.4444 151.8 76.4555 151.65ZM117.122 126.306C116.789 120.983 117.256 117.2 116.722 116.067C116.189 114.933 113.833 113.539 113.833 113.539C113.833 113.539 112.717 116.633 113.05 121.961C113.356 126.833 116.883 131.594 117.494 136.978C119.211 136.722 119.75 136.572 121.417 136.083C118.011 134.633 117.333 129.672 117.122 126.306Z" fill="#67757F"/>
</g>
<defs>
<clipPath id="clip0_280_457">
<rect width="200" height="200" fill="white"/>
</clipPath>
</defs>
</svg>
