<svg width="200" height="200" viewBox="0 0 200 200" fill="none" xmlns="http://www.w3.org/2000/svg">
<path d="M83.8167 138.089L74.2167 118.128C71.8389 119.422 61.6778 125.089 55.6055 130.556C52.0778 133.733 52.5555 136.122 53.6055 141.356L53.7 141.828C54.75 147.117 65.95 182.667 67.4222 187.311L74.8944 185.456C74.9555 182.978 74.6722 169.883 73.3833 161.733C72.9778 159.161 72.5666 156.039 72.1944 153.278C71.8 150.261 70.7333 147.239 70.4778 145.928C70.1222 144.072 71.2 143.189 72.8833 142.372C77.6722 140.056 82.4111 138.706 83.8167 138.089ZM132.667 148.672C129.633 148.3 126.517 148.228 125.189 148.144C123.306 148.028 121.983 146.739 121.617 144.9C120.572 139.683 120.367 135.083 120.128 133.572L98.3944 137.833C99.05 140.461 101.972 151.722 105.739 158.978C107.922 163.183 110.356 163.322 115.683 163.633L116.167 163.661C121.583 163.978 158.772 162.083 163.639 161.833L163.722 154.139C161.333 153.45 149.333 150.45 141.117 149.65C138.539 149.4 135.422 149.011 132.667 148.672Z" fill="#FFDC5D"/>
<path d="M154.472 164.9L153.483 163.078C153.361 162.783 153.506 162.45 153.806 162.344C154.756 162.017 156.683 161.139 157.356 160.783C156.772 162.117 156.106 164.25 155.361 164.894C155.072 165.133 154.617 165.244 154.472 164.9Z" fill="#8899A6"/>
<path d="M168.878 150.767C168.106 150.15 166.339 149.844 165.228 149.739C164.461 149.667 162.461 149.606 160.789 149.694C160.033 149.739 159.172 149.828 158.817 149.933C157.717 150.25 157.233 150.717 156.972 151.033C156.656 151.417 156.628 151.833 156.7 152.039C156.989 152.889 158.389 154.361 159 155.761C159.206 156.228 159.322 156.683 159.278 157.111C159.128 158.644 157.172 160.878 155.706 162.533C154.828 163.528 154.122 164.311 154.094 164.617C154.061 164.944 154.156 165.222 154.3 165.494V165.506C154.7 166.239 155.572 167 156.172 169C156.556 170.289 158.367 176.172 158.367 176.172C158.8 177.672 159.378 178.039 159.622 178.844C160.128 180.494 161.017 184.922 161.461 186.322C161.906 187.722 162.967 188.322 163.783 188.439C164.6 188.556 165.072 188.361 165.072 188.361C165.072 188.361 166.989 187.5 168.261 180.311C169.178 175.117 168.367 174.317 167.678 166.517C166.989 158.717 168.878 150.767 168.878 150.767Z" fill="#DD551F"/>
<path d="M167.272 162.367C165.967 161.833 162.989 159.867 162.15 157.75C161.394 155.839 160.878 150.678 160.783 149.7C162.383 149.556 164.844 149.661 165.633 149.739C166.678 149.839 167.878 149.922 168.6 150.533L168.878 150.772C168.878 150.772 167.606 158.956 167.272 162.367Z" fill="#FA743E"/>
<path d="M155.822 168.167C155.417 168.167 155.033 167.939 154.85 167.55C154.594 167.011 154.822 166.367 155.361 166.117L157.261 165.217C157.8 164.961 158.439 165.189 158.7 165.728C158.956 166.267 158.728 166.911 158.189 167.161L156.289 168.061C156.133 168.133 155.978 168.167 155.822 168.167ZM157.033 171.639C156.578 171.639 156.156 171.344 156.006 170.889C155.828 170.322 156.139 169.717 156.706 169.533L158.817 168.861C159.356 168.678 159.983 168.989 160.167 169.561C160.344 170.128 160.033 170.733 159.467 170.917L157.356 171.589C157.256 171.628 157.144 171.639 157.033 171.639ZM158.056 175.178C157.55 175.178 157.106 174.828 157 174.317C156.883 173.733 157.256 173.167 157.844 173.044L159.822 172.644C160.439 172.517 160.972 172.906 161.094 173.489C161.211 174.072 160.839 174.639 160.25 174.761L158.272 175.161L158.056 175.178ZM173.478 152.233C173.444 152.078 173.328 151.472 172.917 150.733C172.778 150.483 172.461 150.406 172.139 150.367C171.739 150.317 168.806 149.894 168.75 150.489C168.75 150.489 168.733 151.372 168.322 151.978C167.906 152.583 167.617 154.072 167.511 155.183C167.406 156.289 166.928 160.467 167.039 163.394C167.15 166.328 168.056 171.628 168.094 173.394C168.139 175.161 168.094 177.917 167.717 179.95C167.339 181.983 166.939 183.794 166.628 184.911C166.228 186.35 165.694 187.528 165.078 188.35C165.078 188.35 167.394 188.194 169.167 184.767C170.567 182.061 171.35 179.461 171.644 176.928C171.667 176.733 172.272 169.972 172.561 166.594C172.772 164.122 173.128 160.178 173.128 160.178C173.578 155.506 173.683 153.128 173.478 152.233Z" fill="#CCD6DD"/>
<path d="M62.2834 179.35L63.7778 177.911C64.0278 177.711 64.3889 177.761 64.5723 178.028C65.1389 178.856 66.5056 180.478 67.0223 181.033C65.5778 180.828 63.35 180.75 62.5278 180.206C62.2167 179.994 61.9945 179.583 62.2834 179.35Z" fill="#8899A6"/>
<path d="M79.75 189.467C80.1389 188.561 79.9611 186.772 79.7667 185.672C79.6333 184.917 79.1611 182.972 78.6222 181.383C78.3833 180.667 78.0611 179.861 77.8667 179.55C77.2667 178.572 76.6889 178.233 76.3111 178.067C75.8555 177.867 75.45 177.944 75.2667 178.072C74.5222 178.578 73.4778 180.322 72.2944 181.283C71.9 181.606 71.4944 181.839 71.0722 181.911C69.5555 182.178 66.8778 180.889 64.8944 179.917C63.7055 179.333 62.7555 178.867 62.4611 178.917C62.1333 178.972 61.8944 179.133 61.6667 179.35L61.6555 179.356H61.6611C61.0611 179.933 60.5555 180.983 58.7944 182.089C57.65 182.8 52.4611 186.111 52.4611 186.111C51.1278 186.928 50.9333 187.583 50.2222 188.033C48.7667 188.961 44.7389 191 43.5055 191.8C42.2722 192.6 41.9778 193.783 42.0889 194.606C42.2 195.428 42.5111 195.828 42.5111 195.828C42.5111 195.828 43.8555 197.444 51.1167 196.75C56.3667 196.25 56.9222 195.256 64.2555 192.511C71.5889 189.772 79.75 189.467 79.75 189.467Z" fill="#DD551F"/>
<path d="M68.1444 191.011C68.3111 189.611 69.4111 186.217 71.2277 184.844C72.8666 183.611 77.7055 181.733 78.6222 181.378C79.1889 182.883 79.7444 185.283 79.8777 186.061C80.0611 187.094 80.3 188.272 79.9 189.133L79.7444 189.461C79.75 189.467 71.5166 190.422 68.1444 191.011Z" fill="#FA743E"/>
<path d="M61.9111 183.906C61.6111 183.906 61.3056 183.778 61.0944 183.533L59.7222 181.939C59.3333 181.489 59.3833 180.806 59.8333 180.417C60.2833 180.028 60.9722 180.078 61.3556 180.528L62.7278 182.122C63.1167 182.572 63.0667 183.256 62.6167 183.644C62.4056 183.822 62.1556 183.906 61.9111 183.906ZM58.7167 186.267C58.3667 186.267 58.0222 186.094 57.8111 185.778L56.6 183.922C56.2778 183.422 56.4167 182.756 56.9167 182.428C57.4167 182.106 58.0778 182.239 58.4111 182.739L59.6222 184.594C59.9444 185.094 59.8056 185.761 59.3056 186.089C59.1222 186.211 58.9222 186.267 58.7167 186.267ZM55.2889 188.139C54.9 188.139 54.5222 187.922 54.3278 187.55L53.4111 185.75C53.1444 185.222 53.3556 184.572 53.8833 184.3C54.4111 184.028 55.0556 184.239 55.3333 184.772L56.25 186.572C56.5167 187.106 56.3056 187.75 55.7778 188.022C55.6222 188.106 55.45 188.139 55.2889 188.139ZM79.5611 194.294C79.7056 194.217 80.2556 193.95 80.8611 193.35C81.0611 193.15 81.0556 192.822 81.0056 192.5C80.95 192.1 80.5722 189.161 79.9833 189.267C79.9833 189.267 79.1278 189.489 78.4333 189.25C77.7389 189.011 76.2222 189.133 75.1278 189.322C74.0333 189.517 69.8833 190.167 67.0889 191.056C64.2944 191.944 59.4278 194.228 57.7333 194.744C56.0389 195.256 53.3778 195.95 51.3111 196.128C49.25 196.306 47.3944 196.406 46.2389 196.4C44.7444 196.4 43.4722 196.2 42.5111 195.828C42.5111 195.828 43.2778 198.017 47.0556 198.811C50.0389 199.439 52.75 199.5 55.2722 199.106C55.4611 199.078 62.1444 197.856 65.4722 197.233C67.9111 196.778 71.8056 196.067 71.8056 196.067C76.4333 195.256 78.75 194.728 79.5611 194.294Z" fill="#CCD6DD"/>
<path d="M70.3 118.022C74.4722 115.811 88.2722 108.839 97.7833 108C98.65 107.922 99.4389 108.489 99.7389 109.306L107.117 129.5C107.494 130.533 106.967 131.672 105.917 132.006C101.578 133.394 90.6944 137.089 82.4722 141.556C81.6 142.028 80.5444 141.783 79.9833 140.967C77.45 137.278 70.8611 127.206 69.3 120.078C69.1222 119.244 69.55 118.422 70.3 118.022Z" fill="#C63900"/>
<path d="M97.3 141.6C96.2111 137.006 92.9389 121.894 94.5167 112.478C94.6612 111.617 95.4056 111 96.2723 110.917L117.678 108.861C118.778 108.756 119.739 109.556 119.8 110.656C120.056 115.2 120.889 126.667 123.139 135.75C123.378 136.711 122.872 137.672 121.939 138.011C117.728 139.533 106.322 143.372 99.0334 143.089C98.1834 143.05 97.5 142.433 97.3 141.6Z" fill="#DD551F"/>
<path d="M83.4166 58.9889C82.9444 62.3889 83.6944 67.5778 91.5611 68.9167C99.4278 70.2556 107.183 69.2445 110.511 68.3167C113.839 67.3889 113.672 73.2278 114.661 78.7167C115.656 84.2278 116.333 88.5389 116.061 89.6778C115.606 91.6056 111.567 95.2945 113.189 98.6333C114.811 101.972 117.394 105.183 120.589 103.978C123.783 102.772 126.422 101.339 127.272 99.55C128.122 97.7611 124.356 92.3556 124.206 90.8056C124.056 89.2611 125.467 69.2056 125.283 66.9278C125.061 64.1445 124.85 60.3333 120.306 58.7611C115.761 57.1833 97.5611 53.65 93 52.7667C87.7666 51.7389 84.0444 54.4833 83.4166 58.9889Z" fill="#FFDC5D"/>
<path d="M88.5 34.5C83.5 38 84.5 37 79.5 41C79.5 41 79.9445 42.4667 81.4445 47.0444L81.4556 47.0889C81.8334 48.2555 82.1 49.6944 82.0722 51.7222C81.9222 61.7667 95.9778 63.9722 96.1167 53.9111C96.1722 49.9278 94.8445 46.8111 93.4611 43.9778L93.3389 43.7278C91.2722 39.5055 91 39.5 88.5 34.5Z" fill="#FFDC5D"/>
<path d="M108.105 55.8722C103.828 46.7389 96.8999 41.65 89.3055 45C79.2555 49.4389 75.7333 60.3111 76.3499 70.8444C77.0277 82.3167 84.9944 92.6445 84.9666 113.072C84.9666 113.072 102.239 115.567 120.055 115.072C120.055 115.072 118.4 77.8556 108.105 55.8722Z" fill="#FA743E"/>
<path d="M94.1112 57.0444C90.9056 55.1278 85.9889 53.8667 81.3112 61.1833C76.6334 68.5 74.7167 76.4944 73.2723 80.2555C71.9223 83.7667 67.0112 81.3444 61.0834 80.0055C55.1389 78.6611 47.5889 76.3722 46.5612 75.6167C44.8223 74.3444 45.4556 70.7611 41.4223 70.9667C37.3889 71.1722 35.4056 70.7055 35.2556 74.4222C35.1112 78.1389 35.0612 81.8611 36.4889 83.4722C37.9223 85.0833 42.75 83.6944 44.9112 84.4555C46.5056 85.0167 66.0389 94.8778 68.4 95.6611C71.2834 96.6167 75.1945 98.0222 78.7001 94.1333C82.2056 90.2444 93.4667 73.5 96.2945 69.3C99.5389 64.4833 98.3667 59.5889 94.1112 57.0444Z" fill="#FFDC5D"/>
</svg>
