<svg width="200" height="200" viewBox="0 0 200 200" fill="none" xmlns="http://www.w3.org/2000/svg">
<path d="M150 116.667H50.0001C37.7278 116.667 27.7778 126.617 27.7778 138.889V200H172.222V138.889C172.222 126.617 162.272 116.667 150 116.667Z" fill="#FA743E"/>
<path d="M55.5555 150H61.1111V200H55.5555V150Z" fill="#DD551F"/>
<path d="M26.1222 147.194L24.55 146.867H21.7111C21.7111 146.544 21.8389 146.244 21.9055 145.928C19.9722 144.733 18.8722 142.456 19.3611 140.106C19.9833 137.094 22.9333 135.161 25.95 135.778L37.5667 138.183H46.8778C51.6722 138.183 55.5555 142.072 55.5555 146.872V155.556H34.7389C34.7389 155.556 26.5111 151.839 26.1222 147.194Z" fill="#FCAB40"/>
<path d="M0 142.528C0 140.128 1.94444 138.183 4.33889 138.183L30.3944 142.528H51.2111C53.6111 142.528 55.55 144.478 55.55 146.867V155.556H27.7778L4.33889 146.872C4.33889 146.872 0 144.928 0 142.528Z" fill="#FFDC5D"/>
<path d="M22.2222 200H55.5555V155.556H27.7777L22.2222 200Z" fill="#FA743E"/>
<path d="M138.889 150H144.444V200H138.889V150Z" fill="#DD551F"/>
<path d="M173.878 147.194L175.45 146.867H178.289C178.289 146.544 178.161 146.244 178.094 145.928C180.028 144.733 181.128 142.456 180.639 140.106C180.017 137.094 177.072 135.161 174.056 135.778L162.439 138.183H153.128C148.333 138.183 144.45 142.072 144.45 146.872V155.556H165.267C165.261 155.556 173.489 151.839 173.878 147.194Z" fill="#FCAB40"/>
<path d="M200 142.528C200 140.128 198.056 138.183 195.661 138.183L169.6 142.528H148.783C146.383 142.528 144.444 144.478 144.444 146.867V155.556H172.222L195.661 146.872C195.661 146.872 200 144.928 200 142.528Z" fill="#FFDC5D"/>
<path d="M177.778 200H144.444V155.556H172.222L177.778 200Z" fill="#FA743E"/>
<path d="M85 94V124C85 132.285 91.4912 139 99.5 139C107.509 139 114 132.285 114 124V94H85Z" fill="#FFDC5D"/>
<path d="M85 105.488C89.4071 111.493 93.5351 113 99.4833 113C105.423 113 109.589 111.488 114 105.488V88H85.0042V105.488H85Z" fill="#F9CA55"/>
</svg>
