<svg width="200" height="200" viewBox="0 0 200 200" fill="none" xmlns="http://www.w3.org/2000/svg">
<g clip-path="url(#clip0_279_173)">
<path d="M195 200V186.75C195 164.795 177.445 147 155.786 147H51.2143C29.5615 147 12 164.795 12 186.75V200H195Z" fill="#CCD6DD"/>
<path d="M79 149.608C79 164.493 127 165.099 127 149.608V130H79V149.608Z" fill="#FFDC5D"/>
<path d="M79.0055 138.331C85.6929 145.94 93.9863 148 103.006 148C112.019 148 120.313 145.935 127 138.331V119H79L79.0055 138.331Z" fill="#F9CA55"/>
<path d="M44 147H63.6667V200H44V147ZM142.333 147H162V200H142.333V147Z" fill="#226699"/>
<path d="M44 167H162V200H44V167Z" fill="#226699"/>
<path d="M140.5 193C148.508 193 155 189.418 155 185C155 180.582 148.508 177 140.5 177C132.492 177 126 180.582 126 185C126 189.418 132.492 193 140.5 193Z" fill="#F5F8FA"/>
</g>
<defs>
<clipPath id="clip0_279_173">
<rect width="200" height="200" fill="white"/>
</clipPath>
</defs>
</svg>
