<svg width="200" height="200" viewBox="0 0 200 200" fill="none" xmlns="http://www.w3.org/2000/svg">
<path d="M75.5555 144.444H164.444V200H75.5555V144.444Z" fill="#FFDC5D"/>
<path d="M164.444 144.444V200H197.778V177.778C197.778 159.367 182.861 144.444 164.444 144.444ZM75.5555 144.444C57.1499 144.444 42.2222 159.367 42.2222 177.778V200H75.5555V144.444Z" fill="#292F33"/>
<path d="M121.017 200H171.022L199.261 161.528C199.261 161.528 180.745 140.811 144.978 134.028C144.978 141.272 150.467 152.567 150.467 152.567L121.017 191.489V200Z" fill="#FF7862"/>
<path d="M121.017 200H71.0111L42.7722 161.528C42.7722 161.528 61.2889 140.811 97.0556 134.028C97.0556 141.272 91.5667 152.567 91.5667 152.567L121.017 191.489V200Z" fill="#FF7862"/>
<path d="M186.3 150.522C186.3 150.522 172.672 141.272 160.433 136.928C143.444 130.894 147.239 147.7 147.239 147.7C147.239 147.7 126.017 183.417 121.017 191.494C121.017 191.489 160.094 160.744 186.3 150.522ZM55.7333 150.522C55.7333 150.522 69.3611 141.272 81.5999 136.928C98.5888 130.894 94.7944 147.7 94.7944 147.7C94.7944 147.7 116.017 183.417 121.017 191.494C121.017 191.489 81.9333 160.744 55.7333 150.522Z" fill="#DE2F33"/>
<path d="M121.022 192.017C121.022 192.017 161.761 150.467 188.383 145.606C165.7 126.622 132.133 128.706 132.133 128.706C132.133 135.506 143.178 136.306 143.178 144.717C143.178 158.522 126.011 181.956 121.017 189.533L121.022 192.017Z" fill="#FF5540"/>
<path d="M121.011 192.017C121.011 192.017 80.2722 150.467 53.65 145.606C76.3334 126.622 109.9 128.706 109.9 128.706C109.9 135.506 98.8556 136.306 98.8556 144.717C98.8556 158.522 116.022 181.956 121.017 189.533L121.011 192.017Z" fill="#FF5540"/>
<path d="M98.7889 144.444C98.7889 144.444 101.567 163.889 121.011 163.889C140.456 163.889 143.233 144.444 143.233 144.444V122.222H98.7889V144.444Z" fill="#FFDC5D"/>
<path d="M98.7889 133.333C105.544 140.967 111.872 142.883 120.989 142.883C130.094 142.883 136.472 140.961 143.233 133.333V124.306H98.7889V133.333Z" fill="#F9CA55"/>
<path d="M57.5722 111.111C48.1556 111.111 40.5222 118.744 40.5222 128.167C40.5222 130.822 41.1833 133.306 42.2667 135.544L40.9778 134.256C39.05 132.328 36.0333 132.439 34.2444 134.506L3.75556 169.072C0.733336 172.561 -0.677775 178.2 3.81667 182.694C8.31111 187.189 13.8556 185.883 17.45 182.767L22.4056 178.239V200H32.3167V169.189L51.4444 151.711C53.5111 149.917 53.6278 146.906 51.6944 144.983L50.1889 143.478C52.4333 144.567 54.9167 145.228 57.5778 145.228C67 145.228 74.6333 137.594 74.6333 128.172C74.6278 118.744 66.9889 111.111 57.5722 111.111Z" fill="#424143"/>
<path d="M66.7278 144.639C65.8944 145.472 64.5444 145.472 63.7111 144.639L41.1 122.028C40.2666 121.194 40.2666 119.85 41.1 119.017L44.1166 116C44.95 115.167 46.3 115.167 47.1333 116L69.7444 138.611C70.5778 139.444 70.5778 140.794 69.7444 141.628L66.7278 144.639Z" fill="#59595C"/>
</svg>
